<svg xmlns="http://www.w3.org/2000/svg" id="Layer_1" viewBox="0 0 2560 1440"><defs><clipPath id="clippath"><path d="M1109.78 263.54H2560v1176.21H1109.78z" style="fill:none"/></clipPath><style>.st1{fill:#2b2b2b}</style></defs><g style="clip-path:url(#clippath)"><path d="M2871.79 1746.84c-1.96-8.47-3.98-17.23-5.48-27.42-1.38-9.37-2.57-22.3-3.83-35.98-3.64-39.56-8.17-88.79-21.92-111.83-1.67-2.8-4.14-4.15-5.77-5.05-1.45-.79-1.95-1.11-2.34-1.82-2.54-4.52-3.83-10.45-5.19-16.73-2.16-9.94-4.62-21.21-12.68-31.29-4.96-6.21-23.71-21.81-32.89-24.55-2.86-.85-17.71-5.1-29.46-5.1-8.48 0-14.32 2.2-17.87 6.73-.06.07-.11.15-.17.22-8.76-1.89-17.48-4.62-26.58-7.48-11.32-3.55-23.03-7.22-35.2-9.26-9.49-1.59-18.66-2.37-28.02-2.37-30.14 0-55.41 8.11-82.16 16.69-13.63 4.37-27.72 8.89-42.79 12.37-16.73 3.86-34.26 6.19-51.21 8.43-12.82 1.7-25.94 3.44-39.01 5.86 1.47-4.04 2.36-6.98 2.54-9.43 1.41-19.85-19.38-46.01-46.69-78.15-7.74-9.1-14.42-16.97-18.18-22.46-16.47-24.08-31.53-54.44-46.09-83.81-10.82-21.82-22-44.38-33.8-64.43-17.97-30.56-38.38-59.39-58.13-87.27-16.06-22.68-32.67-46.13-47.3-69.7-5.72-9.22-25.58-52.26-31.7-70.78 48.4-3.05 86.59-20.4 110.9-50.52 30.89-38.27 44.83-74.39 12.48-126.27-2.7-4.33-6.92-9.36-11.38-14.68-4.05-4.82-9.52-11.34-11.04-14.46-.69-5.22 2.24-26.14 3.21-33.12.34-2.44.63-4.51.82-5.99 1.2-9.46 2.04-19.08 2.85-28.39.74-8.49 1.51-17.26 2.54-25.75 2.79-23.11 9.43-48.58 15.85-73.22 3.9-14.98 7.94-30.47 10.97-45 2.36-11.31 3.73-23.32 5.06-34.94 1.53-13.43 3.12-27.32 6.22-39.52 2.86-11.28 7.18-22.73 11.36-33.81 13.85-36.73 28.18-74.71-5.16-114.09-5.55-6.56-12.73-10.02-20.77-10.02-12.27 0-23.71 7.86-32.91 14.17l-.21.14c-.87.6-1.64 1.34-2.27 2.19-40.57 55.16-86.47 110.88-140.31 170.34-.21.12-.44.24-.67.36-1.56.85-3.91 2.13-5.95 4.39-1.95 2.16-3.77 4.82-5.69 7.65-1.82 2.67-5.04 7.39-7.09 9.06-4.19-1.73-14.08-7.35-19.67-10.53-5.83-3.31-10.86-6.18-14.06-7.65-3-1.38-6.51-2.4-10.24-3.49-2.95-.86-8.17-2.38-10.3-3.62-1.25-7.86 2.91-36.4 4.96-50.43 1.37-9.39 2.45-16.8 2.77-21.24.89-12.51.86-25.55.84-38.17-.03-15.6-.06-31.73 1.67-46.44.73-6.16 2.21-12.19 3.77-18.56 3.87-15.76 7.88-32.05-.15-49.91-7.43-16.54-16.73-34.18-33.08-34.18-10.03 0-19.94 6.33-34.21 21.85-14.98 16.29-30.42 45.61-45.35 73.96-7.74 14.69-15.04 28.57-21.38 38.76-4.18 6.72-8.43 13.59-12.73 20.56-33.9 54.85-72.33 117.03-113.96 162.03-1.41 1.53-3.1 2.95-4.89 4.45-3.64 3.06-8 6.72-11.37 12.52-10.52 2.21-21.65 2.31-33.35 2.41-11.82.1-24.04.21-36.1 2.62-3.87.77-7.63 2.34-11.27 3.85-3.77 1.57-7.67 3.19-11.38 3.79-6.62 1.06-13.32 1.65-19.81 2.22-22.53 1.98-45.84 4.03-66.6 25.77-28.3 29.65-45.39 66.78-48.12 104.55-1.85 25.65 8.05 53.99 26.48 75.8.27.32.56.62.86.89l20.04 18.22c-7.07 6.56-19.21 16.98-26.67 23.37-7.01 6.01-12.55 10.76-14.84 12.97-7.21 6.93-15.53 15.91-24.33 25.42-17.17 18.55-36.59 39.53-51.09 48.62-1.28.21-4.05.31-8.26.31h-3.11l-3.41-.02c-8.81 0-15.78.34-21.11 2.01-9.57 2.99-40.02 24.56-46.12 29.49-10.96 8.83-48.97 48.36-46.74 74.72 1.06 12.48 7.16 19.33 11.2 23.86.87.98 2.05 2.3 2.39 2.9.25 1.07.2 2.98.16 4.84-.08 3.01-.16 6.43.71 10.09 5.56 23.28 28.75 40.84 53.93 40.84 6.72 0 13.14-1.29 19.1-3.84 8.7-3.72 40.54-20.88 48.85-29.68 5.38-5.69 9.15-12.1 11.94-17.74 9.4-1.65 19.3-1.9 27.96-1.9 3.78 0 7.56.05 11.33.1 3.83.05 7.64.1 11.42.1 2.39 0 4.78-.02 7.14-.07 11.48-.26 23.33-.36 34.78-.45 24.45-.2 49.73-.4 74.07-2.19 7.52-.55 14.9-1.77 22.03-2.94 5.26-.87 10.35-1.71 15.36-2.27-1.82 2.07-3.74 4.11-5.71 6.19-3.69 3.9-7.51 7.94-11.04 12.64-28.48 37.9-51.63 81.17-74.02 123.01-15.64 29.24-31.82 59.47-49.56 87.34-9.63 15.13-21.2 30.27-32.39 44.92-11 14.4-22.38 29.29-31.93 44.19-7.74 12.08-12.87 25.34-17.83 38.15-1.86 4.79-3.65 9.42-5.54 13.92-9.34-2.85-19.12-4.29-29.18-4.29-19.12 0-39.13 4.97-61.16 15.18-25.56 11.85-72.91 53.49-89.1 73.36-4.57 5.61-11.98 16.76-10.21 28.4.96 6.31 4.46 11.63 10.13 15.4 3.6 2.39 7.49 3.87 11.61 4.41-.35.14-.69.29-1.03.44-12.97 5.89-24.28 19.38-35.2 32.43-4.87 5.81-9.46 11.3-13.61 15.32-3.31 3.2-8.84 7.66-14.71 12.39-12.66 10.2-25.76 20.75-31.37 29.83-2.75 4.44-3.84 8.79-4.73 12.27-.57 2.23-1.05 4.16-1.84 5.65-3.79 7.18-8.5 15.75-13.96 25.68-23.85 43.39-56.51 102.82-61.66 136.4-2.56 16.68 1.02 32.91 4.48 48.61 1.39 6.31 2.71 12.27 3.56 18.04 1.11 7.45 1.7 14.05 2.27 20.44 1.67 18.76 3.11 34.97 16.6 57.51 15.03 25.13 33.13 35.87 52.29 47.24 7.12 4.22 14.48 8.59 21.97 13.89 6.39 4.52 12.71 9.94 19.4 15.68 9.74 8.36 19.82 17.01 30.59 23.05 16.86 9.45 97.59 33.42 118.32 33.89.61.01 1.22.02 1.84.02 10.44 0 21.91-1.93 33-3.79 10.01-1.68 20.37-3.42 29-3.51h.43c4.12 0 8.2.59 12.52 1.22 4.65.67 9.46 1.37 14.64 1.37 2.22 0 4.32-.13 6.4-.39 12.53-1.56 31.52-13.59 56.97-30.42 10.09-6.67 19.63-12.97 25.75-16.14 7.02-3.62 14.72-6.1 22.87-8.72 12.09-3.89 25.21-8.12 36.34-16.81-.26 2.79-.56 5.62-.86 8.36-2.11 19.58-4.28 39.83 8.2 49.79 5.68 4.53 11.68 6.83 17.83 6.83 9.73 0 17.87-5.75 24.54-11.38 33.03-27.86 51.47-68.08 69.3-106.97 5.55-12.1 10.79-23.53 16.41-34.5 53.89-105.08 102.79-206.58 145.33-301.68 5.64-12.61 10.29-25.8 14.8-38.56 2.01-5.7 4.06-11.5 6.2-17.26 18.63 46.56 41.45 91.41 63.59 134.92l.85 1.66c1.97 3.87 3.92 9.67 5.81 15.28 2.18 6.48 4.24 12.61 6.7 17.06.76 1.38 2.65 4.08 6.32 5.51.13 2.92.41 5.93 1.24 8.54 2.18 6.87 5.71 14.14 9.12 21.17 2.8 5.76 5.69 11.71 7.53 16.89 6.35 17.88 11.72 37.06 16.92 55.61 9.86 35.21 20.06 71.61 37.93 104.07 3.79 6.88 9.06 13.73 14.15 20.36 3.97 5.16 7.72 10.04 10.57 14.63 1.18 1.91 3.37 5.54 6.22 10.26 44.9 74.53 48.06 75.43 53.29 76.91 1.92.55 3.86.82 5.79.82 15.25 0 23.43-16.44 26.12-21.85 18.69-37.57 19.91-66.69 21.33-100.41.45-10.8.92-21.97 2.01-34.06 1.76-19.57 4.32-40.26 6.8-60.27 4.16-33.56 8.45-68.27 9.5-101.12.09-2.95-.1-6.2-.41-9.52 11.5 8.49 23 17.18 32.03 25.7 7.67 7.25 15.27 14.77 22.62 22.04 8.08 7.99 16.43 16.26 24.96 24.24 9.29 8.7 18.49 17.65 27.38 26.3 23.19 22.57 45.1 43.9 69.91 62.57 56.55 42.56 113.65 61.54 185.15 61.54 11.7 0 24.21-.51 37.17-1.51 100.75-7.8 155.43-64.71 199.38-125.25.24-.14.51-.27.78-.42 2.73-1.49 7.3-3.97 10.23-9.4 6.96-12.92 20.47-89.18 21.42-104 1.63-25.47-2.23-42.17-6.32-59.85Zm-170.96 199.12c.09 2.36.17 4.59-.2 6.3-1.22 5.68-20.64 7.16-30.47 7.67 1.5-6.66 3.24-13.36 4.94-19.93 3.28-12.67 6.68-25.77 8.55-38.9 6.27-44.09 7.79-101.4 3.82-143 4.03-45.54-3.97-90.34-11.72-133.68-3.18-17.79-6.44-36.07-8.83-54.22l17.17 2.26c.5 15.29 5.35 30.11 10.06 44.51 2.7 8.25 5.25 16.05 6.82 23.46 11.06 52.51 14.2 101.02 9.61 148.31-2.05 21.1-2.68 42.53-3.29 63.25-.83 28.13-1.68 57.22-6.16 84.85-.53 3.27-.42 6.38-.32 9.12Zm-171.15-33.69c1.95-9.05 3.97-18.41 5.2-27.85 8.87-68.21 8.82-143.72 8.01-182.67-.81-38.58-1.71-81.89-17.52-123.43l15.2-2.68c.04 5.82 1.27 11.09 2.42 16 .81 3.48 1.58 6.77 1.9 10.09 5.26 54.83 8.38 109.49 10.97 160.38 3.69 72.49 4.89 132.71 3.72 188.21l-34.97-10.67c1.11-8.99 3.05-17.98 5.08-27.39Zm-127.3-313.18h.34c.71 0 1.44.02 2.16.05l9.11 43.43.33 39.37c-1.99-24.75-6.11-48.81-10.39-73.77-.52-3.01-1.03-6.03-1.55-9.07Zm12.39 136.97.51 62.36-7.37 65.16-12.19-10.79c5.18-15.69 9.14-32.23 12.07-50.35 3.11-19.3 5.72-44.4 6.98-66.38m-131.7-15.78c-2.83-36.36-9.1-72.7-18.23-105.89l15.23-.49c-.27 15.76 2.31 31.74 4.83 47.29 2.56 15.87 4.99 30.86 4.4 44.87-.42 10.12-3.62 27.87-6.84 42.83-.09-3.77.11-8.1.37-12.79.32-5.62.62-10.92.24-15.81Zm-845.61-156.11c-1.48.94-1.98.94-3.86.95-1.97.01-4.95.04-8.24 1.51-3.18 1.42-6.27 2.9-9.28 4.43.05-.86.04-1.73-.03-2.63-.56-7.2-5.08-13.62-13.82-19.61a9.46 9.46 0 0 0-4.05-1.57l-.85-.12c12.48-4.87 25.67-8.28 39.04-8.28 6.46 0 12.67.77 18.79 2.32-4.76 9.2-9.98 18.09-17.71 22.98Zm-111.21 129.04c.18.15.36.3.52.44 2.46 2.08 6.57 5.55 13.16 5.55 4.89 0 9.94-1.9 15.88-5.99 13.09-9 19.6-19.46 25.88-29.57 7.32-11.77 13.64-21.94 30.45-30.33.66-.33 2.31-.54 3.77-.72 2.76-.35 6.2-.78 9.61-2.52 23.73-12.08 42.46-30.29 60.57-47.9 2.31 1.17 5.44 3.12 7.39 4.32 2.98 1.85 5.8 3.6 8.26 4.69 4.02 1.77 7.97 3.48 11.85 5.16 40.65 17.59 70.02 30.3 88.9 73.27 3.29 7.48 5.06 16.37 6.95 25.77 3.57 17.83 7.57 37.84 23.69 50.67l-6.29 73.33c-.04.51-.05 1.02 0 1.53.72 9.4.42 19.2.13 28.67-.18 5.83-.36 11.86-.31 17.79.22 25.69 1.46 52.73 2.81 80.47.4 8.11 1.29 16.18 2.15 23.98 1.37 12.38 2.66 24.12 2.13 35.89-3.48 3.14-15.07 11.04-41.13 24.5-65.52 33.84-105.49 52.99-165.06 52.99-16.14 0-33.43-1.4-52.86-4.29-52.54-7.81-113.81-48.66-149.01-99.35-17.52-25.22-36.52-64.14-27.57-106.31 11.92-56.13 80.47-147.85 126.15-180.78.86-.62 1.51-1.01 1.97-1.25Zm395.63-962.49c1.13 5.18 11.9 21.74 14.77 24.56 3.33 3.27 7.32 5.35 10.84 7.19 5.21 2.72 7.68 4.23 8.75 6.83-.44 3.51-4.06 11.3-7.02 15.65-.29-.17-.59-.34-.89-.51-6.42-3.66-13.7-7.82-22.67-7.82-2.65 0-5.29.38-7.86 1.13a9.45 9.45 0 0 0-6.32 6.07c-2.42 7.19-3.39 13.92-4.24 19.86-.94 6.52-1.75 12.15-4.22 17.57.01-1.01.03-2.04.06-3.11.2-8.96.42-19.11-6.15-30.43-6.73-11.58-19.07-11.58-23.13-11.58h-.3c.39-.76.85-1.6 1.37-2.54 4.2-7.53 8.65-9.71 14.28-12.47 5.1-2.5 10.88-5.34 15.98-11.78 2.93-3.7 5.75-10.05 10.1-20.11 1.92-4.44 4.85-11.21 7.49-16.41-.17 2.07-.39 4.08-.55 5.52-.56 5.06-1 9.06-.28 12.38Zm446.01 1272.22c.02 5.48.04 11.03-.16 16.54l-26.69-33.81c-16.96-26.11-22.02-47.1-28.42-73.64-1.57-6.52-3.2-13.25-5.09-20.49-11.33-43.2-29.82-83.11-47.7-121.7-11.56-24.95-23.51-50.75-33.34-77.07-9.78-26.2-18.52-55.3-27.49-91.57-5.87-23.75-28.65-72.78-61.58-72.78h-.28c-16.73.15-26.02 13.1-32.8 22.56-.8 1.11-1.58 2.21-2.37 3.26-51.51 69.4-84.38 148.9-116.17 225.79-23.89 57.77-48.58 117.51-80.76 171.33q-.21.345-.39.72l-16.32 33.59c-.02-7.61.55-15.33 1.13-23.25.58-7.87 1.18-16 1.21-24.29.04-11.85.03-23.74.02-35.67-.06-67.29-.12-136.88 8.99-204.07 3.89-28.72 6.93-58.84 10.14-90.72 8.66-85.93 17.61-174.78 44.5-246.4 1.91-5.08 4.85-10.08 7.96-15.38 5.04-8.57 10.24-17.42 12.09-28.15 1.85-10.77 1.47-21.48 1.11-31.83-.1-2.91-.2-5.81-.25-8.69a9.47 9.47 0 0 0-3.6-7.27c-5.45-4.3-11.23-6.48-17.17-6.48-13.6 0-23.55 11-32.32 20.7-3.27 3.62-6.36 7.04-9.19 9.38-10.87 9.01-22.21 17.18-34.23 25.83-16.11 11.6-32.76 23.59-48.07 37.73-2.62 2.42-5.15 4.92-7.62 7.46 4.46-5.63 8.47-11.04 11.8-16.19 9.25-14.3 16.89-29.92 24.28-45.04 7.65-15.64 14.87-30.41 23.7-43.81 7.46-11.33 16.03-21.84 25.1-32.96 9.49-11.64 19.3-23.68 27.89-36.9 7.54-11.6 13.8-24.21 19.86-36.41 4.77-9.6 9.27-18.66 14.17-26.85 1.53-2.56 4.6-6.69 8.16-11.48 16.21-21.82 38.41-51.7 24.11-70.51-2.07-2.72-4.81-3.97-6.62-4.81-.12-.05-.24-.11-.36-.16-.07-.17-.14-.36-.2-.52-2.38-6.28-6.66-12.71-20.35-12.71h-.87c-6.68.13-10.73 3.36-13.15 5.3-.29.23-.66.53-.92.72-20.66 4.39-49.63 6.44-91.08 6.44-19.41 0-39.22-.45-56.69-.85-11.96-.27-23.25-.53-33.26-.62h-.47l-56.66 2.28c5.3-5.22 15.34-14.51 26.63-24.6 11.18-9.98 24.1-20.09 36.6-29.87 16.89-13.22 34.36-26.88 48.85-41.17 9.72-9.58 18.68-21.88 27.34-33.77 1.74-2.39 3.45-4.73 5.13-7.01 6.4.37 13 .56 20.03.56 19.97 0 40.01-1.52 59.39-2.99 13.44-1.02 27.35-2.07 40.9-2.59 11.48-.43 21.56-.64 30.82-.64 82.59 0 112.64 17.8 184.15 72.88 2.87 2.21 10.33 7.25 18.97 13.09 8.25 5.58 20.22 13.67 24.48 16.91.19 1.58.21 4.23.24 6.12.06 5.22.12 11.14 1.92 16.7 5.31 16.44 26 45.42 42.63 68.7 5.66 7.93 10.55 14.77 13.92 19.85 17.75 26.77 36.52 53.57 54.67 79.49 36.39 51.96 74.02 105.69 104.9 161.3 9.74 17.53 18.3 34.05 24.14 46.35-10.45-7.41-22.45-17.06-34.93-27.11-36.61-29.46-74.46-59.92-104.73-62.36-.57-.05-1.12-.07-1.66-.07-3.47 0-6.37.88-8.63 1.88-1.21-1.1-2.72-2.15-4.62-2.8-5.48-1.87-9.77-2.7-13.91-2.7-6.18 0-11.52 1.92-16.37 4-3.71 1.59-6 5.35-5.72 9.37.33 4.71.13 9.8-.09 15.18-.26 6.35-.52 12.92.12 19.33 2.17 21.75 9.73 42.27 17.03 62.12 4.09 11.12 7.96 21.63 10.9 32.25 6.24 22.53 9.01 47.27 11.93 73.46 3.72 33.29 7.56 67.69 19.17 98.45 3.09 17.4 7.14 35.75 11.43 55.15 9.22 41.69 18.75 84.79 19.19 121.71.41 34.66-4.83 74.53-9.9 113.08-3.15 23.97-6.13 46.61-7.89 68.32-.67 8.22-.64 16.66-.61 24.83Zm-576.7-501.58c16.66-13.02 33.89-26.48 47.81-39.05 10.27-9.28 20.75-21.13 30.88-32.59 8.34-9.43 16.88-19.09 25.13-27.1-9.28 32.98-16.3 66.73-24.09 105.66-3.04 15.18-5.47 32.8-7.82 49.84-2.57 18.64-5.21 37.76-8.72 54.54-20.66-36.73-58.18-64.12-107-77.94.39-.27.79-.53 1.18-.8 5.63-3.8 11.45-7.73 16.94-12.21 7.89-6.44 16.54-13.19 25.69-20.34Zm369.46-939.81c-3.19 27.2-4.21 38.9-1.39 45.14 4.78 10.56 25.3 21.8 84.47 46.28 5.38 2.23 10.03 4.15 12.86 5.4 6.11 2.7 12.42 6.17 19.11 9.84 8.87 4.88 18.04 9.92 27.09 13.23.22.08 26.24 7.87 30.4 7.87.15 0 .32 0 .47-.01 10.16-.34 21.72-12.35 21.84-12.47.46-.48.87-1.01 1.21-1.58l38.61-62.87c-2.4 6.39-4.94 12.71-7.53 19.14-5.67 14.08-11.54 28.64-16.03 44.88-3.85 13.93-6.44 29.21-8.94 43.99-1.44 8.51-2.91 17.21-4.62 25.57-5.15-2.3-10.27-5.02-15.58-7.82-9.2-4.87-18.71-9.91-29.18-13.13-13.71-4.22-28.07-6.18-45.18-6.18-10.32 0-20.57.7-30.49 1.38-9.67.66-19.66 1.35-29.47 1.35-4.9 0-9.4-.17-13.75-.51-24.47-1.92-41.81-16.13-60.17-31.18-15-12.3-30.42-24.94-50.44-31.69 10.18-19.35 19.76-39.12 29.08-58.33 14.5-29.9 29.36-60.55 46.53-89.72.18 4.67 1.02 9.2 1.84 13.59.8 4.27 1.55 8.3 1.63 12.1.1 4.61-1.16 15.35-2.38 25.73Zm136.87 324.14c-.51-.09-1.19-.25-1.74-.37-1.98-.45-4.44-1.02-7.36-1.02-5.82 0-11.05 2.21-15.99 6.75-3.36 3.08-5.6 8.12-9.61 17.49-2.69 6.28-9.54 22.33-14.17 25.42-1.1-5.06-1.4-16.35-1.57-22.18-.22-8.05-.4-13.15-1.18-16.55-1.83-7.93-6.96-15.9-11.48-22.94-1.11-1.72-2.18-3.39-3.13-4.95 2.88-7.31 11.7-24.53 15.84-30.34.63.1 1.39.27 2.13.43 2.21.49 4.96 1.1 8.19 1.1 2.08 0 4.14-.26 6.12-.78 8.69-2.26 29.61-16.57 34.8-21.83 3.26-3.3 5.59-7.06 7.66-10.38.84-1.35 1.99-3.2 3.04-4.6-.8 1.91-1.88 3.98-3.17 6.4-3.28 6.17-7.37 13.84-7.2 23.64.19 11.03 5.6 17.33 9.54 21.92 4.34 5.06 5.96 6.95 1.41 16.81-1.47 3.18-8.8 12.93-12.14 15.97Zm81.66 522.66c3.17 2.69 6.45 5.47 9.86 8.14 17.1 13.36 35.16 26.14 52.62 38.49 31.77 22.49 64.62 45.74 92.71 73.2.2.2.41.39.63.56l-136.17 1.1-22.59-123.98c.98.82 1.95 1.65 2.94 2.49" class="st1"/><path d="M1277.58 1851.5c5.79 12.59 23.37 19.17 37.76 19.17 3.44 0 6.61-.38 9.44-1.14.2-.06.41-.11.61-.17-1.65 4.07-3.39 8.26-4.93 11.99-12.82 30.89-21.09 51.96-19.36 62.93.59 3.73 1.95 6.87 4.17 9.6 4.16 5.11 11.8 6.56 32.6 9.41 4.29.59 9.48 1.3 13.69 2.03-2.04 17.53-1.63 48.48 4.38 57.93 2.36 3.71 6.01 5.85 10 5.85h.02a9.48 9.48 0 0 0 6.78-2.86l.42-.43c5.93-6.06 9.34-10.21 10.32-14.76 1.81-8.38 1.08-18.84.38-28.96-.34-4.88-.68-9.85-.71-14.34h2.85v29.49c0 7.47 10.61 13.98 13.23 14.71 1.31.37 2.65.55 3.98.55 15.53 0 19.54-21.62 21.86-37.83 3.38 0 7.22.09 11.34.18 4.81.11 10.26.23 15.71.23 22.93 0 47.58-1.97 56.49-16.61 8.77-14.41-8.5-61.3-17.34-83.04 17.55-6.61 25.03-24.19 31.26-38.82 2.82-6.62 5.48-12.87 8.8-18.09.98-1.54 2.64-3.17 4.39-4.89 3.48-3.42 7.82-7.68 9.95-14.2.39-1.21.54-2.48.43-3.74-.39-4.56-.55-6.45-26.31-23.49-22.75-15.05-25.84-15.86-26.85-16.13-3.06-.8-6.4-1.2-10.21-1.2-5.68 0-11.64.88-17.41 1.73-5.42.8-11.02 1.63-15.93 1.63-1.33 0-2.56-.06-3.71-.18-2.68-13.98-1.07-28.81 4.82-44.18 2.13-5.55 1.97-10.16-.47-13.7-2.01-2.92-5.24-4.6-8.85-4.6-2.01 0-4.03.51-6.18 1.57-12.95 6.37-16.57 27.29-19.95 53.97-.64 5.05-1.49 11.71-2.2 14.65-2.1 1.42-6.03 3.35-9.18 4.24-.39-2.05-1.06-4.36-2.44-6.5-1.46-2.26-3.4-3.66-5.06-4.61.06-.21.13-.41.18-.59 1.2-3.89 3.01-9.76-.77-14.89-1.31-1.77-4.36-4.75-10.07-4.75-.41 0-.85.02-1.31.05-1.2.09-2.38.41-3.47.94-8.11 3.97-10.37 12.19-11.86 17.62-.35 1.27-.86 3.13-1.24 3.97-2.7 2.01-9.32 4.82-15.19 7.32-9.64 4.1-20.56 8.74-27.89 14.85-8.43 7.02-34.74 33.97-41.66 42.03-9.78 11.4-7.51 21.21-5.29 26.04Zm51.47-21.88 18.51-23.45 10.81-2.31 6.35 7.61-.14 1.77c-.64-.07-1.29-.11-1.96-.11-9.47 0-19.5 7.23-30.69 15.96-.54.42-1.11.86-1.67 1.3l-1.2-.77Zm57.63 99.03 8.07-108.73c4.57-.34 8.77-1.62 12.64-3.08l-16.37 112.3-4.35-.49Zm54.89-113.77.7-10.74c2.87-.54 5.7-1.29 8.48-2.03 4.1-1.08 8.33-2.2 11.38-2.2.5 0 .95.03 1.34.09 2.44.38 9.22 4.79 13.7 7.71 5.22 3.4 10.55 6.86 15.82 9.31-.46.71-.93 1.43-1.42 2.16-1.94 2.93-4.02 6.08-5.7 9.57-2.66-2.07-6.67-5.79-12.64-12.29-3.89-4.25-5.51-6.01-8.79-6.79-1.78-.42-3.61-.64-5.45-.64-6.53 0-12.35 2.68-17.44 5.85Zm-9.86 121.15 3.54-51.02c.05.13.09.27.14.4 1.56 4.45 3.2 8.87 4.83 13.29 5.14 13.9 10.07 27.2 12.64 40.99z" class="st1"/></g></svg>