<svg xmlns="http://www.w3.org/2000/svg" id="Layer_1" viewBox="0 0 300 300"><defs><style>.st0{fill:#fff}</style></defs><g id="pHQINd.tif"><path d="M71.38 254.95c-5.33 0-10.64-1.11-15.79-3.29-9.36-3.97-18.72-12.75-16.89-25.48.69-4.82 6.35-11.25 10.4-14.85-.29-.23-.57-.46-.83-.68-1.2-1.02-5.3-5.06-9-8.94-8-8.39-7.86-9.25-7.64-10.54.08-.49.31-.94.65-1.3 2.34-2.47 4.7-4.96 8.12-5.26-1.26-2.75-1.97-4.64-1.76-6.17.33-2.44 6.05-6.43 7.58-6.66.21-.03.42-.05.64-.05 3.54 0 8.95 4.43 16.2 10.68l.63.54-1.67-7.45c-.07-.29-.08-.59-.04-.88.3-2.22 6.47-6.62 8.19-6.64 3.12 0 4.19 3.45 4.98 5.96.16.51.34 1.1.45 1.33 1.69 3.66 3.58 7.32 5.65 10.92 6.77-9.52 14.06-18.77 21.13-27.75 5-6.35 10.15-12.89 15.09-19.49l-22.68.02q-.195 0-.39-.03l-3.16-.5c-.65-.03-1.55-.04-2.6-.06-9.61-.16-15.25-.63-17.53-2.68-1.06-.95-1.45-2.07-1.13-3.32.05-.21.13-.42.24-.61l3.72-6.7c.21-.37.5-.68.86-.91l28.96-18.05c.12-2.33.82-4.11 1.65-5.99 2.62-5.95 7.93-13.51 15.1-17.35.79-1.94 1.61-4.2 2.48-6.58 3.25-8.9 6.92-18.99 12.6-24.33 1.38-1.3 2.84-1.96 4.33-1.96 5.45 0 7.66 8.2 9.27 14.19.3 1.12.56 2.09.75 2.61.37 1.03.88 2.14 1.42 3.33.65 1.43 1.32 2.9 1.82 4.37.64 1.87 1.15 3.76 1.65 5.6.12.42.23.84.34 1.26 1.63-3.96 3.1-8.07 4.54-12.08 2.39-6.66 4.86-13.55 8.06-19.85l.3-.6c1.63-3.26 4.36-8.71 8.75-8.71 1.56 0 3.02.69 4.34 2.04 2.46 2.52 5.4 11.29 9.05 23.69.22.74.41 1.38.56 1.89 1.17 3.89 2.09 7.42 2.8 10.74 5.47.98 8.1 3.9 9.36 6.31 2.4 4.6 1.71 11.03-1.84 17.22-.43.75-1.05 1.46-1.66 2.15-.35.4-.94 1.07-1.06 1.32-.62 1.54.45 4.98 1.32 7.75.62 1.97 1.2 3.86 1.46 5.61l2.23 1.08c.6.29 1.06.81 1.27 1.44.96 2.8-1.13 4.48-2.03 5.2-.19.16-.47.37-.61.52.24.55 1.18 1.99 1.81 2.96 1.1 1.68 2.23 3.42 2.78 4.75.84 2.03 1.62 3.99 2.38 5.92 2.46 6.21 4.79 12.08 8.39 18.31 2 3.47 4.56 7.19 7.26 11.14 6.22 9.07 13.28 19.35 15 29.16.64 3.63-.79 7.59-3.56 9.85-.95.78-2.04 1.18-3.24 1.18-1.58 0-2.97-.72-4.08-1.29l-.47-.24c-8.34-4.18-16.08-9.79-23.57-15.22-5.05-3.66-10.28-7.45-15.57-10.69-.15-.09-.39-.25-.7-.44-1.04-.67-1.87-1.18-2.54-1.59v14.06q.015.075 0 .15l-1.44 23.61c0 .17-.04.34-.08.5-.67 2.48-.87 5.52-1.06 8.46-.17 2.67-.35 5.43-.89 7.88-.26 1.18-2.94 5.77-4.58 6.56-.5.24-1.03.36-1.58.36-2.52 0-4.19-2.44-5.54-4.4-.27-.4-.61-.89-.75-1.04-.78-.84-1.51-1.6-2.21-2.33-2.79-2.92-5.2-5.43-7.72-9.78-4.46-7.67-7.54-16.05-10.51-24.16-.23-.63-.46-1.26-.7-1.9-2.26 3.2-4.3 6.63-6.3 9.98-1.59 2.67-3.24 5.44-4.99 8.08-5.27 7.97-10.98 15.92-16.5 23l-.46.59c-8.39 10.8-9.85 12.01-10.89 12.48-.63.28-1.27.42-1.9.42-2.57 0-4.6-2.38-4.74-5.53-.13-2.95.12-6.05.37-9.06.06-.73.12-1.44.17-2.14-7.19 11.51-19.17 18.35-32.25 18.35Zm26.81-61.55c2.63 1.11 4.99 2.68 6.95 4.6l1.33-10.7-8.29 6.1Z" class="st0"/><path d="M176.83 42.54c.81 0 1.67.38 2.55 1.29 2.83 2.9 7.55 19.7 9.01 24.55 1.21 4.01 2.3 8.15 3.1 12.26 11.64 1.01 12.48 11.28 7.44 20.04-.67 1.16-2.44 2.69-2.86 3.75-1.63 4.03 2.68 11.5 2.71 15.95l3.51 1.7c.82 2.38-3.46 2.52-2.72 5.5.34 1.36 3.81 5.85 4.73 8.07 3.58 8.66 6.11 16.2 10.92 24.53 6.77 11.74 19.63 26.18 21.97 39.48.47 2.67-.57 5.75-2.69 7.49-.54.44-1.09.61-1.66.61-1.15 0-2.32-.71-3.43-1.27-13.79-6.91-25.79-17.74-38.95-25.81-.91-.56-5.51-3.67-6.79-3.67-.12 0-.21.03-.26.08l.02 17.75-1.44 23.61c-1.37 5.05-.9 11.55-1.98 16.45-.17.77-2.54 4.52-3.22 4.85-.16.08-.33.11-.49.11-1.66 0-3.5-3.6-4.45-4.63-3.87-4.17-6.62-6.54-9.6-11.67-5.46-9.38-8.78-19.83-12.62-29.92-5.46 6.64-9.36 14.6-14.12 21.8-5.04 7.62-10.77 15.64-16.39 22.85-1.54 1.97-9.03 11.71-10.4 12.33-.32.14-.61.21-.88.21-1.38 0-2.18-1.66-2.24-3.13-.2-4.69.62-9.97.73-14.63.02-.95-.49-1.83-.47-2.79.04-1.47.8-2.93.51-4.49l-4.34 8.65c-6.84 11.56-18.29 18.01-30.64 18.01-4.87 0-9.88-1-14.81-3.09-9.28-3.93-16.94-12-15.39-22.82.67-4.64 7.68-12.09 11.47-14.89l.3-.98c-1.08-.3-2.21-1.19-3.05-1.92-2.21-1.89-16.03-15.77-15.8-17.17 2.29-2.42 4.25-4.51 7.01-4.51.99 0 2.09.27 3.34.89.46-.46-3.59-7.2-3.32-9.19.12-.91 4.62-4.4 5.48-4.53.09-.01.18-.02.28-.02 4.62 0 18.94 14.74 20.6 14.74.06 0 .1-.02.12-.05l-3.12-13.96c.1-.72 4.97-4.47 5.74-4.48h.01c1.69 0 2.45 4.4 3.12 5.85 2.29 4.94 4.91 9.82 7.73 14.48 13-18.72 27.93-35.98 41.36-54.35l-27.64.02-3.3-.52c-3.7-.17-16.24.11-18.71-2.11-.28-.25-.48-.45-.38-.85l3.72-6.7 30.14-18.78c-.13-2.49.46-4.16 1.44-6.37 2.84-6.45 8.34-13.45 14.77-16.55 3.69-8.76 7.86-24.34 14.83-30.9.95-.89 1.82-1.28 2.61-1.28 4.44 0 6.56 12.09 7.67 15.15.87 2.4 2.36 5.12 3.22 7.65 1.47 4.31 2.28 8.8 4 13.01 5.83-12.02 9.16-25.9 15.19-37.76 1.28-2.51 3.74-7.94 6.82-7.94m-67.16 139.31-17.01 12.53c5.99 1.05 11.44 4.65 14.18 10.16l2.83-22.68m67.15-144.3c-5.94 0-9.1 6.32-10.99 10.1l-.29.58c-3.27 6.44-5.77 13.4-8.18 20.14-.62 1.74-1.24 3.45-1.86 5.14-.53-1.54-1.21-3.03-1.87-4.48-.52-1.14-1.01-2.21-1.35-3.15-.15-.42-.42-1.43-.69-2.4-1.72-6.39-4.32-16.04-11.68-16.04-2.15 0-4.18.89-6.04 2.64-6.11 5.75-9.89 16.13-13.24 25.3-.74 2.03-1.45 3.97-2.12 5.68-7.31 4.26-12.7 11.97-15.39 18.09-.75 1.7-1.44 3.42-1.73 5.53l-27.91 17.4c-.72.45-1.31 1.07-1.73 1.81l-3.72 6.7c-.21.38-.37.79-.48 1.22-.31 1.25-.48 3.66 1.89 5.79 2.9 2.59 8.48 3.14 19.15 3.31.96.02 1.8.03 2.4.05l3.02.47c.26.04.51.06.77.06h17.65c-3.98 5.2-8.05 10.37-12.03 15.42-6.29 7.99-12.75 16.2-18.89 24.63-1.3-2.43-2.52-4.87-3.65-7.31-.05-.13-.22-.65-.33-1.02-.84-2.7-2.41-7.72-7.33-7.72h-.06c-1.47.02-2.88.5-6.13 3.02-3.15 2.44-4.25 3.85-4.51 5.79-.08.59-.05 1.19.08 1.76l.04.17c-5.39-4.43-9.33-6.99-12.76-6.99-.34 0-.68.02-1.01.07-.71.11-2.03.3-5.41 3.02-2.86 2.3-4.02 3.87-4.28 5.77-.2 1.48.12 3 .81 4.83-2.63 1.14-4.62 3.24-6.45 5.16l-.06.06c-.68.72-1.14 1.63-1.3 2.61-.46 2.71.47 4.48 8.29 12.69 2.74 2.87 5.98 6.12 7.92 7.96-3.93 3.9-8.45 9.56-9.15 14.43-1.7 11.82 5.35 22.6 18.39 28.13 5.46 2.31 11.1 3.49 16.76 3.49 11.16 0 21.57-4.66 29.21-12.8-.03 1.09-.03 2.18.01 3.26.19 4.51 3.3 7.92 7.23 7.92.99 0 1.97-.22 2.93-.64 1.49-.67 2.86-1.67 11.85-13.24l.45-.58c5.56-7.13 11.3-15.14 16.61-23.16 1.78-2.69 3.44-5.48 5.05-8.18 1.18-1.98 2.33-3.91 3.5-5.77 2.71 7.34 5.63 14.83 9.7 21.82 2.68 4.6 5.18 7.22 8.08 10.25.68.71 1.39 1.45 2.14 2.26.11.14.37.52.56.8 1.5 2.18 3.76 5.48 7.59 5.48.93 0 1.83-.21 2.67-.61 2.69-1.3 5.61-6.81 5.93-8.27.58-2.63.77-5.49.95-8.25.18-2.82.37-5.73.98-7.96.09-.33.15-.67.17-1.01l1.44-23.61v-9.85c5 3.11 9.99 6.73 14.82 10.23 7.57 5.48 15.39 11.15 23.92 15.43.15.07.29.15.44.23 1.28.66 3.04 1.57 5.23 1.57 1.76 0 3.43-.6 4.82-1.74 3.45-2.82 5.23-7.73 4.44-12.22-1.82-10.34-9.04-20.86-15.4-30.14-2.68-3.9-5.2-7.58-7.16-10.97-3.51-6.08-5.8-11.86-8.23-17.98-.76-1.92-1.55-3.91-2.4-5.96-.64-1.54-1.84-3.38-3-5.16-.21-.32-.46-.71-.7-1.08 2.08-2.1 2.68-4.46 1.8-7.04a5 5 0 0 0-2.55-2.88l-1.1-.53c-.33-1.55-.82-3.12-1.3-4.66-.53-1.69-1.48-4.75-1.39-5.95.18-.22.43-.51.62-.72.65-.74 1.4-1.59 1.95-2.55 3.98-6.93 4.69-14.26 1.89-19.62-1.87-3.58-5.17-6.07-9.48-7.24-.67-2.93-1.5-6.02-2.5-9.37-.15-.51-.34-1.15-.56-1.89-4.63-15.68-7.15-22.15-9.66-24.72-2.25-2.31-4.58-2.8-6.13-2.8Zm-73.94 155.5.39-.29-.06.5z" class="st0"/><path d="M82.24 244.45c-2.02 0-3.17-.89-3.84-1.97a3.77 3.77 0 0 1-2.36.21c-2.26-.52-4.81-3.33-6.71-6.17l-.33.83c-.36.91-1.21 1.52-2.19 1.57-.25.01-.7.07-1.24.14-1.27.16-3 .37-4.35.37-.82 0-2.73 0-3.68-1.51-.28-.44-.41-.96-.38-1.49.36-5.82 2.26-12.1 5.09-16.81.3-.49.7-.92 1.07-1.29-.51-1.51-1.2-3.59-.33-5.43.32-.67.91-1.16 1.62-1.35.37-.1.73-.15 1.09-.15 1.93 0 2.98 1.34 3.55 2.2.11-.09.22-.19.32-.29l-.63-3.11c-.14-.68.01-1.38.41-1.95.4-.56 1.02-.94 1.71-1.03.22-.03.43-.04.64-.04 2.09 0 3.33 1.31 4.16 2.25.5-.28 1.05-.62 1.57-.93 2.29-1.39 4.45-2.7 6.37-2.7h.16c.91.03 11.37 3.26 12.59 4.44 1.81 1.76 1.56 3.36 1.15 4.86-.21.77-3.65 7-4.47 7.79-1.04.98-2.13 1.4-3.08 1.56.93 1.59 1.79 3.65.9 6.38-.21.65-.58 1.19-.96 1.64 0 0 0 .01.01.02.86 1.51 1.49 2.65 1.76 3.48l.08.24c.56 1.64 1.1 3.52.27 5.05-.42.79-1.14 1.35-2.01 1.57-.3.08-.61.12-.92.12-1.44 0-2.6-.8-3.54-1.9 0 .38-.01.77-.07 1.16a2.505 2.505 0 0 1-2.08 2.08c-.5.08-.94.12-1.36.12Zm-1.87-28.42.39-.41a2.49 2.49 0 0 1 2.43-.69l-1.41-.47-1.72 1.06z" class="st0"/><path d="M83.81 208.32h.07c.81.03 10.47 3.28 10.94 3.74.86.83.78 1.3.48 2.4-.15.54-3.42 6.29-3.78 6.64-.86.82-1.75.99-2.71.99-.68 0-1.39-.09-2.15-.09-.2 0-.4 0-.6.02.75 2.92 3.75 4.63 2.63 8.06-.28.86-1.54 1.74-1.57 2.1-.02.26 2 3.43 2.38 4.6.26.8 1.29 3.37.1 3.68-.1.03-.2.04-.29.04-2.1 0-4.02-5.66-4.44-5.73-4.52.85-1.17 4.1-1.64 7.11-.36.06-.68.09-.97.09-1.66 0-2.07-.99-2.35-2.92-.15-.04-.3-.05-.43-.05-1.17 0-1.5 1.32-2.55 1.32-.1 0-.21-.01-.32-.04-2.48-.57-6.9-7.08-7.57-9.74l-2.35 5.91c-.85.05-3.65.5-5.46.5-.8 0-1.41-.09-1.57-.34.32-5.24 2-11.12 4.74-15.68.4-.67 1.61-1.54 1.65-1.97.08-.77-1.47-3.54-.79-4.98q.24-.06.45-.06c1.4 0 1.61 2.06 2.87 2.69q.12.06.27.06c.99 0 2.85-1.83 3.45-2.54l-.89-4.4c.11-.01.21-.02.31-.02 1.68 0 2.37 1.94 3.7 2.75 2.14-.73 6.34-4.13 8.4-4.13m-3.91 11.79 2.66-2.77 8.62 2.24 1.94-3.97-11.66-3.91-4.83 2.97 3.26 5.44m1.66 14.65 2.09-2.53-10.12-15.89c-.94.9-3.39 1.4-3.01 2.95zm-17.73-1.89h2.83l1.38-6.34c.03-.26.26-.35.52-.35.23 0 .48.07.63.13 1.77.71 5.74 8.37 8.33 9.39-2.37-5.64-7.77-9.47-9.93-15.12-.06 0-.13-.01-.19-.01-1.07 0-1.53 1.09-1.85 1.98-.43 1.21-2.13 9.93-1.74 10.32m20-29.56c-2.6 0-5.02 1.45-7.58 3.01-1.07-.85-2.55-1.63-4.53-1.63-.32 0-.65.02-.97.06-1.37.18-2.61.93-3.41 2.05-.46.64-.75 1.37-.87 2.13a6.9 6.9 0 0 0-2.49.19 5.02 5.02 0 0 0-3.24 2.69c-1 2.1-.68 4.25-.22 5.9-.14.19-.28.39-.41.61-3.07 5.11-5.06 11.65-5.45 17.95-.06 1.05.2 2.09.76 2.98 1.69 2.67 4.78 2.67 5.8 2.67 1.51 0 3.33-.22 4.66-.39.39-.05.93-.11 1.09-.12.85-.05 1.66-.31 2.35-.74 1.82 2.15 3.95 3.93 6.17 4.44.48.11.96.17 1.44.17q.315 0 .6-.03c1.54 1.39 3.4 1.68 4.72 1.68.55 0 1.13-.05 1.76-.15 1.22-.19 2.29-.82 3.04-1.72.68.26 1.43.4 2.25.4.52 0 1.04-.07 1.54-.2a5.6 5.6 0 0 0 3.58-2.81c1.41-2.63.42-5.51-.11-7.06l-.07-.2c-.25-.76-.66-1.59-1.22-2.62.15-.3.29-.62.41-.97.73-2.24.56-4.19.07-5.79.48-.3.97-.66 1.45-1.12 1.17-1.11 4.84-7.75 5.17-8.94.36-1.31 1.21-4.39-1.82-7.32-.74-.72-1.15-1.11-7.21-3.17-5.66-1.92-6.38-1.95-7.02-1.97h-.25Z" class="st0"/></g><g id="pHQINd.tif1" data-name="pHQINd.tif"><path d="M191.49 80.64c11.64 1.01 12.48 11.28 7.44 20.04-.67 1.16-2.44 2.69-2.86 3.75-1.63 4.03 2.68 11.5 2.71 15.95l3.51 1.7c.82 2.38-3.46 2.52-2.72 5.5.34 1.36 3.81 5.85 4.73 8.07 3.58 8.66 6.11 16.2 10.92 24.53 6.77 11.74 19.63 26.18 21.97 39.48.47 2.67-.57 5.75-2.69 7.49-1.64 1.34-3.43.18-5.09-.66-13.79-6.91-25.79-17.74-38.95-25.81-.99-.61-6.39-4.26-7.05-3.58l.02 17.75-1.44 23.61c-1.37 5.05-.9 11.55-1.98 16.45-.17.77-2.54 4.52-3.22 4.85-1.78.86-3.89-3.39-4.95-4.52-3.87-4.17-6.62-6.54-9.6-11.67-5.46-9.38-8.78-19.83-12.62-29.92-5.46 6.64-9.36 14.6-14.12 21.8-5.04 7.62-10.77 15.64-16.39 22.85-1.54 1.97-9.03 11.71-10.4 12.33-1.93.86-3.04-1.17-3.12-2.93-.2-4.69.62-9.97.73-14.63.02-.95-.49-1.83-.47-2.79.04-1.47.8-2.93.51-4.49l-4.34 8.65c-9.53 16.12-28.05 22.3-45.45 14.92-9.28-3.93-16.94-12-15.39-22.82.67-4.64 7.68-12.09 11.47-14.89l.3-.98c-1.08-.3-2.21-1.19-3.05-1.92-2.21-1.89-16.03-15.77-15.8-17.17 3.12-3.29 5.62-5.97 10.35-3.62.46-.46-3.59-7.2-3.32-9.19.12-.91 4.62-4.4 5.48-4.53 4.44-.66 20.17 15.74 21 14.67l-3.12-13.96c.1-.72 4.97-4.47 5.74-4.48 1.69-.02 2.46 4.39 3.13 5.85 2.29 4.94 4.91 9.82 7.73 14.48 13-18.72 27.93-35.98 41.36-54.35l-27.64.02-3.3-.52c-3.7-.17-16.24.11-18.71-2.11-.28-.25-.48-.45-.38-.85l3.72-6.7 30.14-18.78c-.13-2.49.46-4.16 1.44-6.37 2.84-6.45 8.34-13.45 14.77-16.55 3.69-8.76 7.86-24.34 14.83-30.9 6.26-5.89 8.97 10.26 10.28 13.87.87 2.4 2.36 5.12 3.22 7.65 1.47 4.31 2.28 8.8 4 13.01 5.83-12.02 9.16-25.9 15.19-37.76 1.61-3.17 5.13-11.01 9.38-6.66 2.83 2.9 7.55 19.7 9.01 24.55 1.21 4.01 2.3 8.15 3.1 12.26Zm-6.17-.44c-2.1-8.17-4.48-16.98-7.55-24.83-.34-.88-1.65-4.68-2.61-4.48-.91.2-4.44 7.34-5.05 8.66-5.23 11.33-9.04 24.12-13.62 35.77 8.5-6.73 17.5-14.31 28.83-15.13Zm-46.34-19.38c-.89-.19-1.14.45-1.61.98-5.18 5.9-8.17 15.46-11.15 22.65 8.84-.62 16.19 5.11 23.63 8.99-2.57-11.22-7.24-21.74-10.87-32.61Zm-9.87 69.44c.13.08.93-.5 1.5-.35s3.51 2.76 4.66 3.41c13.77 7.76 40.94 2.99 53.96-4.99 1.08-.66 4.49-2.82 4.55-3.89.19-3.21-4.06-9.98-3.28-13.98-10.14 8.77-24.95 12.3-37.66 7.18-10.02-4.04-10.87-7.77-23.49-5.24-6.45 1.29-12.3 5.92-18.89 2.24-1.02-.57-1.51-2-2.89-1.84L85.1 127.95c2.74.29 5.51.58 8.27.69 8.91.35 18.47.49 27.44.28 1.96-.04 5.94-1.32 7.59-.06.46.35.59 1.34.71 1.41Zm-19.43 51.57-17.01 12.53c5.99 1.05 11.44 4.65 14.18 10.16l2.83-22.68Zm-53.88 8.51c-.64.65 3.27 4.17 3.54 4.73 1.68 3.57-5.41 5.92-5.42 6.37l6.1 4.75c2.39-1.41 15.73-6.05 16.08-8.12l-1.62-2.04c-3.47 4.14-6.21 2.39-10.31.36l-8.36-6.05Zm41.9 14.82c-11.15-10.89-21.72 1.4-31.98 5.73-2.36 1-5.8 2.2-8.27 2.87-.62.17-1.37-.38-2.09-.02-1.04.52-5.61 6.76-6.14 8.06-8.01 19.34 27.41 30.4 40.78 20.93 3.73-2.64 9.24-14.25 10.58-18.73 2.07-6.89 2.71-13.39-2.87-18.84Z"/><path d="M86.05 222.01c.75 2.92 3.75 4.63 2.63 8.06-.28.86-1.54 1.74-1.57 2.1-.02.26 2 3.43 2.38 4.6.26.8 1.29 3.37.1 3.68-2.22.57-4.29-5.61-4.73-5.69-4.52.85-1.17 4.1-1.64 7.11-2.49.4-2.99-.57-3.31-2.84-1.66-.4-1.85 1.56-3.3 1.23-2.48-.57-6.9-7.08-7.57-9.74l-2.35 5.91c-1.22.07-6.5.99-7.03.16.32-5.24 2-11.12 4.74-15.68.4-.67 1.61-1.54 1.65-1.97.08-.77-1.47-3.54-.79-4.98 1.81-.48 1.93 1.93 3.31 2.63.87.44 3.06-1.7 3.72-2.48l-.89-4.4c1.91-.25 2.61 1.87 4.01 2.72 2.17-.74 6.43-4.2 8.47-4.13.81.03 10.47 3.28 10.94 3.74.86.83.78 1.3.48 2.4-.15.54-3.42 6.29-3.78 6.64-1.64 1.55-3.39.77-5.46.92Zm5.14-2.42 1.94-3.97-11.66-3.91-4.83 2.97 3.26 5.44 2.66-2.77 8.62 2.24Zm-17.66-3.24c-.94.9-3.39 1.4-3.01 2.95l11.04 15.47 2.09-2.53zm-5.92 4.24c-1.21-.13-1.7 1.03-2.04 1.97-.43 1.21-2.13 9.93-1.74 10.32h2.83l1.38-6.34c.06-.5.82-.35 1.15-.22 1.77.71 5.74 8.37 8.33 9.39-2.37-5.64-7.77-9.47-9.93-15.12Z"/></g></svg>