<?xml version="1.0" encoding="UTF-8"?>
<svg id="Layer_1" xmlns="http://www.w3.org/2000/svg" version="1.1" viewBox="0 0 300 300">
  <!-- Generator: Adobe Illustrator 29.8.3, SVG Export Plug-In . SVG Version: 2.1.1 Build 3)  -->
  <defs>
    <style>
      .st0 {
        fill: #fff;
      }
    </style>
  </defs>
  <g id="_x37_IbPPs.tif">
    <g>
      <path class="st0" d="M100.78,212.79c-7.9,0-15.4-2.47-19.58-6.44-5.25-4.99-11.87-13.16-14.81-20.13-1.77-4.2-1.89-16.15-1.47-19.87,1.01-8.89,16.27-24.48,22.43-28.34,1.2-.75,13.68-6.97,15.95-7.29,1.03-.14,2.06-.22,3.06-.22,3.27,0,5.97.75,8.58,1.47,1.5.42,2.91.81,4.46,1.08.17.03.36.04.57.04,2.26,0,5.85-1.62,10.68-4.82,6.66-4.41,12.38-9.78,17.92-14.98,8.32-7.81,16.93-15.88,28.95-21.06,7.64-3.29,15.41-5.03,22.48-5.03,16.99,0,28.88,9.88,32.63,27.1,1.35,6.17,3.15,24.56,2.52,30.6-1.75,16.59-22.45,39.02-37.53,45.06-4.13,1.65-8.77,2.46-14.19,2.46-5.69,0-11.5-.88-17.12-1.72-5.41-.81-10.52-1.58-15.32-1.58-3.27,0-6.05.36-8.5,1.11-5.49,1.67-11.56,6.47-17.44,11.11-4.1,3.24-8.35,6.59-12.37,8.83-3.89,2.16-8.62,2.61-11.91,2.61Z"/>
      <path class="st0" d="M200.01,89.71c14.21,0,26.31,7.32,30.19,25.13,1.29,5.9,3.08,24.09,2.47,29.81-1.66,15.73-21.61,37.25-35.97,43-4.21,1.68-8.68,2.28-13.26,2.28-10.83,0-22.29-3.31-32.44-3.31-3.23,0-6.33.34-9.23,1.22-9.97,3.04-20.78,14.86-30.3,20.15-2.8,1.56-6.65,2.3-10.69,2.3-6.7,0-13.94-2.03-17.86-5.76-5.12-4.86-11.46-12.72-14.22-19.29-1.46-3.47-1.73-14.73-1.29-18.62.86-7.54,14.92-22.52,21.28-26.51,1.66-1.04,13.49-6.73,14.97-6.93.96-.13,1.86-.19,2.71-.19,4.68,0,8.14,1.74,12.61,2.52.32.06.65.08,1,.08,3.84,0,9.06-3.25,12.06-5.23,16.83-11.14,26.91-27.4,46.48-35.82,7.19-3.09,14.59-4.82,21.49-4.82M200.01,84.71c-7.4,0-15.51,1.81-23.47,5.23-12.43,5.35-21.19,13.57-29.67,21.53-5.71,5.36-11.11,10.43-17.59,14.72-5.78,3.83-8.31,4.4-9.3,4.4-.09,0-.14,0-.14,0-1.43-.25-2.79-.63-4.22-1.03-2.64-.73-5.63-1.56-9.24-1.56-1.12,0-2.27.08-3.41.24-2.9.4-15.75,6.9-16.94,7.65-6.44,4.04-22.43,20.03-23.59,30.18-.4,3.48-.45,16.15,1.65,21.12,3.08,7.31,9.94,15.8,15.39,20.98,5.53,5.26,14.63,7.13,21.3,7.13,3.58,0,8.77-.51,13.12-2.93,4.2-2.34,8.53-5.75,12.71-9.05,5.69-4.5,11.58-9.15,16.62-10.68,2.21-.67,4.75-1,7.77-1,4.61,0,9.63.76,14.95,1.56,5.71.86,11.61,1.75,17.49,1.75s10.69-.86,15.12-2.63c16.04-6.42,37.22-29.42,39.09-47.12.68-6.44-1.18-25.05-2.56-31.4-4.03-18.47-16.81-29.07-35.07-29.07h0Z"/>
    </g>
  </g>
  <g id="_x37_IbPPs.tif1" data-name="_x37_IbPPs.tif">
    <path d="M82.92,204.53c-5.12-4.86-11.46-12.72-14.22-19.29-1.46-3.47-1.73-14.73-1.29-18.62.86-7.54,14.92-22.52,21.28-26.51,1.66-1.04,13.49-6.73,14.97-6.93,6.17-.86,10.03,1.4,15.32,2.32,3.88.68,9.79-2.99,13.06-5.15,16.83-11.14,26.91-27.4,46.48-35.82,21.99-9.46,45.91-6.15,51.68,20.31,1.29,5.9,3.08,24.09,2.47,29.81-1.66,15.73-21.61,37.25-35.97,43-17.32,6.93-39.06-4.65-54.92.19-9.97,3.04-20.78,14.86-30.3,20.15-7.45,4.14-22.27,2.51-28.55-3.46ZM188.93,168.94c.16-8.53,1.05-14.27,8.84-18.69,2.24-1.27,8.57-2.86,9.76-4.17,1.34-1.47,6.11-12.93,2.97-12.94-3.86,4-16.33.83-19.95-2.64-7.27-6.98-4.75-13.92-6.3-22.23-.99-5.34-6.77,1.56-7.6,3.65-.53,1.34-.16,3.56-.43,3.89-.3.36-6.93,2.75-8.57,3.71-1.65.96-3.32,1.9-4.63,3.33.52,1,1.6-.19,2.21-.45,1.42-.6,9.21-4.97,9.74-4.53-1.89,3.18-1.39,7.34-2.3,10.63-1.31,4.71-6.34,14.03-10.39,16.82-5.34,3.67-13.58,3.1-15.2,10.35,3.93-.42,4.61,3.12,6.81,4.15,8.06,3.75,12.51,1.13,20.18,10.02,5.65,6.55,8.7,19.81,14.18,1.1,5.57,4,14.91-4.98,18.07-9.47,7.77-11.01,10.45-33.81,2.39-45.15-2.9-4.08-11.88-5.75-16.66-4.93-1.29.22-4.37,1.3-5.13,2.49,3.5-1.26,17.38,1.04,19.56,3.35,4.25,4.52,6.32,17.35,5.5,23.35-.54,3.97-5.91,19.09-8.45,21.89-3.18,3.51-9.89,6.17-14.62,6.47ZM158.38,125.17c-11.06,4.54-19.38,14.3-30.31,19.14-5.36,2.37-11.1,3.42-16.83,4.4.79,1.12,1.67,1.01,2.88.95,15.41-.75,32.39-15.69,44.26-24.49ZM115.22,183.54c-2.72-10.37,7.96-13.91,8.54-22.77-.82-2.46-8.02-.45-11.56-4.41-4.69-5.26-.87-11.59-5.86-15.22-6.33,4.29-4.48,8.77-5.08,14.86-.55,5.56-3.41,5.68-5.42,9.84-.81,1.68-3.99,9.99-3.88,11.4.17,2.35,2.95,1.35,4.69,1.96,3.38,1.19,9.41,7,8.61,10.97-8.98.94-16.19-2.06-19.28-10.92-3.74-10.72-.08-18.19,7.99-25.23.11-.49-.69-.45-.98-.32-.57.25-5.3,5.15-5.94,6.01-10.54,14.05-2.3,40.81,18.48,32.41,3.79,8.03,7.12,5,9.82-1.48.67-1.61.84-4.72,1.39-5.58,1.09-1.7,13.62-12.25,15.76-13.11,3.47-1.39,5.55-.61,8.81-1.15,2.83-.47,5.26-2.96.64-2.74-3.58.17-6.93.9-10.14,2.53l-16.57,12.96Z"/>
  </g>
</svg>