<?xml version="1.0" encoding="UTF-8"?>
<svg id="Layer_1" xmlns="http://www.w3.org/2000/svg" version="1.1" viewBox="0 0 300 300">
  <!-- Generator: Adobe Illustrator 29.8.3, SVG Export Plug-In . SVG Version: 2.1.1 Build 3)  -->
  <defs>
    <style>
      .st0 {
        fill: #fff;
      }
    </style>
  </defs>
  <g>
    <g>
      <path class="st0" d="M138.43,284.02c-.33,0-.67-.04-1.01-.12-4.07-.94-6.27-13.14-6.28-13.26-.9-9.09-.19-19.27.5-29.12.48-6.83.93-13.29.88-19.36l-1.42-28.2c-.57-.08-1.23-.11-2.03-.11-.92,0-1.89.04-2.88.08-1.09.05-2.22.1-3.36.1-2.9,0-6.57-.29-9.26-2.55-3.64-3.06-3.7-9.51-3.75-15.75-.03-3.3-.06-6.7-.7-8.54-.1-.29-.15-.59-.14-.89.25-9.62-.96-19.59-2.13-29.23l-.06-.53c-1.39,1.21-2.89,2.9-4.27,4.47-3.37,3.83-6.55,7.44-10.41,7.44-.18,0-.36,0-.53-.02-.65-.06-1.73-.16-10.27-6.22-7.17-5.08-11.72-8.68-13.54-10.7-4.3-4.76-2.57-8.69-.61-11.99,5.4-9.12,13.76-16.29,21.84-23.22,4.29-3.68,8.35-7.16,11.94-10.87.94-.97,2.21-2.7,3.43-4.38,1.91-2.61,3.71-5.08,5.32-6.26.94-.69,2.15-.78,3.1-.78,1.6,0,3.78.3,6.09.62,2.22.31,4.51.62,6.21.66-.02-3.13,0-6.27.03-9.32.03-3.59.06-7.3.02-10.94,0-.44-.14-.98-.28-1.55-.18-.72-.39-1.54-.41-2.44l-.03-1.39c-.12-5.17-.25-11.03,2.76-15.76.47-.73,1.27-1.15,2.11-1.15.25,0,.5.04.74.11,1.08.34,1.8,1.35,1.75,2.48-.18,4.98.49,9.95,1.19,15.22.45,3.38.92,6.88,1.14,10.37.11,1.69,0,3.9-.1,6.25-.14,3.03-.3,6.78.12,8.38.14.17.5.5.75.72.73.66,1.64,1.47,2.2,2.65.75,1.55,1.04,3.4,1.31,5.19.19,1.22.37,2.38.67,3.35,1.71,5.44,5.23,9.33,10.02,11.12,2.25-4.06,4.98-9.07,4.89-13.31-.01-.51-.16-1.12-.32-1.77-.32-1.33-.72-2.98-.22-4.85.17-.62.57-1.15,1.11-1.49l7.87-4.8-1.81-24.51c0-.09,0-.19,0-.28.12-3,.06-6.1.01-9.1-.12-6.74-.24-13.72,1.51-20.54.28-1.08,1.23-1.85,2.35-1.88,0,0,2.65-.08,2.68-.08,1.04,0,1.97.64,2.34,1.62.82,2.19-.25,4.01-.83,4.99-.08.14-.19.32-.25.45.04.13.11.38.16.56.21.71.46,1.6.45,2.6-.16,10.95.95,22.19,2.03,33.06.4,4.04.81,8.2,1.16,12.32,1.66-.15,3.73-.43,4.35-.57.13-.12.41-.63.61-.96.7-1.23,1.99-3.52,5.05-3.52,1.18,0,2.51.36,4.05,1.1,11.54,5.52,19.74,12.84,28.42,20.59,3.01,2.69,6.12,5.47,9.38,8.16,1.99,1.64,3.8,2.74,5.4,3.7,2.59,1.56,4.82,2.9,5.38,5.57.54,2.56-.64,5.49-4.37,10.82l-.12.18c-3.88,5.54-11.94,17.07-16.2,21.1-1.58,1.49-3.53,2.25-5.8,2.25-5.24,0-11.07-4.1-15.76-7.39-.14-.1-.27-.19-.41-.29-.03,1.39-.05,2.71-.03,3.14.16,4,.75,8.92,1.36,14.13,1.15,9.73,2.35,19.79,1.26,26.96-.63,4.16-2.82,8.7-5.85,12.15-3.44,3.91-7.65,6.12-11.89,6.26.06,4.59.38,9.26.7,13.79.62,8.99,1.27,18.28-.06,27.47-.16,1.1-1.02,1.96-2.12,2.12-.43.06-.77.09-1.09.09-1.56,0-2.54-.71-3.29-1.39-3.45-3.17-3.89-14.03-4.16-30.24-.07-4.35-.16-9.57-.45-11.99l-26.19-.65s1.87,25.18,1.87,25.23l.62,27.45c0,.1,0,.21-.01.31-.84,8.2-.83,16.73-.73,23.24,0,.24.1.99.18,1.66.59,4.6.92,8.59-.95,10.7-.74.84-1.77,1.31-2.89,1.31h0Z"/>
      <path class="st0" d="M167.12,18.48c.65,1.74-1.2,3.1-1.27,4.32-.05.91.65,2.15.63,3.37-.23,15.96,2.16,32.03,3.38,47.92.07.06.31.08.68.08,1.74,0,6.17-.56,6.83-.81,2.15-.8,1.96-4.33,4.8-4.33.75,0,1.71.25,2.97.85,15.28,7.3,24.9,18.19,37.29,28.42,8.5,7.02,14.28,4.84,5.96,16.73-3.6,5.15-11.87,16.99-15.99,20.89-1.17,1.11-2.56,1.56-4.08,1.56-6.04,0-14.12-7.19-18.4-9.65-.23.31-.34,6.74-.3,7.71.46,11.44,4.26,29.97,2.65,40.6-1.11,7.28-7.69,16.29-15.68,16.29-.69,0-1.38-.07-2.09-.21-.17,14.53,2.75,29.17.66,43.61-.28.04-.52.06-.74.06-.6,0-1-.19-1.6-.74-4.87-4.46-2.3-41.49-4.46-42.84l-30.74-.76,2.06,27.85.62,27.45c-.79,7.69-.86,15.81-.74,23.53.03,1.88,2.02,11.13-1.15,11.13-.14,0-.29-.02-.45-.06-1.61-.37-4.17-9.18-4.36-11.07-1.48-14.99,1.52-33.11,1.38-48.3l-1.48-29.42c-.23-.87-.82-.96-1.58-1.1-.86-.16-1.84-.21-2.88-.21-1.94,0-4.12.18-6.24.18-2.92,0-5.72-.34-7.65-1.97-4.56-3.84-1.73-17.56-3.7-23.19.29-11.22-1.33-22.63-2.66-33.84-5.66,1.34-11.47,13.44-16.71,13.44-.1,0-.2,0-.31-.01-.96-.09-7.66-4.78-9.06-5.77-3.2-2.27-10.77-7.71-13.13-10.33-2.95-3.27-2.35-5.61-.32-9.05,7.95-13.43,22.85-22.68,33.43-33.63,2.46-2.54,6.16-8.69,8.43-10.37.28-.21.85-.29,1.62-.29,3,0,9.01,1.29,12.63,1.29.91,0,1.67-.08,2.19-.29-.1-7.49.11-15.01.02-22.51-.02-1.42-.67-2.74-.69-4-.09-5.17-.52-11.27,2.34-15.76-.31,8.56,1.79,17.19,2.34,25.83.25,4-.8,12.12.14,15.29.37,1.26,2.35,2.15,3.06,3.64,1.04,2.16,1.03,5.58,1.86,8.2,2.11,6.72,6.81,11.66,13.61,13.36,2.58-4.74,6.3-10.77,6.18-16.35-.04-1.99-1.18-3.87-.63-5.92l9.17-5.59-1.93-26.03c.38-9.73-.98-19.63,1.44-29.13l2.6-.08M167.12,13.48s-.1,0-.15,0l-2.6.08c-2.23.07-4.14,1.6-4.7,3.76-1.83,7.15-1.7,14.3-1.58,21.2.05,3.1.1,6.04-.01,8.97,0,.19,0,.38,0,.57l1.7,22.98-6.56,4c-1.1.67-1.89,1.73-2.23,2.97-.67,2.48-.14,4.65.21,6.09.11.47.24,1,.25,1.24.06,2.95-1.68,6.66-3.47,10.01-3.78-2.14-5.64-5.71-6.56-8.63-.25-.79-.41-1.85-.59-2.98-.31-1.97-.62-4-1.53-5.89-.78-1.62-1.98-2.7-2.78-3.42-.03-.03-.07-.06-.1-.09-.18-1.61-.03-4.94.07-7.04.11-2.42.21-4.7.1-6.52-.23-3.58-.7-7.12-1.16-10.54-.69-5.16-1.34-10.03-1.17-14.8.08-2.25-1.36-4.28-3.51-4.95-.49-.15-.99-.23-1.49-.23-1.67,0-3.28.84-4.21,2.31-3.43,5.37-3.28,11.91-3.16,17.16.01.46.02.92.03,1.37.02,1.19.28,2.2.48,3.01.09.34.2.8.21.96.04,3.61.01,7.31-.02,10.89-.02,2.18-.03,4.41-.04,6.64-1.09-.12-2.26-.29-3.36-.44-2.4-.33-4.66-.65-6.44-.65-1.23,0-3.04.13-4.58,1.27-1.91,1.41-3.83,4.03-5.85,6.8-1.18,1.61-2.39,3.27-3.21,4.12-3.51,3.63-7.53,7.07-11.77,10.71-8.24,7.06-16.76,14.36-22.37,23.84-2.46,4.16-4.28,9.19.91,14.94,1.94,2.15,6.64,5.87,13.95,11.06,9.09,6.45,10.26,6.56,11.49,6.67.25.02.51.03.76.03,4.98,0,8.7-4.21,12.28-8.29.17-.19.35-.39.54-.61.95,8.07,1.75,16.28,1.55,24.18-.02.6.08,1.21.28,1.78.5,1.44.53,4.78.56,7.73.06,6.8.12,13.83,4.64,17.64,3.31,2.79,7.55,3.14,10.87,3.14,1.19,0,2.35-.05,3.47-.1.85-.04,1.67-.07,2.42-.08l1.3,25.88c.05,5.96-.4,12.35-.87,19.11-.69,9.95-1.41,20.23-.49,29.54.16,1.65,1.08,4.9,1.9,7.26,1.58,4.52,3.18,7.47,6.3,8.19.53.12,1.06.18,1.58.18,1.85,0,3.54-.76,4.77-2.15,2.56-2.9,2.21-7.46,1.55-12.67-.07-.51-.15-1.21-.16-1.42-.1-6.4-.11-14.82.71-22.9.02-.21.03-.41.02-.62l-.62-27.45c0-.09,0-.17-.01-.26l-1.66-22.35,21.18.52c.14,2.59.21,6.35.26,9.59.32,18.97.92,28.31,4.97,32.03.96.88,2.52,2.05,4.98,2.05.44,0,.9-.04,1.44-.11,2.2-.31,3.92-2.04,4.24-4.23,1.37-9.46.72-18.88.08-28-.26-3.75-.53-7.6-.64-11.4,9.1-1.75,16.3-11.29,17.66-20.26,1.14-7.5-.07-17.73-1.25-27.62-.52-4.41-1.02-8.61-1.25-12.17,4.21,2.79,8.96,5.37,13.61,5.37,2.89,0,5.49-1.01,7.52-2.93,3.92-3.71,10.56-12.95,16.54-21.49l.11-.16c3.63-5.2,5.58-8.95,4.77-12.77-.79-3.72-3.71-5.49-6.54-7.19-1.53-.92-3.25-1.96-5.1-3.49-3.22-2.66-6.31-5.42-9.3-8.09-8.43-7.53-17.15-15.32-29.01-20.99-1.89-.9-3.56-1.34-5.13-1.34-4.44,0-6.35,3.24-7.18,4.71-.17.03-.36.05-.55.08-.29-3.29-.62-6.58-.94-9.8-1.07-10.8-2.18-21.96-2.02-32.77.02-1.13-.21-2.12-.42-2.87.74-1.33,1.82-3.74.73-6.64-.73-1.96-2.6-3.24-4.68-3.24h0Z"/>
    </g>
    <g>
      <path class="st0" d="M148.03,154.63c-4.57,0-8.17-1.04-10.7-3.11-2.37-1.94-3.68-4.76-3.68-7.94,0-9.59,9.91-17.03,18.43-17.03,1.92,0,3.86.31,5.75.93,1.08.35,1.78,1.37,1.73,2.5-.13,2.67-1.81,4.33-4.36,4.33-.93,0-1.84-.21-2.72-.4-.62-.14-1.27-.29-1.66-.29-1.73.06-6.12,4.51-6.55,6.62-.5,2.39.23,3.29.48,3.58,1.08,1.32,3.73,2.05,7.48,2.05,1.58,0,3.33-.13,5.19-.38.11-.02.22-.02.34-.02.65,0,1.27.25,1.74.71.55.54.83,1.29.74,2.06-.59,5.52-6.91,6.07-9.28,6.27-1,.09-1.98.13-2.91.13Z"/>
      <path class="st0" d="M152.08,129.05c1.6,0,3.27.25,4.98.8-.08,1.52-.84,1.95-1.87,1.95-1.31,0-3.06-.69-4.39-.69-.04,0-.08,0-.12,0-3.11.1-8.27,5.65-8.88,8.61-1.46,7.05,4.61,8.64,10.4,8.64,1.98,0,3.93-.19,5.53-.4-.35,3.31-4.28,3.81-7.01,4.05-.95.08-1.85.12-2.69.12-20.53,0-11.32-23.08,4.05-23.08M152.08,124.05c-11.98,0-20.93,10.31-20.93,19.53,0,3.95,1.63,7.46,4.6,9.88,2.98,2.44,7.11,3.67,12.28,3.67,1,0,2.05-.05,3.12-.14,1.91-.16,3.95-.43,5.89-1.24,3.3-1.37,5.31-3.95,5.67-7.26.16-1.53-.39-3.05-1.49-4.12-.94-.91-2.19-1.41-3.48-1.41-.22,0-.45.02-.67.05-1.75.24-3.38.36-4.85.36-3.79,0-5.28-.81-5.54-1.13-.05-.06-.17-.46.02-1.44.44-1.31,2.99-4.02,4.33-4.65.26.05.63.13.9.19.97.22,2.07.46,3.27.46,3.9,0,6.66-2.69,6.86-6.7.11-2.26-1.3-4.31-3.45-5.01-2.15-.7-4.34-1.05-6.52-1.05h0Z"/>
    </g>
  </g>
  <g>
    <path d="M167.12,18.48c.65,1.74-1.2,3.1-1.27,4.32-.05.91.65,2.15.63,3.37-.23,15.96,2.16,32.03,3.38,47.92.39.33,6.72-.43,7.51-.73,2.71-1.01,1.7-6.39,7.77-3.48,15.28,7.3,24.9,18.19,37.29,28.42,8.5,7.02,14.28,4.84,5.96,16.73-3.6,5.15-11.87,16.99-15.99,20.89-5.81,5.49-17.13-5.01-22.48-8.08-.23.31-.34,6.74-.3,7.71.46,11.44,4.26,29.97,2.65,40.6-1.2,7.9-8.86,17.85-17.77,16.09-.17,14.53,2.75,29.17.66,43.61-1.08.15-1.53.07-2.33-.67-4.86-4.46-2.3-41.49-4.46-42.84l-30.74-.76,2.06,27.85.62,27.45c-.79,7.69-.86,15.81-.74,23.53.03,1.96,2.2,11.95-1.6,11.07-1.61-.37-4.17-9.18-4.36-11.07-1.48-14.99,1.52-33.11,1.38-48.3l-1.48-29.42c-.23-.87-.82-.96-1.58-1.1-4.69-.87-12.69,1.44-16.77-2-4.56-3.84-1.73-17.56-3.7-23.19.29-11.22-1.33-22.63-2.66-33.84-5.77,1.36-11.69,13.91-17.02,13.42-.96-.09-7.66-4.78-9.06-5.77-3.2-2.27-10.77-7.71-13.13-10.33-2.95-3.27-2.35-5.61-.32-9.05,7.95-13.43,22.85-22.68,33.43-33.63,2.46-2.54,6.16-8.69,8.43-10.37,1.68-1.24,13.3,1.93,16.44.71-.1-7.49.11-15.01.02-22.51-.02-1.42-.67-2.74-.69-4-.09-5.17-.52-11.27,2.34-15.76-.31,8.56,1.79,17.19,2.34,25.83.25,4-.8,12.12.14,15.29.37,1.26,2.35,2.15,3.06,3.64,1.04,2.16,1.03,5.57,1.86,8.2,2.11,6.72,6.81,11.66,13.61,13.36,2.58-4.74,6.3-10.77,6.18-16.35-.04-1.99-1.18-3.87-.63-5.92l9.17-5.59-1.93-26.03c.38-9.73-.98-19.63,1.44-29.13l2.6-.08ZM210.25,108.14c-3.44-3.03-6.44-6.89-9.97-9.81-6-4.96-13.24-8.88-19.73-13.16-2.3-.7-7.02,2.5-9.8,3.05l2.44,34.54c1.34,16.57-1.88,36.17-.04,52.37.52,4.54,2.76,3.84,6.66,3.62,1.16-1.02-1.09-21.88-1.31-25.07s.2-7.03-.06-10c-.85-9.55-3.67-18.8-2.76-28.42,2.18-2.02,6.01-10.38,9.11-10.1s16.24,11.99,20.34,14.49c1.02.62,7.47,4.07,7.95,3.99.94-1.64,7.29-7.78,6.31-9.21-3.55-1.11-6.4-3.91-9.12-6.31ZM127.19,103.42c-2.02-3.81-4.25-7.33-5.62-11.51l-12.98-.85c-2.36,4.31-28.45,25.67-27.94,27.69l16.53,12.29c6.28-2.54,13.61-16.52,21.52-13.49,2.32.89,2.66,5.57,2.83,7.93.79,10.96,1.98,21.92,2.74,32.86.21,3.07-.69,18.37,1.38,19.71,1.57.07,3.44.31,4.97.12,3.93-.49,1.72-2.54,1.64-5.07-.57-17.7-2.17-35.33-3.35-53-.39-5.78.88-11.75-1.74-16.69ZM136.97,178.16c10.19-1.35,20.62,1.19,30.87.37l.53-.81c-.98-20.22.59-39.94.12-60.31-.07-3.14-.54-6.25-.7-9.37-.11-2.17.71-10.32-1.01-11.06-3.13,8.48-19.66,16.11-28.12,14.72-2.25-.37-3.82-2.33-5.72-3.32l4.02,69.78Z"/>
    <path d="M157.07,129.85c-.18,3.52-4,1.19-6.37,1.26-3.11.1-8.27,5.65-8.88,8.61-1.96,9.46,9.65,9.09,15.93,8.24-.35,3.31-4.28,3.81-7.01,4.05-26.36,2.27-12.45-28.24,6.34-22.16Z"/>
  </g>
</svg>