<?xml version="1.0" encoding="UTF-8"?>
<svg id="Capa_1" xmlns="http://www.w3.org/2000/svg" version="1.1" viewBox="0 0 300 300">
  <!-- Generator: Adobe Illustrator 29.8.3, SVG Export Plug-In . SVG Version: 2.1.1 Build 3)  -->
  <defs>
    <style>
      .st0 {
        fill: #2b2b2b;
      }

      .st1 {
        
      }
    </style>
  </defs>
  <path class="st1" d="M127.23,73.23c6.69,5.6,13.59,11.8,20.3,18.49,6.47-6.93,13.15-13.42,19.68-19.33-8.12-11.92-15.41-21.41-19.95-27.1-4.56,5.87-11.9,15.69-20.03,27.95h0Z"/>
  <path class="st1" d="M193.68,176.39c1.51,45.52-12.62,67.66-25.22,78.34,17.49-4.25,37.22-17.34,54.09-42.42,30.97-46.02.48-134.57-9.47-160.33-6.46,4.56-17.18,12.47-29.1,22.63l.42.64-27.75,26.02c19.84,21.89,36.12,47.94,37.03,75.12h0Z"/>
  <path class="st1" d="M82.43,56c-5.66,16.52-18.53,58.31-18.53,96.56,0,47.66,25.71,91.55,58.52,99.92,14.21,3.63,27.02,1.29,37.02-6.75,14.96-12.03,22.61-36.5,21.53-68.92-.84-25.34-17.76-50.35-37.78-71.27l-33.06-29.32.15-.23c-11.45-9-21.59-15.92-27.85-20h0Z"/>
  <g class="st1">
    <path class="st0" d="M142.93,255.73c-2.54,0-4.53-1.46-4.53-3.32v-34.68c-24.37-1.55-44.46-8.11-58.14-18.97-13.99-11.11-21.38-26.79-21.38-45.34,0-41.78,28.23-66.93,79.51-70.9v-34.91c0-1.86,1.99-3.32,4.53-3.32h14.13c2.54,0,4.53,1.46,4.53,3.32v34.52c45.67,2.12,76.83,21.81,79.5,50.31.12,1.32-.55,2.6-1.85,3.51-1.18.82-2.75,1.28-4.43,1.28h-49.16c-3.05,0-5.66-1.54-6.2-3.66-1.5-5.91-5.83-13.28-17.87-15.32v63.64c9.7-2.38,16.34-8.42,17.45-15.98.33-2.28,3.02-4,6.26-4h49.16c1.75,0,3.42.51,4.6,1.39,1.31.99,1.92,2.39,1.63,3.76-6.21,29.54-35.02,47.99-79.1,50.7v34.66c0,1.86-1.99,3.32-4.53,3.32h-14.13ZM138.4,120.28c-11.32,4.36-17.06,14.36-17.06,29.73,0,16.93,5.58,27.1,17.06,31.04v-60.77Z"/>
    <path class="st0" d="M157.07,45.29c1.95,0,3.53,1.04,3.53,2.32v35.47c45.24,1.85,76.86,21.23,79.5,49.44.09.96-.43,1.9-1.43,2.6-1,.7-2.4,1.1-3.86,1.1h-49.15c-2.59,0-4.8-1.23-5.23-2.91-1.69-6.65-6.57-14.43-19.83-16.24v66.06c10.56-2.2,18.19-8.58,19.43-17.09.26-1.78,2.54-3.15,5.27-3.15h49.16c1.53,0,2.99.44,4,1.19,1.01.76,1.46,1.76,1.25,2.76-6.15,29.24-35.44,47.51-79.12,49.96v35.6c0,1.28-1.58,2.32-3.53,2.32h-14.13c-1.95,0-3.53-1.04-3.53-2.32v-35.62c-50.02-2.92-79.51-26.13-79.51-63.37,0-41.79,28.13-66.27,79.51-69.97v-35.84c0-1.28,1.58-2.32,3.53-2.32h14.13M139.4,182.42v-63.56c-12.65,4.24-19.06,14.65-19.06,31.15,0,21.33,8.96,29.45,19.06,32.41M157.07,43.29h-14.13c-3.1,0-5.53,1.9-5.53,4.32v33.99c-25.16,2.08-44.79,9.15-58.34,21.05-14.05,12.32-21.17,29.41-21.17,50.77,0,18.87,7.52,34.82,21.76,46.12,13.66,10.85,33.6,17.45,57.76,19.12v33.74c0,2.42,2.43,4.32,5.53,4.32h14.13c3.1,0,5.53-1.9,5.53-4.32v-33.72c21.02-1.42,39.21-6.63,52.7-15.12,14.13-8.89,23.25-21.45,26.37-36.31.37-1.76-.38-3.54-2.01-4.77-1.35-1.01-3.24-1.6-5.2-1.6h-49.16c-3.79,0-6.84,2.04-7.25,4.86-1,6.82-6.83,12.36-15.45,14.82v-61.14c8.58,1.77,13.92,6.6,15.9,14.36.66,2.6,3.61,4.41,7.16,4.41h49.15c1.88,0,3.66-.52,5.01-1.46,1.6-1.12,2.43-2.73,2.28-4.42-1.35-14.46-9.9-26.95-24.72-36.12-14.08-8.72-32.99-13.91-54.78-15.04v-33.57c0-2.42-2.43-4.32-5.53-4.32h0ZM137.4,179.61c-10.13-4.12-15.06-13.84-15.06-29.6,0-14.49,4.93-23.76,15.06-28.24v57.84h0Z"/>
  </g>
  <g>
    <path d="M226.56,79.95c-5.81-13.91-22.49-34-35.1-42.26-10.13-6.64-20.66-13.59-21.02-12.74-3.42-1.04-7-1.57-10.68-1.57-7,0-14.32,1.82-22.38,5.56-9.35,4.34-26.68,19.58-32.61,26.85-1.67,2.05-4.38,6.13-3.74,10.39.35,2.31,1.63,4.26,3.71,5.63,1.32.87,2.74,1.41,4.25,1.61-.13.05-.25.11-.38.16-4.75,2.16-8.88,7.09-12.88,11.87-1.78,2.13-3.46,4.14-4.98,5.61-1.21,1.17-3.24,2.8-5.38,4.53-4.63,3.73-9.43,7.59-11.48,10.91-1,1.63-1.41,3.22-1.73,4.49-.21.82-.39,1.52-.67,2.07-1.39,2.63-3.11,5.77-5.11,9.4-8.73,15.88-20.68,37.63-22.56,49.92-.94,6.11.37,12.05,1.64,17.79.51,2.31.99,4.49,1.3,6.6.41,2.72.62,5.14.83,7.48.61,6.87,1.14,12.8,6.07,21.05,5.5,9.2,12.12,13.13,19.14,17.29,2.61,1.55,5.3,3.14,8.04,5.08,2.34,1.65,4.65,3.64,7.1,5.74,3.57,3.06,7.25,6.22,11.19,8.43,6.17,3.46,35.71,12.23,43.3,12.4.22,0,.45,0,.67,0,3.82,0,8.02-.71,12.08-1.39,3.66-.62,7.45-1.25,10.61-1.28h.16c1.51,0,3,.22,4.58.45,1.7.25,3.46.5,5.36.5.81,0,1.58-.05,2.34-.14,4.59-.57,11.53-4.97,20.85-11.13,3.69-2.44,7.18-4.75,9.42-5.91,2.57-1.33,5.39-2.23,8.37-3.19,4.43-1.42,9.23-2.97,13.3-6.15-.06.6,6.6-6.82,12.06-12.84,4.44-4.88,9.34-16.98,8.64-23.54l-2.29-21.54c-.28-2.67-.75-5.33-1.38-7.94l-10.02-41.12c-.76-3.11-1.32-6.26-1.69-9.43l.31-18.71c-.94-8.09-3-16.01-6.15-23.52l-3.1-7.43ZM157.87,42.95c2.36,0,4.64.28,6.88.85-1.74,3.37-3.65,6.62-6.48,8.41-.54.34-.73.34-1.41.35-.72,0-1.81.01-3.02.55-1.16.52-2.29,1.06-3.4,1.62.02-.31.02-.63,0-.96-.21-2.64-1.86-4.98-5.06-7.18-.44-.3-.95-.5-1.48-.57l-.31-.04c4.57-1.78,9.39-3.03,14.29-3.03ZM226.56,208.22c-1.28,1.15-1.98,10.34-11.52,15.27-23.98,12.38-38.61,19.39-60.41,19.39-5.91,0-12.24-.51-19.34-1.57-19.23-2.86-41.65-17.81-54.53-36.36-6.41-9.23-13.36-23.47-10.09-38.91,4.36-20.54,29.45-54.11,46.17-66.16.32-.23.55-.37.72-.46.07.05.13.11.19.16.9.76,2.4,2.03,4.82,2.03,1.79,0,3.64-.7,5.81-2.19,4.79-3.29,7.17-7.12,9.47-10.82,2.68-4.31,4.99-8.03,11.14-11.1.24-.12.85-.2,1.38-.26,1.01-.13,2.27-.29,3.52-.92,8.68-4.42,15.54-11.08,22.17-17.53.84.43,1.99,1.14,2.7,1.58,1.09.68,2.12,1.32,3.02,1.72,1.47.65,2.92,1.27,4.34,1.89,14.88,6.44,11.77,9.12,18.67,24.84,1.2,2.74,4.8,13.25,5.49,16.7,1.31,6.53-.67,6.92,3.91,33.67,0,0,6.19,28.12,6.21,28.31.26,3.44,2.99,12.94,4.43,22.14,1.82,11.67,1.73,18.59,1.73,18.59ZM228.96-23.56c-.96.89-1.89,1.8-2.79,2.73"/>
    <path d="M188.38,128.35c-8.33-5.51-9.46-5.8-9.83-5.9-1.12-.29-2.34-.44-3.74-.44-2.08,0-4.26.32-6.37.63-1.98.29-4.03.6-5.83.6-.49,0-.94-.02-1.36-.07-.98-5.12-.39-10.54,1.76-16.17.78-2.03.72-3.72-.17-5.02-.74-1.07-1.92-1.68-3.24-1.68-.73,0-1.47.19-2.26.57-4.74,2.33-6.06,9.99-7.3,19.75-.23,1.85-.54,4.29-.81,5.36-.77.52-2.21,1.23-3.36,1.55-.14-.75-.39-1.59-.89-2.38-.53-.83-1.24-1.34-1.85-1.69.02-.08.05-.15.07-.22.44-1.42,1.1-3.57-.28-5.45-.48-.65-1.6-1.74-3.68-1.74-.15,0-.31,0-.48.02-.44.03-.87.15-1.27.34-2.97,1.45-3.79,4.46-4.34,6.45-.13.47-.31,1.14-.45,1.45-.99.73-3.41,1.76-5.56,2.68-3.53,1.5-7.52,3.2-10.21,5.44-3.08,2.57-12.71,12.43-15.24,15.38-3.58,4.17-2.75,7.76-1.94,9.53,2.12,4.61,8.55,7.02,13.82,7.02,1.26,0,2.42-.14,3.46-.42.07-.02.15-.04.22-.06-.6,1.49-1.24,3.02-1.81,4.39-4.69,11.31-7.72,19.02-7.09,23.03.21,1.37.71,2.51,1.52,3.51,1.52,1.87,4.32,2.4,11.93,3.44,1.57.22,3.47.48,5.01.74-.75,6.41-.6,17.74,1.6,21.2.86,1.36,2.2,2.14,3.66,2.14h0c.93,0,1.83-.38,2.48-1.05l.15-.16c2.17-2.22,3.42-3.74,3.78-5.4.66-3.07.4-6.9.14-10.6-.12-1.78-.25-3.61-.26-5.25h1.04v10.79c0,2.73,3.88,5.11,4.84,5.38.48.13.97.2,1.46.2,5.68,0,7.15-7.91,8-13.84,1.24,0,2.64.03,4.15.07,1.76.04,3.75.08,5.75.08,8.39,0,17.41-.72,20.67-6.08,3.21-5.27-3.11-22.43-6.35-30.39,6.42-2.42,9.16-8.85,11.44-14.2,1.03-2.42,2-4.71,3.22-6.62.36-.56.97-1.16,1.61-1.79,1.27-1.25,2.86-2.81,3.64-5.2.14-.44.2-.91.16-1.37-.14-1.67-.2-2.36-9.63-8.6ZM131.59,143.36c-.23-.03-.47-.04-.72-.04-3.47,0-7.14,2.65-11.23,5.84-.2.15-.4.32-.61.48l-.44-.28,6.77-8.58,3.95-.84,2.32,2.78-.05.65ZM141.27,185.77l-1.59-.18,2.95-39.79c1.67-.12,3.21-.59,4.63-1.13l-5.99,41.1ZM156.16,188.3l1.29-18.67s.03.1.05.15c.57,1.63,1.17,3.25,1.77,4.86,1.88,5.09,3.68,9.95,4.63,15l-7.74-1.34ZM178.07,145.53c-.71,1.07-1.47,2.22-2.08,3.5-.97-.76-2.44-2.12-4.62-4.5-1.43-1.55-2.02-2.2-3.22-2.48-.65-.15-1.32-.23-1.99-.23-2.39,0-4.52.98-6.38,2.14l.26-3.93c1.05-.2,2.09-.47,3.1-.74,1.5-.4,3.05-.8,4.16-.8.18,0,.35.01.49.03.89.14,3.37,1.75,5.02,2.82,1.91,1.24,3.86,2.51,5.79,3.41-.17.26-.34.52-.52.79Z"/>
  </g>
  <g id="pHQINd.tif" class="st1">
    <g>
      <path d="M216.61,68.92c13.91,1.2,14.92,13.48,8.9,23.95-.8,1.39-2.91,3.22-3.42,4.48-1.95,4.81,3.21,13.75,3.24,19.06l4.2,2.04c.98,2.85-4.14,3.01-3.25,6.57.4,1.62,4.55,6.99,5.65,9.65,4.27,10.35,7.3,19.36,13.05,29.32,8.1,14.03,23.46,31.29,26.26,47.18.56,3.19-.68,6.88-3.21,8.95-1.96,1.61-4.09.21-6.08-.78-16.48-8.26-30.83-21.2-46.55-30.84-1.18-.73-7.64-5.09-8.42-4.28l.02,21.21-1.72,28.22c-1.64,6.03-1.08,13.81-2.37,19.66-.2.91-3.04,5.4-3.85,5.8-2.13,1.03-4.65-4.05-5.91-5.4-4.62-4.99-7.91-7.81-11.48-13.94-6.52-11.22-10.5-23.7-15.08-35.76-6.53,7.94-11.18,17.45-16.88,26.06-6.03,9.11-12.87,18.69-19.59,27.3-1.84,2.35-10.79,14-12.43,14.73-2.3,1.03-3.64-1.39-3.73-3.5-.24-5.6.74-11.91.87-17.48.03-1.14-.59-2.18-.56-3.33.04-1.76.96-3.5.61-5.36l-5.19,10.34c-11.4,19.27-33.52,26.65-54.32,17.83-11.09-4.7-20.25-14.34-18.39-27.27.8-5.55,9.18-14.44,13.71-17.8l.36-1.17c-1.29-.36-2.64-1.43-3.65-2.29-2.64-2.26-19.16-18.85-18.88-20.52,3.73-3.93,6.72-7.14,12.36-4.32.55-.55-4.3-8.6-3.97-10.99.15-1.08,5.53-5.26,6.54-5.41,5.3-.79,24.1,18.81,25.1,17.53l-3.73-16.68c.12-.86,5.94-5.34,6.86-5.35,2.02-.02,2.94,5.25,3.74,6.99,2.73,5.9,5.86,11.74,9.24,17.3,15.53-22.37,33.38-43,49.43-64.95l-33.03.02-3.95-.62c-4.43-.2-19.41.13-22.36-2.52-.33-.3-.57-.54-.45-1.02l4.45-8,36.02-22.45c-.15-2.98.55-4.97,1.72-7.61,3.4-7.71,9.97-16.07,17.65-19.78,4.41-10.47,9.39-29.09,17.73-36.93,7.49-7.04,10.72,12.27,12.29,16.58,1.05,2.87,2.83,6.12,3.85,9.14,1.75,5.15,2.73,10.52,4.78,15.55,6.97-14.37,10.95-30.96,18.15-45.12,1.93-3.79,6.13-13.16,11.21-7.95,3.38,3.46,9.02,23.54,10.77,29.34,1.44,4.8,2.74,9.73,3.7,14.66ZM209.23,68.4c-2.51-9.76-5.36-20.3-9.03-29.67-.41-1.05-1.97-5.6-3.11-5.35-1.09.24-5.31,8.78-6.04,10.35-6.24,13.54-10.8,28.82-16.28,42.75,10.16-8.04,20.91-17.11,34.46-18.08ZM153.86,45.24c-1.06-.22-1.36.54-1.92,1.17-6.19,7.05-9.76,18.48-13.32,27.07,10.57-.74,19.35,6.11,28.24,10.74-3.08-13.41-8.66-25.98-13-38.98ZM142.06,128.23c.15.09,1.11-.59,1.8-.42.72.18,4.19,3.3,5.57,4.07,16.46,9.27,48.93,3.57,64.49-5.97,1.29-.79,5.36-3.37,5.44-4.65.23-3.84-4.85-11.93-3.92-16.7-12.12,10.48-29.82,14.7-45.01,8.58-11.98-4.82-13-9.28-28.07-6.26-7.71,1.55-14.7,7.07-22.57,2.67-1.22-.68-1.81-2.39-3.45-2.2l-26.86,18.1c3.28.35,6.59.69,9.88.82,10.64.42,22.07.58,32.79.34,2.34-.05,7.1-1.57,9.08-.07.55.42.71,1.6.85,1.68ZM118.84,189.86l-20.33,14.97c7.16,1.26,13.68,5.56,16.95,12.14l3.38-27.11ZM54.44,200.03c-.76.78,3.91,4.98,4.23,5.65,2.01,4.26-6.47,7.07-6.48,7.62l7.28,5.68c2.86-1.68,18.8-7.23,19.21-9.71l-1.94-2.43c-4.15,4.95-7.42,2.86-12.32.43l-9.99-7.23ZM104.52,217.74c-13.33-13.02-25.96,1.67-38.22,6.85-2.82,1.19-6.93,2.63-9.88,3.43-.74.2-1.64-.46-2.5-.02-1.24.62-6.7,8.08-7.34,9.63-9.57,23.11,32.75,36.33,48.73,25.01,4.45-3.15,11.04-17.03,12.64-22.38,2.47-8.24,3.24-16.01-3.43-22.52Z"/>
      <path d="M90.6,237.88c.89,3.49,4.48,5.53,3.14,9.63-.34,1.03-1.84,2.07-1.88,2.51-.02.31,2.39,4.1,2.84,5.5.31.95,1.54,4.03.12,4.39-2.65.68-5.13-6.71-5.66-6.8-5.4,1.02-1.4,4.9-1.96,8.5-2.98.48-3.57-.69-3.96-3.39-1.98-.48-2.21,1.87-3.95,1.47-2.96-.68-8.24-8.46-9.05-11.64l-2.81,7.06c-1.46.08-7.77,1.18-8.4.19.39-6.26,2.39-13.29,5.67-18.74.48-.79,1.92-1.85,1.98-2.35.1-.93-1.76-4.23-.94-5.95,2.17-.57,2.31,2.31,3.96,3.14,1.04.52,3.65-2.03,4.45-2.97l-1.06-5.26c2.28-.3,3.11,2.23,4.79,3.26,2.59-.88,7.69-5.03,10.12-4.94.97.04,12.51,3.92,13.08,4.47,1.03,1,.93,1.56.57,2.87-.18.64-4.09,7.52-4.52,7.93-1.96,1.86-4.05.92-6.53,1.1ZM96.74,234.99l2.32-4.74-13.93-4.68-5.77,3.55,3.9,6.5,3.17-3.31,10.31,2.68ZM75.63,231.11c-1.12,1.07-4.05,1.68-3.59,3.53l13.19,18.48,2.5-3.02-12.1-18.99ZM68.56,236.19c-1.44-.16-2.03,1.23-2.43,2.36-.52,1.45-2.55,11.86-2.08,12.33h3.39s1.66-7.58,1.66-7.58c.07-.6.98-.42,1.38-.26,2.12.85,6.86,10.01,9.96,11.23-2.83-6.74-9.28-11.31-11.87-18.08Z"/>
    </g>
  </g>
</svg>