<?xml version="1.0" encoding="UTF-8"?>
<svg id="Layer_1" xmlns="http://www.w3.org/2000/svg" version="1.1" viewBox="0 0 300 300">
  <!-- Generator: Adobe Illustrator 29.8.3, SVG Export Plug-In . SVG Version: 2.1.1 Build 3)  -->
  <defs>
    <style>
      .st0 {
        fill: #fff;
      }
    </style>
  </defs>
  <g id="hKCHkk.tif">
    <g>
      <path class="st0" d="M123.65,247.96c-.25,0-.49-.02-.74-.07-1.87-.35-3.42-1.39-4.35-2.92-1.92-3.14-.72-7.18.07-9.87.11-.37.21-.71.28-1,1.12-4.45,2.68-9,4.18-13.41l.79-2.33c.22-.65.52-1.69.83-2.78.29-1,.56-1.93.82-2.78-3.51.52-6.9,1.05-10.32,1.76-2.21.46-6.25,1.57-10.94,2.85-12.95,3.56-23.27,6.28-28.53,6.28-.9,0-1.67-.08-2.35-.24-6.02-1.45-6.82-5.43-6.44-8.52.27-2.15,1.77-4.43,8.64-9.76,5.84-4.53,12.05-8.21,18.23-11.65-9.86.52-21.29,1.09-32.46,1.51-2.76.1-5.55.26-8.25.42-3.8.22-7.73.45-11.66.51-.15.02-.69.17-1.05.28-.95.27-2.13.62-3.42.62-.26,0-.51-.01-.76-.04-5.72-.63-8.55-3.5-9.92-5.81-2.18-3.67-2.24-8.47-.17-13.5,1.56-3.79,9.45-12.55,13.19-14.64,2.02-1.13,11.02-3.54,13.79-3.54.41,0,.78.04,1.14.11,1.71.36,4.41,2.31,4.82,2.68,1.32,1.17,2.16,2.47,2.68,3.77,2.03-1.26,4.13-2.55,6.32-3.7,6.21-3.28,13.77-6.85,20.21-9.56,2.85-1.2,5.76-2.25,8.58-3.27,1.59-.58,3.22-1.16,4.83-1.77-.84-3.18-1.15-6.5.03-10.31.92-2.97,7.01-13.05,8.56-15.08,4.34-5.69,11.02-9.79,18.53-11.44,12.37-20.36,28.48-36.99,41.22-49.27.43-.41,1.21-1.25,2.04-2.14,3.9-4.18,5.94-6.23,7.79-6.9.75-.27,1.52-.41,2.27-.41,1.57,0,3.06.62,4.18,1.74,1.35,1.35,2.12,3.4,2.12,5.62,0,2.64-1.12,6.04-2.31,9.65-.61,1.84-1.23,3.74-1.48,4.97-.56,2.72-1.27,7.07-1.46,9.34-.18,2.23-.18,10.21.15,14.49,1.52-.16,3.09-.38,4.7-.6,3.63-.49,7.39-1,11.15-1,4.82,0,8.96.89,12.56,2.7.8-.87,1.59-1.74,2.37-2.6,3.39-3.73,6.89-7.59,11-10.96,7.23-5.92,27.5-18.91,40.59-18.91.9,0,1.76.06,2.57.18.06,0,5.75.94,6.88,5.01.98,3.54-1.83,7.15-6.89,13.25-1.14,1.38-2.44,2.94-2.85,3.61-8.31,13.56-12.24,31.27-14.99,46.8-3.51,19.85-3.4,36.85-2.86,58.69.07,2.76.32,5.86.58,9.14.56,7,1.15,14.25.19,20.39-.73,4.67-6.75,7.91-7.96,8.51-5.45,2.73-10.94,3.03-16.26,3.32-1.6.09-3.1.17-4.61.32-16.97,1.64-32.98,3.92-49.92,6.34l-4.79.68c-2.64.38-5.28.76-7.92,1.14-10.74,1.56-21.84,3.18-32.91,4.12-.11,0-.22.01-.34.01Z"/>
      <path class="st0" d="M182.14,56.04c1.53,0,2.3,1.67,2.3,3.36,0,3.3-2.96,10.14-3.71,13.82-.54,2.63-1.31,7.2-1.52,9.82-.2,2.49-.34,18.2,1,19.07,6.12-.28,12.7-1.86,19-1.86,4.67,0,9.19.87,13.26,3.79,5.05-5.23,9.56-10.92,15.21-15.55,7.94-6.5,26.76-18,38.06-18,.7,0,1.37.04,2,.14,1.01.15,3.3,1.07,3.59,2.12.69,2.49-7.55,10.85-9.3,13.7-8.63,14.08-12.68,32.16-15.51,48.19-3.66,20.69-3.43,38.64-2.92,59.48.22,8.71,2.14,20.34.82,28.81-.35,2.22-3.91,4.61-5.79,5.55-6.2,3.11-12.86,2.59-19.46,3.23-18.68,1.81-36.41,4.42-54.89,7.04-13.5,1.92-26.98,4.08-40.6,5.23-3.81-.71-1.46-6.49-.86-8.87,1.29-5.09,3.23-10.53,4.89-15.45.77-2.29,2.08-7.71,3.14-9.58.58-1.02,2.13-1.25,2.51-2.49-6.34,1.03-12.63,1.76-18.92,3.06-7.17,1.48-31.04,9.05-38.66,9.05-.57,0-1.05-.04-1.42-.13-2.41-.58-3.73-1.47-3.4-4.14.21-1.69,5.49-5.82,7.12-7.09,8.49-6.59,17.71-11.28,27.06-16.43,1.28-.7,3-1.8,4.1-2.75-1.93.21-3.88.26-5.82.26-1.62,0-3.24-.03-4.85-.03-1.19,0-2.37.02-3.55.08-11.31.6-22.58,1.16-33.77,1.58-6.7.25-13.22.81-19.83.93-1.31.02-3,.89-4.41.89-.11,0-.22,0-.33-.02-7.83-.86-9.53-7.24-6.82-13.81,1.24-3.02,8.56-11.06,11.44-12.67,1.41-.79,9.68-3.03,11.84-3.03.13,0,.24,0,.32.03.54.11,2.51,1.33,2.99,1.76,2.27,2.01,2.32,4.7,1.96,7.49,3.89-2.2,7.61-4.79,11.56-6.87,6.02-3.17,13.48-6.71,19.9-9.41,5.51-2.32,11.28-4.07,16.79-6.39-1.38-3.92-2.37-7.29-1.08-11.47.67-2.17,6.35-11.79,7.91-13.83,4.26-5.58,10.91-9.15,17.86-10.27,11.24-18.97,25.78-34.85,41.49-49.98,1.74-1.68,6.8-7.57,8.42-8.16.32-.12.62-.17.9-.17M182.14,48.04c-1.22,0-2.44.22-3.63.65-2.68.97-4.9,3.17-9.35,7.94-.72.77-1.53,1.65-1.88,1.98-23.06,22.22-34.16,37.56-41,48.66-7.73,2.07-14.57,6.5-19.15,12.5-1.56,2.05-8.05,12.61-9.2,16.32-1.01,3.28-1.11,6.28-.79,8.92-.53.19-1.06.38-1.6.58-2.87,1.04-5.84,2.11-8.78,3.35-6.55,2.76-14.22,6.38-20.52,9.71-1.09.58-2.15,1.18-3.19,1.79-.39-.44-.82-.88-1.3-1.3-.03-.03-3.57-2.96-6.67-3.6-.62-.13-1.26-.19-1.95-.19-3.58,0-13.12,2.58-15.74,4.04-4.52,2.52-13.04,11.99-14.94,16.61-2.56,6.22-2.41,12.28.43,17.06,2.59,4.36,7.18,7.11,12.92,7.74.39.04.79.06,1.2.06,1.86,0,3.41-.45,4.54-.77.14-.04.31-.09.45-.13,3.86-.08,7.68-.3,11.38-.51,2.68-.15,5.45-.31,8.17-.41,5.59-.21,11.24-.45,16.71-.71-1.71,1.17-3.41,2.4-5.08,3.69-7.13,5.53-9.69,8.66-10.16,12.43-.3,2.42-.51,10.51,9.47,12.91.99.24,2.06.35,3.29.35,5.76,0,16.35-2.78,29.59-6.42,4.42-1.21,8.6-2.36,10.69-2.79,1.28-.26,2.56-.5,3.85-.73-.19.55-.38,1.11-.57,1.67-1.45,4.27-3.1,9.11-4.27,13.71-.06.24-.15.53-.24.84-.93,3.15-2.49,8.43.35,13.09,1.54,2.51,4.03,4.2,7.03,4.77.49.09.98.14,1.48.14.22,0,.45,0,.67-.03,11.2-.94,22.37-2.57,33.17-4.14,2.63-.38,5.26-.77,7.88-1.14l4.77-.68c16.91-2.41,32.88-4.68,49.77-6.32,1.42-.14,2.89-.22,4.44-.3,5.45-.3,11.64-.63,17.83-3.74,2.72-1.36,9.14-5.2,10.12-11.47,1.03-6.6.43-14.09-.16-21.32-.26-3.22-.5-6.27-.57-8.92-.53-21.61-.65-38.41,2.8-57.89,2.68-15.16,6.49-32.41,14.46-45.4.32-.5,1.59-2.03,2.52-3.15,5.17-6.23,9.25-11.15,7.67-16.87-1.83-6.63-9.82-7.86-10.16-7.91-1-.14-2.06-.22-3.14-.22-14.3,0-35.23,13.35-43.13,19.81-4.34,3.56-7.94,7.53-11.43,11.37-.15.16-.29.32-.44.49-3.45-1.27-7.26-1.89-11.53-1.89-4.04,0-7.93.53-11.69,1.04-.13.02-.25.03-.38.05-.1-3.84-.07-8.25.05-9.66.17-2.12.85-6.24,1.39-8.85.2-1,.82-2.87,1.36-4.52,1.29-3.92,2.51-7.62,2.51-10.9,0-3.28-1.19-6.36-3.29-8.46-1.88-1.88-4.37-2.91-7.01-2.91h0Z"/>
    </g>
  </g>
  <g id="hKCHkk.tif1" data-name="hKCHkk.tif">
    <path d="M180.2,102.11c10.65-.49,22.7-4.92,32.26,1.92,5.05-5.23,9.56-10.92,15.21-15.55,8.43-6.9,29.12-19.44,40.06-17.87,1.01.15,3.3,1.07,3.59,2.12.69,2.49-7.55,10.85-9.3,13.7-8.63,14.08-12.68,32.16-15.51,48.19-3.66,20.69-3.43,38.64-2.92,59.48.22,8.71,2.14,20.34.82,28.81-.35,2.22-3.91,4.61-5.79,5.55-6.2,3.11-12.86,2.59-19.46,3.23-18.68,1.81-36.41,4.42-54.89,7.04-13.5,1.92-26.98,4.08-40.6,5.23-3.8-.71-1.46-6.49-.86-8.87,1.29-5.09,3.23-10.53,4.89-15.45.77-2.29,2.08-7.71,3.14-9.58.58-1.02,2.13-1.25,2.51-2.49-6.34,1.03-12.63,1.76-18.92,3.06-7.71,1.59-34.69,10.21-40.08,8.91-2.41-.58-3.73-1.47-3.4-4.14.21-1.69,5.49-5.82,7.12-7.09,8.49-6.59,17.71-11.28,27.06-16.43,1.28-.7,3-1.8,4.1-2.75-4.73.51-9.52.06-14.23.31-11.31.6-22.58,1.16-33.77,1.58-6.7.25-13.22.81-19.83.93-1.42.02-3.27,1.03-4.73.87-7.83-.86-9.53-7.24-6.82-13.81,1.24-3.02,8.56-11.06,11.44-12.67,1.5-.84,10.71-3.31,12.17-3,.54.11,2.51,1.33,2.99,1.76,2.27,2.01,2.32,4.7,1.96,7.49,3.89-2.2,7.61-4.79,11.56-6.87,6.02-3.17,13.48-6.71,19.9-9.41,5.51-2.32,11.28-4.07,16.79-6.39-1.38-3.92-2.37-7.29-1.08-11.47.67-2.17,6.35-11.79,7.91-13.83,4.26-5.58,10.91-9.15,17.86-10.27,11.24-18.97,25.78-34.85,41.49-49.98,1.74-1.68,6.8-7.57,8.42-8.16,2.13-.77,3.2,1.2,3.19,3.19,0,3.3-2.96,10.14-3.71,13.82-.54,2.63-1.31,7.2-1.52,9.82-.2,2.49-.34,18.2,1,19.07ZM172.74,110.04c-2.98-3.33-2.68-12.75-2.55-17.11.13-4.67,1.01-9.32,1.79-13.81.5-2.88,1.09-5.74,1.54-8.62-8.23,7.88-16.77,16.19-23.55,25.37-3.74,5.07-8.9,12.43-11.93,17.85-.23.41-.78.71-.22,1.22.52.65,4.05,1.08,5.09,1.45,1.36.49,4.3,1.85,5.89,2.7,8.73,4.7,10.79,11.8,22.37,9.31,5.74-1.24,6.74-3.47,11.24-5.78,12.48-6.41,25.08-3.56,34.44,6.41l19.55,11.41,2.94-15.26c5.18-10.52,6.6-22.45,12.76-32.62l8.42-12.62c-9.93,1.18-20.13,6.49-28.32,12.09-8.4,5.74-11.65,11.24-18.24,18.16-6.6,6.93-5.6,2.45-12.15.33-8.51-2.76-17.27,1.23-25.2,1.13-1.55-.02-2.8-.44-3.85-1.62ZM234.5,153.22c-6.22,2.08-10.71,7.39-16.52,10.18-6.47,3.11-17.39,5.7-24.45,6.75-7.14,1.07-18.69,2.14-24.51-2.76-.78-.66-.84-1.65-1.99-2.27-2.26-1.22-15.77-4.93-18.94-5.64-11.05-2.48-23.61,2.34-33.82-1.64-1.02-.4-2.27-1.77-2.84-1.72-2.05.19-10.27,4.18-12.83,5.14-13.56,5.09-26.84,10.28-39.17,18.03-1.21.76-2.77,1.61-3.64,2.74,9.67-.81,19.4-.16,29.1-.45,9.24-.27,18.63-1.54,27.86-1.45,2.25.02,8.07.08,9.89.54,3.18.8,4.71,2.71,2.39,5.61-.61.76-4.71,3.96-5.73,4.66-6.4,4.38-15.35,7.41-22.33,11.24-4.37,2.4-8.78,5.35-12.82,8.22l38.77-9.73c4.66-.08,10.01-1.93,14.54-2.47.55-.07,4.67-.03,4.87.11,2.27,1.6-3.01,14-3.95,16.44-2.24,5.85-4.9,12.07-6.28,18.31-.18.8-.29,1.57-.21,2.39,27.72-2.83,54.86-8.61,82.58-11.17,5.43-.5,11.05-.93,16.45-1.35,1.03-.08,3.04.82,3.83-.23-.1-23.07-2.71-46.42-.28-69.49Z"/>
  </g>
</svg>