<?xml version="1.0" encoding="UTF-8"?><svg id="Capa_1" xmlns="http://www.w3.org/2000/svg" viewBox="0 0 300 300"><path d="M242.61,227.87l-2.61,5.82v-51.71h5.99c8.58,0,17.54-9.71,21.33-16.66,11.33-20.75,3.6-45.06-4.93-65.31-.45-.32-4.56,2.08-5.31,2.5-3.12,1.75-6.06,3.81-9.1,5.69-1.42-1.55-10.52-13.54-11.67-13.34l-11.46,13.34c-1.74-1.06-13.51-8.82-14.41-8.19-7.18,17.02-14.59,39.27-8.31,57.55,3.61,10.52,12.41,23.14,24.43,24.42,2.02.22,4.37-.16,6.43,0v51.71l-2.61-5.82c-7.61-15.25-19.83-25.57-35.81-31.32-.86-.31-1.75-.61-2.64-.9.46-8.15,0-16.49-1.49-24.9-.83-4.62-2.03-9.07-3.41-13.44-13.44,9.74-24.33,22.61-31.82,37.38v-46.91h8.46c12.12,0,24.75-13.71,30.11-23.52,16-29.29,5.09-63.59-6.96-92.17-.64-.45-6.44,2.94-7.49,3.53-4.4,2.47-8.55,5.38-12.84,8.04-2.01-2.19-14.85-19.11-16.47-18.82l-16.18,18.82c-2.46-1.5-19.07-12.45-20.33-11.57-10.14,24.02-20.59,55.42-11.74,81.23,5.1,14.85,17.52,32.66,34.48,34.47,2.86.3,6.16-.22,9.07,0v46.82c-5-10.3-11.76-19.99-20.3-28.6-3.31-3.33-6.83-6.3-10.45-9.11-4.36,12.39-6.29,25.47-5.8,38.52-1.15.36-2.28.74-3.37,1.14-15.98,5.75-28.21,16.07-35.81,31.32l-2.61,5.82v-51.71h5.99c8.58,0,17.54-9.71,21.33-16.66,11.33-20.75,3.6-45.06-4.93-65.31-.45-.32-4.56,2.08-5.31,2.5-3.12,1.75-6.06,3.81-9.1,5.69-1.42-1.55-10.52-13.54-11.67-13.34l-11.46,13.34c-1.74-1.06-13.51-8.82-14.41-8.19-7.18,17.02-14.59,39.27-8.31,57.55,3.61,10.52,12.41,23.14,24.43,24.42,2.02.22,4.37-.16,6.43,0v51.71l-2.61-5.82c-7.61-15.25-19.83-25.57-35.81-31.32-5.22-1.88-11.19-3.58-16.72-3.56,1.53,11.13,5.24,22.04,11.42,31.43,9.92,15.07,26.21,23.94,43.72,27.28v16.71l.43.43h6.15l.43-.43v-16.71c17.51-3.33,33.79-12.21,43.72-27.28.76-1.16,1.49-2.34,2.18-3.54,4.79,16.48,13.68,32.09,26.69,45.19,2.9,2.92,5.96,5.55,9.1,8.04.07.22.13.43.2.65.11-.08.21-.16.32-.24.28.22.55.45.83.66.2-.57.38-1.15.57-1.72,1.33-1,2.64-2.03,3.91-3.1h.1l.6-.6h0c14.96-12.75,26.13-29.62,32.07-48.57.64,1.1,1.3,2.18,1.99,3.24,9.92,15.07,26.21,23.94,43.72,27.28v16.71l.43.43h6.15l.43-.43v-16.71c17.51-3.33,33.79-12.21,43.72-27.28,6.18-9.38,9.9-20.3,11.42-31.43-5.53-.02-11.5,1.68-16.72,3.56-15.98,5.75-28.21,16.07-35.81,31.32Z"/></svg>