<?xml version="1.0" encoding="UTF-8"?><svg id="Capa_1" xmlns="http://www.w3.org/2000/svg" viewBox="0 0 300 300"><path d="M144.36,268.33v26.91l.69.69h9.9l.69-.69v-26.91c28.19-5.37,54.42-19.66,70.4-43.92,9.95-15.11,15.94-32.69,18.4-50.61-8.91-.03-18.52,2.71-26.93,5.74-25.74,9.27-45.42,25.88-57.67,50.44l-4.2,9.37v-81.52c.52-.37,1.04-.75,1.55-1.16,11.39-9.16,17.21-27.79,16.39-52.46-.64-19.29-13.52-38.33-28.76-54.25l-25.17-22.32.11-.17c-8.71-6.85-16.44-12.12-21.2-15.22-4.31,12.58-14.1,44.39-14.1,73.51,0,36.28,19.57,69.69,44.55,76.06,5.43,1.39,10.59,1.63,15.35.75v76.79l-4.2-9.37c-12.25-24.56-31.93-41.17-57.67-50.44-8.41-3.03-18.02-5.77-26.93-5.74,2.46,17.92,8.44,35.5,18.4,50.61,15.98,24.26,42.21,38.55,70.4,43.92Z"/><path d="M163.1,24.71c-6.18-9.08-11.73-16.3-15.18-20.63-3.47,4.47-9.06,11.94-15.25,21.28,5.1,4.26,10.34,8.98,15.46,14.07,4.92-5.28,10.01-10.22,14.98-14.72Z"/><path d="M155.06,46.7c15.1,16.66,27.5,36.49,28.18,57.18,1.15,34.65-9.61,51.51-19.2,59.63,13.31-3.24,28.33-13.2,41.18-32.29,23.57-35.04.36-102.44-7.21-122.05-4.92,3.47-13.08,9.49-22.15,17.23l.32.49-21.13,19.81Z"/></svg>