<?xml version="1.0" encoding="UTF-8"?><svg id="Capa_1" xmlns="http://www.w3.org/2000/svg" viewBox="0 0 300 300"><path d="M120.49,269.49c-.14.41-.28.83-.41,1.25,1.33-44.6,11.67-89.03,30.85-132.34l-10.08-4.46c-13.31,30.06-22.49,60.65-27.48,91.49-5.96-23.31-18.87-44.87-37.69-61.2-3.6-3.12-7.59-6.12-12.56-9.42l-4.78-3.18-1.5,5.54c-11.83,43.73,2.86,91.36,37.42,121.35,3.6,3.12,7.59,6.12,12.56,9.42l2.21,1.47c0,.28,0,.56.02.84l1.19-.03,1.36.91.26-.95,3.57-.1-.05.25,2.57-.32,2.12-.06c0-.07,0-.14,0-.2l1.02-.13c44.95-5.57,83.51-37.17,98.22-80.5,1.53-4.53,2.8-9.35,3.97-15.2l1.13-5.62-5.7.71c-44.95,5.57-83.5,37.17-98.21,80.5Z"/><path d="M169.24,130.65c15.83,1.47,31.39-12.1,39.68-24.54,9.96-14.95,12.77-36.02,13.35-53.7.08-2.47.11-20.15-.75-20.72-5.32.7-10.61,2.27-15.74,3.84-2.52.77-19.18,6.39-19.79,7.57,1.47,4.11,3.63,7.97,5.09,12.09,9.08,25.58,5.21,62.34-21.84,75.46Z"/><path d="M187.79,12.85l-14.26,9.61,7.73,11.88c4.5-1.03,9.11-3.35,13.49-5.11-2.19-4.73-3.27-10.42-5.73-14.97-.32-.59-.15-1.83-1.23-1.41Z"/><path d="M151.26,9.52c-.38-.31-.68-.63-1.22-.63-15.49,19.71-33.18,45.24-32.56,71.34.52,22.04,10.11,45.06,35.87,44.39,25.72-.67,33.93-26.4,32.76-48.37-1.04-19.44-13.62-39.94-25.23-55.05-2.33-3.04-6.94-9.48-9.62-11.68Z"/></svg>