<?xml version="1.0" encoding="UTF-8"?><svg id="Capa_1" xmlns="http://www.w3.org/2000/svg" viewBox="0 0 300 300"><path d="M156.35,296.12v-9.84c35.24-28.43,52.07-73.54,44.01-118.71h0c-.87-4.88-2.14-9.91-4.01-15.83l-1.89-6-5.09,3.69c-13.38,9.7-24.54,21.92-33.02,36.01v-43.08c17.08-1.42,32.16-15.16,40.84-28.06,22.65-33.66-4.9-98.01-6.08-100.73l-2.37-5.44-4.98,3.23c-.36.23-8.47,5.51-18.61,13.97-7.2-10.36-12.81-16.88-12.87-16.95l-3.87-4.5-3.8,4.55c-.25.29-5.86,7.04-13.01,17.63-9.7-7.45-17.31-12.01-18.18-12.52l-5.1-3.03-2.15,5.53c-.5,1.29-12.26,31.98-12.26,60.48,0,30.06,17.03,57.94,38.76,63.49,3.86.98,7.71,1.34,11.4,1.08.13.04.26.07.39.1v44.36c-5.38-9.35-11.94-17.98-19.69-25.78-3.5-3.53-7.41-6.94-12.31-10.74l-4.97-3.85-2.09,5.93c-15.64,44.45-4.07,94.99,29.47,128.76,2.71,2.73,5.77,5.46,9.57,8.53v7.71h11.89ZM148.61,40.73c-2.86-2.79-5.93-5.58-9.16-8.33,3.53-5.26,6.72-9.6,9.07-12.69,2.34,2.99,5.5,7.19,9.01,12.28-3.16,2.9-6.14,5.83-8.91,8.74ZM145.16,51.59c13.19,13.78,20.07,26.69,20.45,38.38.58,17.42-3.44,30.51-11.33,36.85-5.14,4.14-11.76,5.32-19.13,3.44h0c-17.49-4.46-31.19-28.07-31.19-53.74,0-19.61,6.23-41.04,9.53-51,3.24,2.16,7.64,5.23,12.55,9.04l-.04.06,19.15,16.98ZM170.8,33.74c5.39-4.53,10.23-8.16,13.35-10.41,6.04,16.12,20.72,61.55,4.69,85.36-6.68,9.92-14.76,17.14-23.22,20.85,5.66-7.14,10.72-19.32,10.04-39.9-.43-13.08-7.11-26.99-19.85-41.36l15.19-14.24-.2-.3ZM189.54,160.73c.8,2.98,1.42,5.74,1.9,8.44,7.02,39.38-6.34,78.7-35.09,105.16v-68.82c7.3-17.59,18.64-32.9,33.19-44.77ZM141.31,273.5c-29.56-29.77-40.73-73.56-29.33-113.19,2.34,1.99,4.43,3.91,6.36,5.86,11.55,11.63,20.32,25.22,26.12,40.46v69.88c-1.12-1.02-2.17-2.01-3.15-3Z"/></svg>