<?xml version="1.0" encoding="UTF-8"?><svg id="Capa_1" xmlns="http://www.w3.org/2000/svg" viewBox="0 0 300 300"><path d="M144.3,263.66v27.2l.7.7h10.01l.7-.7v-27.2c28.49-5.42,54.99-19.87,71.15-44.39,10.06-15.27,16.11-33.04,18.59-51.15-9-.03-18.72,2.74-27.21,5.8-26.01,9.37-45.9,26.15-58.28,50.97l-4.24,9.47v-84.15h9.75c13.97,0,28.54-15.81,34.72-27.12,18.44-33.77,5.86-73.32-8.02-106.28-.73-.52-7.42,3.38-8.64,4.07-5.07,2.85-9.86,6.2-14.8,9.27-2.32-2.53-17.12-22.03-18.99-21.71l-18.66,21.71c-2.84-1.73-21.99-14.36-23.44-13.34-11.69,27.7-23.74,63.9-13.53,93.65,5.88,17.12,20.2,37.66,39.76,39.74,3.29.35,7.11-.26,10.46,0v84.15l-4.24-9.47c-12.38-24.82-32.27-41.61-58.28-50.97-8.5-3.06-18.21-5.83-27.21-5.8,2.48,18.11,8.53,35.88,18.59,51.15,16.15,24.52,42.65,38.96,71.15,44.39ZM196.47,195.4c11.03-7.71,24.24-13.26,37.34-16.36-5,22.14-16.8,43.48-35.38,56.9-11.59,8.37-24.76,13.8-38.53,17.49,4.84-22.7,17.39-44.6,36.58-58.03ZM173.44,38.26c4.4-3.06,8.97-6.16,13.82-8.44,1,.29,6.34,17.14,7.01,19.52,4.83,17.02,8.56,37.95,3.61,55.21-4.12,14.37-14.81,32.03-30.34,35.44,21.78-20.72,14.3-56.91-2.13-78.53-2.65-3.48-5.87-6.5-8.53-9.97.23-1.31,14.39-11.73,16.56-13.23ZM149.4,22.12c.9-.72,1.12.51,1.6.97,3.73,3.59,6.49,8.68,10.01,12.52-3.63,3.01-7.32,6.62-11.29,8.97l-10.98-8.97,10.66-13.49ZM102.91,107.69c-8.53-24.68.57-54.38,9.33-77.86.51-.16.9.05,1.35.23,3.23,1.29,9.57,6.02,12.72,8.2,15.65,10.86,33.88,26.56,40.77,44.77,7.79,20.57,7.79,47.58-16.51,56.04-24.33,8.47-40.47-10.55-47.67-31.38ZM103.53,195.4c19.19,13.42,31.74,35.33,36.58,58.03-13.77-3.69-26.95-9.12-38.53-17.49-18.58-13.42-30.39-34.76-35.38-56.9,13.1,3.1,26.31,8.64,37.34,16.36Z"/></svg>