<?xml version="1.0" encoding="UTF-8"?><svg id="Capa_1" xmlns="http://www.w3.org/2000/svg" viewBox="0 0 300 300"><path d="M123.34,251.97c4.62,1.18,9.16,1.76,13.57,1.76,1.35,0,2.69-.06,4.01-.17,4.81,1.52,9.66,2.24,14.49,2.24,25.84,0,51.15-20.13,66.68-43.22,34.88-51.83-7.92-151.68-9.76-155.9l-2.6-5.96-5.46,3.54c-.88.57-14.47,9.45-31,23.44-11.73-17.1-21.11-28.07-21.55-28.57l-4.24-4.93-4.17,4.99c-.44.53-9.98,12.01-21.7,29.6-15.97-12.46-28.91-20.23-30.32-21.06l-5.6-3.32-2.36,6.07c-.78,2.01-19.09,49.68-19.09,94.11s25.95,88.94,59.07,97.39ZM179.48,86.95c10.35-8.82,19.65-15.68,25.25-19.64,8.63,22.35,35.09,99.18,8.22,139.12-14.64,21.76-31.76,33.12-46.94,36.81,10.93-9.26,23.19-28.48,21.88-67.97-.78-23.59-14.91-46.19-32.13-65.18l24.08-22.58-.37-.55ZM147.62,61.5c3.94,4.94,10.26,13.17,17.31,23.52-5.67,5.13-11.46,10.76-17.07,16.78-5.83-5.81-11.81-11.18-17.62-16.04,7.06-10.64,13.43-19.16,17.38-24.25ZM91.36,70.8c5.42,3.53,14.23,9.54,24.16,17.35l-.13.2,28.69,25.44c17.37,18.15,32.05,39.86,32.78,61.84.93,28.13-5.7,49.36-18.68,59.8-8.68,6.98-19.79,9-32.12,5.86-28.47-7.26-50.78-45.34-50.78-86.7,0-33.19,11.17-69.45,16.07-83.79Z"/></svg>