<?xml version="1.0" encoding="UTF-8"?><svg id="Capa_1" xmlns="http://www.w3.org/2000/svg" viewBox="0 0 300 300"><path d="M127.23,73.23c6.69,5.6,13.59,11.8,20.3,18.49,6.47-6.93,13.15-13.42,19.68-19.33-8.12-11.92-15.41-21.41-19.95-27.1-4.56,5.87-11.9,15.69-20.03,27.95Z"/><path d="M193.68,176.39c1.51,45.52-12.62,67.66-25.22,78.34,17.49-4.25,37.22-17.34,54.09-42.42,30.97-46.02.48-134.57-9.47-160.33-6.46,4.56-17.18,12.47-29.1,22.63l.42.64-27.75,26.02c19.84,21.89,36.12,47.94,37.03,75.12Z"/><path d="M82.43,56c-5.66,16.52-18.53,58.31-18.53,96.56,0,47.66,25.71,91.55,58.52,99.92,14.21,3.63,27.02,1.29,37.02-6.75,14.96-12.03,22.61-36.5,21.53-68.92-.84-25.34-17.76-50.35-37.78-71.27l-33.06-29.32.15-.23c-11.45-9-21.59-15.92-27.85-20Z"/></svg>