<?xml version="1.0" encoding="UTF-8"?><svg id="Capa_1" xmlns="http://www.w3.org/2000/svg" viewBox="0 0 300 300"><path d="M144.3,263.66v27.2l.7.7h10.01l.7-.7v-27.2c28.49-5.42,54.99-19.87,71.15-44.39,10.06-15.27,16.11-33.04,18.59-51.15-9-.03-18.72,2.74-27.21,5.8-26.01,9.37-45.9,26.15-58.28,50.97l-4.24,9.47v-84.15h9.75c13.97,0,28.54-15.81,34.72-27.12,18.44-33.77,5.86-73.32-8.02-106.28-.73-.52-7.42,3.38-8.64,4.07-5.07,2.85-9.86,6.2-14.8,9.27-2.32-2.53-17.12-22.03-18.99-21.71l-18.66,21.71c-2.84-1.73-21.99-14.36-23.44-13.34-11.69,27.7-23.74,63.9-13.53,93.65,5.88,17.12,20.2,37.66,39.76,39.74,3.29.35,7.11-.26,10.46,0v84.15l-4.24-9.47c-12.38-24.82-32.27-41.61-58.28-50.97-8.5-3.06-18.21-5.83-27.21-5.8,2.48,18.11,8.53,35.88,18.59,51.15,16.15,24.52,42.65,38.96,71.15,44.39ZM196.47,195.4c11.03-7.71,24.24-13.26,37.34-16.36-5,22.14-16.8,43.48-35.38,56.9-11.59,8.37-24.76,13.8-38.53,17.49,4.84-22.7,17.39-44.6,36.58-58.03ZM103.53,195.4c19.19,13.42,31.74,35.33,36.58,58.03-13.77-3.69-26.95-9.12-38.53-17.49-18.58-13.42-30.39-34.76-35.38-56.9,13.1,3.1,26.31,8.64,37.34,16.36Z"/></svg>