<?xml version="1.0" encoding="UTF-8"?><svg id="Capa_1" xmlns="http://www.w3.org/2000/svg" viewBox="0 0 300 300"><path d="M196.71,114.66c22.43-33.34-4.85-97.02-6.02-99.72l-2.35-5.38-4.92,3.19c-.35.23-8.38,5.44-18.42,13.83-7.11-10.22-12.69-16.71-12.74-16.78l-3.83-4.45-3.76,4.5c-.06.07-5.71,6.82-12.88,17.45-9.57-7.35-17.13-11.89-18-12.4l-5.05-2.99-2.12,5.47c-.5,1.27-12.13,31.53-12.13,59.87,0,29.75,16.85,57.36,38.37,62.85,3.82.97,7.64,1.33,11.28,1.07.13.04.26.07.39.1v43.92c-5.32-9.26-11.82-17.8-19.49-25.52-3.46-3.48-7.33-6.86-12.18-10.63l-4.92-3.82-2.06,5.87c-15.48,44-4.03,94.03,29.18,127.46,2.68,2.69,5.71,5.4,9.48,8.44v7.63h11.77v-9.74c34.88-28.14,51.54-72.79,43.57-117.51-.86-4.83-2.12-9.81-3.97-15.67l-1.87-5.94-5.04,3.65c-13.24,9.6-24.29,21.7-32.69,35.64v-42.64c16.9-1.41,31.83-15,40.43-27.78Z"/></svg>