<?xml version="1.0" encoding="UTF-8"?>
<svg id="Layer_1" xmlns="http://www.w3.org/2000/svg" version="1.1" viewBox="0 0 300 300">
  <!-- Generator: Adobe Illustrator 29.8.3, SVG Export Plug-In . SVG Version: 2.1.1 Build 3)  -->
  <path d="M131.83,94.34c-1.9.57-2.85,4.32-4.01,5.56-.75.8-1.82.99-2.66,1.64-1.92,1.48-2.28,3.67-4.12,5.13-1.39,1.1-3.31,1.36-4.22,3.04-1.26,2.34-.18,4.37-.4,6.87-.41,4.74-4.43,3.31-6.1,6.12-1.73,2.92.41,6.14-.93,8.98-1.28,2.73-5.66,1.83-6.45,6.1-.06,5.47.48,10.99.6,16.42.16,6.95-6.06,4.72-6.89,8.34-1.26,5.53,7.59,3.39,6.47,8.44-.7,3.18-6.89,1.84-6.56,6.35.24,3.24,4.12,2.84,5.82,4.78,3.64,4.15-3.21,14.99,3.76,17.71l46.41.12c3.23-.93,3.52-5.02,6.44-6.44,5.09-.33,10.25.04,15.29-.9,1.59-.71,1.48-3.38,2.72-4.87,1.36-1.64,4.02-1.52,5.19-3.72,1.34-2.5-.7-5.78.79-8.46,1.42-2.54,5.55-1.68,6.34-5.89-.04-8.51-.65-17.19-.27-25.7.14-3,2.04-7.46-1.32-9.55-4.32-2.69-5.28,3.21-7.07,5.12-1.64,1.76-4.38,1.23-5.06,4.85.19,4.6.18,9.2.24,13.81.03,2.68,1.18,6.16-1.8,8.08-1.52.98-7.85.99-9.39.14-6.08-3.38,3.1-18.44-6.12-19.31-1.94-.18-11.3-.29-12.75.16-2.35.73-3.41,5.29-5.68,6.21-3.13,1.27-7.8-1.54-10.07,2.48-1.44,2.55-.44,4.37-.4,6.84.08,5.07-.09,10.15-.03,15.22.03,2.67,1.18,6.45-2,8.22-1.4.78-7.51.81-8.98.12-3.45-1.62-2.24-5.91-2.21-8.66.06-5.06.06-10.16,0-15.22-.02-1.42-.53-2.59-.31-4.25.71-5.52,6.02-3.41,7.16-8.36l-.5-18.34c.76-4.81,4.85-3.44,6.45-6.43,1.26-2.35.18-4.36.4-6.87.41-4.7,4.31-3.28,6.09-6.13,1.64-2.61.48-4.77.5-7.41.02-2.91,1.69-5.94-.16-8.73-.91-1.38-2.58-2.09-4.21-1.6h0ZM212.09,127.7c-5.02,1.92-2.77,5.28-3.21,9.01-.5,4.26-4.52,3.07-6.19,6.03-1.18,2.1-1.15,7.15.24,9.17,2.01,2.91,5.83,1.46,8.76,1.81s2.73,3.26,4.32,4.93c1.44,1.51,3.72,1.76,5.61,1.05,1.08-.83.66-5.11,2.86-6.06,1.69-.72,5.27,0,7.32-.28,3.58-.51,2.48-3.99,4.47-5.77,1.24-1.1,3.55-.85,4.82-2.12.73-.73.88-2.34,1.62-3.33,1.77-2.36,6.72-1.64,5.72-6.03-.51-2.27-2.98-2.29-4.39-3.2-2.05-1.32-2.75-4.47-5.35-5.22h-26.62.02ZM46.94,173.61c-2.68,1.03-3.1,4.06-5.18,5.72-3.15,2.51-2.63,1.78-5.15,5.09-2.23,2.93-5.9,2.45-6.43,6.78-.21,1.69.36,3.16.35,4.62-.01,3.98-1.83,9.35,3.49,10.72l26.58-.12c2.5-1.21,2.9-4.03,4.93-5.64,1.33-1.06,2.61-1.28,3.81-2.79,2.75-3.45,1.49-2.66,5.41-5.16,3.38-2.15,3.4-10.87-.44-12.38-1.93-.76-4.87-.05-6.97-.3-3.32-.39-3.85-5.16-6.75-6.47l-13.66-.08h.01Z"/>
  <path d="M274.94,87.66v13.21c-5.63-1.31-5.74,3.65-8.94,6.09-.68.52-1.52.72-2.3,1.33-2.1,1.67-2.8,5.44-5.77,5.8-3.48.41-10.16-.76-13.07.14-2.45.75-3.28,5.41-6.16,6.06l-46.15.38c-2.93-.47-3.9-5.66-6.44-6.44-2.91-.9-9.59.27-13.07-.14-3-.36-3.66-4.16-5.77-5.79-1.31-1.02-2.79-1.09-3.82-2.46-1.97-2.61-.84-4.73-.8-7.43.04-2.64.04-5.32,0-7.96-.04-2.79-1.19-5.13.8-7.76,1.03-1.36,2.37-1.38,3.64-2.3,1.92-1.39,2.27-3.69,4.12-5.12,1.34-1.04,3.23-1.25,4.11-2.83,1.8-3.24-1.64-8.03,2.53-10.68,3.93-2.49,2.67-1.71,5.41-5.16,1.2-1.51,2.48-1.73,3.81-2.79,2.1-1.67,2.8-5.44,5.77-5.8,3.48-.41,10.16.76,13.07-.14,2.54-.78,3.51-5.97,6.44-6.44,10.3.68,21.89-.97,32.04-.03,3.44.32,3.69,3.76,5.92,5.64,1.36,1.15,2.76,1.43,3.98,2.96,2.51,3.15,1.78,2.63,5.09,5.15,2.07,1.57,2.44,3.82,4.31,5.27,1.44,1.12,3.05,1.14,4.1,2.83,1.59,2.53.55,4.55.51,7.06-.06,3.66-.22,7.28-.33,10.9-.15,4.83,2.03,7.08,6.95,6.45h.02ZM221.37,61.01c-3.16.07-6.37.3-9.53.38-2.54,1.01-3.38,5.27-5.68,6.21-2.02.82-5.42-.25-7.53.4-2.35.73-3.41,5.29-5.68,6.21-2.87,1.16-7.4-1.23-9.67,1.89-1.86,2.55-.83,4.53-.8,7.1.05,3.95-.6,8.96-.36,12.58.19,2.85,1.53,4.84,4.46,5.12,6.07.57,12.94-.51,19.1.06,2.84,1.17,4.62,9.96,9,5.56,3.76-3.78-1.62-12.09,1.34-16.82,1.38-2.21,4.11-1.82,5.42-3.83,2.93-4.46-1.98-12.84,1.82-16.35,1.82-1.68,5.14-1.43,5.43-4.5.44-4.62-4.31-4.06-7.32-3.99v-.02ZM250.42,94.02c-2.93.75-3.09,6.03-.23,7,6.82,2.33,7.3-8.82.23-7Z"/>
  <path d="M274.94,160.33v33.03c-2.25-.1-4.83-.24-6.08,2.01-1.73,3.11,1.48,8.08-2.34,10.54-1.47.95-7.67,1.03-9.07.15-2.02-1.27-2.49-4-4.48-5.43-1.35-.98-2.98-1.05-3.94-2.67-1.76-2.97.51-6.4-1.04-9.2-1.99-3.59-7.11-1.1-9.96-2.26-2.27-.92-3.33-5.48-5.68-6.21-.98-.3-6.32-.3-7.3,0-2.68.83-3.33,6.06-6.75,6.47-3.87.46-6.08-1.4-8.91,2.32-2.51,3.32-1.99,2.58-5.15,5.09-2.09,1.67-2.8,5.44-5.77,5.8-1.84.22-4.13-.27-5.93,0-2.41.38-3.56,4.26-5.46,5.77-3.15,2.51-2.63,1.78-5.15,5.09-1.57,2.06-3.78,2.43-5.27,4.31-2.74,3.45-1.49,2.67-5.41,5.16-5.59,3.54,1.41,14.69-3.65,18.48-1.36,1.02-3.01.88-4.15,2.45-3.31,4.51,2.22,13.88-2.45,17.37-.99.74-2.27.83-3.17,1.79-1.75,1.87-1.99,6.06-5.61,5.65-2.9-.33-3.48-5.55-5.52-6.38-1.81-.73-4.96.05-7-.27-2.46-.39-3.51-4.09-5.3-5.6-1.36-1.15-2.76-1.43-3.98-2.96-2.75-3.45-1.49-2.66-5.41-5.16-2.91-1.85-3.15-8.27-1.35-10.87,1.04-1.5,2.61-1.57,3.97-2.63,1.93-1.49,2.92-5.37,5.46-5.77,3.91-.62,6.27,1.52,9.21-2.35,2.51-3.32,1.99-2.58,5.15-5.09,2.09-1.67,2.8-5.44,5.77-5.8,2.08-.25,5.38.58,7.09-.5,1.96-1.23,2.44-3.8,4.3-5.28.86-.69,1.79-.95,2.66-1.64,1.58-1.26,2.14-3.18,3.8-4.46,1.28-.98,2.85-1.21,3.79-2.48,1.7-2.3.4-4.64,4.16-5.08,2.08-.25,5.96.2,7.71-.88,1.5-.93,2.1-2.87,3.14-4.12,1.56-1.88,3.71-2.25,5.27-4.31,2.52-3.31,1.99-2.58,5.15-5.09,2.09-1.67,2.8-5.44,5.77-5.8,1.84-.22,4.13.27,5.93,0,2.38-.38,3.65-4.27,5.63-5.6,1.32-.88,2.36-.58,3.47-2.14.82-1.16,1.24-4.06,1.78-4.49,1.4-1.12,6.96-.38,8.96-.62,3.4-.4,2.81-3.85,4.27-5.31,1.34-1.33,3.72-.97,4.98-2.28,1.82-1.89.83-5.12,4.31-5.6,1.92-.27,5.19.14,6.99-.61,2.6-1.08,3.15-5.97,6.52-6.36,2.48-.29,7.02-.46,8.61,1.65,3.93,5.21-4.83,19.49,7.42,18.18h0Z"/>
  <path d="M10.71,121.02v-7.27c5.16,1.23,5.7-3.17,8.58-5.46.91-.73,2.07-.99,2.83-1.79,1.24-1.32,2.11-5.19,4.29-5.62,4.37-.87,4.49,5.66,7.08,6.45,1.36.42,11.27.37,13.07.16,3.44-.4,3.76-5.35,7-6.21,6.16-.79,14.12.83,20.06-.09,4.11-.64,4.2-6.37.28-7.17-5.57-1.13-14.33.86-20.06-.09-3.21-.54-3.91-5.33-6.44-6.11-2.91-.9-9.59.27-13.07-.14-3-.35-3.65-4.16-5.77-5.79-1.31-1.02-2.79-1.09-3.82-2.46-1.98-2.62-1.88-10.18,1.88-11.36l33.73-.15c3.15,1.13,3.58,6.14,7,6.54s10.16-.76,13.07.14c2.54.78,3.51,5.97,6.44,6.44l26.34-.05c2.98-.67,2.88-7.94,7.85-6.39,4.11,1.29,2.01,7.2,1.95,9.92-.06,2.66,1.11,4.9-.4,7.52-1.03,1.78-2.75,1.89-4.22,3.05-1.86,1.47-2.34,4.05-4.3,5.28-1.72,1.08-5.01.26-7.09.5-3.41.4-4.06,5.64-6.75,6.47-2.11.65-5.51-.42-7.53.4-2.27.92-3.33,5.48-5.68,6.21-2.11.65-5.51-.42-7.53.4-2.3.94-3.14,5.2-5.68,6.21l-13.91.29c-2.53.99-3.52,5.57-5.91,6.31-1.05.32-6.52.31-7.53-.1-2.46-1-3.21-5.75-6.21-6.34l-29.54.31h0Z"/>
  <path d="M131.83,94.34c1.63-.49,3.3.22,4.21,1.6,1.85,2.79.17,5.82.16,8.73-.02,2.64,1.14,4.79-.5,7.41-1.78,2.85-5.69,1.43-6.09,6.13-.22,2.51.87,4.52-.4,6.87-1.6,2.99-5.69,1.62-6.45,6.43l.5,18.34c-1.14,4.95-6.45,2.85-7.16,8.36-.21,1.67.3,2.83.31,4.25.07,5.06.07,10.16,0,15.22-.03,2.75-1.24,7.05,2.21,8.66,1.47.69,7.58.66,8.98-.12,3.17-1.76,2.03-5.55,2-8.22-.07-5.07.11-10.15.03-15.22-.04-2.46-1.04-4.29.4-6.84,2.27-4.02,6.94-1.21,10.07-2.48,2.27-.92,3.33-5.48,5.68-6.21,1.44-.45,10.81-.34,12.75-.16,9.23.87.04,15.93,6.12,19.31,1.54.86,7.87.84,9.39-.14,2.98-1.92,1.84-5.4,1.8-8.08-.06-4.61-.05-9.21-.24-13.81.67-3.63,3.41-3.1,5.06-4.85,1.79-1.91,2.75-7.81,7.07-5.12,3.36,2.09,1.46,6.55,1.32,9.55-.39,8.51.22,17.19.27,25.7-.78,4.21-4.92,3.34-6.34,5.89-1.49,2.68.55,5.96-.79,8.46-1.18,2.21-3.83,2.08-5.19,3.72-1.24,1.5-1.13,4.16-2.72,4.87-5.04.94-10.2.57-15.29.9-2.93,1.42-3.21,5.51-6.44,6.44l-46.41-.12c-6.97-2.72-.12-13.56-3.76-17.71-1.7-1.93-5.58-1.53-5.82-4.78-.33-4.5,5.86-3.16,6.56-6.35,1.12-5.05-7.73-2.92-6.47-8.44.82-3.62,7.04-1.39,6.89-8.34-.12-5.43-.67-10.96-.6-16.42.79-4.27,5.17-3.37,6.45-6.1,1.33-2.84-.8-6.07.93-8.98,1.67-2.82,5.69-1.38,6.1-6.12.22-2.5-.87-4.54.4-6.87.91-1.68,2.83-1.94,4.22-3.04,1.84-1.46,2.2-3.65,4.12-5.13.84-.64,1.91-.84,2.66-1.64,1.17-1.24,2.11-4.99,4.01-5.56h0Z"/>
  <path d="M46.94,173.61l13.66.08c2.9,1.3,3.43,6.07,6.75,6.47,2.1.25,5.03-.46,6.97.3,3.84,1.51,3.83,10.23.44,12.38-3.92,2.49-2.67,1.7-5.41,5.16-1.2,1.51-2.48,1.73-3.81,2.79-2.03,1.61-2.43,4.43-4.93,5.64l-26.58.12c-5.31-1.37-3.5-6.74-3.49-10.72,0-1.46-.56-2.93-.35-4.62.53-4.33,4.2-3.85,6.43-6.78,2.52-3.31,1.99-2.58,5.15-5.09,2.08-1.65,2.5-4.69,5.18-5.72h-.01Z"/>
  <path d="M212.09,127.7h26.62c2.6.75,3.3,3.9,5.35,5.22,1.41.91,3.88.94,4.39,3.2,1,4.39-3.96,3.67-5.72,6.03-.75.99-.89,2.61-1.62,3.33-1.27,1.26-3.58,1.01-4.82,2.12-2,1.78-.89,5.26-4.47,5.77-2.05.29-5.63-.44-7.32.28-2.2.94-1.78,5.23-2.86,6.06-1.9.71-4.17.46-5.61-1.05-1.59-1.67-1.46-4.59-4.32-4.93s-6.75,1.1-8.76-1.81c-1.39-2.02-1.42-7.07-.24-9.17,1.67-2.96,5.69-1.77,6.19-6.03.44-3.74-1.81-7.1,3.21-9.01h-.02Z"/>
</svg>