<?xml version="1.0" encoding="UTF-8"?>
<svg id="Layer_1" xmlns="http://www.w3.org/2000/svg" version="1.1" viewBox="0 0 300 300">
  <!-- Generator: Adobe Illustrator 29.8.3, SVG Export Plug-In . SVG Version: 2.1.1 Build 3)  -->
  <path d="M83.7,54.38c2.94.15,7.82-1.42,7.39,3.15-.26,2.73-2.51,2.17-2.96,3.54-.35,1.07.15,2.44-.27,3.39-.49,1.09-2.56.73-2.67,2.42-.12,1.93,2.17,1.54,2.67,2.66s-.24,2.66.46,3.77c.83,1.31,2.98.37,4.19.88.81.34,1.53,2.34,2.46,2.61.97.28,2.2-.21,3.17.21l5.28,5.43,5.8.12c.92.27,1.65,2.27,2.46,2.61,1.05.44,2.32-.15,3.37.29.77.33,1.49,2.2,2.27,2.52.58.24,2.57.26,3.17.09.67-.2,1.56-1.76,2.16-2.35.5-.49,1.26-.57,1.67-1.15.77-1.08.77-3.32-.12-4.32-.36-.41-1.09-.53-1.55-.98-1.15-1.12-3.21-3.83-4.35-4.67-.89-.65-3.1-.94-1.81-2.92.82-1.26,1.96-.47,2.93-.45,1.07.02,2.7-.17,3.65,0,1.22.23,1.79,2.28,2.69,2.66s2,.02,2.94.15l5.06,5.08c.45.59,1.44.69,1.82,1.28.85,1.32-.12,4.92.43,6.61.46,1.4,3.28.93,2.96,4.31-.26,2.79-2.66,2.14-3.02,3.76-.2.88-.18,5.5.15,6.21.45.75,1.29.85,1.92,1.46,1.89,1.85,3.75,3.77,5.63,5.63,1.73,1.7,1.28,2.72,4.51,2.28,1.36-.19,1.54-1.33,2.37-2.14,3.35-3.28,6.81-6.56,10.17-9.83.5-.49.96-1.54,1.52-1.86,1.16-.67,2.53.13,3.69-.53.56-.32,1.02-1.37,1.52-1.86,1.95-1.9,3.85-3.89,5.77-5.77.67-.65,1.71-.78,2-1.66.04-2.55.37-5.55.14-8.06-.2-2.14-.88-1.46-2-2.51-.58-.55-1.41-2.02-1.97-2.26-.98-.41-2.2.08-3.17-.21s-1.65-2.27-2.46-2.61c-.88-.37-2-.02-2.93-.16-2.39-.36-2.63-5.29.26-5.62,4.27-.5,9.38.43,13.75-.05,1.11-1.29,2.43-2.31,3.59-3.45.66-.64,1.11-1.93,2.11-2.12.88-.17,2.15.24,2.95-.15.88-.43,1.31-3.55,3.25-2.41.79.46.98,1.57,1.4,1.98.61.59,1.82.31,2.06,1.62.4,2.2-2.32,1.74-2.71,3.09-.25.86-.2,6.97-.06,8.11.21,1.78,1.04,1.34,1.99,2.24.58.55,1.41,2.03,1.97,2.26,2.06.86,8.81-.34,11.39.14l3.11-2.8c5.14.38,11.02-.52,16.07-.02,1.99.2,1.89,1.85,3.42,2.78l5.99.21c1.72,1.97,2.18,3.19,5.21,2.68l5.5,5.48,3.37.29,4.78,5.07c2.7,1.1,1.67,2.35,2,4.48.22,1.45,1.1,1.16,1.81,1.85.71.69,1.14,1.46,1.82,2.12.54.53,1.44.61,1.77,1.32.82,1.74-.73,6.48,1.12,7.33.66.3,5.47.36,6.21.15.69-.2,1.54-1.76,2.16-2.35.55-.52,1.45-.62,1.77-1.32s.34-5.33.15-6.21c-.31-1.37-1.69-1.15-2.32-1.9-.68-.8-.68-6.51,0-7.3s3.38-.8,4.23-.31l4.48,4.82c2.81,1.24,1.87,2.74,2.33,5.27l2.4,1.82c.2.37.18.78.22,1.19.29,3.16.29,9.54,0,12.7-.2,2.16-.97,1.51-2.14,2.65-3.82,3.73-7.57,7.66-11.41,11.41-.66.64-1.11,1.93-2.11,2.12-.92.17-2.03-.23-2.94.15l-6.22,6.18c-.6,1.66-3.12,2.2-3.35,3.69-.16,1,.22,2.19-.22,3.15-.4.85-1.46.83-2.03,1.35-1.19,1.09-.08,3.21-.89,4.47-.34.53-1.18.66-1.67,1.14-1.43,1.39-2.92,3.28-4.34,4.67-.63.62-1.46.71-1.92,1.46-.33.71-.34,5.33-.15,6.21.36,1.6,2.44,1.02,2.74,2.89.4,2.56.28,10.49.03,13.23-.04.48-.03.95-.32,1.37-3.39,2.63-6.25,5.94-9.27,9.03-1.05.44-2.32-.15-3.37.29-.81.34-1.53,2.34-2.46,2.61-2.85.83-5.09-.52-4.46-3.62.37-1.82,1.11-1.4,1.99-2.24.71-.68,1.14-1.46,1.82-2.12.54-.53,1.44-.61,1.77-1.32.23-4,1.69-8.89-4.29-7.39l-11.85,11.81c-4.71,4.69-9.32,9.43-14.08,14.08-.5.49-.96,1.54-1.52,1.86-1.16.67-2.53-.13-3.69.53-.55.32-1.12,1.47-1.66,2-.69.67-1.66.75-2,1.66-.25.75-.25,5.19-.06,6.01.63,2.74,6.53.24,7.96,1.9.62.72.64,6.06.22,6.96-.31.68-.94.84-1.62.92-2.6.31-10.71.35-13.26,0-1.66-.22-2.01-2.45-3.14-2.77-.25-.07-2.48-.34-2.74-.33-1.46.08-2.1,1.99-.99,2.94.38.32.96.34,1.38.59,1.43.89.67,2.25.89,3.62.22,1.43,1.16,1.22,1.96,1.98.58.55,1.41,2.02,1.97,2.26,1.75.74,4.24-1.01,4.72,2.33s-2.69,3.68-4.17,6.12l-6.18.29-8.09,8.24c-1.8-.41-6.95,1.46-7.12-1.23-.12-1.92,2.17-1.54,2.67-2.66s-.24-2.67.46-3.77c.53-.83,2.01-.69,2.38-1.84.32-.96.3-6.07-.31-6.77s-2.5-.71-3.39-.59c-1.36.19-1.54,1.33-2.37,2.14-5.04,4.93-10.74,10.02-15.51,15.19-.6.65-1.1,2.54-2.37,2.41l-19.72-19.74c-1.16.13-1.68,2.33-2.41,2.69-1.19.58-3.78-.62-4.38,1.25-.27.82-.25,5.71.08,6.43.37.73,1.22.79,1.77,1.32s1,1.46,1.53,1.85c.78.57,2.03.39,2.12,1.84.11,1.73-1.44,1.45-2.1,2.1-.51.49-.87,2.15-1.99,2.26-1.28.12-1.76-1.75-2.37-2.41-.73-.79-1.99-2.02-2.81-2.82-.49-.48-1.33-.61-1.67-1.14-.71-1.09.04-2.81-.52-3.99-.41-.88-1.62-.85-2.18-1.48-.9-1.02-.89-3.23-.12-4.32.6-.86,2.01-.72,2.38-1.85.31-.95,0-2,.14-2.96.31-1.98,3.4-1.26,3.07-4.77-.27-2.83-2.49-2.67-4.77-2.28l-5.28,5.43c-1.95-.22-7.54.61-8.97-.21-.56-.32-1.02-1.37-1.52-1.86-1.95-1.9-3.85-3.89-5.77-5.77-.86-.84-1.88-.7-2.11-2.12-.14-.92-.37-5.29-.08-5.97,1.35-3.2,3.54,1.53,4.01,1.76.91.44,2.35-.15,3.38.29.81.34,1.53,2.34,2.46,2.61.8.23,5.75.16,6.39-.25,1.22-.78,1.21-3.47.42-4.59-.4-.56-1.24-.72-1.81-1.29-4.75-4.69-9.44-9.55-14.22-14.22-.66-.64-1.11-1.93-2.11-2.12-.92-.17-2.03.23-2.94-.15l-5.5-5.48c-.94-.14-2.04.23-2.94-.15-.81-.34-1.53-2.34-2.46-2.61-.68-.2-5.33-.16-6.01.07-1.61.52-1.71,3.77-.68,4.94.37.42,1.16.59,1.7,1.12,1.17,1.16,2.87,3.42,4.05,4.4.9.74,2.57.59,2.23,2.45s-2.15,1.07-3.2,1.06-2.7.17-3.65,0c-1.24-.24-1.85-2.45-2.88-2.75-1.6-.47-5.36.53-6.55-.49s0-3.45-1-4.63c-1.23-1.43-4.75.62-5.18-2.14-.33-2.11-.33-11.66,0-13.77.29-1.85,2.15-1.13,2.81-3.1,1.23-3.68-1.91-3.7-3.38-6.23l-11.85-11.81-5.99-.21c-1.14-.52-1.68-2.52-2.88-2.75-1.7-.32-4,.35-5.76-.15l-9.03-8.99c-.34-1.32-2.82-2.31-3.16-3.04-.8-1.71.55-5.88-.78-7.1-.81-.74-1.97-.39-2.22-2-.24-1.5-.2-6.31-.02-7.87.14-1.24.58-1.68,1.83-1.83,3.31-.4,2.72.53,4.5,2.27.59.58,1.6.79,1.92,1.46.55,1.18-.19,2.9.52,3.99.34.53,1.18.66,1.67,1.14.56.55,1.43,2.03,1.97,2.26.89.38,6.87.63,7.19-.96l.18-22.91c.32-1.45,2.06-1.18,2.55-2.24.55-1.19-.19-2.88.52-3.99.49-.77,1.87-.72,2.3-1.64.55-1.19-.19-2.9.52-3.99.43-.67,2.7-1.52,3.06-2.86l11.85-11.81c1.05-.44,2.32.15,3.37-.29.77-.33,1.49-2.2,2.27-2.52,1.05-.44,2.32.15,3.37-.29.81-.34,1.53-2.34,2.46-2.61l5.8-.12c.92-.27,1.65-2.27,2.46-2.61,1.19-.5,2.88.32,3.93-.58,1.16-.99.27-5.05.63-6.69.28-1.25,1.3-1.09,2.01-1.65,1.4-1.1.3-3.01.95-4.4.31-.67,1.33-.89,1.92-1.46.5-.48.78-1.11,1.24-1.58,1.14-1.13,2.5-2.16,3.59-3.45h-.09ZM63.46,85.09c-.42.01-2.18.23-2.48.36-.82.36-1.53,2.34-2.46,2.61-.84.24-1.9-.09-2.75.06-.99.19-1.45,1.48-2.11,2.12-3.83,3.75-7.59,7.68-11.41,11.41-.85.83-1.89.7-2.11,2.12-.16,1.01.22,2.19-.22,3.15-.62,1.33-2.38.37-2.62,3.01s-.37,10.68.03,13.23c.3,1.88,2.38,1.29,2.74,2.89.61,2.75-.67,9.82.27,11.84l2.4,1.82c.6,1.3-.35,3.25.78,4.29.57.52,1.64.5,2.03,1.35.45.96.07,2.15.22,3.15.22,1.41,1.25,1.28,2.11,2.12,4.27,4.17,8.28,8.63,12.51,12.84l11.85,11.81,5.99.21c.92.27,1.65,2.27,2.46,2.61,1.05.44,2.32-.15,3.37.29.77.33,1.49,2.2,2.27,2.52,1.05.44,2.32-.15,3.37.29.76.32,1.44,2.07,2.27,2.52l5.99.21,2.65,2.7c2.23-.28,6.77,1.28,7.13-1.77.33-2.76.33-10.48,0-13.25-.27-2.28-2.39-1.48-2.76-3.15-.7-3.13.58-8.3-.12-11.43-.32-1.45-2.06-1.18-2.55-2.24-.55-1.18.19-2.9-.52-3.99-.34-.53-1.18-.66-1.67-1.14-.69-.67-1.09-1.46-1.82-2.12s-1.59-.41-1.81-1.85l-.02-38.86c.26-2.19,2.05-1.52,2.61-2.74s-.19-2.9.52-3.99c.34-.53,1.18-.66,1.67-1.14.56-.55,1.43-2.03,1.97-2.26.58-.24,2.57-.26,3.17-.09.92.27,1.65,2.27,2.46,2.61.63.26,2.49.24,3.17.09,1.76-.41,1.91-3.32,1.11-4.65-.47-.79-1.27-.84-1.91-1.47s-1.04-1.57-1.82-2.12l-5.99-.21c-.92-.27-1.65-2.27-2.46-2.61-1.05-.44-2.32.15-3.37-.29-.9-.38-1.47-2.43-2.69-2.66-.61-.12-2.38-.1-2.94.14-.81.34-1.53,2.34-2.46,2.61s-2.33-.22-3.18.2c-.66.32-1.17,2.57-2.41,2.69-1.43.1-1.44-1.99-2.22-2.57-1.54-1.15-2.31,1.55-3.11,2.28-.4.37-1.07.45-1.41.85-.9,1.05-.06,2.91-.64,4.15-.49,1.06-2.23.79-2.55,2.24-.72,3.21.51,8.23-.18,11.65-.29.88-1.33,1.01-2,1.66-.57.56-.92,1.27-1.53,1.85-.79.77-1.73.53-1.96,1.98-.15.92-.15,4.99.11,5.77.44,1.34,2.39.85,2.67,2.68.51,3.23-.6,8.14.08,11.19.37,1.67,2.49.87,2.76,3.15.14,1.18.14,7.76-.21,8.53-.51,1.11-2.85,1.1-3.87.91s-1.55-1.58-2.25-2.26c-.59-.58-1.6-.79-1.92-1.46-.61-1.29.35-3.25-.78-4.29-.57-.52-1.64-.5-2.03-1.35-.55-1.18.19-2.9-.52-3.99-.35-.55-1.09-.6-1.52-1.01-.71-.68-1.14-1.46-1.82-2.12-.49-.48-1.33-.61-1.67-1.14-.85-1.32.12-4.92-.43-6.61-.43-1.3-2.61-1.02-2.67-2.68l.04-16.82c.29-1.31,1.48-1.12,2.18-1.76,1.09-1,.39-4.61.57-6.19.21-1.77,1.13-1.4,2.13-2.38,1.18-1.15,2.87-3.42,4.05-4.4.87-.71,2.37-.54,2.27-2.21-.07-1.18-.99-1.53-2.02-1.5h0ZM202,85.36c-.92.27-1.65,2.27-2.46,2.61-.98.41-2.2-.08-3.17.21s-1.65,2.27-2.46,2.61c-.92.39-2.02-.02-2.94.15-.99.19-1.45,1.48-2.11,2.12-3.83,3.75-7.59,7.68-11.41,11.41-1,.97-1.92.6-2.13,2.38-.22,1.89.51,7.76-.43,8.87-.64.75-2.02.53-2.32,1.9-.2.88-.2,4.92,0,5.79.33,1.49,2.21,1.16,2.63,2.44.57,1.74-.56,5.75.7,6.9.43.39,1.24.48,1.66.87,1.33,1.22,0,5.37.78,7.1.71,1.55,3.06.54,4.29,1.06.54.23,1.4,1.71,1.97,2.26.46.45,1.19.58,1.55.98,1.74,1.99-1.46,7.26,1.48,7.84,1.46.28,1.85-1.54,2.61-2.35.38-.41.98-.66,1.42-1.11.64-.65,1.13-1.93,2.11-2.12,3.64-.69,3.27,1.22,5.63,2.8h13.79l2.88-2.75,5.8-.12c.92-.27,1.65-2.27,2.46-2.61,1.05-.44,2.32.15,3.37-.29l11.85-11.81c.47-.46.74-1.09,1.24-1.58.85-.83,1.89-.7,2.11-2.12.16-1-.22-2.19.22-3.15.49-1.06,2.23-.79,2.55-2.24v-17.06c-.33-1.53-2.35-1.11-2.7-2.66-.72-3.21.51-8.23-.18-11.64-.3-.91-1.23-.92-1.85-1.53s-1.12-2.32-2.12-2.41c-1.42-.13-1.89,2.48-2.85,2.78-1.54-.13-4.95.48-6.16-.21-.72-.41-1.36-2.09-2.1-2.4-1.05-.44-2.32.15-3.37-.29-.9-.38-1.5-2.47-2.69-2.66l-19.65.05v-.02ZM114.68,107.89c-.67.2-1.56,1.76-2.16,2.35-.54.53-1.44.61-1.77,1.32-.8,1.71.55,5.88-.78,7.1-.7.64-1.89.45-2.18,1.76v14.24c.32,1.45,2.06,1.18,2.55,2.24.79,1.69-.89,4.38,2.03,4.73,1.62.19,3.64-.1,5.3-.06,1.18-.36,1.77-4.69,4.14-1.78,1.56,1.93,4.31,5.23,6.18,6.78.81.67,2.18.51,2.27,1.97.12,2.04-2.5,1.45-2.8,3.08-.22,1.17-.18,6.91.01,8.14.31,1.94,2.54,1.24,2.78,3.13l.14,14.22c.42,1.56,4.31,1.44,5.08.54,1.31-1.53-.51-8.87,1.01-10.26.81-.74,1.97-.39,2.22-2,.63-3.98-.47-9.4,0-13.51.21-1.78,1.04-1.34,1.99-2.24s1.3-2.24,2.65-2.42c.62-.08,2.13-.07,2.69.16.81.34,1.53,2.34,2.46,2.61.67.19,2.75.15,3.39-.15,1.39-.63.75-2.67.93-3.86.38-2.46,3.04-1.11,4.48-1.71.81-.34,1.53-2.34,2.46-2.61.97-.28,2.2.21,3.17-.21.54-.23,1.41-1.71,1.97-2.26s1.44-.61,1.77-1.32l.15-23.11c-.42-1.8-3.01-1.42-4.44-1.18l-5.08,5.34-2.94.15-8.32,8.3c-.58.24-5.03.28-5.76.14-1.22-.23-1.79-2.28-2.69-2.66-.98-.41-2.2.08-3.17-.21s-1.65-2.27-2.46-2.61c-1.2-.51-3.12.39-4.07-.72s-.2-4.75-.45-6.31c-.39-2.47-3.03-1.1-4.48-1.71l-5.08-5.34c-.58-.24-2.57-.26-3.17-.09l-.03.03ZM226.82,152.68c-.43,0-2.18.23-2.48.36-.82.36-1.53,2.34-2.46,2.61-.97.28-2.2-.21-3.17.21-.81.34-1.53,2.34-2.46,2.61-.97.28-2.2-.21-3.17.21l-5.08,5.34-2.94.15c-2.46,1.93-4.39,4.68-6.98,6.54-.8,1.7.78,6.94-1.26,7.5-1.47.4-1.95-1.66-2.6-2.36-.74-.79-1.73-.48-1.96-1.98-.13-.82-.16-4.87.04-5.56.31-1.06,1.77-.99,2.33-1.61.83-.93.34-2.55-.9-2.77-.32-.05-2.89.26-3.17.38-.54.24-1.4,1.71-1.97,2.26s-1.44.61-1.77,1.32l-.41,3.81c-.43.92-1.81.87-2.3,1.64-.71,1.11.04,2.8-.52,3.99-.4.85-1.46.83-2.03,1.35-1.55,1.42.54,6.88-1.49,7.81-.66.3-5.47.37-6.21.15s-1.44-1.64-2.02-2.21c-.67-.65-1.71-.78-2-1.66-.59-1.99.61-8.52-.7-9.72-.81-.74-1.97-.39-2.22-2-.22-1.38-.22-6.75,0-8.13s1.17-1.21,1.96-1.98c.54-.52.93-1.35,1.38-1.72.86-.71,2.37-.54,2.27-2.21-.09-1.49-1.39-1.24-2.09-1.86-.59-.52-.96-2.16-2-2.25-1.18-.11-1.72,1.69-2.38,2.41-1.63,1.75-4.01,4.15-5.77,5.78-.4.37-1.07.46-1.4.85-.94,1.09.03,3.14-.74,4.33-.34.52-1.17.67-1.67,1.14-.58.55-1.41,2.03-1.97,2.26-.58.24-2.57.26-3.17.09-1.03-.3-1.64-2.52-2.88-2.75-2.27-.43-4.29.05-4.37,2.68-.08,2.43,1.15,2.26,2.28,3.36.57.55,1,1.46,1.53,1.85.73.54,1.85.37,2.08,1.61.33,1.83-1.19,1.67-2.08,2.32-.53.39-.96,1.3-1.53,1.85-.5.48-1.33.61-1.67,1.14-.74,1.15.13,3.02-.62,4.17-.34.53-1.18.66-1.67,1.14-.69.67-1.09,1.46-1.82,2.12-.4.37-1.07.46-1.4.85-.94,1.09.03,3.14-.74,4.33-.36.55-1.09.6-1.53,1-.64.59-1.13,2.45-2.26,2.56-1.27.12-1.77-1.75-2.37-2.41-.73-.79-2-2.03-2.81-2.82-.49-.48-1.33-.61-1.67-1.14-.71-1.09.04-2.81-.52-3.99-.43-.92-1.81-.87-2.3-1.64-.71-1.11.04-2.8-.52-3.99-.47-1-2.14-.86-2.49-2.02-.66-6.24.46-13.16-.11-19.32-.06-.7-.08-1.37-.75-1.79-.75-.47-5.97-.49-6.8-.1-.68.31-.84.94-.92,1.62-.29,2.49-.35,11.14.02,13.51.26,1.61,1.41,1.26,2.22,2,1.27,1.16.18,7.43.64,9.5.36,1.63,3.15,1.05,3.05,4.28-.09,2.9-2.34,2.39-2.9,3.6l-.35,3.59c-.46.77-1.4.8-1.99,1.39-.54.54-.71,1.57-1.38,2-.61.4-1.45.25-1.97.84-1.44,1.61.99,4.04,2.52,1.96.39-.53.39-1.5.99-1.82.93-.49,2.57-.22,3.46-.48s1.47-3.2,3.14-2.77c2.73.39-.2,6.4,1.58,8.02.57.52,1.64.5,2.03,1.35.55,1.19-.19,2.88.52,3.99.49.77,1.87.72,2.3,1.64.55,1.19-.19,2.88.52,3.99.49.77,1.87.72,2.3,1.64.55,1.19-.19,2.9.52,3.99.33.51,1.27.74,1.82,1.28,1.93,1.88,3.82,3.87,5.77,5.77.49.48.97,1.55,1.52,1.86.85.48,3.7.81,4.35-.19,1.5-2.3-1.9-2.47-2.36-3.5-.58-1.29.52-3.08-.89-4.18-.63-.5-1.62-.41-1.95-1.43-.27-.81-.25-5.71.08-6.43.45-.75,1.29-.85,1.92-1.46,1.43-1.39,2.91-3.28,4.34-4.67.46-.45,1.21-.58,1.55-.98.9-1.04.06-2.92.64-4.15.31-.67,1.33-.88,1.92-1.46.54-.53,1.11-1.68,1.66-2,.74-.42,5.76-.43,6.57-.06,1.42.66,1.46,3.73.48,4.85-.74.84-2.1.46-2.37,2.14.52,5.05-.76,11.74,0,16.58.3,1.9,3.34,1.98,4.7,1.36,1.64-.75.4-3.43,1.22-4.69.35-.55,1.09-.6,1.52-1.01.71-.68,1.14-1.46,1.82-2.12.54-.53,1.44-.61,1.77-1.32.45-.96.07-2.15.22-3.16.22-1.41,1.25-1.28,2.11-2.12,6.68-6.52,13.18-13.34,19.86-19.86.66-.64,1.11-1.93,2.11-2.12.92-.17,2.03.23,2.94-.15.81-.34,1.53-2.34,2.46-2.61l5.8-.12c.95-.4,1.3-1.68,2.02-2.2.78-.57,2.03-.4,2.12-1.84.1-1.65-1.29-1.48-2.12-2.08-.54-.4-.76-1.16-1.24-1.58-.93-.8-2.76-.89-1.84-2.93.64-1.42,2.22-.57,3.36-.56.85,0,2.06.1,2.84,0,1.36-.18,1.55-1.34,2.37-2.14,5.27-5.15,10.38-10.4,15.8-15.46.44-.41.67-1.09,1.09-1.44.82-.68,2.18-.5,2.27-1.97.08-1.28-.87-1.77-2.02-1.74l-.03-.04Z"/>
  <path d="M202,99.44c.6-.17,2.59-.16,3.17.09s1.39,1.71,1.97,2.26c.47.44,1.21.59,1.55.98.9,1.05.06,2.92.64,4.15.34.72,1.13.73,1.63,1.19.86.78,1.49,3.37,3.11,2.28.69-.46,1.23-2.13,1.81-2.41.91-.44,2.35.15,3.38-.29.9-.38,1.47-2.43,2.69-2.66,3.21-.61,3.02.55,4.77,2.26.52.51,1.17.63,1.55.99,1.25,1.15.15,5.03.64,6.69.37,1.28,2.66.89,2.75,2.62s-1.39,1.49-2.27,2.21c-1.18.98-2.88,3.25-4.05,4.4-.85.83-1.89.7-2.11,2.12-.16,1.05.27,2.41-.33,3.34-.34.53-1.18.66-1.67,1.14-.56.55-.88,1.21-1.38,1.71-1.14,1.13-2.5,2.16-3.59,3.45l-11.62-.09-9.03-8.99c-.6-1.66-3.12-2.2-3.35-3.69-.16-1,.22-2.19-.22-3.15s-2.1-.84-2.49-2.02c-.32-.98-.26-6.75-.14-8.06.04-.48.03-.95.32-1.37,2.63-1.67,4.43-4.52,6.88-6.36.94-.14,2.04.23,2.94-.15.81-.34,1.53-2.34,2.46-2.61v-.03Z"/>
</svg>