<?xml version="1.0" encoding="UTF-8"?>
<svg id="Layer_1" xmlns="http://www.w3.org/2000/svg" version="1.1" viewBox="0 0 300 300">
  <!-- Generator: Adobe Illustrator 29.8.3, SVG Export Plug-In . SVG Version: 2.1.1 Build 3)  -->
  <path d="M286.83,234.89c0,.51-.4.94-.91.95-5.1.12-9.39,4.59-9.03,9.81l-.29.29h-41.73l-.29-.29c.13-3.17-2.44-8-5.47-9.11-.15-.05-1.39-.41-1.46-.41-.13,0-.34.27-.59.3-.89.1-4.16.74-4.57.7-1.99-.19-3.35-1.09-4.55-2.63-1.28-1.63-1.61-2.9-1.47-4.97.05-.67.51-1.85.6-2.5.31-2.14-.21-4.16-1.66-5.74-2.15-2.35-5.1-2.43-7.29-.09-2.81,3-1.95,8.06-1.56,11.65.45,4.1.88,7.94,1.16,12.05h0c.04.57-.36,1.07-.93,1.07h-103.89c-.52,0-.95-.42-.94-.94,0-.29.04-.6,0-.88-.35-2.67-2.14-5.85-4.51-7.15-5.17-2.85-11.46-.88-13.7,4.64-.41,1.01-.72,2.3-.8,3.46-.03.49-.44.87-.93.87H31.5c-.53,0-.96-.44-.94-.97.05-1.31-.16-2.63-.09-3.98.08-1.59.59-3.06.79-4.46.6-4.42-2.78-6.12-5.46-8.56-.75-.68-1.79-1.67-2.43-2.43-.41-.49-1.69-2.3-1.75-2.82-.07-.56-.04-3.61,0-4.28.21-2.71,1.02-5.92,1.27-8.73.44-4.93-4.27-8.05-8.47-8.85-.11-.02-.22-.03-.34-.03-.51,0-.92-.43-.92-.94v-41.92c0-.55.47-.98,1.02-.93,1.63.14,3.28.11,4.9.29,2.85.32,5.33.92,8.37.78,2.46-.11,5.6-1.05,7.86.09,2.76,1.39,7.52,6.31,9.53,8.74,1.82,2.2,4.57,7.17,7.42,7.94,3.62.98,6.06-3.19,5.79-6.38-.14-1.73-1.13-3.4-1.17-5.25-.03-1.42.61-2.69,1.56-3.7s3.68-2.78,4.96-2.91c1.13-.11,3,.14,4.1.27,18.62,2.15,38.79-1.46,57.43,1.38.05,0,.1,0,.15,0,2.11-.07,4.24.07,6.35,0,3.85-.13,8.97-1.64,11.99,1.35,1.32,1.31,1.83,2.92,1.72,4.77-.06.89-.48,2.24-.6,3.09-.34,2.47.74,5.31,2.86,6.68,2.59,1.69,5.42.53,6.95-1.94.59-.95.55-1.46.74-2.35.05-.23.32-.42.37-.83.06-.56-.57-2.73-.61-3.49-.17-3.07.19-5.59,2.73-7.59,1.82-1.43,4.63-1.17,6.9-1.06,16.83.81,33.94.53,50.78-.02.09,0,.17-.02.25-.05.91-.28,2.4-.22,3.37-.11,3.61.42,5.07,5.36,7.4,7.75,1.45,1.49,3.06,2.26,4.99,1.1,2.17-1.3,3.54-4.62,5.05-6.61,2.82-3.71,6.32-1.91,10.16-1.67,5.8.36,12.6.04,18.47,0,2.33,0,4.23-.83,6.8-.6,1.94.18,2.83,1.33,4.09,2.71,2.87,3.16,5.45,7.5,10.12,7.77.49.03.86.45.86.93v13.52c0,.5-.39.9-.89.94-3.55.23-8.32,1.77-8.26,5.9.06,3.89,4.86,5.38,8.28,5.68.49.04.87.44.87.94v39.76Z"/>
  <path d="M188.61,120c-.96,1.1-3.45,2.77-4.91,2.96-2.75.35-4.62-.74-6.97-.77-1.97-.02-4.17.98-6.24.97-5.15-.04-5.4-5.33-9.27-7.6-1.47-.86-5.71-1.94-6.44-3.28-.3-.55-.18-.93-.32-1.39-.05-.16-.34-.14-.37-.28-.32-1.33.26-3.59,1.25-4.53,2.37-2.24,7.96-1.81,8.64-5.74.34-1.97-1.69-4.92-3.68-5.2-1.01-.14-2.79.02-3.69.56-3.14,1.9-2.53,6.78-5.6,8.01-1.91.76-8.7,1-10.48.09-2.84-1.45-7.68-7.42-10.35-9.86-.28-.26-.69-.31-.99-.57-3.98-3.43-2.95-10.91.89-14.09,1.77-1.47,3.12-1.78,5.45-1.57.98.09,2.25.78,3.3.79,3.65.03,7.01-6.11,9.7-8.37,1.61-1.35,2.28-1.57,4.45-1.33.76.08,1.72.57,2.35.66.35.05.89-.22,1.33-.1.18.05.11.38.13.39.09.07.32-.3.53-.35.97-.23,1.35-.09,2.39-.9,2.82-2.18,5.64-8.31,9.4-8.67,1.28-.12,2.9.68,4.29.79,3.11.24,4.29-1.1,6.22-3.3,1.22-1.39,2.06-2.97,3.49-4.28,3.5-3.21,8.79-3.78,12.46-.59.43.38.29.69.55.98,2.03,2.3,4.84,4.98,7.1,7.1,1.02.96,2.43,1.74,3.42,2.99,2.59,3.29,1.01,5.6.86,9.23-.11,2.67.85,5.39.59,7.97-.5,4.85-10.02,8.08-9.89,12.8.08,2.98,2.1,4.43-.13,7.68-1.88,2.75-6.72,4.82-8.28,7.85-1.41,2.74,1.38,6.39-.24,9.48-.11.2-.84,1.36-.95,1.48h.01Z"/>
  <path d="M92.86,37.75v45.52c0,.25.02.49.07.73,1.51,7.7-1.81,13.33-10.27,12.34-.83-.1-2.11-.51-2.91-.58-.86-.08-2.58.46-3.52.58-1.53.19-3.54.47-5-.02-3.19-1.08-4.42-5.94-7.03-8.13-5.07-4.25-7.58,4.31-10.2,6.91-2.01,2-4.67,1.54-7.29,1.24-2.04-.23-2.33-.52-4.49-.19-4.52.68-7.4.81-10.49-2.9-1.05-1.26-2.14-3.91-1.83-5.53.8-4.26.58-5.25-.02-9.52-.59-4.18,1.68-6.15,4.47-8.76.28-.27.71-.3.99-.57,4.16-3.95,8.13-8.14,12.25-12.15.33-.32.62-.69.79-1.12,1.06-2.59-1.46-5.58-.36-8.26.4-.97,2.13-2.36,2.96-3.07.21-.18.57-.21.78-.39,2.41-2.05,5.06-4.26,5.98-7.26.49-1.6,2.02-2.65,3.69-2.65h27.66c2.08,0,3.77,1.69,3.77,3.77h0Z"/>
  <path d="M50.54,112.77c.72.04,1.41.26,2.1.48.17.05.39.03.56.11,3.66,1.69,5.23,5.42,4.68,9.34-.83,5.96-.82,11,0,16.89.55,3.96-1.11,6.91-4.42,9.01-2.67,1.7-4.58.93-7.35.52-1.93-.28-4-.45-6.03-.67-1.69-.18-4.8-.83-6.39-.58-.32.05-.55.36-.98.4-.48.04-.89-.23-1.15-.22-.13,0-.02.36-.39.41-5.79.78-9.99-2.5-9.54-8.47.34-4.52.92-8.48.69-13.22-.15-3.06-1.27-6.44-.04-9.36.71-1.68,2.81-3.78,4.53-4.41,1.16-.42,2.9-.42,4.15-.31,1.7.14,3.39.7,5.24.78,4.86.22,9.57-.92,14.35-.69h-.01Z"/>
  <path d="M154.14,124.87c.89,1.93,1.14,6.76.91,9.09-.22,2.16-1.51,2.67-2.82,3.98-2.42,2.43-4.94,5.24-7.47,7.49-3.34,2.97-4.65,3.55-9.23,2.99-1.23-.15-2.83-.72-4.1-.58-1.73.2-3.48.79-5.26.78-2.33,0-6.03-1.77-7.14-3.89-.42-.8-1.03-3.3-.88-4.15.8-4.66.82-10.73.58-15.56-.05-1.03-.65-3.48-.61-4.07,0-.15.39-2.04.46-2.29.51-2.08,2.3-4.15,4.16-5.16,2.17-1.18,6.07-.94,8.51-.6,2.84.4,5.9.96,8.75,1.36,3.41.48,8.51-.64,11.77.09,1.87.42,1.99,3.4,2.13,5.06.09,1.05-.06,4.78.26,5.48l-.02-.02Z"/>
</svg>