<?xml version="1.0" encoding="UTF-8"?>
<svg id="Layer_1" xmlns="http://www.w3.org/2000/svg" version="1.1" viewBox="0 0 300 300">
  <!-- Generator: Adobe Illustrator 29.8.3, SVG Export Plug-In . SVG Version: 2.1.1 Build 3)  -->
  <ellipse cx="210.45" cy="115.72" rx="17.69" ry="18.24"/>
  <path d="M272.14,115.72c0-34.83-27.67-63.16-61.68-63.16-25.82,0-48.52,16.17-57.62,40.61L60.36,39l-32.5,55.48,26.59,15.58h-8.67v115.21h44.39v35.74h12.97c13.6,0,26.3-4.99,35.75-14.04,6.28-6.02,10.88-13.48,13.4-21.7h51.67v35.74h12.97c13.6,0,26.3-4.99,35.75-14.04,6.87-6.58,11.73-14.89,14.05-24.04l.64-3.17c.4-2,.66-4.05.76-6.09l.16-3.1v-49.64h-14.82c11.8-11.82,18.66-28.17,18.66-45.2h.01ZM210.45,66.3c26.48,0,47.94,22.12,47.94,49.41s-21.46,49.41-47.94,49.41-47.94-22.12-47.94-49.41,21.46-49.41,47.94-49.41h0ZM46.66,89.56l18.6-31.76,85.91,50.27v52.53H59.52v-36.8h45.58l-58.44-34.24h0ZM254.56,174.66v36.86h-.03c-.59,19.84-16.85,35.74-36.83,35.74v-35.74h-76.96c-.59,19.84-16.85,35.74-36.83,35.74v-35.74h-44.39v-36.86h195.04Z"/>
</svg>