<?xml version="1.0" encoding="UTF-8"?>
<svg id="Layer_1" xmlns="http://www.w3.org/2000/svg" version="1.1" viewBox="0 0 300 300">
  <!-- Generator: Adobe Illustrator 29.8.3, SVG Export Plug-In . SVG Version: 2.1.1 Build 3)  -->
  <path d="M250.79,60.78c-3.55-4.74-10.73-6.79-14.28-11.51-1.92-2.57-.56-6.61-3.74-10.09-10.57-11.54-15.08-6.61-22.76-9.29-5.57-1.95-9.71-8.17-15.3-10.12-17.67-6.16-36.29-1.11-52.12-1.55-4.07-.12-8.12-3.97-11.15-3.03-2.02.63-4.15,4.09-6.79,5.43-17.39,8.8-13.58,14.86-25.04,25.47-3.71,3.44-7.84,1.33-12.74,6.43-4.43,4.6-20.09,25.8-22.59,31.15-5.1,10.91-4.51,25.03-5.06,35.88-.21,4.03-2.97,7.25-3.06,11.16-.29,11.98,9.62,23.65-3.86,33.56-3.21,2.36-8.39.09-11.41,5.28-1.91,3.29.17,6.45-.29,9.37-.46,2.92-3.17,6.04-3.15,8.12.04,3.64,5.14,5.52,6.01,8.22.98,3.02-5.29,10.07-1.3,20.04,7.72,19.29,6.06,31.3,11.5,47.04.54,1.59,9.49,17.69,10.39,18.23,15.28,1.74,29.24-1.61,34.95-17.65.29-.83,2.53-15.53,2.65-17.19.45-6.4-5.83-13.87,1.33-19.5,1.46-1.16,16.74-3.71,19.38-3.67,13.82.19,28.7,3.38,43.95-1.95,7.45-2.61,14-11.24,23.39-6.82,9.56,4.5,6.92,7.87,9.99,13.63,2.6,4.88,6.98,5.87,4.8,13.11,1.47.88,2.4,2.3,4.28,2.41h0c.79.04,2.92-2.45,4.82-2.28,3.33.29,7.03,3.99,9.72,3.15,2.67-.84,14.71-17.54,15.95-21.01,1.32-3.68.92-19.51,2.23-23.24,4.05-11.56,11.49-15.46,12.76-32.5,1.06-14.17,1.01-17.99,4.28-32.71,4.92-22.18,6.53-54.52-7.75-73.57ZM81.1,222.12h0c-.13,2.12-1.93,3.48-3.03,5.14-1.4-1.08-3.08-1.92-4.43-3.09-.8-.7-9.86-15.82-10.15-16.76-.9-2.97,2.4-6.43,2.9-9.61,1.02-6.41-1.78-18.19,10.82-10.98,12.6,7.21,3.16,18.52,1.78,30.47-.21,1.86,2.16,4.04,2.11,4.83ZM186.22,187.03c-10.45-4.48-15.73,4.06-22.59,6.44-2.62.91-32.33,5.6-34.26,5.39-5.1-.56-19.26-9.29-19.14-13.97.41-16.85,29.93-13.27,40.3-16.85,3.74-1.29,5.95-5.05,9.7-6.3,24.12-8.05,23.93.33,29.37,20.66h0l-3.39,4.63ZM233.59,122.42c-5.36,4.23-48.96,6.04-59.64,9.72-3.86,1.34-6.19,4.88-11.18,6.62-14.47,5.06-40.66,3.13-55.18,8.26-7.87,2.78-10.25,12.89-20.92-1.21-6.81-9-.73-32.6,1.57-42.96.49-2.23-1.1-5.19-.25-7.59,1.49-4.18,22.38-32.73,25.92-35.45,3.57-2.74,10.69-1.29,14.82-2.83,6.08-2.27,8.19-7.91,17.16-7.44,11.72.62,20.83,7.48,28.91,9.29,5.32,1.19,19.93-5.25,25.43-3.29h-.01c3.63,1.29,16.05,10.26,18.79,13.23,3.19,3.46,1.79,7.55,3.74,10.1,2.67,3.49,7.42,4.84,9.93,9.14,2.72,4.65,5.62,30.7.91,34.41Z"/>
  <path d="M135.36,79.28c-1.44-.53-17.87,1.6-19.59,2.34-12.57,5.39-5.65,23.4,7.16,26.44,17.36,4.12,26.06-23.67,12.43-28.78Z"/>
  <path d="M195.44,83.76h.01c-7.64-2.71-20.79,5.13-21.01,13.32-.12,4.37,13.12,12.42,17.65,14.23,11.59-8.13,21.94-20.96,3.35-27.55Z"/>
</svg>