<?xml version="1.0" encoding="UTF-8"?>
<svg id="Layer_1" xmlns="http://www.w3.org/2000/svg" version="1.1" viewBox="0 0 300 300">
  <!-- Generator: Adobe Illustrator 29.8.3, SVG Export Plug-In . SVG Version: 2.1.1 Build 3)  -->
  <defs>
    <style>
      .st0 {
        
      }
    </style>
  </defs>
  <g class="st0">
    <path d="M286.83,234.89c0,.51-.4.94-.91.95-5.1.12-9.39,4.59-9.03,9.81l-.29.29h-41.73s-.29-.29-.29-.29c.13-3.17-2.44-8-5.47-9.11-.15-.05-1.39-.41-1.46-.41-.13,0-.34.27-.59.3-.89.1-4.16.74-4.57.7-1.99-.19-3.35-1.09-4.55-2.63-1.28-1.63-1.61-2.9-1.47-4.97.05-.67.51-1.85.6-2.5.31-2.14-.21-4.16-1.66-5.74-2.15-2.35-5.1-2.43-7.29-.09-2.81,3-1.95,8.06-1.56,11.65.45,4.1.88,7.94,1.16,12.05,0,0,0,0,0,.01.04.56-.36,1.06-.93,1.06h-103.89c-.52,0-.95-.42-.94-.94,0-.29.04-.6,0-.88-.35-2.67-2.14-5.85-4.51-7.15-5.17-2.85-11.46-.88-13.7,4.64-.41,1.01-.72,2.3-.8,3.46-.03.49-.44.87-.93.87H31.5c-.53,0-.96-.44-.94-.97.05-1.31-.16-2.63-.09-3.98.08-1.59.59-3.06.79-4.46.6-4.42-2.78-6.12-5.46-8.56-.75-.68-1.79-1.67-2.43-2.43-.41-.49-1.69-2.3-1.75-2.82-.07-.56-.04-3.61,0-4.28.21-2.71,1.02-5.92,1.27-8.73.44-4.93-4.27-8.05-8.47-8.85-.11-.02-.22-.03-.34-.03-.51,0-.92-.43-.92-.94v-41.92c0-.55.47-.98,1.02-.93,1.63.14,3.28.11,4.9.29,2.85.32,5.33.92,8.37.78,2.46-.11,5.6-1.05,7.86.09,2.76,1.39,7.52,6.31,9.53,8.74,1.82,2.2,4.57,7.17,7.42,7.94,3.62.98,6.06-3.19,5.79-6.38-.14-1.73-1.13-3.4-1.17-5.25-.03-1.42.61-2.69,1.56-3.7s3.68-2.78,4.96-2.91c1.13-.11,3,.14,4.1.27,18.62,2.15,38.79-1.46,57.43,1.38.05,0,.1.01.15,0,2.11-.07,4.24.07,6.35,0,3.85-.13,8.97-1.64,11.99,1.35,1.32,1.31,1.83,2.92,1.72,4.77-.06.89-.48,2.24-.6,3.09-.34,2.47.74,5.31,2.86,6.68,2.59,1.69,5.42.53,6.95-1.94.59-.95.55-1.46.74-2.35.05-.23.32-.42.37-.83.06-.56-.57-2.73-.61-3.49-.17-3.07.19-5.59,2.73-7.59,1.82-1.43,4.63-1.17,6.9-1.06,16.83.81,33.94.53,50.78-.02.09,0,.17-.02.25-.05.91-.28,2.4-.22,3.37-.11,3.61.42,5.07,5.36,7.4,7.75,1.45,1.49,3.06,2.26,4.99,1.1,2.17-1.3,3.54-4.62,5.05-6.61,2.82-3.71,6.32-1.91,10.16-1.67,5.8.36,12.6.04,18.47,0,2.33-.01,4.23-.83,6.8-.6,1.94.18,2.83,1.33,4.09,2.71,2.87,3.16,5.45,7.5,10.12,7.77.49.03.86.45.86.93v13.52c0,.5-.39.9-.89.94-3.55.23-8.32,1.77-8.26,5.9.06,3.89,4.86,5.38,8.28,5.68.49.04.87.44.87.94v39.72Z"/>
    <path d="M188.61,120c-.96,1.1-3.45,2.77-4.91,2.96-2.75.35-4.62-.74-6.97-.77-1.97-.02-4.17.98-6.24.97-5.15-.04-5.4-5.33-9.27-7.6-1.47-.86-5.71-1.94-6.44-3.28-.3-.55-.18-.93-.32-1.39-.05-.16-.34-.14-.37-.28-.32-1.33.26-3.59,1.25-4.53,2.37-2.24,7.96-1.81,8.64-5.74.34-1.97-1.69-4.92-3.68-5.2-1.01-.14-2.79.02-3.69.56-3.14,1.9-2.53,6.78-5.6,8.01-1.91.76-8.7,1-10.48.09-2.84-1.45-7.68-7.42-10.35-9.86-.28-.26-.69-.31-.99-.57-3.98-3.43-2.95-10.91.89-14.09,1.77-1.47,3.12-1.78,5.45-1.57.98.09,2.25.78,3.3.79,3.65.03,7.01-6.11,9.7-8.37,1.61-1.35,2.28-1.57,4.45-1.33.76.08,1.72.57,2.35.66.35.05.89-.22,1.33-.1.18.05.11.38.13.39.09.07.32-.3.53-.35.97-.23,1.35-.09,2.39-.9,2.82-2.18,5.64-8.31,9.4-8.67,1.28-.12,2.9.68,4.29.79,3.11.24,4.29-1.1,6.22-3.3,1.22-1.39,2.06-2.97,3.49-4.28,3.5-3.21,8.79-3.78,12.46-.59.43.38.29.69.55.98,2.03,2.3,4.84,4.98,7.1,7.1,1.02.96,2.43,1.74,3.42,2.99,2.59,3.29,1.01,5.6.86,9.23-.11,2.67.85,5.39.59,7.97-.5,4.85-10.02,8.08-9.89,12.8.08,2.98,2.1,4.43-.13,7.68-1.88,2.75-6.72,4.82-8.28,7.85-1.41,2.74,1.38,6.39-.24,9.48-.11.2-.84,1.36-.95,1.48Z"/>
    <path d="M92.86,37.75v45.52c0,.25.02.49.07.73,1.51,7.7-1.81,13.33-10.27,12.34-.83-.1-2.11-.51-2.91-.58-.86-.08-2.58.46-3.52.58-1.53.19-3.54.47-5-.02-3.19-1.08-4.42-5.94-7.03-8.13-5.07-4.25-7.58,4.31-10.2,6.91-2.01,2-4.67,1.54-7.29,1.24-2.04-.23-2.33-.52-4.49-.19-4.52.68-7.4.81-10.49-2.9-1.05-1.26-2.14-3.91-1.83-5.53.8-4.26.58-5.25-.02-9.52-.59-4.18,1.68-6.15,4.47-8.76.28-.27.71-.3.99-.57,4.16-3.95,8.13-8.14,12.25-12.15.33-.32.62-.69.79-1.12,1.06-2.59-1.46-5.58-.36-8.26.4-.97,2.13-2.36,2.96-3.07.21-.18.57-.21.78-.39,2.41-2.05,5.06-4.26,5.98-7.26.49-1.6,2.02-2.65,3.69-2.65h27.66c2.08,0,3.77,1.69,3.77,3.77Z"/>
    <path d="M50.54,112.77c.72.04,1.41.26,2.1.48.17.05.39.03.56.11,3.66,1.69,5.23,5.42,4.68,9.34-.83,5.96-.82,11,0,16.89.55,3.96-1.11,6.91-4.42,9.01-2.67,1.7-4.58.93-7.35.52-1.93-.28-4-.45-6.03-.67-1.69-.18-4.8-.83-6.39-.58-.32.05-.55.36-.98.4-.48.04-.89-.23-1.15-.22-.13,0-.02.36-.39.41-5.79.78-9.99-2.5-9.54-8.47.34-4.52.92-8.48.69-13.22-.15-3.06-1.27-6.44-.04-9.36.71-1.68,2.81-3.78,4.53-4.41,1.16-.42,2.9-.42,4.15-.31,1.7.14,3.39.7,5.24.78,4.86.22,9.57-.92,14.35-.69Z"/>
    <path d="M154.14,124.87c.89,1.93,1.14,6.76.91,9.09-.22,2.16-1.51,2.67-2.82,3.98-2.42,2.43-4.94,5.24-7.47,7.49-3.34,2.97-4.65,3.55-9.23,2.99-1.23-.15-2.83-.72-4.1-.58-1.73.2-3.48.79-5.26.78-2.33,0-6.03-1.77-7.14-3.89-.42-.8-1.03-3.3-.88-4.15.8-4.66.82-10.73.58-15.56-.05-1.03-.65-3.48-.61-4.07,0-.15.39-2.04.46-2.29.51-2.08,2.3-4.15,4.16-5.16,2.17-1.18,6.07-.94,8.51-.6,2.84.4,5.9.96,8.75,1.36,3.41.48,8.51-.64,11.77.09,1.87.42,1.99,3.4,2.13,5.06.09,1.05-.06,4.78.26,5.48Z"/>
  </g>
  <g class="st0">
    <path d="M122.01,238.5c.58-3.24-3.04-1.14-4.19-2.53-.73-.88.05-2.09-.5-2.87-2.01-.9-2.94-3.72-5.73-2.55-1,.42-1.35,3.55-3.4,1.14l.25-28.45c2.95-1.05,1.53-2.71,2.28-4.03.23-.41,1.17-.66,1.58-1.03,1.27-1.14,1.64-2.4,4.27-1.61.88.26,1.73,3.89,3.34.99v-33.58c-.26-1.18-2.14-1.56-2.36-2.15-.36-.93.41-1.83-.55-2.82-1.23-1.29-2.88.5-3.96-1.08.36-2.29-.8-11.48.26-12.87.3-.39,1.02-.58,1.38-.91.43-.39.79-1.09,1.22-1.34,1.38-.79,3.45.55,3.94-1.39l.07-21.83c.11-.81,1.31-.88,1.76-1.48,1.02-1.34-.24-6.48.39-8.36.3-.88,2.09-1.37,2.3-1.91l.12-4.39c.26-.73,1.83-1.02,2.19-1.71.39-.77-.04-1.63.35-2.39.32-.62,1.65-.87,1.85-1.4.31-.81-.3-1.78.38-2.67.34-.45,1.17-.66,1.58-1.03,3.11-2.73,6.22-5.4,9.38-8.08,1.82-1.54,3.43-4.54,6.4-3.45,1.63.6.72,2.24,1.1,3.24.2.53,1.53.78,1.85,1.4.39.77-.04,1.63.35,2.39.33.64,1.8.99,2.08,1.5.46.82-.12,1.88.34,2.71.31.55,1.9.86,2.19,1.71.39,1.16-.25,2.91.14,4.07.3.88,1.81.95,2.01,1.86l.17,6.15c1.6.5,2.53,3.72,4.12,2.68,1.13-.74.23-2.1.61-3.08.22-.56,1.67-.79,1.95-1.61.39-1.15-.2-2.85.14-4.07l2.29-1.92.14-4.08c.27-.8,1.71-1.04,2.1-1.78.47-.88.01-1.89.42-2.63.29-.53,1.59-.68,1.85-1.4.4-1.13-.26-2.93.14-4.08.25-.74,2.04-1.49,2.29-2.22.27-.8-.16-1.71.22-2.51.46-.57,2.28-.27,2.28.17v4.8c0,.19,1.64.83,1.91,1.35.39.77-.04,1.63.35,2.39.33.64,1.79.98,2.08,1.5.48.84-.22,2.74.49,3.17,1.98.86,1.7-1.59,2.98-1.69,2.41-.19,1.22,2.62,1.19,3.76-.64,27.48.53,55.02,0,82.51.3,1.96,2.69,1.08,2.47,3.9-.16,2.01-1.99,1.59-2.38,2.75-.54,1.58.43,4.76-.13,6.19-.22.57-1.67.79-1.95,1.61-.41,1.21.34,3.16-.25,4.28-.37.7-1.93.99-2.19,1.71-.55,1.56.41,4.57-.14,6.18-.28.82-1.74,1.05-1.96,1.61-.36.95.56,3.2-1.32,3.31-2.17.13-1.19-2.34-1.57-3.31-.21-.56-1.68-.79-1.96-1.61-.39-1.16.25-2.91-.14-4.07-.29-.84-1.84-1.04-2.21-1.99-.5-1.29.22-3.23-.21-4.32-.22-.57-1.67-.79-1.95-1.61-.66-3.54.65-8.58-.08-11.93-.18-.85-1.19-1.41-2.08-.92-.37.2-.6,1.1-1.02,1.52s-1.34.62-1.57,1.04c-.46.82.14,2-.34,2.7-.29.42-1.56.61-1.84,1.41-.39,1.15.2,2.85-.14,4.07l-2.29,1.92c-.33,1.23.25,2.93-.14,4.08-.29.86-1.86,1.22-2.13,1.78-.65,1.34.17,3.37-.29,4.53-.22.57-1.67.79-1.95,1.61-.41,1.2.75,5.2-1.29,5.19-1.7,0-.93-2.42-1.6-3.43-.43-.64-1.45-.8-1.79-1.45-.47-.88-.01-1.89-.42-2.63-.29-.53-1.59-.68-1.85-1.4-.4-1.13.26-2.92-.14-4.08-.29-.85-1.88-1.15-2.19-1.71-.46-.82.12-1.88-.34-2.71-.29-.51-1.74-.85-2.08-1.5-.45-.86.12-2.02-.35-2.7-.88-1.28-3.59.56-4.27-1.41-1.63-4.76,4.05-1.73,4.45-4.42l-.02-23.71c-.68-2.01-3.38.2-4.33-1.66-.27-.52-.36-7.89-.12-8.49.58-1.49,4.54.11,4.47-2.13.27-16.3-.4-32.62-.03-48.92.03-1.47,1.69-8.36-1.47-7.59-2.28.55,1.32,6.2-2.33,5.82-1.51-.67.29-4.44-2.18-3.7-1.86.56-.48,5.34-1.01,6.93-.3.88-1.81.95-2.01,1.86l-.04,98.04c.19,2.66-2.46,3.66-4.27,5.31-.83.75-.45,1.73-2.46,1.8-2.8.1-2.58-3.23-4.54-1.85-.68.48-.67,3.86-.42,4.61.14.41,3.61,3.17,4.28,3.2.92.04,2.45-.32,3.64-.11l5.51-4.56c1.14-1.56-.74-7.25,1.65-7.59.36-.09,1.17.65,1.17.72v10.5l-2.36,1.86-.06,8.04c-.2.91-1.71.98-2.01,1.86-.55,1.62.42,4.44-.22,6.11-.36.93-1.76,1.12-2.1,1.78-.43.83.13,1.74-.5,2.57-.53.69-3.16,2.28-3.84,2.98-.51.52-.38,1.04-.35,1.65h-4.86ZM164.58,110.79c-1.87.47-.61,5.32-.57,6.69.25,10.13-.37,20.35.17,30.45,2.05,1.33,2.16,2.51,1.92,4.67-.25,2.28-1.29,1.57-2.12,2.66-.88,1.15,0,2.69.04,3.91.11,4.02.11,8.3,0,12.32-.03,1.28-1.42,5.13,1.19,4.96,1.48-.1.56-2.06,1.05-3.02.41-.78,2.37-1.39,2.27-2.54-.29-17.87.5-35.87-.4-53.67-.76-.66-1.7-.87-1.97-1.89-.35-1.34.85-5.14-1.57-4.54ZM159.13,115.09v32.99c0,.59,2.14,1.06,2.44-1.19-.77-9.78,1-20.67,0-30.31-.09-.89-.23-2.07-1.57-1.96l-.87.47ZM159.13,159.18v22.79c0,.55,2.1.87,2.42-.61l-.06-21.82c-.32-.95-2.1-1.11-2.36-.36Z"/>
    <path d="M50.54,85.7c.13.38,1.79,1.22,2.01,1.86.4,1.15-.25,2.91.14,4.08.29.85,1.87,1.15,2.19,1.71.58,1.03-.16,3.1.24,4.29.32.95,2.64,1.29,2.36,2.76l-.03,92.66c-.03.51-2.87,3.23-3.1,3.32-1,.42-2.35-.19-3.32.43-.75.47-2.75,2.75-3.6,3.48-1.51,1.29-3.02,2.55-4.51,3.9-.38.35-1.16.55-1.43.87-.71.84,0,2.01-.49,2.87-.15.27-3.29,2.45-3.85,2.97-.64.6-.76,2.35-2.58,1.38-.41-.22-.5-.99-.88-1.34-.76-.69-3.14-2.24-3.65-2.84-.64-.76-.08-1.87-.57-2.8-.43-.81-4.05-2.94-4.42-3.67-.43-.84.13-1.74-.5-2.57-.47-.62-2.92-2.17-3.67-2.83-1.93-1.72-3.77-3.55-5.71-5.26-.8-.7-1.59-.46-1.77-1.77-.43-3.12,2.16-2.21,2.46-4.2l-.2-77.54c-1.01-1.96-4.32.63-4.61-1.91.26-.79,1.89-1.15,2.19-1.69.4-.72-.05-1.63.34-2.4.31-.61,1.62-.86,2-1.57.71-1.31-.15-3.36.31-4.53.21-.54,1.53-.78,1.85-1.4.39-.77-.04-1.61.36-2.39.36-.7,1.99-1.19,2.19-1.7.43-1.09-.3-3.21.12-4.39.25-.72,1.55-.87,1.85-1.4.63-1.13-.73-3.86,2.25-3.16,1.3.56.57,3.62.4,4.75l2.31,1.92.14,4.08c.3.89,1.96,1.01,2.28,2.22s-.26,3.1.13,4.09c.18.46,2.03,1.18,2.03,1.55v78.28c0,.87,2.43.87,2.43,0v-96.57c0-.61,2.43-.61,2.43,0v24.89c0,.52,1.77.73,2.26-.15.46-.83-.09-1.84.35-2.7.33-.63,1.63-.86,1.85-1.4.43-1.1-.3-3.21.12-4.39.26-.73,1.83-1.02,2.19-1.71.39-.77-.04-1.63.35-2.39.32-.62,1.63-.86,1.85-1.4.43-1.09-.29-3.03.21-4.32.31-.8,2.28-1.59,2.28-1.93v-4.5c0-.61,2.43-.61,2.43,0,0,1.04-.24,3.76,0,4.5ZM39.31,110.77c-.21.06-2.17,2.69-2.64,3.12.67,5.96-.91,13.44-.03,19.2.12.8,2.71,3.53,3.65,3.45s1.55-2.31,2.98-2.55l.31-.63c-.59-5.31.81-11.96.02-17.11-.24-1.6-2.12-1.74-2.39-2.43-.32-.8.23-1.97-.21-2.82-.3-.36-1.26-.39-1.71-.25ZM37.22,138.66c-.51.15-.58.61-.57,1.01l.09,16.15,1.1.8c.98-.33,1.11-2.09,2.12-2.1,1.39,0,1.49,3.52,3.47,1.51l.1-16.58c-1.83-2.46-2.26,1.3-3.58,1.21-1.32-.47-1.02-2.49-2.73-2ZM37.11,160.91c-.43.46-.41,1-.46,1.55-.67,6.7.52,14.21.02,21,.86,1.26,2.78,2.4,3.96,3.47.81.74.68,2.29,2.82,1.2l.14-26.25c-.13-.91-1.26-1.12-1.88-1.68-.79-.71-.54-2.09-2.64-1.34-.18,1.25-1.45,1.51-1.96,2.05Z"/>
    <path d="M80.38,141.18c.18-.49,1.31-.57,1.85-.41.71.2.69,1.11,1.09,1.46.47.42,5.99.78,6.36-.52l.06-15.83c-.18-1.1-1.88-1.22-2.27-2.24-.32-.82-.33-3.67.17-4.39.41-.58,1.79-.83,2.04-1.53.38-1.07.44-4.66-.96-5.06-2.72-.78-2.94.31-4.34,1.68-.37.37-1.2.6-1.4.89-.7,1,.2,6.56-.18,8.24-.25,1.11-2.02,1.19-2.35,2.17-.54,1.6.41,4.62-.14,6.18-.25.72-1.56.87-1.85,1.4-.68,1.23.68,3.47-2.45,3.58-3.42.12-2.05-2.34-2.74-3.58-.55-1-2.37-.35-1.93-3.16.24-1.55,1.78-1.45,2.04-2.13.28-.73-.2-1.67.23-2.5.36-.7,1.93-.98,2.19-1.71l.14-6.18c2.54-1.99,4.75-4.31,7.24-6.33.61-.49,2.23-.82,1.99-1.78-.36-1.47-2.66-.78-3.57-.78-2.32,0-4.64-.03-6.95-.01l-.53.15c-.41.22-.5.99-.88,1.34-.83.74-3.46,2.45-3.99,3.15-.63.83-.07,1.75-.5,2.57-.33.64-1.55.72-1.76,1.47l-.17,25.95c-.14,1.09-1.08,1.88-2.24,1.07l-.43-.82c.27-8.66-.63-17.73-.09-26.34.06-.9.19-2.81.36-3.59.19-.89,1.72-.97,2.01-1.86.69-2.03-.76-6.97.57-8.51.46-.53,1.7-.92,1.88-1.38.58-1.47-.52-4.96.23-6.4.33-.62,1.62-.87,2-1.57.45-.84.07-1.69.32-2.42s1.56-.87,1.85-1.4c.49-.89-.23-1.99.71-2.99.35-.37,4.58-4.03,4.88-4.18,1.1-.59,2.33-.09,3.26-.48.63-.26.87-1.53,2.07-1.83,1.7.27,3.77-.5,5.05.48.46.35.73,1.16,1.2,1.36.74.31,1.72.05,2.54.21.26.05,3.44,2.45,3.54,2.63.46.82-.12,1.88.34,2.71.29.51,1.74.85,2.08,1.5.45.86-.12,2.01.35,2.7,6.16,2.37,3.57-2.23,4.41-4.6.26-.72,1.82-1.01,2.19-1.71.45-.86-.12-2.02.35-2.7,2.64-1.47,5.27-.45,4.27,2.49-.33.97-2.86,1.38-2.37,3.05v88.5c-.07.86.91,1.61,1.89,1.32.51-.15,1.09-3.4,2.67-1.65s-1.78,1.76-2.06,2.46l-.1,6.51c-.22.58-1.2.6-1.67.96-1.52,1.18-.2,5.12-.78,6.82-.28.82-1.73,1.04-1.95,1.61-.46,1.17.4,3.21-.31,4.53-.4.74-1.83.98-2.1,1.78l-.14,6.18c-.23.64-1.22.79-1.68,1.25-.81.8-1,2.62-2.88.99-.63-1.26.58-2.87-.03-4.45-.36-.93-1.76-1.12-2.1-1.78-.39-.77.04-1.63-.35-2.4-.31-.61-1.63-.87-2-1.57-.47-.88-.01-1.89-.42-2.63-.29-.53-1.59-.68-1.85-1.4-.39-1.12.22-2.87-.14-4.08l-2.36-2.16v-6.3c0-.61-2.43-.61-2.43,0v6.6c0,.34-1.78.9-2.02,1.56-.55,1.54.33,4.46-.14,6.18l-2.29,1.92-.13,8.29-2.8,2.71c-3.03.51-1.45-2.03-1.69-2.9-.18-.64-1.85-1.03-2.2-1.71-.45-.86.13-2.01-.35-2.69-.2-.28-1.03-.52-1.41-.88-1.22-1.16-2.56-2.19-3.63-3.46-.48-.25-4.68-.26-5.31-.1-1.04.28-1.27,2.43-3.04,1.62-.46-.29-.46-2.48-.26-2.97.21-.54,2-1.03,2.3-1.91.39-1.16-.26-2.95.14-4.08.27-.77,1.68-.84,1.95-1.61.55-1.56-.42-4.63.13-6.19.26-.72,1.82-1.01,2.19-1.71.59-1.12-.16-3.07.25-4.28.25-.74,1.37-.95,1.82-1.43,2-2.14-1.91-7.89,2.28-7.34,1.45,2.91,2.98,1.7,5.7,1.65,5.67-.1,2.93.82,4.19,3.31.34.68,1.78,1.06,2.02,1.58.42.9-.06,2.12.54,2.81,1.29.95,3.26.89,4.13-.38l-.11-20.49c-.32-.5-.78-.55-1.37-.61-1.19-.13-8.88-.09-9.42.28-.7.48-.33,2.08-2.35,1.49-.78-.23-.75-2.46-.51-3.06s2.11-.98,2.36-2.16c.38-1.71-.31-4.14.06-5.94l2.03-1.25v-4.8Z"/>
    <path d="M195.79,199.02c-.38-.34-2.48-2.28-2.65-2.36-1.05-.44-3.05.32-3.65-.75-.29-.52-.33-7.04-.19-7.96.22-1.44,1.14-1.15,1.75-1.79.73-.76.26-4.95.34-6.31.05-.86.25-3.89.43-4.42.24-.7,1.7-1.23,1.94-1.92.4-1.19-.34-3.26.24-4.29.29-.51,1.74-.85,2.08-1.5.43-.82-.05-1.77.23-2.5.21-.56,1.68-.79,1.95-1.61.19-.56.2-3.21.06-3.83-.25-1.13-1.77-1.23-2.02-1.86-.61-1.55.53-4.92-.29-6.63-.3-.63-1.68-.79-2.02-1.27-.44-.64.01-1.72-.24-2.49-.28-.84-1.88-1.15-2.19-1.71-.44-.77.06-1.77-.23-2.5-.35-.9-2.25-.41-2.05-3.06.15-1.96,1.74-1.65,2.05-2.44.7-1.76-1.28-6.82,1.63-7.29,1.57-.25,4.97.73,5.36-1.07l-.31-30.31c-3.95-1.12.61-6.92-3.79-6.38.17,1.36-2.29,1.91-2.42,2.1-.5.69.84,3.91-1.57,3.77-1.32-.08-1.4-1.56-1.29-2.47.2-1.73,2.14-1.46,2.41-2.13.53-1.3-.32-4.53.12-6.2.31-1.19,1.79-1.27,2.18-2.02.62-1.19-.68-2.84,1.47-3.23.87-.16,1.99.09,2.66-.1.74-.22.49-2.18,3.16-2.08,1.68.06,3.79,2.7,5.02,3.78.42.37,1.35.63,1.58,1.03.46.82-.12,1.88.34,2.71.25.45,1.35.73,1.77,1.17,1.37,1.47-.2,6.93.55,8.82.25.62,1.77.72,2.02,1.86v131.06c.37,3.51,5.46-.46,4.89,4.2-.27,2.26-2.52,1.33-4,1.33-3.48,0-6.96-.01-10.44,0-1.58,0-2.92.84-4.15-.58l-.17-34.34c-.04-.17-2.14-2.07-2.55-2.44Z"/>
    <path d="M224.02,135.18c-.18-.49-1.31-.57-1.85-.41-.7.2-.69,1.19-1.28,1.59-.97.65-3.02.58-3.75-.32l.27-2.99c.74-.81,2.61-.09,3.65-.74.56-.35.5-.97.9-1.32.55-.48,1.53-.31,1.92-1.34.44-1.15.34-9.36.17-10.98-.26-2.38-1.99-1.93-2.37-3.05l-.23-4.6c-2.43-1.41-2.01,3.16-4.53.91-1.33-2.33,1.93-3.35,2.19-4.1s-.13-1.58.32-2.42c.39-.74,1.83-.98,2.1-1.78.41-1.21-.34-3.16.25-4.28,3.84-1.71,1.61-4.81,2.26-7.65.25-1.09,1.72-1.05,2.01-1.86.4-1.13-.26-2.92.14-4.08.09-.25,3.16-3.36,3.75-3.09,1.92.43.63,3.67,1.11,5.07.3.88,1.81.95,2.01,1.86l.07,5.94c.29.85,1.87,1.15,2.19,1.71.62,1.1-.23,3.46.23,4.6.27.67,2.88,1.31,2.39,2.73-1.14,27.86,1.45,56.55,0,84.31-.08,1.6-.51,3.31-.51,4.96-.89.72-1.63,1.63-2.45,2.37-1.4,1.26-5.17,3.7-6.1,4.93-.63.83-.07,1.74-.5,2.57-.3.58-3.8,2.79-4.16,3.3-.48.68.1,1.84-.35,2.69-.27.51-1.25.8-1.71,1.22-.38.35-.48,1.12-.88,1.34-1.92,1.03-2.45-1.86-4.11-2.45-.28-11.28.17-22.58-.04-33.85-.02-.9-.9-2.65.32-3.29,1.56-.82,1.77.86,2.43,1.51.31.31.86.44,1.2.76.8.75.98,2.56,2.92.99-.39-5.55.69-11.93.07-17.37-.2-1.78-.98-1.44-2.08-2.4-.41-.36-.37-.97-.91-1.31-.87-.54-2.12-.16-3.03-.38-1.53-.37-1.64-4.2,1.28-4.13,2.28.06,2.02,1.8,2.87,2.04.52.15,1.85.02,1.85-.41v-16.8Z"/>
    <path d="M251.77,117.79l6.08,4.94c2.07-.27,8.14.58,9.52-.45.68-.51.46-1.46,1.57-1.64,1.36-.22,7.53-.17,9.04-.02s1.01.85,1.74,1.5c.46.41,1.45.72,1.71,1.22.39.77-.04,1.63.35,2.39.35.69,1.94.99,2.19,1.71.27.78-.2,1.73.23,2.5.34.61,2.21.95,2.25,1.95v13.79c.15,1.06,1.95.74,2.09,1.8.11,5.2-.14,10.41-.02,15.61.04,1.84.55,3.68.38,5.7-.14,1.71-.31,1.87-2.4,1.59-.94-1.54.1-3.78-.63-5.29-.09-.19-2.63-2.26-3.07-2.46h-15.95c-1.54.19-.75,1.83-2.44,1.82-1.5,0-1.13-1-1.73-1.54-.79-.7-9.5-.1-11.46-.29-3.06-.3-1.32-1.85-2.08-3.3-.36-.7-1.93-.98-2.19-1.71-.67-1.9,1.21-4.41-1.97-5.49l-.17-22.33c.01-.89,1.32-1.09,1.72-1.51,1.05-1.09-.12-10.44.42-12.53.16-.53,2.36-1.95,2.36-2.16v-6.3c0-.87,2.43-.87,2.43,0v10.5Z"/>
    <path d="M286.04,184.89c.67.58.63,6.24.11,7-.41.58-1.79.83-2.04,1.53-.79,2.22.48,7.27-.07,9.83-.26,1.19-2.02,1.21-2.35,2.47-.48,1.84.52,7.28-.39,8.36-.37.43-1.45.54-1.69,1.23-.79,2.25,1.9,8.63-3.64,7.23-2.01-.51-.86-2.67-1.46-3.53l-6.44-5.23c-.65-.77-.08-1.74-.5-2.56-.36-.71-2.26-1.1-2.34-2.33l-3.91-.67-1-3.34c-.79-.54-2.23-.06-3.25-.49-.97-.4-.72-1.57-1.7-1.83-.72-.19-5.61-.18-6.54-.07-1.38.16-2.73,2.11-3.9,2.93.27,1.81-.67,9.52.1,10.59.25.35,1.28.51,1.75.88.62.49.64,1.38,1.29,1.62,1.11.41,2.86-.34,4.24.21,1.05-.11,3.39-3.06,4.33-3.78.47-.36,1.39-.45,1.6-.72.6-.75-.49-2.89.85-3.47,1.88-.81,2.29,1.15,2.1,2.42-.22,1.51-1.81,1.07-2.28,1.93-.45.82.13,1.88-.55,2.82-.45.63-3.16,2.5-3.97,3.17-.4.33-.64,1-1,1.23-.73.46-4.8.45-5.6,0-.52-.29-.77-1-1.19-1.37-.48-.42-1.17-.57-1.54-1.07-.75-.98-.27-2.36-.7-2.99-.31-.45-1.61-.44-1.86-1.09-.56-1.46.42-4.61-.13-6.19-.23-.67-1.66-1.29-2.03-1.84-.59-.88-.44-10.27-.34-12.03.05-.83.41-4.49.68-4.81.37-.43,1.45-.54,1.69-1.23.64-1.81-.64-7.45.39-8.66.36-.43,1.6-.71,1.93-1.33.45-.86-.13-2.01.35-2.69.2-.28,1.03-.53,1.41-.88,1.27-1.2,2.56-2.37,3.86-3.56,1.89-.4,9.22.52,10.19-.49.59-.61.29-1.88,2.18-1.33.66.19.69,1.05,1.12,1.44.36.32,2.41,2.2,2.58,2.27.89.37,1.98-.03,2.89.2.81.21,1.05,1.48,2.07,1.83.94.32,1.95-.42,2.81.24,2.13,2.33,4.95,4.18,7.3,6.28.38.34.47,1.12.88,1.34.84.45,2.76-.19,3.74.52Z"/>
    <path d="M264.86,80.51c3.12-.58,2.84,1.73,3.79,1.99s1.97-.24,3.09.33c1.51.77.41,2.45,1.02,3.32.1.14,2.44,2.17,2.6,2.25,1.06.56,3.69-.56,4.15,1.51.59,2.62-1.18,2.18-2.1,3.27s.11,8.18-.33,10.21c-.26,1.19-2.02,1.21-2.35,2.47-.56,2.16.53,6.1-.14,7.98-.22.6-1.07.7-1.48,1.12-.57.59-.6,1.57-1.82,1.74-1.97-.37-.63-2.32-1.47-3.42-2.74-2.39-5.83-4.61-8.5-7.04-.38-.34-.43-.97-.9-1.32-1.53-1.16-8.17,1.1-8.66-1.21-.17-.79-.12-3.93.32-4.52.38-.5,1.5-.72,1.7-1.23.46-1.17-.4-3.22.31-4.53.38-.71,1.68-.96,2-1.57.39-.77-.04-1.63.35-2.4.31-.61,1.63-.87,2-1.57.47-.88.01-1.89.42-2.63.15-.27,3.27-2.54,3.82-3,.75-.62.86-1.5,2.16-1.74Z"/>
    <path d="M62.55,202.85c.45-.13,1.1-.1,1.52.12.16.08,2.3,2.31,2.36,2.46.23.68.24,7.19.06,8.03-.34,1.58-4.03,1.42-4.43.25-.32-.93-.26-8.56-.09-9.85.06-.42-.01-.83.58-1Z"/>
    <path d="M68.98,160.18l.1-3.27c3.33-1.43,1.71,2.95,2.6,3.48,2.76-.1,5.53.43,4,3.42-.69,1.35-4.05,1.23-4.33-.14-.39-1.92.88-2.8-2.37-3.5Z"/>
    <path d="M85.82,126.68c2.33-.57,1.69,3.62.93,3.83-2.33.66-2.53-3.44-.93-3.83Z"/>
    <path d="M83.37,132.65c2.38-.67,2.64,3.72.64,3.89s-1.39-3.68-.64-3.89Z"/>
    <path d="M67.43,150.68c2.33-.57,1.69,3.62.93,3.83-2.33.66-2.53-3.44-.93-3.83Z"/>
    <path d="M187.82,174.65c1.95-.43,2.01,3.87.29,3.88s-1.72-3.56-.29-3.88Z"/>
  </g>
  <g>
    <path d="M139,90.75c-1.9.57-2.85,4.32-4.01,5.56-.75.8-1.82.99-2.66,1.64-1.92,1.48-2.28,3.67-4.12,5.13-1.39,1.1-3.31,1.36-4.22,3.04-1.26,2.34-.18,4.37-.4,6.87-.41,4.74-4.43,3.31-6.1,6.12-1.73,2.92.41,6.14-.93,8.98-1.28,2.73-5.66,1.83-6.45,6.1-.06,5.47.48,10.99.6,16.42.16,6.95-6.06,4.72-6.89,8.34-1.26,5.53,7.59,3.39,6.47,8.44-.7,3.18-6.89,1.84-6.56,6.35.24,3.24,4.12,2.84,5.82,4.78,3.64,4.15-3.21,14.99,3.76,17.71l46.41.12c3.23-.93,3.52-5.02,6.44-6.44,5.09-.33,10.25.04,15.29-.9,1.59-.71,1.48-3.38,2.72-4.87,1.36-1.64,4.02-1.52,5.19-3.72,1.34-2.5-.7-5.78.79-8.46,1.42-2.54,5.55-1.68,6.34-5.89-.04-8.51-.65-17.19-.27-25.7.14-3,2.04-7.46-1.32-9.55-4.32-2.69-5.28,3.21-7.07,5.12-1.64,1.76-4.38,1.23-5.06,4.85.19,4.6.18,9.2.24,13.81.03,2.68,1.18,6.16-1.8,8.08-1.52.98-7.85.99-9.39.14-6.08-3.38,3.1-18.44-6.12-19.31-1.94-.18-11.3-.29-12.75.16-2.35.73-3.41,5.29-5.68,6.21-3.13,1.27-7.8-1.54-10.07,2.48-1.44,2.55-.44,4.37-.4,6.84.08,5.07-.09,10.15-.03,15.22.03,2.67,1.18,6.45-2,8.22-1.4.78-7.51.81-8.98.12-3.45-1.62-2.24-5.91-2.21-8.66.06-5.06.06-10.16,0-15.22-.02-1.42-.53-2.59-.31-4.25.71-5.52,6.02-3.41,7.16-8.36l-.5-18.34c.76-4.81,4.85-3.44,6.45-6.43,1.26-2.35.18-4.36.4-6.87.41-4.7,4.31-3.28,6.09-6.13,1.64-2.61.48-4.77.5-7.41.02-2.91,1.69-5.94-.16-8.73-.91-1.38-2.58-2.09-4.21-1.6ZM219.27,124.11c-5.02,1.92-2.77,5.28-3.21,9.01-.5,4.26-4.52,3.07-6.19,6.03-1.18,2.1-1.15,7.15.24,9.17,2.01,2.91,5.83,1.46,8.76,1.81s2.73,3.26,4.32,4.93c1.44,1.51,3.72,1.76,5.61,1.05,1.08-.83.66-5.11,2.86-6.06,1.69-.72,5.27.01,7.32-.28,3.58-.51,2.48-3.99,4.47-5.77,1.24-1.1,3.55-.85,4.82-2.12.73-.73.88-2.34,1.62-3.33,1.77-2.36,6.72-1.64,5.72-6.03-.51-2.27-2.98-2.29-4.39-3.2-2.05-1.32-2.75-4.47-5.35-5.22h-26.62ZM54.12,170.02c-2.68,1.03-3.1,4.06-5.18,5.72-3.15,2.51-2.63,1.78-5.15,5.09-2.23,2.93-5.9,2.45-6.43,6.78-.21,1.69.36,3.16.35,4.62-.01,3.98-1.83,9.35,3.49,10.72l26.58-.12c2.5-1.21,2.9-4.03,4.93-5.64,1.33-1.06,2.61-1.28,3.81-2.79,2.75-3.45,1.49-2.66,5.41-5.16,3.38-2.15,3.4-10.87-.44-12.38-1.93-.76-4.87-.05-6.97-.3-3.32-.39-3.85-5.16-6.75-6.47l-13.66-.08Z"/>
    <path d="M282.12,84.07v13.21c-5.63-1.31-5.74,3.65-8.94,6.09-.68.52-1.52.72-2.3,1.33-2.1,1.67-2.8,5.44-5.77,5.8-3.48.41-10.16-.76-13.07.14-2.45.75-3.28,5.41-6.16,6.06l-46.15.38c-2.93-.47-3.9-5.66-6.44-6.44-2.91-.9-9.59.27-13.07-.14-3-.36-3.66-4.16-5.77-5.79-1.31-1.02-2.79-1.09-3.82-2.46-1.97-2.61-.84-4.73-.8-7.43.04-2.64.04-5.32,0-7.96-.04-2.79-1.19-5.13.8-7.76,1.03-1.36,2.37-1.38,3.64-2.3,1.92-1.39,2.27-3.69,4.12-5.12,1.34-1.04,3.23-1.25,4.11-2.83,1.8-3.24-1.64-8.03,2.53-10.68,3.93-2.49,2.67-1.71,5.41-5.16,1.2-1.51,2.48-1.73,3.81-2.79,2.1-1.67,2.8-5.44,5.77-5.8,3.48-.41,10.16.76,13.07-.14,2.54-.78,3.51-5.97,6.44-6.44,10.3.68,21.89-.97,32.04-.03,3.44.32,3.69,3.76,5.92,5.64,1.36,1.15,2.76,1.43,3.98,2.96,2.51,3.15,1.78,2.63,5.09,5.15,2.07,1.57,2.44,3.82,4.31,5.27,1.44,1.12,3.05,1.14,4.1,2.83,1.59,2.53.55,4.55.51,7.06-.06,3.66-.22,7.28-.33,10.9-.15,4.83,2.03,7.08,6.95,6.45ZM228.54,57.41c-3.16.07-6.37.3-9.53.38-2.54,1.01-3.38,5.27-5.68,6.21-2.02.82-5.42-.25-7.53.4-2.35.73-3.41,5.29-5.68,6.21-2.87,1.16-7.4-1.23-9.67,1.89-1.86,2.55-.83,4.53-.8,7.1.05,3.95-.6,8.96-.36,12.58.19,2.85,1.53,4.84,4.46,5.12,6.07.57,12.94-.51,19.1.06,2.84,1.17,4.62,9.96,9,5.56,3.76-3.78-1.62-12.09,1.34-16.82,1.38-2.21,4.11-1.82,5.42-3.83,2.93-4.46-1.98-12.84,1.82-16.35,1.82-1.68,5.14-1.43,5.43-4.5.44-4.62-4.31-4.06-7.32-3.99ZM257.59,90.43c-2.93.75-3.09,6.03-.23,7,6.82,2.33,7.3-8.82.23-7Z"/>
    <path d="M282.12,156.74v33.03c-2.25-.1-4.83-.24-6.08,2.01-1.73,3.11,1.48,8.08-2.34,10.54-1.47.95-7.67,1.03-9.07.15-2.02-1.27-2.49-4-4.48-5.43-1.35-.98-2.98-1.05-3.94-2.67-1.76-2.97.51-6.4-1.04-9.2-1.99-3.59-7.11-1.1-9.96-2.26-2.27-.92-3.33-5.48-5.68-6.21-.98-.3-6.32-.3-7.3,0-2.68.83-3.33,6.06-6.75,6.47-3.87.46-6.08-1.4-8.91,2.32-2.51,3.32-1.99,2.58-5.15,5.09-2.09,1.67-2.8,5.44-5.77,5.8-1.84.22-4.13-.27-5.93.01-2.41.38-3.56,4.26-5.46,5.77-3.15,2.51-2.63,1.78-5.15,5.09-1.57,2.06-3.78,2.43-5.27,4.31-2.74,3.45-1.49,2.67-5.41,5.16-5.59,3.54,1.41,14.69-3.65,18.48-1.36,1.02-3.01.88-4.15,2.45-3.31,4.51,2.22,13.88-2.45,17.37-.99.74-2.27.83-3.17,1.79-1.75,1.87-1.99,6.06-5.61,5.65-2.9-.33-3.48-5.55-5.52-6.38-1.81-.73-4.96.05-7-.27-2.46-.39-3.51-4.09-5.3-5.6-1.36-1.15-2.76-1.43-3.98-2.96-2.75-3.45-1.49-2.66-5.41-5.16-2.91-1.85-3.15-8.27-1.35-10.87,1.04-1.5,2.61-1.57,3.97-2.63,1.93-1.49,2.92-5.37,5.46-5.77,3.91-.62,6.27,1.52,9.21-2.35,2.51-3.32,1.99-2.58,5.15-5.09,2.09-1.67,2.8-5.44,5.77-5.8,2.08-.25,5.38.58,7.09-.5,1.96-1.23,2.44-3.8,4.3-5.28.86-.69,1.79-.95,2.66-1.64,1.58-1.26,2.14-3.18,3.8-4.46,1.28-.98,2.85-1.21,3.79-2.48,1.7-2.3.4-4.64,4.16-5.08,2.08-.25,5.96.2,7.71-.88,1.5-.93,2.1-2.87,3.14-4.12,1.56-1.88,3.71-2.25,5.27-4.31,2.52-3.31,1.99-2.58,5.15-5.09,2.09-1.67,2.8-5.44,5.77-5.8,1.84-.22,4.13.27,5.93-.01,2.38-.38,3.65-4.27,5.63-5.6,1.32-.88,2.36-.58,3.47-2.14.82-1.16,1.24-4.06,1.78-4.49,1.4-1.12,6.96-.38,8.96-.62,3.4-.4,2.81-3.85,4.27-5.31,1.34-1.33,3.72-.97,4.98-2.28,1.82-1.89.83-5.12,4.31-5.6,1.92-.27,5.19.14,6.99-.61,2.6-1.08,3.15-5.97,6.52-6.36,2.48-.29,7.02-.46,8.61,1.65,3.93,5.21-4.83,19.49,7.42,18.18Z"/>
    <path d="M17.88,117.43v-7.27c5.16,1.23,5.7-3.17,8.58-5.46.91-.73,2.07-.99,2.83-1.79,1.24-1.32,2.11-5.19,4.29-5.62,4.37-.87,4.49,5.66,7.08,6.45,1.36.42,11.27.37,13.07.16,3.44-.4,3.76-5.35,7-6.21,6.16-.79,14.12.83,20.06-.09,4.11-.64,4.2-6.37.28-7.17-5.57-1.13-14.33.86-20.06-.09-3.21-.54-3.91-5.33-6.44-6.11-2.91-.9-9.59.27-13.07-.14-3-.35-3.65-4.16-5.77-5.79-1.31-1.02-2.79-1.09-3.82-2.46-1.98-2.62-1.88-10.18,1.88-11.36l33.73-.15c3.15,1.13,3.58,6.14,7,6.54s10.16-.76,13.07.14c2.54.78,3.51,5.97,6.44,6.44l26.34-.05c2.98-.67,2.88-7.94,7.85-6.39,4.11,1.29,2.01,7.2,1.95,9.92-.06,2.66,1.11,4.9-.4,7.52-1.03,1.78-2.75,1.89-4.22,3.05-1.86,1.47-2.34,4.05-4.3,5.28-1.72,1.08-5.01.26-7.09.5-3.41.4-4.06,5.64-6.75,6.47-2.11.65-5.51-.42-7.53.4-2.27.92-3.33,5.48-5.68,6.21-2.11.65-5.51-.42-7.53.4-2.3.94-3.14,5.2-5.68,6.21l-13.91.29c-2.53.99-3.52,5.57-5.91,6.31-1.05.32-6.52.31-7.53-.1-2.46-1-3.21-5.75-6.21-6.34l-29.54.31Z"/>
    <path d="M139,90.75c1.63-.49,3.3.22,4.21,1.6,1.85,2.79.17,5.82.16,8.73-.02,2.64,1.14,4.79-.5,7.41-1.78,2.85-5.69,1.43-6.09,6.13-.22,2.51.87,4.52-.4,6.87-1.6,2.99-5.69,1.62-6.45,6.43l.5,18.34c-1.14,4.95-6.45,2.85-7.16,8.36-.21,1.67.3,2.83.31,4.25.07,5.06.07,10.16,0,15.22-.03,2.75-1.24,7.05,2.21,8.66,1.47.69,7.58.66,8.98-.12,3.17-1.76,2.03-5.55,2-8.22-.07-5.07.11-10.15.03-15.22-.04-2.46-1.04-4.29.4-6.84,2.27-4.02,6.94-1.21,10.07-2.48,2.27-.92,3.33-5.48,5.68-6.21,1.44-.45,10.81-.34,12.75-.16,9.23.87.04,15.93,6.12,19.31,1.54.86,7.87.84,9.39-.14,2.98-1.92,1.84-5.4,1.8-8.08-.06-4.61-.05-9.21-.24-13.81.67-3.63,3.41-3.1,5.06-4.85,1.79-1.91,2.75-7.81,7.07-5.12,3.36,2.09,1.46,6.55,1.32,9.55-.39,8.51.22,17.19.27,25.7-.78,4.21-4.92,3.34-6.34,5.89-1.49,2.68.55,5.96-.79,8.46-1.18,2.21-3.83,2.08-5.19,3.72-1.24,1.5-1.13,4.16-2.72,4.87-5.04.94-10.2.57-15.29.9-2.93,1.42-3.21,5.51-6.44,6.44l-46.41-.12c-6.97-2.72-.12-13.56-3.76-17.71-1.7-1.93-5.58-1.53-5.82-4.78-.33-4.5,5.86-3.16,6.56-6.35,1.12-5.05-7.73-2.92-6.47-8.44.82-3.62,7.04-1.39,6.89-8.34-.12-5.43-.67-10.96-.6-16.42.79-4.27,5.17-3.37,6.45-6.1,1.33-2.84-.8-6.07.93-8.98,1.67-2.82,5.69-1.38,6.1-6.12.22-2.5-.87-4.54.4-6.87.91-1.68,2.83-1.94,4.22-3.04,1.84-1.46,2.2-3.65,4.12-5.13.84-.64,1.91-.84,2.66-1.64,1.17-1.24,2.11-4.99,4.01-5.56ZM151.9,169.7"/>
    <path d="M54.12,170.02l13.66.08c2.9,1.3,3.43,6.07,6.75,6.47,2.1.25,5.03-.46,6.97.3,3.84,1.51,3.83,10.23.44,12.38-3.92,2.49-2.67,1.7-5.41,5.16-1.2,1.51-2.48,1.73-3.81,2.79-2.03,1.61-2.43,4.43-4.93,5.64l-26.58.12c-5.31-1.37-3.5-6.74-3.49-10.72,0-1.46-.56-2.93-.35-4.62.53-4.33,4.2-3.85,6.43-6.78,2.52-3.31,1.99-2.58,5.15-5.09,2.08-1.65,2.5-4.69,5.18-5.72Z"/>
    <path d="M219.27,124.11h26.62c2.6.75,3.3,3.9,5.35,5.22,1.41.91,3.88.94,4.39,3.2,1,4.39-3.96,3.67-5.72,6.03-.75.99-.89,2.61-1.62,3.33-1.27,1.26-3.58,1.01-4.82,2.12-2,1.78-.89,5.26-4.47,5.77-2.05.29-5.63-.44-7.32.28-2.2.94-1.78,5.23-2.86,6.06-1.9.71-4.17.46-5.61-1.05-1.59-1.67-1.46-4.59-4.32-4.93s-6.75,1.1-8.76-1.81c-1.39-2.02-1.42-7.07-.24-9.17,1.67-2.96,5.69-1.77,6.19-6.03.44-3.74-1.81-7.1,3.21-9.01Z"/>
  </g>
  <g class="st0">
    <path d="M124.83,87.29c1.52-.35,2.66.23,4,.26,8.36.17,16.81-.03,25.12,0,7.1.02,14.2-.1,21.3.05,2.74.61,3.54,5.05,5.86,5.76.69.21,2.77.41,3.62.47,2.46.16,7.59-.51,9.58.16s3.15,3.77,4.72,5.02c1.09.87,2.08,1.04,3.15,2.18,2.82,2.99,1.59,2.82,5.62,5.37,3.24,2.06,1.93,5.49,1.9,8.44-.03,2.9,1.21,5.74-.76,8.35-.98,1.3-2.38,1.37-3.63,2.34-1.83,1.42-2.78,5.1-5.19,5.48-1.72.27-3.89-.2-5.64.01-3.45.41-3.76,5.89-7.21,6.29-1.67.2-3.68-.21-5.35-.01-3.45.41-3.76,5.89-7.21,6.29-3.97.47-8.68-1.52-9.29,4.53-.35,3.51.02,7.64,4.24,8.04s13.66.46,17.6,0c3.15-.37,3.68-4.94,6.41-6.15,3.8-.78,9.41.59,12.98-.21,2.81-.63,3.2-8.56,8.06-5.73,3.23,1.88,1.21,5.52.96,8.15-.28,2.91.9,6.88-1.25,9.12-1.44,1.51-3.34,1.17-4.43,3.42-2.03,4.23,3.22,16.39-4.23,16.53-10.97.2-22.27-1.01-33.3-.36-.96.06-2.84.2-3.69.39-2.26.53-3.69,5.21-6.11,5.82-2.2.56-6.77-.1-9.36.06-.85.06-3.18.29-3.83.56-1.95.81-3.19,4.8-5.43,5.56-1.69.57-4.92.01-6.91.62s-3.38,4.89-5.65,5.66c-1.86.63-5.37-.16-7.33.84-2.21,1.12-3.03,5.48-5.71,5.91-1.23.2-5.86.17-6.85-.34-1.85-.95-2.54-3.77-4.27-5.15-1.27-1.01-2.48-1.22-3.63-2.65-2.61-3.28-1.41-2.53-5.15-4.9s-.83-6.83-2.3-9.95c-1.05-2.25-4.14-1.89-5.4-4.02-1.64-2.77.39-5.84-.88-8.54-1.07-2.28-4.4-1.81-5.43-4.93-.93-2.84-.77-9.29,3.14-9.75,1.92-.23,10.53-.3,12.19.07,2.62.59,3.45,5.63,6.36,6.2,7.71-.63,16.95.91,24.48.02,2.58-.3,3.51-3.71,5.51-5.16,1.98-1.44,4.68-1.33,4.35-4.7-.41-4.3-5.92-2.74-8.6-2.69-1.71.03-6.35.27-7.63-.25-1.84-.75-2.79-3.93-4.47-5.26-3-2.38-2.5-1.69-4.89-4.84-2.69-3.55-4.79-1.77-8.47-2.21-3.45-.41-3.76-5.89-7.21-6.29-3.76-.45-7.85,1.46-9.2-3.68.11-3.24-.06-7.07.28-10.25.53-4.97,3.45-4.1,5.75-7.12.49-.64.68-1.45,1.27-2.19,1.42-1.78,3.52-2.13,5.01-4.09,2.39-3.14,1.89-2.46,4.89-4.84,1.77-1.41,2.23-3.85,4.09-5.02,1.63-1.03,4.76-.24,6.74-.48,3.29-.39,3.91-5.59,6.65-6.22Z"/>
    <path d="M243.53,55.89c1.82-.41,3.05.41,3.87,1.97,1.74,3.31-1.41,6.8,1.86,9.76.92.83,2.07.93,3.01,2.02,2.03,2.33,1.88,8.42-.47,10.54-.68.61-1.53.76-2.19,1.26-3.61,2.74-2.46,5.98-2.52,10.04-.04,2.58-.21,5.21-.03,7.85.12,1.7.44,3.45.47,5.18.53,1.73,2.59,1.14,4,1.65,3.68,1.31,3.79,8.83,1.5,11.36-2.05,2.27-4.91-.05-5.34,5.02-.29,3.38-.06,7.84,0,11.33.04,2.49.97,5.17-.18,7.65-1.3,2.81-3.05,1.7-4.85,3-1.57,1.15-1.48,2.98-2.5,4.41s-2.48,1.46-3.78,2.5c-1.37,1.1-1.99,2.94-3.44,4.1s-3.53,1.64-4.02,3.83c-.4,1.8-.28,9.76-.08,11.88.33,3.62,3.49,2.84,5.04,5.01,1.03,1.44.99,3.49,2.67,4.56,1.03.66,1.96.45,2.9.87,3.39,1.49,3.41,10.78-.22,12.17-1.12.43-2.96.12-3.6,1.42-1.39,2.85,1.17,6.64-1.17,9.82-1.29,1.75-1.82,1.05-3.32,1.7-2.91,1.27-1.63,7.11-6.5,6.34-3.24-.51-3.6-5.52-.8-6.73.61-.26,1.29-.08,1.89-.31,1.31-.48,2.28-1.47,2.47-2.87.27-1.98-.08-6.64.58-8.21,1.03-2.46,5.46.7,6.02-2.77.25-1.51-.1-6.12-.37-7.76-.33-1.99-1.12-2.39-2.94-2.71-2.96-.51-8.43-.08-9.39-3.79-.7-2.68.04-7.58-.47-10.54,1.09-4.09-.2-10.58,1.04-14.35.86-2.6,2.51-2.56,4.16-4,1.52-1.32,2.37-4.11,4.11-4.99,3.72-1.89,9.36,1.69,9.86-4.27.49-5.79-.48-12.03-.25-17.84.15-.84.98-2.23,1.65-2.75,1.34-1.03,3.4-.37,4.38-2.22.61-1.16,1.02-8.38.82-9.88-.22-1.65-1.21-1.49-2.6-1.32-3.92.49-3.56,3.86-5.76,5.86-.81.74-1.85.81-2.65,1.75-1.07,1.26-1.92,4.78-3.93,5.18-3.63.72-3.98-3.59-5.63-5.35-.72-.77-1.82-1.02-2.69-1.7-1.76-1.4-2.1-3.56-3.92-4.87-1.26-.91-2.62-.93-3.61-2.36-1.45-2.09-1.44-7.47.31-9.43.82-.91,2.45-1.38,3.47-2.19,1.63-1.3,2.09-3.26,3.59-4.57,2.79-2.43,2.61-1.78,5.05-5,2.13-2.8,5.46-2.16,5.8-6.13.21-2.38-.82-4.3.38-6.53s3.88-1.75,5.08-4.35c1.16-2.52-.57-9.4,3.24-10.26Z"/>
    <path d="M175.08,188.09l24.74-.08c4,.86,4.36,4.49,3.92,8.02-.46,3.79-4.11,3.82-6.11,6.45-2.39,3.15-1.9,2.45-4.89,4.84-1.99,1.58-2.75,5.19-5.48,5.51-1.67.2-3.68-.21-5.35-.01-2.94.35-3.68,4.57-6.25,5.68-1.78.77-5.33,0-7.32.84-2.16.9-3.23,5.34-6.19,5.74-1.82.25-10.23.28-11.93-.03-2.51-.46-3.83-4.79-6.12-5.81-3.95-.67-8.88.43-12.71-.16-4.12-.64-4.74-8.04-2.69-10.5,2.46-2.97,6.37-1.03,9.35-2.27,1.93-.8,3.01-4.48,5.24-5.44,1.78-.77,5.33,0,7.32-.84s3.33-5.06,5.65-5.65c3.43-.87,9.14.65,12.97-.53,2.04-.63,3.45-5.03,5.87-5.75Z"/>
    <path d="M61.08,74.73c3.72-1.12,4.26,3.56,5.89,5.29,1.1,1.17,2.74,1.39,4.08,3.14,2.39,3.14,1.89,2.46,4.89,4.84,1.99,1.58,2.67,5.18,5.48,5.51s6.2-.96,8.19,1.55c1.52,1.92,1.54,7.07.27,9.09s-3.63,1.88-5.15,3.96c-2.3,3.14.72,7.2-2.67,9.89-.79.63-1.8.78-2.53,1.56-1.76,1.86-2.21,6.79-6.34,5.12-3.7-1.5-1.4-6.11-1.65-8.71-.29-3.06-2.37-2.89-4.24-4.24-1.83-1.32-2.16-3.51-3.92-4.87-1.37-1.06-2.9-1.09-3.9-2.69-2.43-3.88,1.39-11.13-.99-14.71-1.62-2.43-6.4-1.64-5.78-5.8.36-2.44,3.38-2.84,4.71-4.09,1.11-1.05,1.96-4.31,3.66-4.82Z"/>
    <path d="M39.76,36.76c2.5-.19,6.35-.58,6.67,2.89.4,4.38-4.25,3.33-5.63,6.01-1.07,2.09,0,8.64-.02,11.28-.03,5.08-.83,10.09-.66,15.39.08,2.35.65,5.19.66,7.51.03,6.87-1.24,16.27-.3,22.9.46,3.28,3.08,2.32,4.92,3.55,2.57,1.72,1.37,6.1-1.65,6.38-4.64.43-3.22-5.06-6.21-6.37-1.02-.45-1.69-.09-2.76-1.01-2.6-2.25-1.27-6.22-1.23-9.1.27-16.62-.39-33.41,0-49.93.06-2.36-.48-5.32.8-7.36,1.25-2,3.25-1.97,5.4-2.13Z"/>
    <path d="M54.5,43.03c5.24-1.35,3.99,4.63,7.07,5.96.6.26,1.26.18,1.81.39,2.06.79,1.91,3.11,2.96,4.57,1.36,1.89,2.95,1.16,4.27,2.33,1.18,1.05,1.15,2.74,2.01,3.95,1.36,1.89,2.95,1.16,4.27,2.33,1.5,1.34,1.14,4.02,3.32,5.16,1.05.55,1.9.19,2.96,1.12,1.47,1.3,1.06,3.59,2.97,4.88,1.25.85,2.37.41,3.47,1.56,2.02,2.11.45,4.97,4.68,5.36,2.13.2,11.25.26,12.88-.33,2.45-.9,2.05-4.8,4.25-5.79.66-.3,7.43-.3,8.15,0,1.48.62,2.21,2.97,1.64,4.46-1.65,4.33-7.14,1.07-10.4,2.78-1.95,1.02-1.64,5.11-4.33,5.72-1.87.42-10.3.28-12.51.08-3.43-.31-2.89-3.79-5.01-5.36-1.35-1-2.95-.68-4.1-1.87-1.31-1.36-.93-3.28-2.65-4.57-1.19-.89-1.68-.56-2.75-1.02-2.23-.96-1.65-4.8-4.47-5.89-.54-.21-1.21-.13-1.81-.39-2.23-.96-1.65-4.8-4.47-5.89-.54-.21-1.21-.13-1.81-.39-2.23-.96-1.65-4.8-4.47-5.89-1.06-.41-1.65,0-2.69-1.08-1.31-1.36-.93-3.29-2.65-4.57-1.27-.95-1.64-.52-2.81-.95-2.75-1.01-2.55-5.94.22-6.65Z"/>
    <path d="M121.09,225.16c2.5-.21,4.78-.66,6.29,1.68,1.67,2.59,0,4.11,4.3,4.5,12.1-.65,25.02,1.41,37.01-.03,4.08-.49,2.64-4,5.24-5.43,1.28-.71,6.13-1,7.67-.82,2.49.29,3.85,3.16,2.49,5.33-1.98,3.16-7.51.52-10.48,2.08-1.93,1.01-1.67,5.01-4.27,5.78h-38.61c-3.67-1.65-.65-7.18-5.9-6.2-3.12.58-3.41,5.59-6.35,5.59-3.95,0-3.99-7.95-2.48-10.35,1.19-1.91,3.04-1.96,5.09-2.13Z"/>
    <path d="M62.03,137.53c1.13-.25,5.85-.2,6.95.14,1.44.45,2.27,1.94,2.72,3.24.14,4.51-.42,9.08.55,13.58.91,2.07,3.2,1.36,4.48,2.74,2.17,2.33,1.01,6.64,1.07,9.6.07,3.41.03,7.27.32,10.67.42,5,3.14,2.8,5.2,4.85,3.14,3.12,1.77,13.17-3.64,11.49-4.22-1.31-1.32-8.24-2.68-10.82-1.19-2.27-5.03-.7-5.96-4.71-.37-5.94.69-12.16.19-18.09-.38-4.47-2.16-2.83-4.43-4.37-1.77-1.2-1.96-3.37-3.12-4.73-.94-1.11-2.13-1.1-3.16-1.87-3.02-2.25-2.75-10.77,1.49-11.72Z"/>
    <path d="M145.58,68.16c2.65-.07,5.58-.91,7.11,1.82,1.55,2.76-.23,4.03,4.41,4.38,6.16.47,12.82-.49,19.03.13,3.31,1.52,2.75,5.88-.82,6.43-5.52.85-13.06-.58-18.8,0-.93-.15-1.84-.98-2.32-1.76-1.26-2.05-.13-4.35-3.36-4.2-4.61.22-4.44,5.04-6.97,5.6l-12.98-.07c-3.58-1.11-5.03-11.44.8-12.11,3.96-.45,9.69-.12,13.91-.22Z"/>
    <path d="M249.19,30.46c5.39-1.39,4.05,4.95,7.07,6.28,1.26.55,1.83,0,3.05,1.34,2.8,3.07-.09,6.96,1.44,9.86,1.19,2.27,5.03.7,5.96,4.71.07,6.13-.29,12.26-.19,18.41.04,2.57,1.48,8.93-2.41,9.81-5.73,1.29-4.11-7.45-4.16-10.47-.04-2.08-.64-4.81-.65-6.88-.02-3.21,1.06-9.08,0-11.94-1.06-2.87-4.49-1-5.88-4.49-1.13-2.84.77-6.35-.7-8.4-.99-1.37-2.69-1.08-3.95-1.7-2.61-1.27-2.23-5.85.41-6.54Z"/>
    <path d="M118.26,244.6c1.89-.16,3.46.99,4.01,2.74v12.6c-.88,3.79-4.05,2.55-5.38,4.04-1.26,1.4-.99,5.31-3.73,5.69-4.86.67-3.38-4.41-6.34-5.94-1.22-.63-2.15-.11-3.26-1.45-1.17-1.4-.83-3.15-2.5-4.4-1.45-1.08-2.69-.46-3.9-1.76-3.07-3.3,2.21-9.02,5.41-4.15.92,1.41,1.14,3.46,2.96,4.26,1.21.54,1.88-.01,2.89,1.51,1.3,1.96.54,4.76,3.82,5,3.65.26,3.36-2.46,3.26-5.17-.13-3.5-2.68-12.52,2.76-12.97Z"/>
    <path d="M218.09,74.41c4.38-1,6.2,4.69,2.72,6.49-.76.4-1.52.28-2.23.59-2.27.99-2.37,4.66-4.31,5.74-.69.38-1.34.25-1.98.54-3.14,1.4-1.67,6.81-6.5,6.02-3.14-.51-2.13-4.96-4.7-5.97-1.89-.24-4.1-.53-5.98-.62-2.6-.13-7.45.66-9.44-.92-2.17-1.73-1.01-4.75,1.33-5.59l13.74-.06c3.2,1.42,1.05,5.79,5.12,6.2s3.14-2.92,4.77-5.11c1.04-1.4,1.75-.84,2.95-1.45,2.4-1.23,1.94-5.27,4.5-5.86Z"/>
    <path d="M205.84,206.61c2.78-.63,4.55,1.94,4.51,4.49-.02,1.55-1.28,5.81-.37,6.94,1.17,1.45,8.23.1,10.2,1.11,3.13,1.61,2.6,6.15-.9,6.56-1.03.12-6.71.13-7.38-.17-2.65-1.2-1.72-6.06-4.54-6.45-1.19-.16-7.46.32-8.31.83-1.8,1.07-1.42,4.92-3.78,5.64-4.7,1.45-6.49-4.48-2.96-6.41.8-.44,1.8-.44,2.63-.82,2.35-1.08,2.17-3.53,3.76-5.03.73-.69,1.69-.9,2.52-1.56,1.64-1.3,2.76-4.7,4.61-5.12Z"/>
    <path d="M86.21,200.02c4.94-1.14,3.72,4.65,6.77,5.97.6.26,1.26.18,1.81.39,2.18.84,1.98,3.46,3.13,5.03,1.47,2.01,3.55.76,4.92,3.25,1.54,2.8,1.49,8.66-1.66,10.37-.63.34-1.34.31-1.91.6-2.97,1.48-1.7,6.55-6.49,6.01-2.98-.33-3.74-4.19-1.56-5.9,1.43-1.12,3.8-.54,4.75-2.48.58-1.18.57-6.28.25-7.64-.65-2.75-3.57-1.87-5.06-3.42-1.34-1.39-.95-3.47-2.81-4.72-1.13-.76-1.63-.43-2.65-.8-2.91-1.07-2.39-6,.52-6.67Z"/>
    <path d="M227.85,193.92c-1.27.33-2.71.27-3.86,1-2.13,1.36-2.33,5.76-5.62,5.33-4.31-.56-3.72-10.25-.47-12.06,1.22-.68,5.55-.68,7.05-.5,2.72.32,4.1,3.89,2.91,6.22Z"/>
    <path d="M48.53,118.37c5.03-1.16,3.72,4.98,6.98,6.07,1.32.44,2.17-.08,3.24,1.47,2.07,3-1.24,6.97-4.6,5.22-2-1.04-1.61-4.9-4.26-5.79-.59-.2-1.24-.08-1.88-.31-2.91-1.07-2.39-6,.52-6.67Z"/>
    <path d="M230.65,55.57c4.56-1.04,5.53,4.82,2.46,6.54-.69.38-1.34.25-1.98.54-2.79,1.24-1.91,5.75-5.26,6.06-4.19.39-5.37-5.21-2.23-6.63.79-.36,1.41-.2,2.08-.43,2.8-.94,2.26-5.46,4.92-6.07Z"/>
    <path d="M256.08,87.29c6.45-1.47,6.28,14.38-.24,12.35-3.46-1.08-3.49-11.5.24-12.35Z"/>
    <path d="M105.37,231.72c5.96-1.34,6.07,15.22-.22,12.34-3.28-1.5-4.46-11.29.22-12.34Z"/>
    <path d="M48.84,62.17c6.08-1.37,6.24,12.29.87,12.52-4.81.2-4.71-11.65-.87-12.52Z"/>
    <path d="M92.5,238.01c2.33-.4,4.25.69,4.18,3.21-.09,2.98-3.68,4.61-5.79,2.33-1.67-1.81-1-5.1,1.61-5.55Z"/>
  </g>
  <path class="st0" d="M180.31,21.69c.27.82,3.8,2.59,4.27,3.95.84,2.45-.53,6.19.3,8.66.61,1.81,3.97,2.44,4.64,3.63,1.24,2.19-.34,6.59.51,9.11.69,2.02,5.61,2.74,5.02,5.85l-.06,196.8c-.07,1.08-6.1,6.85-6.58,7.05-2.12.89-4.99-.4-7.06.9-1.59,1-5.84,5.85-7.65,7.4-3.2,2.73-6.41,5.41-9.58,8.28-.81.73-2.47,1.17-3.03,1.84-1.51,1.78-.01,4.27-1.05,6.1-.32.57-6.98,5.19-8.17,6.31-1.36,1.28-1.62,5-5.49,2.93-.86-.46-1.06-2.1-1.87-2.84-1.61-1.46-6.66-4.75-7.75-6.04-1.35-1.61-.17-3.98-1.22-5.95-.91-1.72-8.61-6.25-9.4-7.8-.9-1.78.27-3.7-1.06-5.45-1.01-1.33-6.21-4.6-7.79-6.01-4.1-3.65-8-7.54-12.13-11.17-1.7-1.49-3.37-.98-3.75-3.76-.91-6.62,4.59-4.69,5.23-8.92l-.42-164.68c-2.14-4.17-9.19,1.35-9.79-4.06.55-1.68,4.02-2.45,4.65-3.59.85-1.54-.11-3.46.73-5.1.67-1.3,3.43-1.84,4.24-3.34,1.51-2.79-.32-7.14.66-9.62.45-1.15,3.25-1.66,3.93-2.98.83-1.63-.08-3.43.76-5.08.76-1.5,4.23-2.53,4.66-3.62.92-2.32-.63-6.82.26-9.33.54-1.53,3.28-1.84,3.92-2.98,1.34-2.39-1.55-8.21,4.79-6.71,2.75,1.2,1.2,7.7.85,10.08l4.9,4.07.29,8.67c.64,1.9,4.17,2.14,4.85,4.73s-.56,6.59.28,8.68c.39.98,4.3,2.52,4.3,3.29v166.25c0,1.85,5.16,1.85,5.16,0V12.13c0-1.3,5.16-1.3,5.16,0v52.87c0,1.11,3.75,1.55,4.79-.32.98-1.77-.2-3.91.74-5.73.69-1.33,3.47-1.83,3.92-2.98.92-2.33-.63-6.82.26-9.33.55-1.54,3.9-2.16,4.65-3.63.83-1.63-.09-3.46.75-5.09.67-1.32,3.47-1.83,3.93-2.98.91-2.31-.61-6.43.44-9.17.66-1.71,4.84-3.37,4.84-4.1v-9.55c0-1.3,5.16-1.3,5.16,0,0,2.2-.52,7.98,0,9.55ZM156.46,74.94c-.45.14-4.61,5.71-5.6,6.63,1.42,12.65-1.94,28.54-.06,40.79.26,1.69,5.75,7.5,7.76,7.34s3.29-4.91,6.34-5.41l.67-1.33c-1.26-11.28,1.73-25.41.05-36.33-.52-3.4-4.5-3.69-5.08-5.17-.67-1.7.49-4.18-.44-5.99-.63-.77-2.68-.82-3.64-.53ZM152.02,134.17c-1.08.31-1.23,1.29-1.21,2.15l.19,34.29,2.34,1.69c2.09-.71,2.36-4.45,4.5-4.46,2.95-.02,3.16,7.48,7.37,3.22l.22-35.22c-3.89-5.23-4.79,2.76-7.6,2.57-2.8-.99-2.17-5.29-5.81-4.24ZM151.79,181.43c-.92.97-.87,2.13-.98,3.3-1.42,14.23,1.1,30.19.04,44.6,1.82,2.67,5.9,5.09,8.41,7.38,1.73,1.57,1.44,4.86,5.99,2.55l.3-55.76c-.27-1.94-2.68-2.38-3.99-3.56-1.67-1.51-1.15-4.44-5.61-2.85-.39,2.64-3.09,3.2-4.17,4.35Z"/>
  <path class="st0" d="M208.77,242.94c-1.88-.11-2.81-1.53-4.28-2.41,2.18-7.24-2.2-8.23-4.8-13.11-3.07-5.76-.43-9.13-9.99-13.63-9.39-4.42-15.94,4.21-23.39,6.82-15.25,5.33-30.13,2.14-43.95,1.95-2.64-.04-17.92,2.51-19.38,3.67-7.16,5.63-.88,13.1-1.33,19.5-.12,1.66-2.36,16.36-2.65,17.19-5.71,16.04-19.67,19.39-34.95,17.65-.9-.54-9.85-16.64-10.39-18.23-5.44-15.74-3.78-27.75-11.5-47.04-3.99-9.97,2.28-17.02,1.3-20.04-.87-2.7-5.97-4.58-6.01-8.22-.02-2.08,2.69-5.2,3.15-8.12s-1.62-6.08.29-9.37c3.02-5.19,8.2-2.92,11.41-5.28,13.48-9.91,3.57-21.58,3.86-33.56.09-3.91,2.85-7.13,3.06-11.16.55-10.85-.04-24.97,5.06-35.88,2.5-5.35,18.16-26.55,22.59-31.15,4.9-5.1,9.03-2.99,12.74-6.43,11.46-10.61,7.65-16.67,25.04-25.47,2.64-1.34,4.77-4.8,6.79-5.43,3.03-.94,7.08,2.91,11.15,3.03,15.83.44,34.45-4.61,52.12,1.55,5.59,1.95,9.73,8.17,15.3,10.12,7.68,2.68,12.19-2.25,22.76,9.29,3.18,3.48,1.82,7.52,3.74,10.09,3.55,4.72,10.73,6.77,14.28,11.51,14.28,19.05,12.67,51.39,7.75,73.57-3.27,14.72-3.22,18.54-4.28,32.71-1.27,17.04-8.71,20.94-12.76,32.5-1.31,3.73-.91,19.56-2.23,23.24-1.24,3.47-13.28,20.17-15.95,21.01-2.69.84-6.39-2.86-9.72-3.15-1.9-.17-4.03,2.32-4.82,2.28ZM200.23,55.54c-5.5-1.96-20.11,4.48-25.43,3.29-8.08-1.81-17.19-8.67-28.91-9.29-8.97-.47-11.08,5.17-17.16,7.44-4.13,1.54-11.25.09-14.82,2.83-3.54,2.72-24.43,31.27-25.92,35.45-.85,2.4.74,5.36.25,7.59-2.3,10.36-8.38,33.96-1.57,42.96,10.67,14.1,13.05,3.99,20.92,1.21,14.52-5.13,40.71-3.2,55.18-8.26,4.99-1.74,7.32-5.28,11.18-6.62,10.68-3.68,54.28-5.49,59.64-9.72,4.71-3.71,1.81-29.76-.91-34.41-2.51-4.3-7.26-5.65-9.93-9.14-1.95-2.55-.55-6.64-3.74-10.1-2.74-2.97-15.16-11.94-18.79-13.24ZM189.6,182.4c-5.44-20.33-5.25-28.71-29.37-20.66-3.75,1.25-5.96,5.01-9.7,6.3-10.37,3.58-39.89,0-40.3,16.85-.12,4.68,14.04,13.41,19.14,13.97,1.93.21,31.64-4.48,34.26-5.39,6.86-2.38,12.14-10.92,22.59-6.44l3.39-4.63ZM81.1,222.12c.05-.79-2.32-2.97-2.11-4.83,1.38-11.95,10.82-23.26-1.78-30.47s-9.8,4.57-10.82,10.98c-.5,3.18-3.8,6.64-2.9,9.61.29.94,9.35,16.06,10.15,16.76,1.35,1.17,3.03,2.01,4.43,3.09,1.1-1.66,2.9-3.02,3.03-5.13Z"/>
  <path class="st0" d="M135.36,79.28c13.63,5.11,4.93,32.9-12.43,28.78-12.81-3.04-19.73-21.05-7.16-26.44,1.72-.74,18.15-2.87,19.59-2.34Z"/>
  <path class="st0" d="M195.44,83.76c18.59,6.59,8.24,19.42-3.35,27.55-4.53-1.81-17.77-9.86-17.65-14.23.22-8.19,13.37-16.03,21.01-13.32Z"/>
  <path class="st0" d="M200.42,36.04l4.46,3.26c2.57,8.7,13.45,25.98,10.04,35.52-1.38,3.87-13.93,21.17-17.18,24.19-4.6,4.27-18.1,3.45-17.63,16.64,6.1,8.51,13.44,10.6,22.84,7.01,5.95-2.28,4.04-8.57,13.3-3.54,15.69,8.53,11.51,8.54,9.58,20.23-2.2,13.32-17.8,37.72-28.33,47.49-3.74,3.46-7.91,1.34-12.86,6.49-14.47,15.05-27.34,44.02-41.92,57.48-3.49,3.22-7.6,1.84-10.19,3.78-4.75,3.57-6.84,10.75-11.63,14.42-7.15,5.49-22,1.17-24.53-7.88,1.01-4.66,5.42-7.54,6.99-11.87,1.31-3.62.93-19.82,2.23-23.45,1.5-4.18,8.12-9.3,6.74-13.37-10.79-15.22-27.12-11.8-42.77-16.28-2.39-2.13-5-17.48-4.89-20.97.48-16.43,9.04-21.81,12.89-32.81,1.08-3.07-1.52-6.63.5-10.86,2.3-4.8,7.59-8.53,9.52-13.8,2.77-7.57,1.91-30.01,4.66-37.69,3.38-9.44,16.54-20.04,20.94-29.44,2.76-5.9-3.33-11.5,5.2-16.19,1.2-.66,24.75-4.41,27.09-4.34,5.92.17,17.82,4.81,23.94,5.38,4.74.44,9.53-2.24,13.56-1.97,5.55.37,10.77,4.53,17.45,2.57ZM155.69,75.34c-1.62-.61-19.72,1.92-21.23,2.81-12.16,7.19-6.22,13.85-8.35,19.72-1.37,3.79-5.05,6.44-6.41,10.24s-.92,19.69-2.24,23.45c-3.53,10.06-7.41,7.93-9.92,23.11-.87,5.29-5.59,7.31-.92,12.49,10.69,11.85,19.19,1.36,26.86,4.13,6.13,2.21,10.09,8.82,17.03,10.52,10.87,2.65,14.21-7.37,19.76-11.63,3.45-2.65,12.18-.23,12.73-8.75-6.86-15.67-16.75-7.47-26.13-8.15-3.58-.26-6.32-2.2-9.69-2.92-5.19-1.12-15.19,1.04-18.41-8.23s53.15-56.95,26.92-66.78Z"/>
  <g class="st0">
    <path d="M87.91,51.51c2.94.15,7.82-1.42,7.39,3.15-.26,2.73-2.51,2.17-2.96,3.54-.35,1.07.15,2.44-.27,3.39-.49,1.09-2.56.73-2.67,2.42-.12,1.93,2.17,1.54,2.67,2.66s-.24,2.66.46,3.77c.83,1.31,2.98.37,4.19.88.81.34,1.53,2.34,2.46,2.61.97.28,2.2-.21,3.17.21l5.28,5.43,5.8.12c.92.27,1.65,2.27,2.46,2.61,1.05.44,2.32-.15,3.37.29.77.33,1.49,2.2,2.27,2.52.58.24,2.57.26,3.17.09.67-.2,1.56-1.76,2.16-2.35.5-.49,1.26-.57,1.67-1.15.77-1.08.77-3.32-.12-4.32-.36-.41-1.09-.53-1.55-.98-1.15-1.12-3.21-3.83-4.35-4.67-.89-.65-3.1-.94-1.81-2.92.82-1.26,1.96-.47,2.93-.45,1.07.02,2.7-.17,3.65,0,1.22.23,1.79,2.28,2.69,2.66s2,.02,2.94.15l5.06,5.08c.45.59,1.44.69,1.82,1.28.85,1.32-.12,4.92.43,6.61.46,1.4,3.28.93,2.96,4.31-.26,2.79-2.66,2.14-3.02,3.76-.2.88-.18,5.5.15,6.21.45.75,1.29.85,1.92,1.46,1.89,1.85,3.75,3.77,5.63,5.63,1.73,1.7,1.28,2.72,4.51,2.28,1.36-.19,1.54-1.33,2.37-2.14,3.35-3.28,6.81-6.56,10.17-9.83.5-.49.96-1.54,1.52-1.86,1.16-.67,2.53.13,3.69-.53.56-.32,1.02-1.37,1.52-1.86,1.95-1.9,3.85-3.89,5.77-5.77.67-.65,1.71-.78,2-1.66.04-2.55.37-5.55.14-8.06-.2-2.14-.88-1.46-2-2.51-.58-.55-1.41-2.02-1.97-2.26-.98-.41-2.2.08-3.17-.21s-1.65-2.27-2.46-2.61c-.88-.37-2-.02-2.93-.16-2.39-.36-2.63-5.29.26-5.62,4.27-.5,9.38.43,13.75-.05,1.11-1.29,2.43-2.31,3.59-3.45.66-.64,1.11-1.93,2.11-2.12.88-.17,2.15.24,2.95-.15.88-.43,1.31-3.55,3.25-2.41.79.46.98,1.57,1.4,1.98.61.59,1.82.31,2.06,1.62.4,2.2-2.32,1.74-2.71,3.09-.25.86-.2,6.97-.06,8.11.21,1.78,1.04,1.34,1.99,2.24.58.55,1.41,2.03,1.97,2.26,2.06.86,8.81-.34,11.39.14l3.11-2.8c5.14.38,11.02-.52,16.07-.02,1.99.2,1.89,1.85,3.42,2.78l5.99.21c1.72,1.97,2.18,3.19,5.21,2.68l5.5,5.48,3.37.29,4.78,5.07c2.7,1.1,1.67,2.35,2,4.48.22,1.45,1.1,1.16,1.81,1.85s1.14,1.46,1.82,2.12c.54.53,1.44.61,1.77,1.32.82,1.74-.73,6.48,1.12,7.33.66.3,5.47.36,6.21.15.69-.2,1.54-1.76,2.16-2.35.55-.52,1.45-.62,1.77-1.32s.34-5.33.15-6.21c-.31-1.37-1.69-1.15-2.32-1.9-.68-.8-.68-6.51,0-7.3s3.38-.8,4.23-.31l4.48,4.82c2.81,1.24,1.87,2.74,2.33,5.27l2.4,1.82c.2.37.18.78.22,1.19.29,3.16.29,9.54,0,12.7-.2,2.16-.97,1.51-2.14,2.65-3.82,3.73-7.57,7.66-11.41,11.41-.66.64-1.11,1.93-2.11,2.12-.92.17-2.03-.23-2.94.15l-6.22,6.18c-.6,1.66-3.12,2.2-3.35,3.69-.16,1,.22,2.19-.22,3.15-.4.85-1.46.83-2.03,1.35-1.19,1.09-.08,3.21-.89,4.47-.34.53-1.18.66-1.67,1.14-1.43,1.39-2.92,3.28-4.34,4.67-.63.62-1.46.71-1.92,1.46-.33.71-.34,5.33-.15,6.21.36,1.6,2.44,1.02,2.74,2.89.4,2.56.28,10.49.03,13.23-.04.48-.03.95-.32,1.37-3.39,2.63-6.25,5.94-9.27,9.03-1.05.44-2.32-.15-3.37.29-.81.34-1.53,2.34-2.46,2.61-2.85.83-5.09-.52-4.46-3.62.37-1.82,1.11-1.4,1.99-2.24.71-.68,1.14-1.46,1.82-2.12.54-.53,1.44-.61,1.77-1.32.23-4,1.69-8.89-4.29-7.39l-11.85,11.81c-4.71,4.69-9.32,9.43-14.08,14.08-.5.49-.96,1.54-1.52,1.86-1.16.67-2.53-.13-3.69.53-.55.32-1.12,1.47-1.66,2-.69.67-1.66.75-2,1.66-.25.75-.25,5.19-.06,6.01.63,2.74,6.53.24,7.96,1.9.62.72.64,6.06.22,6.96-.31.68-.94.84-1.62.92-2.6.31-10.71.35-13.26,0-1.66-.22-2.01-2.45-3.14-2.77-.25-.07-2.48-.34-2.74-.33-1.46.08-2.1,1.99-.99,2.94.38.32.96.34,1.38.59,1.43.89.67,2.25.89,3.62.22,1.43,1.16,1.22,1.96,1.98.58.55,1.41,2.02,1.97,2.26,1.75.74,4.24-1.01,4.72,2.33s-2.69,3.68-4.17,6.12l-6.18.29-8.09,8.24c-1.8-.41-6.95,1.46-7.12-1.23-.12-1.92,2.17-1.54,2.67-2.66s-.24-2.67.46-3.77c.53-.83,2.01-.69,2.38-1.84.32-.96.3-6.07-.31-6.77s-2.5-.71-3.39-.59c-1.36.19-1.54,1.33-2.37,2.14-5.04,4.93-10.74,10.02-15.51,15.19-.6.65-1.1,2.54-2.37,2.41l-19.72-19.74c-1.16.13-1.68,2.33-2.41,2.69-1.19.58-3.78-.62-4.38,1.25-.27.82-.25,5.71.08,6.43.37.73,1.22.79,1.77,1.32s1,1.46,1.53,1.85c.78.57,2.03.39,2.12,1.84.11,1.73-1.44,1.45-2.1,2.1-.51.49-.87,2.15-1.99,2.26-1.28.12-1.76-1.75-2.37-2.41-.73-.79-1.99-2.02-2.81-2.82-.49-.48-1.33-.61-1.67-1.14-.71-1.09.04-2.81-.52-3.99-.41-.88-1.62-.85-2.18-1.48-.9-1.02-.89-3.23-.12-4.32.6-.86,2.01-.72,2.38-1.85.31-.95,0-2,.14-2.96.31-1.98,3.4-1.26,3.07-4.77-.27-2.83-2.49-2.67-4.77-2.28l-5.28,5.43c-1.95-.22-7.54.61-8.97-.21-.56-.32-1.02-1.37-1.52-1.86-1.95-1.9-3.85-3.89-5.77-5.77-.86-.84-1.88-.7-2.11-2.12-.14-.92-.37-5.29-.08-5.97,1.35-3.2,3.54,1.53,4.01,1.76.91.44,2.35-.15,3.38.29.81.34,1.53,2.34,2.46,2.61.8.23,5.75.16,6.39-.25,1.22-.78,1.21-3.47.42-4.59-.4-.56-1.24-.72-1.81-1.29-4.75-4.69-9.44-9.55-14.22-14.22-.66-.64-1.11-1.93-2.11-2.12-.92-.17-2.03.23-2.94-.15l-5.5-5.48c-.94-.14-2.04.23-2.94-.15-.81-.34-1.53-2.34-2.46-2.61-.68-.2-5.33-.16-6.01.07-1.61.52-1.71,3.77-.68,4.94.37.42,1.16.59,1.7,1.12,1.17,1.16,2.87,3.42,4.05,4.4.9.74,2.57.59,2.23,2.45s-2.15,1.07-3.2,1.06-2.7.17-3.65,0c-1.24-.24-1.85-2.45-2.88-2.75-1.6-.47-5.36.53-6.55-.49s0-3.45-1-4.63c-1.23-1.43-4.75.62-5.18-2.14-.33-2.11-.33-11.66,0-13.77.29-1.85,2.15-1.13,2.81-3.1,1.23-3.68-1.91-3.7-3.38-6.23l-11.85-11.81-5.99-.21c-1.14-.52-1.68-2.52-2.88-2.75-1.7-.32-4,.35-5.76-.15l-9.03-8.99c-.34-1.32-2.82-2.31-3.16-3.04-.8-1.71.55-5.88-.78-7.1-.81-.74-1.97-.39-2.22-2-.24-1.5-.2-6.31-.02-7.87.14-1.24.58-1.68,1.83-1.83,3.31-.4,2.72.53,4.5,2.27.59.58,1.6.79,1.92,1.46.55,1.18-.19,2.9.52,3.99.34.53,1.18.66,1.67,1.14.56.55,1.43,2.03,1.97,2.26.89.38,6.87.63,7.19-.96l.18-22.91c.32-1.45,2.06-1.18,2.55-2.24.55-1.19-.19-2.88.52-3.99.49-.77,1.87-.72,2.3-1.64.55-1.19-.19-2.9.52-3.99.43-.67,2.7-1.52,3.06-2.86l11.85-11.81c1.05-.44,2.32.15,3.37-.29.77-.33,1.49-2.2,2.27-2.52,1.05-.44,2.32.15,3.37-.29.81-.34,1.53-2.34,2.46-2.61l5.8-.12c.92-.27,1.65-2.27,2.46-2.61,1.19-.5,2.88.32,3.93-.58,1.16-.99.27-5.05.63-6.69.28-1.25,1.3-1.09,2.01-1.65,1.4-1.1.3-3.01.95-4.4.31-.67,1.33-.89,1.92-1.46.5-.48.78-1.11,1.24-1.58,1.14-1.13,2.5-2.16,3.59-3.45ZM67.67,82.22c-.42.01-2.18.23-2.48.36-.82.36-1.53,2.34-2.46,2.61-.84.24-1.9-.09-2.75.06-.99.19-1.45,1.48-2.11,2.12-3.83,3.75-7.59,7.68-11.41,11.41-.85.83-1.89.7-2.11,2.12-.16,1.01.22,2.19-.22,3.15-.62,1.33-2.38.37-2.62,3.01s-.37,10.68.03,13.23c.3,1.88,2.38,1.29,2.74,2.89.61,2.75-.67,9.82.27,11.84l2.4,1.82c.6,1.3-.35,3.25.78,4.29.57.52,1.64.5,2.03,1.35.45.96.07,2.15.22,3.15.22,1.41,1.25,1.28,2.11,2.12,4.27,4.17,8.28,8.63,12.51,12.84l11.85,11.81,5.99.21c.92.27,1.65,2.27,2.46,2.61,1.05.44,2.32-.15,3.37.29.77.33,1.49,2.2,2.27,2.52,1.05.44,2.32-.15,3.37.29.76.32,1.44,2.07,2.27,2.52l5.99.21,2.65,2.7c2.23-.28,6.77,1.28,7.13-1.77.33-2.76.33-10.48,0-13.25-.27-2.28-2.39-1.48-2.76-3.15-.7-3.13.58-8.3-.12-11.43-.32-1.45-2.06-1.18-2.55-2.24-.55-1.18.19-2.9-.52-3.99-.34-.53-1.18-.66-1.67-1.14-.69-.67-1.09-1.46-1.82-2.12s-1.59-.41-1.81-1.85l-.02-38.86c.26-2.19,2.05-1.52,2.61-2.74s-.19-2.9.52-3.99c.34-.53,1.18-.66,1.67-1.14.56-.55,1.43-2.03,1.97-2.26.58-.24,2.57-.26,3.17-.09.92.27,1.65,2.27,2.46,2.61.63.26,2.49.24,3.17.09,1.76-.41,1.91-3.32,1.11-4.65-.47-.79-1.27-.84-1.91-1.47s-1.04-1.57-1.82-2.12l-5.99-.21c-.92-.27-1.65-2.27-2.46-2.61-1.05-.44-2.32.15-3.37-.29-.9-.38-1.47-2.43-2.69-2.66-.61-.12-2.38-.1-2.94.14-.81.34-1.53,2.34-2.46,2.61s-2.33-.22-3.18.2c-.66.32-1.17,2.57-2.41,2.69-1.43.1-1.44-1.99-2.22-2.57-1.54-1.15-2.31,1.55-3.11,2.28-.4.37-1.07.45-1.41.85-.9,1.05-.06,2.91-.64,4.15-.49,1.06-2.23.79-2.55,2.24-.72,3.21.51,8.23-.18,11.65-.29.88-1.33,1.01-2,1.66-.57.56-.92,1.27-1.53,1.85-.79.77-1.73.53-1.96,1.98-.15.92-.15,4.99.11,5.77.44,1.34,2.39.85,2.67,2.68.51,3.23-.6,8.14.08,11.19.37,1.67,2.49.87,2.76,3.15.14,1.18.14,7.76-.21,8.53-.51,1.11-2.85,1.1-3.87.91s-1.55-1.58-2.25-2.26c-.59-.58-1.6-.79-1.92-1.46-.61-1.29.35-3.25-.78-4.29-.57-.52-1.64-.5-2.03-1.35-.55-1.18.19-2.9-.52-3.99-.35-.55-1.09-.6-1.52-1.01-.71-.68-1.14-1.46-1.82-2.12-.49-.48-1.33-.61-1.67-1.14-.85-1.32.12-4.92-.43-6.61-.43-1.3-2.61-1.02-2.67-2.68l.04-16.82c.29-1.31,1.48-1.12,2.18-1.76,1.09-1,.39-4.61.57-6.19.21-1.77,1.13-1.4,2.13-2.38,1.18-1.15,2.87-3.42,4.05-4.4.87-.71,2.37-.54,2.27-2.21-.07-1.18-.99-1.53-2.02-1.5ZM206.21,82.49c-.92.27-1.65,2.27-2.46,2.61-.98.41-2.2-.08-3.17.21s-1.65,2.27-2.46,2.61c-.92.39-2.02-.02-2.94.15-.99.19-1.45,1.48-2.11,2.12-3.83,3.75-7.59,7.68-11.41,11.41-1,.97-1.92.6-2.13,2.38-.22,1.89.51,7.76-.43,8.87-.64.75-2.02.53-2.32,1.9-.2.88-.2,4.92,0,5.79.33,1.49,2.21,1.16,2.63,2.44.57,1.74-.56,5.75.7,6.9.43.39,1.24.48,1.66.87,1.33,1.22,0,5.37.78,7.1.71,1.55,3.06.54,4.29,1.06.54.23,1.4,1.71,1.97,2.26.46.45,1.19.58,1.55.98,1.74,1.99-1.46,7.26,1.48,7.84,1.46.28,1.85-1.54,2.61-2.35.38-.41.98-.66,1.42-1.11.64-.65,1.13-1.93,2.11-2.12,3.64-.69,3.27,1.22,5.63,2.8h13.79s2.88-2.75,2.88-2.75l5.8-.12c.92-.27,1.65-2.27,2.46-2.61,1.05-.44,2.32.15,3.37-.29l11.85-11.81c.47-.46.74-1.09,1.24-1.58.85-.83,1.89-.7,2.11-2.12.16-1-.22-2.19.22-3.15.49-1.06,2.23-.79,2.55-2.24v-17.06c-.33-1.53-2.35-1.11-2.7-2.66-.72-3.21.51-8.23-.18-11.64-.3-.91-1.23-.92-1.85-1.53s-1.12-2.32-2.12-2.41c-1.42-.13-1.89,2.48-2.85,2.78-1.54-.13-4.95.48-6.16-.21-.72-.41-1.36-2.09-2.1-2.4-1.05-.44-2.32.15-3.37-.29-.9-.38-1.5-2.47-2.69-2.66l-19.65.05ZM118.9,105.03c-.67.2-1.56,1.76-2.16,2.35-.54.53-1.44.61-1.77,1.32-.8,1.71.55,5.88-.78,7.1-.7.64-1.89.45-2.18,1.76v14.24c.32,1.45,2.06,1.18,2.55,2.24.79,1.69-.89,4.38,2.03,4.73,1.62.19,3.64-.1,5.3-.06,1.18-.36,1.77-4.69,4.14-1.78,1.56,1.93,4.31,5.23,6.18,6.78.81.67,2.18.51,2.27,1.97.12,2.04-2.5,1.45-2.8,3.08-.22,1.17-.18,6.91.01,8.14.31,1.94,2.54,1.24,2.78,3.13l.14,14.22c.42,1.56,4.31,1.44,5.08.54,1.31-1.53-.51-8.87,1.01-10.26.81-.74,1.97-.39,2.22-2,.63-3.98-.47-9.4.01-13.51.21-1.78,1.04-1.34,1.99-2.24s1.3-2.24,2.65-2.42c.62-.08,2.13-.07,2.69.16.81.34,1.53,2.34,2.46,2.61.67.19,2.75.15,3.39-.15,1.39-.63.75-2.67.93-3.86.38-2.46,3.04-1.11,4.48-1.71.81-.34,1.53-2.34,2.46-2.61.97-.28,2.2.21,3.17-.21.54-.23,1.41-1.71,1.97-2.26s1.44-.61,1.77-1.32l.15-23.11c-.42-1.8-3.01-1.42-4.44-1.18l-5.08,5.34-2.94.15-8.32,8.3c-.58.24-5.03.28-5.76.14-1.22-.23-1.79-2.28-2.69-2.66-.98-.41-2.2.08-3.17-.21s-1.65-2.27-2.46-2.61c-1.2-.51-3.12.39-4.07-.72s-.2-4.75-.45-6.31c-.39-2.47-3.03-1.1-4.48-1.71l-5.08-5.34c-.58-.24-2.57-.26-3.17-.09ZM231.03,149.82c-.43.01-2.18.23-2.48.36-.82.36-1.53,2.34-2.46,2.61-.97.28-2.2-.21-3.17.21-.81.34-1.53,2.34-2.46,2.61-.97.28-2.2-.21-3.17.21l-5.08,5.34-2.94.15c-2.46,1.93-4.39,4.68-6.98,6.54-.8,1.7.78,6.94-1.26,7.5-1.47.4-1.95-1.66-2.6-2.36-.74-.79-1.73-.48-1.96-1.98-.13-.82-.16-4.87.04-5.56.31-1.06,1.77-.99,2.33-1.61.83-.93.34-2.55-.9-2.77-.32-.05-2.89.26-3.17.38-.54.24-1.4,1.71-1.97,2.26s-1.44.61-1.77,1.32l-.41,3.81c-.43.92-1.81.87-2.3,1.64-.71,1.11.04,2.8-.52,3.99-.4.85-1.46.83-2.03,1.35-1.55,1.42.54,6.88-1.49,7.81-.66.3-5.47.37-6.21.15s-1.44-1.64-2.02-2.21c-.67-.65-1.71-.78-2-1.66-.59-1.99.61-8.52-.7-9.72-.81-.74-1.97-.39-2.22-2-.22-1.38-.22-6.75,0-8.13s1.17-1.21,1.96-1.98c.54-.52.93-1.35,1.38-1.72.86-.71,2.37-.54,2.27-2.21-.09-1.49-1.39-1.24-2.09-1.86-.59-.52-.96-2.16-2-2.25-1.18-.11-1.72,1.69-2.38,2.41-1.63,1.75-4.01,4.15-5.77,5.78-.4.37-1.07.46-1.4.85-.94,1.09.03,3.14-.74,4.33-.34.52-1.17.67-1.67,1.14-.58.55-1.41,2.03-1.97,2.26-.58.24-2.57.26-3.17.09-1.03-.3-1.64-2.52-2.88-2.75-2.27-.43-4.29.05-4.37,2.68-.08,2.43,1.15,2.26,2.28,3.36.57.55,1,1.46,1.53,1.85.73.54,1.85.37,2.08,1.61.33,1.83-1.19,1.67-2.08,2.32-.53.39-.96,1.3-1.53,1.85-.5.48-1.33.61-1.67,1.14-.74,1.15.13,3.02-.62,4.17-.34.53-1.18.66-1.67,1.14-.69.67-1.09,1.46-1.82,2.12-.4.37-1.07.46-1.4.85-.94,1.09.03,3.14-.74,4.33-.36.55-1.09.6-1.53,1-.64.59-1.13,2.45-2.26,2.56-1.27.12-1.77-1.75-2.37-2.41-.73-.79-2-2.03-2.81-2.82-.49-.48-1.33-.61-1.67-1.14-.71-1.09.04-2.81-.52-3.99-.43-.92-1.81-.87-2.3-1.64-.71-1.11.04-2.8-.52-3.99-.47-1-2.14-.86-2.49-2.02-.66-6.24.46-13.16-.11-19.32-.06-.7-.08-1.37-.75-1.79-.75-.47-5.97-.49-6.8-.1-.68.31-.84.94-.92,1.62-.29,2.49-.35,11.14.02,13.51.26,1.61,1.41,1.26,2.22,2,1.27,1.16.18,7.43.64,9.5.36,1.63,3.15,1.05,3.05,4.28-.09,2.9-2.34,2.39-2.9,3.6l-.35,3.59c-.46.77-1.4.8-1.99,1.39-.54.54-.71,1.57-1.38,2-.61.4-1.45.25-1.97.84-1.44,1.61.99,4.04,2.52,1.96.39-.53.39-1.5.99-1.82.93-.49,2.57-.22,3.46-.48s1.47-3.2,3.14-2.77c2.73.39-.2,6.4,1.58,8.02.57.52,1.64.5,2.03,1.35.55,1.19-.19,2.88.52,3.99.49.77,1.87.72,2.3,1.64.55,1.19-.19,2.88.52,3.99.49.77,1.87.72,2.3,1.64.55,1.19-.19,2.9.52,3.99.33.51,1.27.74,1.82,1.28,1.93,1.88,3.82,3.87,5.77,5.77.49.48.97,1.55,1.52,1.86.85.48,3.7.81,4.35-.19,1.5-2.3-1.9-2.47-2.36-3.5-.58-1.29.52-3.08-.89-4.18-.63-.5-1.62-.41-1.95-1.43-.27-.81-.25-5.71.08-6.43.45-.75,1.29-.85,1.92-1.46,1.43-1.39,2.91-3.28,4.34-4.67.46-.45,1.21-.58,1.55-.98.9-1.04.06-2.92.64-4.15.31-.67,1.33-.88,1.92-1.46.54-.53,1.11-1.68,1.66-2,.74-.42,5.76-.43,6.57-.06,1.42.66,1.46,3.73.48,4.85-.74.84-2.1.46-2.37,2.14.52,5.05-.76,11.74,0,16.58.3,1.9,3.34,1.98,4.7,1.36,1.64-.75.4-3.43,1.22-4.69.35-.55,1.09-.6,1.52-1.01.71-.68,1.14-1.46,1.82-2.12.54-.53,1.44-.61,1.77-1.32.45-.96.07-2.15.22-3.16.22-1.41,1.25-1.28,2.11-2.12,6.68-6.52,13.18-13.34,19.86-19.86.66-.64,1.11-1.93,2.11-2.12.92-.17,2.03.23,2.94-.15.81-.34,1.53-2.34,2.46-2.61l5.8-.12c.95-.4,1.3-1.68,2.02-2.2.78-.57,2.03-.4,2.12-1.84.1-1.65-1.29-1.48-2.12-2.08-.54-.4-.76-1.16-1.24-1.58-.93-.8-2.76-.89-1.84-2.93.64-1.42,2.22-.57,3.36-.56.85,0,2.06.1,2.84,0,1.36-.18,1.55-1.34,2.37-2.14,5.27-5.15,10.38-10.4,15.8-15.46.44-.41.67-1.09,1.09-1.44.82-.68,2.18-.5,2.27-1.97.08-1.28-.87-1.77-2.02-1.74Z"/>
    <path d="M206.21,96.58c.6-.17,2.59-.16,3.17.09s1.39,1.71,1.97,2.26c.47.44,1.21.59,1.55.98.9,1.05.06,2.92.64,4.15.34.72,1.13.73,1.63,1.19.86.78,1.49,3.37,3.11,2.28.69-.46,1.23-2.13,1.81-2.41.91-.44,2.35.15,3.38-.29.9-.38,1.47-2.43,2.69-2.66,3.21-.61,3.02.55,4.77,2.26.52.51,1.17.63,1.55.99,1.25,1.15.15,5.03.64,6.69.37,1.28,2.66.89,2.75,2.62s-1.39,1.49-2.27,2.21c-1.18.98-2.88,3.25-4.05,4.4-.85.83-1.89.7-2.11,2.12-.16,1.05.27,2.41-.33,3.34-.34.53-1.18.66-1.67,1.14-.56.55-.88,1.21-1.38,1.71-1.14,1.13-2.5,2.16-3.59,3.45l-11.62-.09-9.03-8.99c-.6-1.66-3.12-2.2-3.35-3.69-.16-1,.22-2.19-.22-3.15s-2.1-.84-2.49-2.02c-.32-.98-.26-6.75-.14-8.06.04-.48.03-.95.32-1.37,2.63-1.67,4.43-4.52,6.88-6.36.94-.14,2.04.23,2.94-.15.81-.34,1.53-2.34,2.46-2.61Z"/>
  </g>
  <g class="st0">
    <ellipse cx="210.45" cy="115.72" rx="17.69" ry="18.24"/>
    <path d="M272.14,115.72c0-34.83-27.67-63.16-61.68-63.16-25.82,0-48.52,16.17-57.62,40.61L60.36,39l-32.5,55.48,26.59,15.58h-8.67v115.21h44.39v35.74h12.97c13.6,0,26.3-4.99,35.75-14.04,6.28-6.02,10.88-13.48,13.4-21.7h51.67v35.74h12.97c13.6,0,26.3-4.99,35.75-14.04,6.87-6.58,11.73-14.89,14.05-24.04l.64-3.17c.4-2,.66-4.05.76-6.09l.16-3.1v-49.64s-14.82,0-14.82,0c11.8-11.82,18.66-28.17,18.66-45.2ZM210.45,66.3c26.48,0,47.94,22.12,47.94,49.41s-21.46,49.41-47.94,49.41-47.94-22.12-47.94-49.41,21.46-49.41,47.94-49.41ZM46.66,89.56l18.6-31.76,85.91,50.27v52.53H59.52v-36.8h45.58l-58.44-34.24ZM254.56,174.66v36.86h-.03c-.59,19.84-16.85,35.74-36.83,35.74v-35.74h-76.96c-.59,19.84-16.85,35.74-36.83,35.74v-35.74h-44.39v-36.86h195.04Z"/>
  </g>
</svg>