<?xml version="1.0" encoding="UTF-8"?>
<svg id="Layer_1" xmlns="http://www.w3.org/2000/svg" version="1.1" viewBox="0 0 300 300">
  <!-- Generator: Adobe Illustrator 29.8.3, SVG Export Plug-In . SVG Version: 2.1.1 Build 3)  -->
  <path d="M200.42,36.04l4.46,3.26c2.57,8.7,13.45,25.98,10.04,35.52-1.38,3.87-13.93,21.17-17.18,24.19-4.6,4.27-18.1,3.45-17.63,16.64,6.1,8.51,13.44,10.6,22.84,7.01,5.95-2.28,4.04-8.57,13.3-3.54,15.69,8.53,11.51,8.54,9.58,20.23-2.2,13.32-17.8,37.72-28.33,47.49-3.74,3.46-7.91,1.34-12.86,6.49-14.47,15.05-27.34,44.02-41.92,57.48-3.49,3.22-7.6,1.84-10.19,3.78-4.75,3.57-6.84,10.75-11.63,14.42-7.15,5.49-22,1.17-24.53-7.88,1.01-4.66,5.42-7.54,6.99-11.87,1.31-3.62.93-19.82,2.23-23.45,1.5-4.18,8.12-9.3,6.74-13.37-10.79-15.22-27.12-11.8-42.77-16.28-2.39-2.13-5-17.48-4.89-20.97.48-16.43,9.04-21.81,12.89-32.81,1.08-3.07-1.52-6.63.5-10.86,2.3-4.8,7.59-8.53,9.52-13.8,2.77-7.57,1.91-30.01,4.66-37.69,3.38-9.44,16.54-20.04,20.94-29.44,2.76-5.9-3.33-11.5,5.2-16.19,1.2-.66,24.75-4.41,27.09-4.34,5.92.17,17.82,4.81,23.94,5.38,4.74.44,9.53-2.24,13.56-1.97,5.55.37,10.77,4.53,17.45,2.57h0ZM155.69,75.34c-1.62-.61-19.72,1.92-21.23,2.81-12.16,7.19-6.22,13.85-8.35,19.72-1.37,3.79-5.05,6.44-6.41,10.24s-.92,19.69-2.24,23.45c-3.53,10.06-7.41,7.93-9.92,23.11-.87,5.29-5.59,7.31-.92,12.49,10.69,11.85,19.19,1.36,26.86,4.13,6.13,2.21,10.09,8.82,17.03,10.52,10.87,2.65,14.21-7.37,19.76-11.63,3.45-2.65,12.18-.23,12.73-8.75-6.86-15.67-16.75-7.47-26.13-8.15-3.58-.26-6.32-2.2-9.69-2.92-5.19-1.12-15.19,1.04-18.41-8.23s53.15-56.95,26.92-66.78h0Z"/>
</svg>