<?xml version="1.0" encoding="UTF-8"?>
<svg id="Layer_1" xmlns="http://www.w3.org/2000/svg" version="1.1" viewBox="0 0 300 300">
  <!-- Generator: Adobe Illustrator 29.8.3, SVG Export Plug-In . SVG Version: 2.1.1 Build 3)  -->
  <path d="M121.6,87.5c1.52-.35,2.66.23,4,.26,8.36.17,16.81-.03,25.12,0,7.1.02,14.2-.1,21.3.05,2.74.61,3.54,5.05,5.86,5.76.69.21,2.77.41,3.62.47,2.46.16,7.59-.51,9.58.16s3.15,3.77,4.72,5.02c1.09.87,2.08,1.04,3.15,2.18,2.82,2.99,1.59,2.82,5.62,5.37,3.24,2.06,1.93,5.49,1.9,8.44-.03,2.9,1.21,5.74-.76,8.35-.98,1.3-2.38,1.37-3.63,2.34-1.83,1.42-2.78,5.1-5.19,5.48-1.72.27-3.89-.2-5.64,0-3.45.41-3.76,5.89-7.21,6.29-1.67.2-3.68-.21-5.35,0-3.45.41-3.76,5.89-7.21,6.29-3.97.47-8.68-1.52-9.29,4.53-.35,3.51.02,7.64,4.24,8.04s13.66.46,17.6,0c3.15-.37,3.68-4.94,6.41-6.15,3.8-.78,9.41.59,12.98-.21,2.81-.63,3.2-8.56,8.06-5.73,3.23,1.88,1.21,5.52.96,8.15-.28,2.91.9,6.88-1.25,9.12-1.44,1.51-3.34,1.17-4.43,3.42-2.03,4.23,3.22,16.39-4.23,16.53-10.97.2-22.27-1.01-33.3-.36-.96.06-2.84.2-3.69.39-2.26.53-3.69,5.21-6.11,5.82-2.2.56-6.77-.1-9.36.06-.85.06-3.18.29-3.83.56-1.95.81-3.19,4.8-5.43,5.56-1.69.57-4.92,0-6.91.62s-3.38,4.89-5.65,5.66c-1.86.63-5.37-.16-7.33.84-2.21,1.12-3.03,5.48-5.71,5.91-1.23.2-5.86.17-6.85-.34-1.85-.95-2.54-3.77-4.27-5.15-1.27-1.01-2.48-1.22-3.63-2.65-2.61-3.28-1.41-2.53-5.15-4.9s-.83-6.83-2.3-9.95c-1.05-2.25-4.14-1.89-5.4-4.02-1.64-2.77.39-5.84-.88-8.54-1.07-2.28-4.4-1.81-5.43-4.93-.93-2.84-.77-9.29,3.14-9.75,1.92-.23,10.53-.3,12.19.07,2.62.59,3.45,5.63,6.36,6.2,7.71-.63,16.95.91,24.48.02,2.58-.3,3.51-3.71,5.51-5.16,1.98-1.44,4.68-1.33,4.35-4.7-.41-4.3-5.92-2.74-8.6-2.69-1.71.03-6.35.27-7.63-.25-1.84-.75-2.79-3.93-4.47-5.26-3-2.38-2.5-1.69-4.89-4.84-2.69-3.55-4.79-1.77-8.47-2.21-3.45-.41-3.76-5.89-7.21-6.29-3.76-.45-7.85,1.46-9.2-3.68.11-3.24-.06-7.07.28-10.25.53-4.97,3.45-4.1,5.75-7.12.49-.64.68-1.45,1.27-2.19,1.42-1.78,3.52-2.13,5.01-4.09,2.39-3.14,1.89-2.46,4.89-4.84,1.77-1.41,2.23-3.85,4.09-5.02,1.63-1.03,4.76-.24,6.74-.48,3.29-.39,3.91-5.59,6.65-6.22h.06Z"/>
  <path d="M240.29,56.09c1.82-.41,3.05.41,3.87,1.97,1.74,3.31-1.41,6.8,1.86,9.76.92.83,2.07.93,3.01,2.02,2.03,2.33,1.88,8.42-.47,10.54-.68.61-1.53.76-2.19,1.26-3.61,2.74-2.46,5.98-2.52,10.04-.04,2.58-.21,5.21-.03,7.85.12,1.7.44,3.45.47,5.18.53,1.73,2.59,1.14,4,1.65,3.68,1.31,3.79,8.83,1.5,11.36-2.05,2.27-4.91-.05-5.34,5.02-.29,3.38-.06,7.84,0,11.33.04,2.49.97,5.17-.18,7.65-1.3,2.81-3.05,1.7-4.85,3-1.57,1.15-1.48,2.98-2.5,4.41s-2.48,1.46-3.78,2.5c-1.37,1.1-1.99,2.94-3.44,4.1s-3.53,1.64-4.02,3.83c-.4,1.8-.28,9.76-.08,11.88.33,3.62,3.49,2.84,5.04,5.01,1.03,1.44.99,3.49,2.67,4.56,1.03.66,1.96.45,2.9.87,3.39,1.49,3.41,10.78-.22,12.17-1.12.43-2.96.12-3.6,1.42-1.39,2.85,1.17,6.64-1.17,9.82-1.29,1.75-1.82,1.05-3.32,1.7-2.91,1.27-1.63,7.11-6.5,6.34-3.24-.51-3.6-5.52-.8-6.73.61-.26,1.29-.08,1.89-.31,1.31-.48,2.28-1.47,2.47-2.87.27-1.98-.08-6.64.58-8.21,1.03-2.46,5.46.7,6.02-2.77.25-1.51-.1-6.12-.37-7.76-.33-1.99-1.12-2.39-2.94-2.71-2.96-.51-8.43-.08-9.39-3.79-.7-2.68.04-7.58-.47-10.54,1.09-4.09-.2-10.58,1.04-14.35.86-2.6,2.51-2.56,4.16-4,1.52-1.32,2.37-4.11,4.11-4.99,3.72-1.89,9.36,1.69,9.86-4.27.49-5.79-.48-12.03-.25-17.84.15-.84.98-2.23,1.65-2.75,1.34-1.03,3.4-.37,4.38-2.22.61-1.16,1.02-8.38.82-9.88-.22-1.65-1.21-1.49-2.6-1.32-3.92.49-3.56,3.86-5.76,5.86-.81.74-1.85.81-2.65,1.75-1.07,1.26-1.92,4.78-3.93,5.18-3.63.72-3.98-3.59-5.63-5.35-.72-.77-1.82-1.02-2.69-1.7-1.76-1.4-2.1-3.56-3.92-4.87-1.26-.91-2.62-.93-3.61-2.36-1.45-2.09-1.44-7.47.31-9.43.82-.91,2.45-1.38,3.47-2.19,1.63-1.3,2.09-3.26,3.59-4.57,2.79-2.43,2.61-1.78,5.05-5,2.13-2.8,5.46-2.16,5.8-6.13.21-2.38-.82-4.3.38-6.53s3.88-1.75,5.08-4.35c1.16-2.52-.57-9.4,3.24-10.26v.02Z"/>
  <path d="M171.85,188.3l24.74-.08c4,.86,4.36,4.49,3.92,8.02-.46,3.79-4.11,3.82-6.11,6.45-2.39,3.15-1.9,2.45-4.89,4.84-1.99,1.58-2.75,5.19-5.48,5.51-1.67.2-3.68-.21-5.35,0-2.94.35-3.68,4.57-6.25,5.68-1.78.77-5.33,0-7.32.84-2.16.9-3.23,5.34-6.19,5.74-1.82.25-10.23.28-11.93-.03-2.51-.46-3.83-4.79-6.12-5.81-3.95-.67-8.88.43-12.71-.16-4.12-.64-4.74-8.04-2.69-10.5,2.46-2.97,6.37-1.03,9.35-2.27,1.93-.8,3.01-4.48,5.24-5.44,1.78-.77,5.33,0,7.32-.84s3.33-5.06,5.65-5.65c3.43-.87,9.14.65,12.97-.53,2.04-.63,3.45-5.03,5.87-5.75h-.02Z"/>
  <path d="M57.85,74.94c3.72-1.12,4.26,3.56,5.89,5.29,1.1,1.17,2.74,1.39,4.08,3.14,2.39,3.14,1.89,2.46,4.89,4.84,1.99,1.58,2.67,5.18,5.48,5.51s6.2-.96,8.19,1.55c1.52,1.92,1.54,7.07.27,9.09s-3.63,1.88-5.15,3.96c-2.3,3.14.72,7.2-2.67,9.89-.79.63-1.8.78-2.53,1.56-1.76,1.86-2.21,6.79-6.34,5.12-3.7-1.5-1.4-6.11-1.65-8.71-.29-3.06-2.37-2.89-4.24-4.24s-2.16-3.51-3.92-4.87c-1.37-1.06-2.9-1.09-3.9-2.69-2.43-3.88,1.39-11.13-.99-14.71-1.62-2.43-6.4-1.64-5.78-5.8.36-2.44,3.38-2.84,4.71-4.09,1.11-1.05,1.96-4.31,3.66-4.82v-.02Z"/>
  <path d="M36.53,36.97c2.5-.19,6.35-.58,6.67,2.89.4,4.38-4.25,3.33-5.63,6.01-1.07,2.09,0,8.64-.02,11.28-.03,5.08-.83,10.09-.66,15.39.08,2.35.65,5.19.66,7.51.03,6.87-1.24,16.27-.3,22.9.46,3.28,3.08,2.32,4.92,3.55,2.57,1.72,1.37,6.1-1.65,6.38-4.64.43-3.22-5.06-6.21-6.37-1.02-.45-1.69-.09-2.76-1.01-2.6-2.25-1.27-6.22-1.23-9.1.27-16.62-.39-33.41,0-49.93.06-2.36-.48-5.32.8-7.36,1.25-2,3.25-1.97,5.4-2.13h.01Z"/>
  <path d="M51.27,43.23c5.24-1.35,3.99,4.63,7.07,5.96.6.26,1.26.18,1.81.39,2.06.79,1.91,3.11,2.96,4.57,1.36,1.89,2.95,1.16,4.27,2.33,1.18,1.05,1.15,2.74,2.01,3.95,1.36,1.89,2.95,1.16,4.27,2.33,1.5,1.34,1.14,4.02,3.32,5.16,1.05.55,1.9.19,2.96,1.12,1.47,1.3,1.06,3.59,2.97,4.88,1.25.85,2.37.41,3.47,1.56,2.02,2.11.45,4.97,4.68,5.36,2.13.2,11.25.26,12.88-.33,2.45-.9,2.05-4.8,4.25-5.79.66-.3,7.43-.3,8.15,0,1.48.62,2.21,2.97,1.64,4.46-1.65,4.33-7.14,1.07-10.4,2.78-1.95,1.02-1.64,5.11-4.33,5.72-1.87.42-10.3.28-12.51.08-3.43-.31-2.89-3.79-5.01-5.36-1.35-1-2.95-.68-4.1-1.87-1.31-1.36-.93-3.28-2.65-4.57-1.19-.89-1.68-.56-2.75-1.02-2.23-.96-1.65-4.8-4.47-5.89-.54-.21-1.21-.13-1.81-.39-2.23-.96-1.65-4.8-4.47-5.89-.54-.21-1.21-.13-1.81-.39-2.23-.96-1.65-4.8-4.47-5.89-1.06-.41-1.65,0-2.69-1.08-1.31-1.36-.93-3.29-2.65-4.57-1.27-.95-1.64-.52-2.81-.95-2.75-1.01-2.55-5.94.22-6.65h0Z"/>
  <path d="M117.86,225.37c2.5-.21,4.78-.66,6.29,1.68,1.67,2.59,0,4.11,4.3,4.5,12.1-.65,25.02,1.41,37.01-.03,4.08-.49,2.64-4,5.24-5.43,1.28-.71,6.13-1,7.67-.82,2.49.29,3.85,3.16,2.49,5.33-1.98,3.16-7.51.52-10.48,2.08-1.93,1.01-1.67,5.01-4.27,5.78h-38.61c-3.67-1.65-.65-7.18-5.9-6.2-3.12.58-3.41,5.59-6.35,5.59-3.95,0-3.99-7.95-2.48-10.35,1.19-1.91,3.04-1.96,5.09-2.13h0Z"/>
  <path d="M58.8,137.74c1.13-.25,5.85-.2,6.95.14,1.44.45,2.27,1.94,2.72,3.24.14,4.51-.42,9.08.55,13.58.91,2.07,3.2,1.36,4.48,2.74,2.17,2.33,1.01,6.64,1.07,9.6.07,3.41.03,7.27.32,10.67.42,5,3.14,2.8,5.2,4.85,3.14,3.12,1.77,13.17-3.64,11.49-4.22-1.31-1.32-8.24-2.68-10.82-1.19-2.27-5.03-.7-5.96-4.71-.37-5.94.69-12.16.19-18.09-.38-4.47-2.16-2.83-4.43-4.37-1.77-1.2-1.96-3.37-3.12-4.73-.94-1.11-2.13-1.1-3.16-1.87-3.02-2.25-2.75-10.77,1.49-11.72h.02Z"/>
  <path d="M142.35,68.37c2.65-.07,5.58-.91,7.11,1.82,1.55,2.76-.23,4.03,4.41,4.38,6.16.47,12.82-.49,19.03.13,3.31,1.52,2.75,5.88-.82,6.43-5.52.85-13.06-.58-18.8,0-.93-.15-1.84-.98-2.32-1.76-1.26-2.05-.13-4.35-3.36-4.2-4.61.22-4.44,5.04-6.97,5.6l-12.98-.07c-3.58-1.11-5.03-11.44.8-12.11,3.96-.45,9.69-.12,13.91-.22h0Z"/>
  <path d="M245.95,30.67c5.39-1.39,4.05,4.95,7.07,6.28,1.26.55,1.83,0,3.05,1.34,2.8,3.07-.09,6.96,1.44,9.86,1.19,2.27,5.03.7,5.96,4.71.07,6.13-.29,12.26-.19,18.41.04,2.57,1.48,8.93-2.41,9.81-5.73,1.29-4.11-7.45-4.16-10.47-.04-2.08-.64-4.81-.65-6.88-.02-3.21,1.06-9.08,0-11.94s-4.49-1-5.88-4.49c-1.13-2.84.77-6.35-.7-8.4-.99-1.37-2.69-1.08-3.95-1.7-2.61-1.27-2.23-5.85.41-6.54h0Z"/>
  <path d="M115.03,244.81c1.89-.16,3.46.99,4.01,2.74v12.6c-.88,3.79-4.05,2.55-5.38,4.04-1.26,1.4-.99,5.31-3.73,5.69-4.86.67-3.38-4.41-6.34-5.94-1.22-.63-2.15-.11-3.26-1.45-1.17-1.4-.83-3.15-2.5-4.4-1.45-1.08-2.69-.46-3.9-1.76-3.07-3.3,2.21-9.02,5.41-4.15.92,1.41,1.14,3.46,2.96,4.26,1.21.54,1.88-.01,2.89,1.51,1.3,1.96.54,4.76,3.82,5,3.65.26,3.36-2.46,3.26-5.17-.13-3.5-2.68-12.52,2.76-12.97Z"/>
  <path d="M214.86,74.62c4.38-1,6.2,4.69,2.72,6.49-.76.4-1.52.28-2.23.59-2.27.99-2.37,4.66-4.31,5.74-.69.38-1.34.25-1.98.54-3.14,1.4-1.67,6.81-6.5,6.02-3.14-.51-2.13-4.96-4.7-5.97-1.89-.24-4.1-.53-5.98-.62-2.6-.13-7.45.66-9.44-.92-2.17-1.73-1.01-4.75,1.33-5.59l13.74-.06c3.2,1.42,1.05,5.79,5.12,6.2s3.14-2.92,4.77-5.11c1.04-1.4,1.75-.84,2.95-1.45,2.4-1.23,1.94-5.27,4.5-5.86h0Z"/>
  <path d="M202.61,206.82c2.78-.63,4.55,1.94,4.51,4.49-.02,1.55-1.28,5.81-.37,6.94,1.17,1.45,8.23.1,10.2,1.11,3.13,1.61,2.6,6.15-.9,6.56-1.03.12-6.71.13-7.38-.17-2.65-1.2-1.72-6.06-4.54-6.45-1.19-.16-7.46.32-8.31.83-1.8,1.07-1.42,4.92-3.78,5.64-4.7,1.45-6.49-4.48-2.96-6.41.8-.44,1.8-.44,2.63-.82,2.35-1.08,2.17-3.53,3.76-5.03.73-.69,1.69-.9,2.52-1.56,1.64-1.3,2.76-4.7,4.61-5.12h0Z"/>
  <path d="M82.97,200.22c4.94-1.14,3.72,4.65,6.77,5.97.6.26,1.26.18,1.81.39,2.18.84,1.98,3.46,3.13,5.03,1.47,2.01,3.55.76,4.92,3.25,1.54,2.8,1.49,8.66-1.66,10.37-.63.34-1.34.31-1.91.6-2.97,1.48-1.7,6.55-6.49,6.01-2.98-.33-3.74-4.19-1.56-5.9,1.43-1.12,3.8-.54,4.75-2.48.58-1.18.57-6.28.25-7.64-.65-2.75-3.57-1.87-5.06-3.42-1.34-1.39-.95-3.47-2.81-4.72-1.13-.76-1.63-.43-2.65-.8-2.91-1.07-2.39-6,.52-6.67h0Z"/>
  <path d="M224.61,194.13c-1.27.33-2.71.27-3.86,1-2.13,1.36-2.33,5.76-5.62,5.33-4.31-.56-3.72-10.25-.47-12.06,1.22-.68,5.55-.68,7.05-.5,2.72.32,4.1,3.89,2.91,6.22h-.01Z"/>
  <path d="M45.29,118.58c5.03-1.16,3.72,4.98,6.98,6.07,1.32.44,2.17-.08,3.24,1.47,2.07,3-1.24,6.97-4.6,5.22-2-1.04-1.61-4.9-4.26-5.79-.59-.2-1.24-.08-1.88-.31-2.91-1.07-2.39-6,.52-6.67h0Z"/>
  <path d="M227.42,55.78c4.56-1.04,5.53,4.82,2.46,6.54-.69.38-1.34.25-1.98.54-2.79,1.24-1.91,5.75-5.26,6.06-4.19.39-5.37-5.21-2.23-6.63.79-.36,1.41-.2,2.08-.43,2.8-.94,2.26-5.46,4.92-6.07h0Z"/>
  <path d="M252.85,87.5c6.45-1.47,6.28,14.38-.24,12.35-3.46-1.08-3.49-11.5.24-12.35Z"/>
  <path d="M102.13,231.93c5.96-1.34,6.07,15.22-.22,12.34-3.28-1.5-4.46-11.29.22-12.34Z"/>
  <path d="M45.61,62.37c6.08-1.37,6.24,12.29.87,12.52-4.81.2-4.71-11.65-.87-12.52Z"/>
  <path d="M89.27,238.22c2.33-.4,4.25.69,4.18,3.21-.09,2.98-3.68,4.61-5.79,2.33-1.67-1.81-1-5.1,1.61-5.55h0Z"/>
</svg>