<svg xmlns="http://www.w3.org/2000/svg" id="Layer_1" viewBox="0 0 1200 1600"><defs><clipPath id="clippath"><rect width="919.69" height="223.9" x="22.99" y="771.07" rx="111.95" ry="111.95" style="fill:none"/></clipPath><style>.st1{fill:none;stroke:#921d2c;stroke-miterlimit:10;stroke-width:3px}.st2{fill:#eb2429}</style></defs><g style="clip-path:url(#clippath)"><rect width="919.69" height="223.9" x="22.99" y="771.07" rx="111.95" ry="111.95" style="fill:#fff"/><rect width="297.73" height="169.07" x="333.97" y="798.48" class="st1" rx="28.21" ry="28.21"/><path d="M659.01 749.97c5.62 6.25 2.2 7.26-2.52 1.64l-1.25-.38-5.68 12.57c-1.48.12-1.97-.74-1.78-2.05s5.51-11.26 4.93-11.77m15.41-2.53c1.46 4.25-6.4 1.97-9.11 2.52m-83.53-1.18c1.31.41 1.02 5.89-.62 6.17-1.91.33-3.59-5.6-1.73-6.17m-14.65 206.05c-1.85-1.17-.33-7.43 3.72-4.66 2.31 1.58-.33 6.8-3.72 4.66m121.94-18.38c.57 5.43-3.57 9.82-4.39 15.09 1.27-.33 11.23-.5 9.42 1.88-3.19 1.61-8.53-1.09-11.3.96-2.41 1.79-5.32 10.25-7.52 13.05-1.19 1.24-3.33 1.73-2.72-.65.51-1.99 5.81-11.86 5.2-12.72-2.87-1.42-6.45-.09-8.79-2.21 2.33-3.35 8.67.15 11.68-2.14.27-.21 3.25-5.03 3.67-5.79.4-.71 1.59-2.76 1.8-3.22.87-1.88.07-4.97 2.96-4.26ZM289.75 785.77c1.1 2.42-5.34 12.83-4.4 13.82 3.28.07 5.91-.58 9.37.7l.06 3.08c-2.12-.9-4.92-.8-7.23-.63-.88.07-1.87-.47-1.55.93 1.03 1.55 9.96 11.86 8.78 12.89-1.82.36-2.45-.25-3.51-1.49-2.7-3.19-5.1-7.94-8.13-11.07-1.26-.25-.77.28-1.07.8-.63 1.08-5.3 12.64-7.4 10.51l5.65-12.56c-1.62.02-3.12-.55-4.72-.68-1.72-.14-6.43 1.3-6.59-1.83l10.05-1.27c.26-.34-4-4.93-4.33-5.53-.51-.93-.93-1.93.24-2.62 2.34.01 5.94 8.5 7.85 6.9-.56-2.23 1.45-3.41 1.84-4.27.37-.8 2.97-9.84 5.08-7.68Z" class="st2"/><path d="M531.78 1014.3c2.44-8.06-2.48-9.88-9.41-10.66-11.69-1.32-26.27-1.42-38.31-1.92-2.26-.09-11.36-.36-12.75.21s-3.07 5.85-4.87 5.47c-2-1.25.11-5.62-1.99-6.22-.64-.18-1.62.43-2.33.34-11.01-1.41-21.95-.83-32.61-1.86-1.78-.17-3.06-.44-2.38-2.52.92-2.78 15.38-1.49 18.57-1.67 2.48-.14 5.13-1.13 7.53-1.27 5.07-.3 10.22.3 15.28-.12 1.6-4.22 3.53-7.19 1.54-11.67-1.42-3.18-8.21-5.19-11.45-5.86-.69-5.59 7.92-4.41 11.45-5.13 2.37-.48 10.62-5.9 12.41-7.85 3.55-3.86 9.22-15.74 12.18-20.99 2.21-3.91 2.93-7.81 7.06-10.26.32-.19.08-1.01.54-1.01 1.48 0 1.96 2.06 1.87 3.24-2.39 10-12.16 23.02-4.96 32.55 2.35.3 5.33 1.72 7.46 1.97 8.18.94 18.56.68 27.04 1.24 4.37.29 18.4 2.56 21.47 1 2.07-1.05 3.77-5.41 4.98-7.26.66-1.01 1.87-1.6 2.46-2.59 1.76-2.94.85-1.28 2.26-2.87.78-.88 1.74-4.42 2.8-5.88.12-.16 2.44-2.48 2.61-2.52 4.04-.85 3.07 1.27 2.36 3.73s-7.95 18.22-7.19 18.88c2.15.15 4.46-.21 6.59 0 .89.09 7.68 1.17 8.04 1.36 1.76.94 1.69 3.91-.49 4.29-2.77.49-16.58.12-17.23.69-.87 3.45-2.54 7.5-.07 10.78 2.1 2.79 6.23 1.29 9.09 1.76 7.15 1.17 13.64 2.54 20.82 3.69 1.82.29 7.31-.99 6.47 2.15-.56 2.09-5.34 2.64-7.23 2.84-11.52 1.25-31.72.2-40.15 8.26-3.81 3.64-5.25 7.4-7.88 11.47" class="st2"/><path d="M546.98 983.97c.68-.69 1.12-2.3 1.47-3.26-.33-1.76-9.27-.33-10.97-.3-15.49.24-30.56.91-45.94 1.18-4.78 3.69-10.76 6.12-14.11 11.35 5.96-.19 11.98.27 17.94.03 13.6-.54 27.29-1.59 40.87-2.5.7-.1 9.82-5.55 10.75-6.5Zm-98.21-183.59q.18 0 .36-.03c18.73-3.45 27.04-30.41 35.79-44.43 1.4-2.24 4.66.21 3.84 2.49-2.38 7.26-5.7 14.28-8.08 21.53-1.35 4.13-3.68 10.22-3.09 14.43s1.53 2.96 3.91 3.51c.57.13.45 1.29 1.65 1.62 2.38.66 4.14-.56 5.97-.33 14.42 1.8 30.22 1.63 44.71 2.32 3.95.19 8.03.1 12.04.11.62 0 1.2-.31 1.53-.83l13.29-20.62c.53-.82 1.63-1.1 2.46-.59 3.18 1.96-.76 6.97-1.83 9.97-1.45 4.06-5.87 16.46-3.35 20 3.99 5.57 18.41 4.26 24.27 4.65 11.71.77 23.67 1.18 35.15 2.56 2.74.33 5.97-.18 8.88-.07.68.03 1.31-.33 1.65-.93l5.31-9.48c.12-.22.29-.4.49-.56 2.01-1.56 5.88-11.05 8.57-7.57l.32 1.15c.11.41.08.84-.09 1.22l-6.39 14.42c-.48 1.08.18 2.35 1.35 2.54 2.44.39 5.37-.02 6.65 1.6.74.94.29 2.38-.83 2.76-1.61.55-3.53-.18-4.97.03-.71.1-1.4.88-2.19 1.03s-1.67-.46-2.29-.34c-2.35.45-8.03 13.85-.56 15.4 8.77 1.82 17.96 1.58 26.73 2.81.5.07 2.84.76 4.21 1.26.73.26 1.24.96 1.2 1.73-.12 2.33-3.12 2.77-5.33 3.08-9.43 1.3-27.22.72-35.03 4.56-6.9 3.39-13.77 16.19-17.9 22.96-8.36 13.73-16.41 27.82-24.53 41.47-3.73 6.28-7.37 14.71-11.52 20.53-1.19 1.67-2.98 3.56-4.62 1.55-.14-.18-.25-.39-.3-.61-.79-3.38 2.77-8.14 4.06-11.22 8.21-19.62 17.78-38.25 26.99-57.87 1.51-3.22 4.04-8.01 3.24-11.3-2.45-10.18-16.09-7.03-23.95-7.47-4.82-.27-10.23-1.11-15.03-1.31-9.27-.38-18.65.23-27.88-1.1-.69-.1-1.37.19-1.76.76-1.81 2.62-5.57 9.51-5.87.8-.03-.96-.79-1.73-1.74-1.77l-31.42-1.39c-.86-.04-1.57-.67-1.72-1.52-.18-1.08.63-2.08 1.73-2.12l34.18-1.3c.45-.02.88-.19 1.19-.51 1.67-1.67.79-2.2.93-4 .03-.42 1.04-.37 1.18-.87 1.99-7.26 3.06-10.97-5.34-13.31-1.44-.4-7.39.2-6.49-3.38.66-2.62 5.15-1.38 7.13-1.72 3.34-.58 7.02-2.26 9.66-3.67s13-6.69 4.12-7.57c-5.28-.53-10.72 1.05-15.62 1.24-13.8.53-31.18-.95-44.5 1.38-18.68 3.27-26.23 30.02-34.51 44.68-2.9 5.13-4.85 3.38-3.76-1.86 2.36-11.29 10.13-24.65 12.53-35.87.25-1.19.38-3.01.02-4.15-1.32-4.26-15.32-3.78-19.02-4.23-.94-.11-1.75-1.06-3.14-1.26-3.53-.49-9.88 1.34-9.49-3.35.08-.93.88-1.65 1.82-1.65h25.06Zm172 25.38c.5-1.26-.47-2.63-1.83-2.51-11.78.98-23.69.47-35.51.99-3.73.17-7.7 1.11-11.27 1.31-6.88.38-15.26-1.31-21.53 1.72-.81.39-8.28 6.04-8.63 6.46-.32.38-.17 1.26-.55 1.68-.31.36-4.54 2-4.2 3.61.4 1.86 4.6.34 5.94.3 12.83-.41 25.77-.77 38.34-1.26 5.73-.22 17.93 1.12 22.54.01.47-.11.38-1.12.86-1.23 1.05-.24 2.31.21 3.49-.17 4.83-1.57 10.33-5.9 12.33-10.91ZM401.65 929.87c.11.1 2.44 1.45 2.59 1.47 17.2 2.11 34.95 1.53 52.24 2.45 6.88.37 13.68 1.63 20.65 1.36 1.1-.04 2.09.65 2.44 1.69.53 1.6-.65 3.26-2.34 3.27l-9.27.06c-.08 0-.15 0-.23.01-20.17 2.14-40.79.79-60.96 1.76-7.19.35-17.56 6.93-21.45 13.42-5.52 9.21-10.49 20.97-16.17 30.64-.35.59-1.49 3.33-2.28 4.95-.42.86-1.29 1.4-2.24 1.39-.87 0-1.7-.27-2.06-1.12-.92-2.73 4.74-13.17 6.01-16.45 2.28-5.88 4.69-11.75 6.91-17.6.46-1.21 2.61-7.25 2.7-8.03.44-3.53-1.81-7.19-5.37-7.76-9.39-1.51-19.02-.6-28.3-2.51-.29-.06-.58-.08-.88-.08-1.37 0-2.48-1.1-2.49-2.47v-.07c0-1.37 1.09-2.48 2.46-2.5 5.77-.08 11.58.3 17.33.07 6.57-.27 14.88-.46 20.56-3.81 12.15-7.17 18.94-25.09 25.78-37.24 1.41-2.51 2.39-7.66 5.84-8.01 2.69-.27 2.36 2.41 2.03 4.42-.02.1-.04.2-.07.31-3.07 10.86-10.61 22.93-13.45 33.49-.51 1.88-1.6 5.35.03 6.88Zm-95.22-26.05c-2.3 2.53-5.56 7.25-7.27 10.64-1.32 2.61-1.7 3.63-3.41 6.01-2.77 3.85-5.28 8.67-7.85 12.91-1.45 2.4-1.96 5.56-4.4 6.99-1.54.9-3.43-.48-3.07-2.22.18-.89.48-1.74.61-2.2 2.74-9.7 9.75-21.85 13.13-31.52.46-1.33.91-4.43.45-5.67-.25-.69-3.89-2.51-4.79-2.72-7.25-1.64-15.75-.15-23.36-1.62-1.1-.21-1.81-1.28-1.63-2.38l.02-.13c.15-.9.87-1.6 1.77-1.72 1.39-.19 3.31-.33 3.97-.38 5.76-.47 13-1.3 19.41-2.08s7.42.59 13.32-3.65c3.85-2.77 6.19-7.34 8.85-11.27 4.76-7.03 9.71-15.3 13.92-22.04 1.34-2.15.91-4.39 4.65-3.88 3.38 1.06-1.53 8.43-2.23 10.2s-.97 3.76-1.84 5.7c-3.01 6.72-7.53 11.38-7.35 19.58.14 6.53 6.87 4.87 10.84 5.38 6.67.85 12.85.46 18.87 1.24.48.06 5.15 1.38 5.39 1.53 1.2.73.14 2.5-.68 3.11-1.86 1.4-15.82 1.76-19.24 2.01-4.59.33-11.88.22-16.2.9-4.77.75-8.8 3.91-11.88 7.29Z" class="st2"/><path d="M609.93 903.39c.16.1.29 1.81 2.84 1.88l-.65 1.25c-2.38-1.45-6.39.68-8.18.6-1.1-.05-2.44-1.85-4.06-1.21-1.6 1.59 5.76 11.19 6.27 12.89s-2.17.96-3.17.02c-4.6-4.32-3.79-18.22-11.23-.73l-1.93.39c-.77-4.81 3.6-8.23 4.39-12.57-.68-.63-13.07.58-10.99-3.78h10.37l-5.02-11.31 2.41.11c.55 1.1 4.6 11.34 6.38 9.95l5.64-12.12 2.22-1.09c2.98.02-7.23 14.31-4.71 15.72 1.47 0 9.03-.25 9.43 0ZM310.1 957.45c-1.21 3.61-2.56 7.21-4.12 10.68-.24.54-.07 1.72-1.21 1.26-.56-.23-2.11-1.86-2.09-2.7 1.08-3.24 3.45-6.14 3.66-9.23-1.93-.06-3.89.2-5.82-.17-5.13-.98 1.97-3.05 3.9-3.33 1.24-.18 2.98.78 3.85.1.55-2.71 2.22-3.64 3.12-6.32.67-1.98.75-3.96 1.54-6s2.81-5.4 3.29-1.04l-4.2 12.61c.42 1.39 7.18 1.65 8.78 1.63v2.51h-10.69Zm381.33-163.63c-1.19 2.77-1.39 1.78-2.3 6.07-.14.68-1.99.08-1.26 1.67l7.26.6.28 1.91-9.76.57c-1.81 2.86-3.41 5.99-4.82 9.06-.9 1.96-.23 4.9-3.02 4.21-1.43-2.27 4.4-12 3.76-12.57-2.22.07-5.45.57-5.65-2.5 1.9-1.95 7.07-.73 8.07-1.37.82-.52 2.69-5.98 3.23-7.01.2-.38 1.03-.44 1.44-1.23.94-1.81 1.52-3.6 2.1-5.53l1.29-.48 1.45.83c-1.24 1.67-1.34 4.06-2.08 5.78Zm-336.07 35.4 7.12-.04c4 5.52-6.67 1.18-8.92 2.64-1.03 2.75-4.37 13.38-6.39 14.55-.65.37-.9.7-1.86.45-.45-.45 3.21-10.59 3.82-12.09.22-.54 1.94-.7 1.24-2.65-.35-1.12-6.09-.08-5.68-2.85l7.43-.11 5.45-14.98 2.14 1.04-4.35 14.05Zm77.18 151.15c-.25-.18-1.31.54-1.76-.52l.73-2.09c4.33-.82 5.4.99 2.72 4.3-1.23.29-1.19-1.34-1.69-1.69m230.23-109.63c5.09-.27 1.53 8.08-1.2 3.33zm-31.28-8.68c.66-1.77 3.89-1.91 4.17.72l-3.41 2.27c-1.14-.8-1.21-1.8-.77-2.99Zm31.56 31.91c1.2-.24 2.07 1.91 2.17 2.84-2.77 6.05-4.41-2.4-2.17-2.84m-338.02-4.56c-1.09.97-3.49 1.29-3.61-.78 1.36-2.85 5.99-1.34 3.61.78" class="st2"/><circle cx="126.76" cy="842.89" r="6.17" class="st1"/><circle cx="204.56" cy="842.89" r="6.17" class="st1"/><circle cx="126.76" cy="923.15" r="6.17" class="st1"/><circle cx="204.56" cy="923.15" r="6.17" class="st1"/><circle cx="761.1" cy="842.89" r="6.17" class="st1"/><circle cx="838.9" cy="842.89" r="6.17" class="st1"/><circle cx="761.1" cy="923.15" r="6.17" class="st1"/><circle cx="838.9" cy="923.15" r="6.17" class="st1"/><path d="M830.73 777.07c58.42 0 105.95 47.53 105.95 105.95s-47.53 105.95-105.95 105.95H134.94c-58.42 0-105.95-47.53-105.95-105.95s47.53-105.95 105.95-105.95zm0-6H134.94c-61.83 0-111.95 50.12-111.95 111.95s50.12 111.95 111.95 111.95h695.79c61.83 0 111.95-50.12 111.95-111.95s-50.12-111.95-111.95-111.95" style="fill:#ec2429"/></g></svg>