<svg xmlns="http://www.w3.org/2000/svg" id="Layer_1" viewBox="0 0 1200 1600"><defs><style>.st0{fill:#eb2429}.st1{fill:#fff}.st3{fill:#ec2024}</style></defs><rect width="157" height="356.43" x="347.54" y="621.9" class="st0" rx="78.5" ry="78.5"/><path d="M354.31 807.8v91.11c0 39.61 32.11 71.73 71.73 71.73 39.61 0 71.73-32.11 71.73-71.73V807.8z" class="st1"/><path d="M477.05 869.37c0-14.54-11.55-26.37-25.76-26.37-10.78 0-20.26 6.75-24.06 16.96l-38.62-22.62-13.57 23.17 11.1 6.5h-3.62v48.11h18.54v14.92h5.42c5.68 0 10.98-2.08 14.93-5.86 2.62-2.51 4.54-5.63 5.59-9.06h21.58v14.92H454c5.68 0 10.98-2.08 14.93-5.86 2.87-2.75 4.9-6.22 5.87-10.04l.27-1.33c.17-.84.28-1.69.32-2.54l.07-1.3v-20.73h-6.19c4.93-4.93 7.79-11.76 7.79-18.87Z" class="st3"/><path d="M451.29 890c11.06 0 20.02-9.24 20.02-20.63s-8.96-20.63-20.02-20.63-20.02 9.24-20.02 20.63S440.23 890 451.29 890m0-28.25c4.08 0 7.39 3.41 7.39 7.62s-3.31 7.62-7.39 7.62-7.39-3.41-7.39-7.62 3.31-7.62 7.39-7.62m-63.03 47.62h18.54v14.92c8.34 0 15.13-6.64 15.38-14.92h32.14v14.92c8.34 0 15.13-6.64 15.38-14.92h.01v-15.39h-81.45zm38.27-21.26h-38.27v-15.37h19.03l-24.4-14.29 7.77-13.26 35.87 20.99z" class="st1"/><rect width="157" height="356.43" x="521.99" y="621.9" class="st0" rx="78.5" ry="78.5"/><path d="M528.76 807.8v91.11c0 39.61 32.11 71.73 71.73 71.73 39.61 0 71.73-32.11 71.73-71.73V807.8z" class="st1"/><path d="M647.5 708.54c0-14.54-11.55-26.37-25.76-26.37-10.78 0-20.26 6.75-24.06 16.96l-38.62-22.62-13.57 23.17 11.1 6.5h-3.62v48.11h18.54v14.92h5.42c5.68 0 10.98-2.08 14.93-5.86 2.62-2.51 4.54-5.63 5.59-9.06h21.58v14.92h5.42c5.68 0 10.98-2.08 14.93-5.86 2.87-2.75 4.9-6.22 5.87-10.04l.27-1.33c.17-.84.28-1.69.32-2.54l.07-1.3v-20.73h-6.19c4.93-4.93 7.79-11.76 7.79-18.87Z" class="st3"/><path d="M621.73 729.18c11.06 0 20.02-9.24 20.02-20.63s-8.96-20.63-20.02-20.63-20.02 9.24-20.02 20.63 8.96 20.63 20.02 20.63m0-28.25c4.08 0 7.39 3.41 7.39 7.62s-3.31 7.62-7.39 7.62-7.39-3.41-7.39-7.62 3.31-7.62 7.39-7.62m-63.02 47.62h18.54v14.92c8.34 0 15.13-6.64 15.38-14.92h32.14v14.92c8.34 0 15.13-6.64 15.38-14.92h.01v-15.39h-81.45zm38.27-21.27h-38.27v-15.36h19.03l-24.4-14.3 7.77-13.26 35.87 20.99z" class="st1"/><rect width="157" height="356.43" x="696.44" y="621.9" class="st0" rx="78.5" ry="78.5"/><path d="M703.21 807.8v91.11c0 39.61 32.11 71.73 71.73 71.73 39.61 0 71.73-32.11 71.73-71.73V807.8zm118.73-99.26c0-14.54-11.55-26.37-25.76-26.37-10.78 0-20.26 6.75-24.06 16.96l-38.62-22.62-13.57 23.17 11.1 6.5h-3.62v48.11h18.54v14.92h5.42c5.68 0 10.98-2.08 14.93-5.86 2.62-2.51 4.54-5.63 5.59-9.06h21.58v14.92h5.42c5.68 0 10.98-2.08 14.93-5.86 2.87-2.75 4.9-6.22 5.87-10.04l.27-1.33c.17-.84.28-1.69.32-2.54l.07-1.3v-20.73h-6.19c4.93-4.93 7.79-11.76 7.79-18.87Z" class="st1"/><path d="M796.18 729.18c11.06 0 20.02-9.24 20.02-20.63s-8.96-20.63-20.02-20.63-20.02 9.24-20.02 20.63 8.96 20.63 20.02 20.63m0-28.25c4.08 0 7.39 3.41 7.39 7.62s-3.31 7.62-7.39 7.62-7.39-3.41-7.39-7.62 3.31-7.62 7.39-7.62m-63.02 47.62h18.54v14.92c8.34 0 15.13-6.64 15.38-14.92h32.14v14.92c8.34 0 15.13-6.64 15.38-14.92h.01v-15.39h-81.45zm38.27-21.27h-38.27v-15.36h19.03l-24.4-14.3 7.76-13.26 35.88 20.99z" class="st0"/></svg>