<svg xmlns="http://www.w3.org/2000/svg" id="Layer_1" viewBox="0 0 1200 1600"><defs><style>.st0{fill:#fff}.st1{fill:#ec2429}</style></defs><path d="M595.72 1362.7c-14.45 0-16.64-1.09-18.39-1.96-2.23-1.11-3.79-2.67-4.89-4.12-2.87-.12-5.35-.83-7.58-2.17-2.22-1.33-3.65-3.11-6.49-6.67-.45-.56-1.04-1.29-1.59-1.97-1.99-.2-4.71-.7-7.56-2.3-4.16-2.33-8.66-7.42-15.56-15.52-1.24-1.46-2.57-3.02-3.72-4.32l-4.4-.58c-1.67-.22-3.26-.82-4.66-1.75-5.2-3.46-5.83-9.15-6-12.09-.63-.55-1.38-1.18-1.96-1.67-3.44-2.88-6.68-5.61-8.3-9.42-.77-1.81-1.12-3.55-1.29-5.01-1.83-1.37-3.79-3.54-4.61-6.89-.59-2.42-1.73-16.64 2.93-23.05 1.18-1.62 2.67-2.92 5.24-4.98l-27.56-.35c-2.81-.04-5.5-1.14-7.51-3.1l-7.74-7.49-13.86-.58a10.94 10.94 0 0 1-7.71-3.63c-5.25-5.84-10.98-11.59-16.52-17.15-4.33-4.34-8.79-8.82-13.12-13.43-1.33-.71-3.46-1.94-5.18-4.27-2.33-3.17-3.04-6.42-3.21-9.02-.09-.08-.17-.16-.26-.24-.52-.5-1.43-1.38-2.58-2.48-13.73-13.13-15.54-15.26-16.77-18.01-2.1-4.7-3.39-10.94.08-16.87a11.03 11.03 0 0 1-1.66-5.82l.03-64.13c-.22-3.29.61-7.36 4.62-10.93.09-2.22.58-4.91 2.23-7.63 1.15-1.91 8.3-9.06 10.2-10.2 2.24-1.34 4.72-2.06 7.56-2.18.67-.86 1.51-1.75 2.57-2.55 4.16-3.13 9.21-3.53 13.15-3.53 2.34 0 4.72.16 7.02.32 1.5.1 2.94.2 4.2.24 1.92-2.65 5.42-6.2 11.19-6.2.91 0 1.84.1 2.74.29.56.12 1.11.29 1.65.49 3.31 1.29 5.42 3.57 6.78 5.53.56.02 1.22.03 2.01.03 3.3 0 7.45-.2 11.46-.39 4.21-.2 8.56-.4 12.27-.4 4.26 0 7.21.27 9.57.87.18.04.35.09.52.15 4.15 1.28 6.73 4.35 10.28 8.59.42.5.96 1.14 1.49 1.76 1.2-.2 2.67-.39 4.32-.39 2.73 0 5.37.53 7.83 1.58 3.11 1.32 5.13 3.69 8.2 7.26.68.8 1.66 1.94 2.45 2.8.38-.01.81-.04 1.26-.06.84-.05 1.79-.11 2.82-.11 2.35 0 4.42.31 6.33.96 3.12 1.06 5.13 3.05 6.42 4.71h.29c.83-1.08 1.96-2.25 3.53-3.23 1.74-1.08 3.91-2.43 15.67-2.47.03-1.31.18-2.73.46-4.27.66-3.55 2.3-6.5 4.9-8.81-.07-1.5-.2-3.19-.3-4.44-.37-4.64-.75-9.45.08-13.87.91-4.81 3.7-7.69 5.94-9.36-.04-.9-.11-1.87-.16-2.66-.26-3.6-.55-7.69.39-11.73.72-3.1 2.73-5.72 5.51-7.21 1.05-.91 3.24-3.62 4.44-5.11 2.94-3.63 5.25-6.5 8.42-8.16 1.98-1.03 4.14-1.55 6.41-1.55q.75 0 1.41.06c.1-.09.2-.18.29-.27-.03-1.64.09-3.6.76-5.68 1.13-3.52 3.39-5.72 5.35-7.11.16-1.49.5-3.29 1.3-5.17 1.58-3.73 4.7-6.32 7.72-8.84.49-.41 1.12-.94 1.66-1.4.05-1.64-.15-4.3-.27-6.05-.37-4.96-.75-10.09.69-14.76 1.13-3.68 3.41-6.02 5.39-7.51-.05-.7-.1-1.42-.15-2.02-.32-3.98-.69-8.5.63-12.8 1.1-3.6 3.27-5.85 5.1-7.24 0-.15 0-.3-.01-.43-.08-2.39-.18-5.37.77-8.64.91-3.09 2.69-5.2 4.07-6.55l-.03-.42c-.21-2.66-.5-6.29.77-10.01 1.15-3.36 3.35-5.51 5.26-6.87.16-1.53.52-3.38 1.37-5.32 1.17-2.66 2.98-4.45 4.41-5.66.09-1.77.42-4.08 1.59-6.51.81-1.69 1.88-3 3-4.03.06-1.32.25-2.79.74-4.31.55-1.74 1.39-3.15 2.33-4.31-1.31.22-2.68.32-4.14.32-2.55 0-4.94-.33-6.99-.66-1.36 1.7-3.35 3.51-6.32 4.52-1.89.64-3.94.96-6.28.96-1.23 0-2.38-.08-3.41-.16-1.36 1.86-3.48 3.95-6.73 5.07-2.33.8-4.96 1.17-8.29 1.17-2.55 0-5.2-.22-7.76-.42-1.79-.15-3.5-.29-4.97-.33-.48.59-1.05 1.19-1.73 1.77-3.11 2.66-7.06 4.01-11.74 4.01-2.31 0-4.5-.32-6.42-.59-.54-.08-1.08-.16-1.59-.22-1.35 1.9-3.48 4.04-6.85 5.2-2.14.74-4.49 1.08-7.36 1.08-1.92 0-3.8-.15-5.62-.3-.87-.07-1.71-.14-2.48-.18-1.33 1.87-3.48 4.12-6.88 5.28-2.33.8-4.96 1.17-8.28 1.17-2.55 0-5.19-.21-7.73-.42-1.73-.14-3.38-.28-4.81-.33-.7.97-1.61 1.99-2.81 2.91-2.88 2.19-6.27 3.35-9.79 3.35-9.45 0-16.12-7.76-22-14.6-1.5-1.75-3.75-4.37-4.71-5.1-1.25-.74-2.35-1.72-3.22-2.89-3.63-4.87-3.56-10.24-3.3-13.85-1.49-1.12-3.09-2.72-4.21-5.04-1.17-2.44-1.49-4.78-1.61-6.52-1.44-1.22-3.19-2.97-4.33-5.49-.87-1.92-1.62-3.58-1.88-20.09-.11-6.9-.11-15.76.47-18.81.88-4.64 3.5-7.48 5.7-9.18-.23-3.23-.45-7.56 1.73-11.92 1.35-2.69 3.27-4.32 8.65-8.63l.15-.12c0-3.31.73-8.08 5.08-11.78 1.28-1.09 2.8-1.87 4.43-2.28l6.32-1.59 44.26-45.46c.36-.37.76-.72 1.17-1.04 1.71-1.32 4.59-2.89 8.6-2.89a13 13 0 0 1 1.1.04c1.01-1.24 2.21-2.78 3.06-3.88 4.29-5.51 6.66-8.47 9.57-10.29 2.37-1.48 4.97-2.25 7.73-2.31.65-.8 1.45-1.62 2.41-2.36-.59-.42-1.16-.89-1.7-1.41-.51-.49-.98-1.03-1.39-1.62-1.91-2.72-2.59-5.92-2.7-12.68-.11-7.45.65-9.67.97-10.62.51-1.5 1.23-2.75 2.04-3.8-1.05.13-2.19.19-3.42.19-1.94 0-3.85-.15-5.69-.29-.87-.07-1.72-.13-2.49-.18-2.14 2.4-5.88 5.28-12.37 6.06-4.53.54-13.55.74-20.48.74-7.65 0-17.8-.2-22.7-1.16-6.95-1.36-14.93-11.17-16.31-14.17-2.17-4.73-1.9-10.39-1.61-16.39.04-.77.08-1.7.12-2.66a16 16 0 0 1-4.71-2c-1.17-.74-1.82-1.14-8.37-8.23-6.85-7.42-7.14-8.09-7.85-9.72-.81-1.86-1.16-3.64-1.32-5.13-1.89-1.67-3.94-4.29-4.71-8.29-.55-2.83-.86-18.2.11-22.12.93-3.79 2.87-5.42 8.06-9.8.65-.55 1.52-1.28 2.31-1.95.21-3.03 1.08-7.98 5.7-11.64 2.92-2.33 6.06-3.05 8.44-3.29 1.21-1.46 2.92-3.02 5.31-4.16.92-.43 1.87-.77 2.87-1 .24-1.42.72-2.95 1.61-4.5.31-.54.94-1.31 1.77-2.21-2.75-.96-4.64-2.6-5.93-4.14-1.39-.07-2.73-.34-4-.8-.29 1.49-.79 3.13-1.72 4.79-1.19 2.12-2.71 3.41-4.83 5.18-.7.58-1.92 1.61-2.51 2.19a11 11 0 0 1-7.58 4.96c-.6.09-1.22.14-1.83.14-7.23 0-11.69-6.01-16.41-12.37-.08-.11-.16-.21-.23-.31-.69-.38-1.53-.9-2.4-1.59-.83 8.88-6.19 12.43-10.85 13.82-2.1.63-4.16.95-6.12.95-5.05 0-9.55-2.08-12.67-5.85-4.27-5.17-4.74-12-4.28-17.13l-9.35.38h-.45c-5.53 0-10.24-4.13-10.91-9.67-.34-2.78-.09-5.14.46-7.13-.47-.1-.92-.22-1.37-.36a14.2 14.2 0 0 1-5.13-2.83c-3.17 3.78-8.31 9.5-16.72 9.5-.79 0-1.59-.05-2.38-.16-4.72-.63-8.56-3.12-10.99-6.95-1.66.77-3.54 1.25-5.72 1.25-1.32 0-2.64-.2-3.91-.59-10.23-3.15-9.82-14.83-9.55-22.56.03-.96.08-2.21.09-3.23-2.29-2.27-7.03-6.98-6.19-14.29.25-2.16.94-4.07 1.9-5.76-.81-.88-1.6-1.76-2.37-2.62-.13-.15-.27-.3-.41-.46-1.79-.09-4.18-.39-6.72-1.59-2.75-1.3-4.31-3.09-9.03-8.93-3.74-.09-7.06-1.18-9.86-3.24-1.98-1.45-3.63-3.5-6.17-6.73-.78-.99-2.09-2.65-2.55-3.12l-3.17-3.06c-5.56-5.36-11.3-10.9-17.05-16.08a11.1 11.1 0 0 1-3-4.47c-3.08-8.61-1.3-16.92 4.64-21.69a10.97 10.97 0 0 1 6.88-2.42h25.84c-.39-8.25-.42-24.8.45-28.38.79-3.25 2.66-5.38 4.41-6.73-.18-2.5-.34-5.78.71-9.2 1.08-3.52 3.22-5.82 5.15-7.32.08-2.17.53-4.91 2.15-7.63 1.12-1.89 2.56-3.19 3.88-4.11.16-1.61.54-3.54 1.49-5.57 1.17-2.49 2.84-3.95 5.85-6.59.77-.67 2.09-1.83 3.08-2.77.08-2.01.36-4.92 2.09-7.9.38-.65.78-1.23 1.21-1.75-.72-.35-1.4-.39-2.75-.48-3.2-.2-6.15-1.79-8.08-4.35-1.13-1.5-2.66-3.03-4.28-4.66-5.85-5.87-15.64-15.69-8.5-31.87.38-.85.86-1.65 1.43-2.38 1.98-2.51 5.58-5.47 11.66-5.81 1.79-2.24 4.45-4.53 8.37-5.43 1.06-.24 2.16-.37 3.29-.37 1.67 0 3.17.27 4.43.57 1.35-1.72 3.35-3.51 6.33-4.56 2.54-.89 4.9-1.32 7.21-1.32 6.53 0 10.55 3.38 12.83 6.04 1.18-.21 2.55-.4 4.07-.4 2.41 0 4.67.5 6.71 1.49 3.49 1.69 6.16 4.79 9.84 9.32.12.14.25.3.38.47h.27c1.9 0 3.6.25 5.2.75 1.84.58 3.31 1.48 4.49 2.47 1.21-.98 2.73-1.88 4.62-2.47 1.83-.56 3.8-.84 6.03-.84 1.13 0 2.19.07 3.16.14 1.99-2.39 5.36-5.05 11.08-5.84 6.91-.95 19.7-1.09 26.71-1.09 12.81 0 25.08.44 31.28 1.11 6.4.7 10.08 3.34 12.38 6.01.81-.04 1.71-.12 2.64-.19 1.82-.15 3.71-.3 5.64-.3 2.87 0 5.21.34 7.36 1.08 3.33 1.14 5.46 3.3 6.82 5.2 1.66.15 3.68.54 5.79 1.56 1.7.82 3.02 1.91 4.05 3.04 1.43.07 2.73.28 3.97.64 3.6 1.05 5.95 3.24 7.46 5.2 2.89.11 5.4.82 7.64 2.16 3.79 2.26 7.23 6.31 12.52 12.73 1.84 2.23 4.68 5.67 6.44 7.45 1.99.03 5.24.21 8.44 2.26 5.48 3.52 5.96 9.45 6.13 12.13 1.44 1.29 3.72 3.16 5.24 4.42 3.4 2.8 5.6 4.64 7.16 6.23.35-.89.76-1.7 1.22-2.47 1-1.65 2.23-2.84 3.38-3.71-.05-.92-.14-1.9-.21-2.7-.31-3.63-.66-7.73.29-11.62.97-3.97 3.6-6.28 5.67-7.62.14-1.66.5-3.78 1.58-6.03.83-1.71 1.93-3.05 3.07-4.08.19-2.58.92-5.76 3.19-8.85.71-.96 12.26-12.93 15.02-14.59 3.64-2.19 7.34-2.19 8.55-2.19h.04c.28-.35.56-.7.8-1.01 4.02-5.07 7.19-9.07 12.25-10.24.81-.19 1.65-.28 2.48-.28l36.92.3c.96 0 1.92.14 2.84.4 3.85 1.07 6.35 3.32 7.93 5.24 2.23.16 5.19.68 8.11 2.47 1.58.97 2.74 2.15 3.6 3.29 1.62.16 3.57.54 5.62 1.51 2.38 1.13 4 2.78 5.08 4.26 1.59.12 3.52.37 5.64 1.11q1.2.42 2.28 1.11c5.4 3.45 5.91 9.22 6.16 11.99.02.22.04.5.07.75 1.42 1.72 5.11 4.76 7.42 6.67 4.99 4.12 9.7 8.01 12.32 12.66 1.81 3.22 2.22 6.19 2.4 8.17 1.18 1.05 3.02 2.55 4.25 3.54 4.74 3.84 7.74 6.35 9.59 9.36 1.75 2.83 2.29 5.72 2.47 7.94 1.55 1.28 3.21 3.18 4.17 5.94 1.24 3.56 1.02 7.05.81 9.67 1.28.91 2.65 2.18 3.73 4 1.59 2.68 2.04 5.39 2.13 7.54 1.5 1.13 3.08 2.74 4.19 5.03 1.08 2.23 1.49 4.33 1.68 5.99a11 11 0 0 1 4.68 9.91l-.29 3.67c-.33 4.15-2.96 7.68-6.67 9.25-.05.06-.11.12-.15.18-.98 1.14-2.28 2.66-4.24 3.92l35.21 35.14c2.01 1.99 3.07 4.27 3.64 6.39 2.64.71 5.58 2.18 7.93 5.22 2.27 2.93 2.97 6.01 3.21 8.36 1.57 1.22 3.26 3.01 4.38 5.65 2.2 5.23 1.84 10.55 1.54 14.82-.04.53-.08 1.17-.11 1.8 2.81 2.27 4.46 5.24 4.92 8.88.99 7.93-.57 13.43-5.06 17.46-.08 3.14.14 8.41.3 12.19.67 15.78.82 23.6-3.24 29-.77 1.03-1.63 1.85-2.46 2.5v.34c1.12.83 1.97 1.77 2.62 2.72 1.87.07 3.63.51 5.25 1.32 2.29 1.14 3.85 2.73 4.95 4.21.92-.07 1.92-.13 2.99-.13 2.24 0 4.21.27 6.04.84 3.51 1.08 5.81 3.22 7.31 5.14 2.91.12 5.43.84 7.7 2.22 2.59 1.56 19.32 18.34 20.81 20.86 1.62 2.74 2 5.42 2.12 7.4 1.75 1.53 3.96 3.88 5.09 7.42.49 1.51.68 2.92.75 4.1 4 3.37 6.18 7.41 6.51 12.09 3.08 3.74 4.01 7.48 4.18 10.31.56 9.86-7.16 16.71-13.37 22.21-2.02 1.79-5.07 4.49-5.74 5.68a10.97 10.97 0 0 1-4.72 4.43c-2.5 1.22-5.32 1.82-8.64 1.82-1.26 0-2.42-.08-3.45-.15-.15 0-.29-.02-.43-.03-.15.19-.3.38-.43.54-3.13 3.96-6.68 8.45-11.82 10.18-2.51.85-5.39 1.26-8.8 1.26-2.64 0-5.33-.24-7.7-.45-1.39-.12-2.73-.25-3.87-.3-.78.98-1.8 2.02-3.12 2.92l2.53 2.6c.36-.02.75-.03 1.15-.03 2.79 0 5.18.59 7.31 1.79 2.15 1.21 3.31 2.65 6.36 6.62 3.14 4.1 4.01 5.36 4.63 7.41 3.15 10.4-1.21 16.2-4.24 19.03.04.87.11 1.83.17 2.65.13 1.87.28 3.87.25 5.95 1.54-.06 3.64-.09 6.54-.09 20.4 0 22.19 1.09 24.44 2.46 1.77 1.08 3.01 2.42 3.9 3.65 1.01-.08 2.13-.16 3.32-.16 2.37 0 4.45.32 6.36.99 3.77 1.32 6.16 4.1 10.42 9.33.11.13.22.27.34.42 1.25 0 4.91.02 8.51 2.19 1.97 1.18 9.05 8.26 10.23 10.23 1.63 2.72 2.09 5.43 2.18 7.6 1.49 1.12 3.07 2.73 4.18 5.03 1.19 2.46 1.51 4.81 1.62 6.57 1.4 1.36 3.01 3.37 3.94 6.23.57 1.75.86 3.25 1.04 4.43a11.01 11.01 0 0 1 5.45 9.46l.2 55.06c0 .46-.03.91-.08 1.36-.64 5.26-3.67 8.36-6.05 10.1.04.89.11 1.86.16 2.63.26 3.61.55 7.69-.39 11.74-.46 1.97-1.45 3.78-2.87 5.22L937.16 876a11 11 0 0 1-7.84 3.29h-2.15c-1.08 0-2.15-.16-3.19-.47-3.57-1.08-5.79-3.44-7.17-5.46-1.18-.09-2.7-.15-4.51-.15-.45 0-.89 0-1.31.01 1.32 1.29 2.6 3.01 3.38 5.3 1.27 3.71.99 7.33.78 9.97 0 .12-.02.24-.03.37 1.08 1.03 2.29 2.46 3.16 4.4.88 1.97 1.24 3.84 1.4 5.4 1.96 1.39 4.23 3.61 5.34 7.14.53 1.67.7 3.24.74 4.59 2.23 1.79 4.68 4.69 5.6 9.35.6 3.04.9 15.91-.47 20.4-1.13 3.67-3.4 6.01-5.38 7.5.04.65.09 1.31.13 1.86.41 5.5.92 12.34-3.22 17.84-.81 1.08-1.71 1.93-2.59 2.6.17 2.46.28 5.6-.69 8.87-1.43 4.81-5.28 8.05-8.67 10.91-.36.31-.81.68-1.23 1.04-.09 1.78-.35 4.33-1.64 6.99-1.26 2.61-3.07 4.3-4.54 5.44.4 3.36-.77 6.74-3.23 9.14-1.09 1.07-2.85 2.58-5.63 4.97-1.99 1.71-5.26 4.51-7.27 6.37.06 1.46.07 3.33-.36 5.44-.53 2.54-1.93 4.82-3.98 6.43-1.82 1.43-4.93 3.14-9.38 3.14-.42 0-.82-.01-1.2-.04-1.01 1.15-2.16 2.53-3.07 3.61-4.28 5.11-7.06 8.34-9.96 10.29-2.46 1.65-5.23 2.53-8.23 2.62-1.66 1.93-4.37 4.21-8.56 5.02-1.06.2-3.03.58-16.73.58-30.02 0-32.19-1.06-34.29-2.09-1.89-.93-3.27-2.15-4.29-3.35h-.5c-2.07 0-4.03-.45-5.81-1.34-3.52-1.76-15.84-14.89-16.89-16.68-1.81-3.07-2.07-6.05-2.15-8.08-1.21-1.15-3.09-2.76-4.35-3.83-5.46-4.66-8.89-7.72-10.59-11.71-1.02-2.4-1.3-4.65-1.4-6.32-1.43-1.26-3.47-2.96-4.88-4.12-2.47-2.06-4.37-3.64-5.85-5 .03 2.52-.17 5.13-.95 7.7-1.08 3.52-3.22 5.82-5.15 7.32-.08 2.17-.53 4.91-2.15 7.64-1.08 1.81-2.45 3.09-3.73 4 .21 2.62.43 6.12-.82 9.68-.9 2.59-2.4 4.43-3.89 5.72-.18 4.23-.28 10.73-.25 15.58l.97.15c3.73.58 6.91 3.03 8.41 6.49 1.05 2.42 1.34 4.72 1.4 6.56 1.31.93 2.72 2.24 3.81 4.12 1.36 2.33 1.84 4.66 2.01 6.53 6.49 5.24 5.08 12.8 4.4 15.25a11.02 11.02 0 0 1-4.37 6.12c.06 2.3.11 5.39-.87 8.9-1.06 3.79-3.2 6.21-5.14 7.75-.16 1.5-.5 3.32-1.31 5.23-1.58 3.72-4.58 6.22-7.76 8.87-.41.34-.91.76-1.37 1.15-.15 2.28-.62 5.79-3.11 9.25-1.25 1.73-2.89 3.15-6.03 5.73.98 1.13 1.88 2.53 2.49 4.29 2.9 8.3 1.12 15.17-5.29 20.48.05 1.02.15 2.19.23 3.11.31 3.61.65 7.71-.29 11.59-.79 3.25-2.66 5.38-4.41 6.73.22 3.21.39 7.44-1.74 11.71-.57 1.15-1.34 2.19-2.28 3.08l-12.63 11.97c-.16 3.93.05 8.26.27 12.79.34 6.96.69 14.16-.29 21.04-.84 5.86-3.67 9.21-6 11.11.03 1.55.17 3.48.27 4.85.31 4.25.64 8.64-.15 12.78-.91 4.8-3.71 7.87-5.7 9.67.02.29.05.57.07.81.21 2.44.48 5.47-.32 8.69-.84 3.39-2.84 5.56-4.69 6.93-.26 1.88-.84 4.24-2.23 6.72-2.1 3.72-6.16 7.14-12.62 12.33-.43.34-.91.73-1.38 1.11-.19 7.06-3.06 11.95-8.58 14.55-2.19 1.03-4.6 1.56-7.35 1.62-4.58 5.67-6.23 7.57-8.91 8.89-2.51 1.23-5.32 1.83-8.6 1.83-1.06 0-2.06-.06-2.97-.13-1.49 1.93-3.8 4.09-7.34 5.17-1.15.35-3.06.94-12.46.94Z" class="st0"/><path d="M366.92 248.53c5.01 0 5.41 5.31 8.2 6.17.71.22 1.44.31 2.17.31 2.29 0 4.59-.84 6.53-.84.69 0 1.33.1 1.91.39 2.69 1.3 8.03 9.34 9.72 10.35.84.5 1.82.62 2.83.62.91 0 1.85-.1 2.74-.1.66 0 1.3.05 1.89.24 2.33.74 2.24 5.18 6.11 5.73.54.08 1.04.11 1.5.11 5.41 0 5.25-4.94 8.05-5.81.85-.26 1.8-.35 2.79-.35 1.9 0 3.96.32 5.82.32.99 0 1.93-.09 2.74-.37 2.66-.91 1.52-4.96 7.18-5.74 5.02-.69 14.92-.99 25.21-.99 11.81 0 24.11.4 30.09 1.05 7 .76 5.24 4.69 8.42 5.66 1.1.34 2.41.45 3.83.45 3.06 0 6.62-.54 9.61-.54 1.43 0 2.73.12 3.78.48 2.11.73 2.44 4.23 4.28 5.12 2.19 1.06 4.92.08 7.1 1.13 1.64.79 1.9 3.53 2.54 3.9.49.28 1.16.36 1.93.36 1.02 0 2.19-.14 3.31-.14.69 0 1.37.05 1.96.23 2.68.78 2.94 4.8 5.09 5.48.59.19 1.23.24 1.89.24.89 0 1.83-.1 2.74-.1 1.01 0 1.98.12 2.83.62 4.59 2.74 14.16 17.05 19.26 20.64 2.71 1.91 6.02.45 7.83 1.61 1.77 1.13.43 5.72 2.17 8.41 1.75 2.71 13.95 11.58 15.12 13.65.98 1.72-.48 5.35.81 8.02 1.05 2.17 11.41 9.14 13.06 12.85l3.71-3.02c-.7-5.36-2.36-18.91.21-23.15.88-1.45 3.8-1.48 4.56-3.96 1.41-4.59-.91-12.66.19-17.17.29-1.2 3.7-1.93 4.82-3.67 1.7-2.66.53-5.48 1.64-7.77.8-1.64 3.53-1.9 3.9-2.54 1.1-1.91-.89-5.65 1.33-8.68.5-.67 11.11-11.24 11.83-11.67.84-.5 1.84-.62 2.88-.62.82 0 1.66.07 2.48.07 1.04 0 2.04-.11 2.87-.61 1.97-1.18 7.94-10.46 10.22-10.99l36.83.3c3.05.84 3.39 4.42 5.44 5.17 2.18.8 5.35-.18 7.79 1.31 1.29.79 1.57 3.47 3.12 4.21 2.21 1.05 4.91.09 7.12 1.14 1.66.79 1.75 3.72 3.76 4.53 2.55 1.04 5.45.37 8.03 1.28 1.64 1.05.6 5.59 2.19 8.38 3.61 6.3 16.83 14 20.12 19.84 1.71 3.03.43 5.87 2.21 8.41 2.29 3.27 12.35 9.96 14.25 13.03 1.51 2.45.51 5.66 1.31 7.8.75 2.02 3.65 2.01 4.31 3.91 1.16 3.34-.96 8.75.75 12.18.87 1.74 3.95 2.21 4.72 3.5 1.39 2.35-.23 5.89 1.16 8.24.77 1.3 3.89 1.77 4.72 3.5 1.8 3.71-1.07 7.75 5.3 10.23l-.29 3.66c-2.85.51-4.45 4.04-6.13 5.01-4.49 2.58-12.6-.55-9.46 9.3l42.94 42.85c1.98 1.93.21 7.11 2.2 8.38 2.02 1.29 6.34-.56 8.43 2.15 1.72 2.22.51 5.45 1.62 7.8.78 1.64 3.67 1.73 4.53 3.77 2.19 5.2-.51 12.9.99 17.73.91 2.93 4.21 1.97 4.57 4.87 1.3 10.37-3.8 6.97-4.76 11.82-1.53 7.68 2.14 34.54-1.1 38.85-1.01 1.34-3.98 1.66-4.61 3.61-.72 2.24.5 5.57-.43 7.22-.44.79-6.22 2.64-5.62 5.51.88 1.51 2.54 1.86 4.31 1.86 1.53 0 3.14-.26 4.39-.26.71 0 1.3.08 1.71.34.69.44.39 3.51 2.12 4.65.86.57 1.74.75 2.6.75 1.46 0 2.85-.52 3.93-.52.34 0 .64.05.91.18 1.76.88 2.2 4.45 4.3 5.17.82.28 1.75.37 2.75.37 1.84 0 3.89-.31 5.78-.31 1 0 1.95.09 2.81.35 2.74.84 2.95 4.8 5.1 5.47.59.18 1.22.24 1.87.24.89 0 1.82-.1 2.72-.1 1.01 0 1.99.12 2.85.64 1.03.62 16.42 16.01 17.03 17.04 1.13 1.91.19 4.7 1.2 7.03.81 1.87 4.2 3.04 5.01 5.56.61 1.89-.11 4.27.83 6.22 1.31 2.72 7.68 3.04 5.48 10.97 14.08 9.86-7.95 19.42-13.07 28.4-1.11.54-2.42.7-3.8.7-1.76 0-3.65-.25-5.4-.25-1.38 0-2.68.15-3.77.7-2.14 1.07-6.98 9.49-10.48 10.67-1.51.51-3.33.68-5.29.68-4.19 0-9.02-.79-12.8-.79-2.34 0-4.28.3-5.42 1.28-1.2 1.03-1.51 3.26-3.2 3.85-.91.32-2.04.42-3.27.42-2.39 0-5.17-.4-7.49-.4-.64 0-1.24.03-1.79.11l-1.6 3.02 17.75 18.25c.92.93 2.19 1.15 3.51 1.15 1.12 0 2.27-.15 3.28-.15.74 0 1.39.08 1.9.37.42.24 5.72 7.17 5.86 7.63 2.59 8.57-3.76 7.83-4.47 11.5-.91 4.72.89 11.3-.17 16.28l-11 10.16c-1.58 3.1 3.48 3.92 7.99 3.92 2.67 0 5.15-.29 5.95-.56 2.4-.83 2.05-4.87 6.09-5.67.99-.2 4.59-.29 8.87-.29 7.77 0 17.81.31 18.72.86 1.49.91 1.7 4.26 4.33 5.07.85.26 1.81.35 2.8.35 1.9 0 3.97-.32 5.81-.32.99 0 1.92.09 2.73.37 1.74.61 7.69 9.03 8.99 9.81.84.5 1.84.61 2.89.61.81 0 1.65-.07 2.47-.07 1.04 0 2.04.11 2.88.61.4.24 6.22 6.07 6.46 6.46 1.32 2.2.04 5.17.77 7.46.66 2.1 4.22 2.4 5.12 4.28 1.03 2.14.16 4.82 1.17 7.06.67 1.49 3.14 2.22 3.85 4.38 1.62 4.97-.62 6.72 5.94 10.51l.2 55.06c-.41 3.37-4.77 3.16-5.66 6.09-1.41 4.6.76 12.2-.41 17.22L929.3 868.3h-2.14c-1.61-.49-2.22-3.73-3.54-4.72-1.2-.9-6.17-1.37-11.32-1.37-5.85 0-11.93.62-12.97 1.94-1.52 1.93-1.59 10.37-.84 12.82.83 2.73 4.71 2.91 5.47 5.11 1.07 3.12-.61 7.89.43 11.33.61 2.03 3.2 2.87 3.86 4.36 1.01 2.24.14 4.92 1.17 7.06.91 1.88 4.46 2.18 5.12 4.28.71 2.26-.53 5.29.77 7.46 1.05 1.77 4.49 1.34 5.27 5.3.44 2.21.41 13.07-.2 15.04-.84 2.73-4.71 2.91-5.47 5.11-1.6 4.67 1.66 14.81-1.27 18.71-1.01 1.35-3.91 1.61-4.6 3.62-1.07 3.11.6 7.86-.43 11.32-.92 3.09-8.56 7.51-9.73 10.25-.99 2.32-.18 4.99-1.18 7.05-1.37 2.84-7.7 3.07-5.55 11.5-2.61 2.55-14.62 12.23-15.63 14.31-1.25 2.57-.16 5.47-.7 8.1-.77.61-1.66.79-2.58.79-1.4 0-2.88-.43-4.1-.43-.51 0-.98.07-1.39.29-2.79 1.45-11.34 13.5-14.86 15.86-.9.6-1.77.76-2.62.76-.97 0-1.91-.21-2.82-.21-.58 0-1.14.08-1.7.35-2.6 1.23-2.54 4.49-5.6 5.08-1.37.26-7.43.39-14.64.39-12.4 0-28.21-.36-29.46-.97-1.68-.82-1.79-3.75-3.8-4.56-.69-.28-1.37-.37-2.03-.37-1.45 0-2.77.48-3.8.48-.34 0-.64-.05-.92-.19-.78-.39-11.88-11.67-12.32-12.42-1.13-1.91-.19-4.7-1.2-7.02-1.59-3.65-13.7-11.7-15.24-15.31-.99-2.32-.18-4.98-1.18-7.05-1.15-2.39-14.31-12-15.63-14.32-.93-1.63.29-4.98-.43-7.23-.65-2.05-4.25-2.45-5.13-4.27-1.26-2.61.43-9.39-2.88-9.39-.73 0-1.7.33-3 1.11-1.79 2.6.43 9.97-.74 13.36-.7 2.05-3.91 1.66-4.53 4.87-.89 4.61 1.14 11.88-.2 16.25-.84 2.74-4.79 2.95-5.47 5.1-.71 2.26.53 5.29-.77 7.46-.77 1.29-3.85 1.77-4.72 3.5-1.71 3.42.41 8.84-.75 12.18-.63 1.82-3.2 1.97-3.93 3.12-.82 1.28-1.15 27.61-.42 29.8l1.76 1.77 8.14 1.26c1.14 2.63-.18 5.74 1.07 8.33.83 1.71 3.96 2.19 4.72 3.5 1.17 2.01.1 4.91 1.15 7.09 1.09 2.27 5.55 1.27 4.17 6.21-7.42 3.23-3.54 8.94-5.24 15.02-.84 3.01-3.96 2.77-4.8 4.56-.99 2.1-.19 4.74-1.18 7.07-1.08 2.55-8.27 6.89-9.36 9.44-1.08 2.53.02 5.34-1.69 7.71-1.23 1.7-9.97 8-10.49 9.5-2.62 7.58 4.54 7.83 5.5 10.57 2.98 8.53-4.43 8.44-5.46 11.78-1.42 4.61.9 12.66-.19 17.17-.34 1.39-3.69 1.32-4.51 3.98-1.1 3.55.88 8.79-.79 12.14l-15.69 14.86c-1.45 11.77 1.34 25.9-.29 37.36-.79 5.55-4.64 4.35-5.56 7.33-1.61 5.22.86 15.1-.24 20.92-.69 3.6-4.81 4.62-5.61 7.32-1.04 3.5.55 8.17-.22 11.27-.33 1.35-3.33 1.42-4.16 3.14-1.09 2.26-.03 4.83-1.67 7.75-2.02 3.59-14.18 12.06-15.1 13.68-1.24 2.21 1.37 7.89-2.58 9.76-.96.45-2.04.57-3.11.57s-2.06-.11-2.95-.11c-.76 0-1.44.08-1.94.36-.56.32-7.25 9.18-8.42 9.76-1.1.54-2.39.7-3.75.7-1.88 0-3.89-.3-5.7-.3-.99 0-1.91.09-2.73.37-2.2.75-2.38 4.63-5.11 5.47-.99.3-4.91.45-9.23.45-5.84 0-12.41-.27-13.48-.81-1.88-.94-2.2-4.46-4.28-5.12-.59-.19-1.23-.24-1.89-.24-.9 0-1.83.1-2.74.1-1.01 0-1.98-.12-2.83-.62-1.12-.67-6.7-8.49-8.23-9.4-2-1.19-4.77-.07-7.7-1.7-4.36-2.44-14.98-16.47-19.31-20.64l-8.31-1.09c-1.69-1.13-.68-5.39-1.7-7.71-1.23-2.81-9.36-7.85-10.54-10.61-.99-2.33-.18-5.01-1.17-7.07-.83-1.72-3.83-1.79-4.16-3.14-.6-2.46-.3-12 1.14-13.97 1.15-1.58 8.78-6.85 9.27-8.31.69-2.03.66-12.89-.91-13.99l-39.45-.5-10.75-10.41-18.04-.76c-9.83-10.93-20.61-20.89-30.64-31.64-.89-.96-2.8-1.42-3.5-2.37-2.22-3.01-.22-6.7-1.34-8.67-.25-.44-2.38-1.05-3.28-1.94-2.73-2.67-16.18-15.28-17-17.12-4.03-9.02 4.19-8.89 4.17-12.34l-4.79-5.85.03-64.63c-.4-3 4.4-3.59 4.71-4.96.49-2.19-.83-5.12.55-7.42.24-.4 6.06-6.22 6.46-6.46.85-.51 1.81-.63 2.8-.63.92 0 1.87.11 2.78.11.65 0 1.29-.05 1.87-.24 1.97-.62 2.27-3.6 3.62-4.61 1.36-1.02 3.75-1.32 6.54-1.32 3.89 0 8.56.58 12.3.58 1.8 0 3.38-.13 4.56-.53 2.11-.72 3.14-5.69 5.56-5.69.13 0 .26.01.4.04 2.11.82 2.81 4.39 4.22 5.24 1.33.81 4.51 1.06 8.55 1.06 7.08 0 16.79-.79 23.73-.79 2.9 0 5.32.14 6.86.53 2.08.64 7.92 9.44 10.51 10.71.77.38 1.56.51 2.38.51 1.97 0 4.08-.78 6.43-.78 1.12 0 2.29.18 3.52.7 1.63.69 7.51 9 9.92 10.1 1.49.68 3.04.85 4.57.85s3.11-.18 4.54-.18c.99 0 1.93.09 2.79.38 1.9.65 2.39 4.41 5.41 5.21.23.06 2.5.09 4.76.09s4.53-.03 4.76-.09c2.93-.77 3.27-3.94 4.65-4.79.89-.55 5.95-.82 10.52-.82 3.41 0 6.54.15 7.46.43 2.58.8 2.65 3.81 3.38 4.23.9.52 1.67.75 2.33.75 3 0 3.52-4.79 2.16-8.12-1.81-4.43-6.15-2.76-4.71-10.57.72-3.89 4.35-3.5 4.71-4.97 1.37-5.55-1.19-16.01-.03-22.1.67-3.52 4.77-3.17 5.66-6.09 1.4-4.6-.76-12.2.41-17.22 4-1.83 10.14-11.84 12.75-13.2.43-.23.88-.31 1.33-.31 1.16 0 2.38.52 3.69.52.55 0 1.11-.09 1.69-.35.44-.2 6.89-6.05 7.13-6.47.93-1.63-.29-4.98.43-7.23.67-2.09 4.22-2.4 5.12-4.28.99-2.06.19-4.73 1.18-7.05 1.09-2.56 8.15-6.79 9.36-9.44 2.4-5.28-.93-16.95.83-22.68.84-2.73 4.71-2.91 5.47-5.11 1.47-4.29-1.01-12.61.4-17.23.81-2.66 4.3-2.31 5.16-5.39 1.04-3.76-.21-7.82.74-11.04.66-2.26 3.84-2.93 4.44-6.13.59-3.15-.76-7.52.21-10.36.72-2.11 4.23-2.45 5.12-4.28 1-2.08.17-4.76 1.17-7.05.83-1.89 4.2-3.05 5.01-5.57.61-1.9-.11-4.3.82-6.24.79-1.64 3.53-1.9 3.9-2.54.92-1.6-.3-4.99.42-7.23.67-2.09 4.22-2.4 5.12-4.28 1-2.08.17-4.76 1.17-7.05 1.56-3.55 9.46-5.78 3.31-12.99l-11.57.03c-3.21.61-3 4.65-7.28 5.64-.97.22-2 .31-3.05.31-3.9 0-8.06-1.22-10.56-1.22-.45 0-.84.04-1.17.13-2.61.73-2.93 4.79-5.13 5.54-.81.28-1.74.37-2.72.37-1.82 0-3.84-.31-5.72-.31-1.35 0-2.64.16-3.72.7-1.85.93-2.19 4.39-4.29 5.11-1.24.43-2.87.57-4.71.57-4.21 0-9.51-.78-13.71-.78-1.84 0-3.47.15-4.7.58-1.69.59-1.99 2.82-3.2 3.85-1.21 1.04-2.8 1.36-4.58 1.36-3.07 0-6.7-.98-9.9-.98-1.85 0-3.55.33-4.92 1.36-1.35 1.02-1.61 3.91-3.62 4.6-1.05.36-2.35.49-3.78.49-2.98 0-6.52-.53-9.58-.53-1.43 0-2.75.12-3.85.46-2.73.84-2.91 4.71-5.11 5.47-1.25.43-2.88.58-4.72.58-4.2 0-9.48-.77-13.67-.77-1.84 0-3.48.15-4.72.58-2.01.69-2.28 3.57-3.62 4.6-1.01.77-2.05 1.1-3.13 1.1-7.17 0-15.58-15.03-21.11-18.17-2.62-3.51-.04-9.11-1.3-12.8-.72-2.11-4.23-2.45-5.12-4.28-1-2.08-.17-4.77-1.17-7.05-.75-1.7-3.88-3.01-4.66-4.74-.94-2.07-1.23-29.05-.62-32.31.67-3.52 4.77-3.17 5.66-6.09 1.09-3.57-.88-8.81.79-12.14.61-1.22 9.26-7.58 9.76-8.44 1.17-2.05-1.03-6.56 1.4-8.62l9.34-2.36 46.43-47.69c.6-.46 1.23-.6 1.89-.6 1.08 0 2.25.38 3.5.38.84 0 1.72-.17 2.63-.75 2.8-1.76 10.65-13.7 13.43-15.44.77-.48 1.5-.64 2.2-.64 1.37 0 2.61.6 3.74.6.21 0 .42-.02.62-.07 2.58-.62 2.94-4.82 5.11-5.5.59-.18 1.22-.24 1.88-.24.96 0 1.96.12 2.92.12.66 0 1.3-.06 1.89-.25 1.75-.57 2.26-3.76 4.55-4.84 2.69-1.27 6.25-.25 7.72-1.1.42-.24.98-2.29 1.96-3.27 2.12-2.11 5.5-1.94 4.04-6.95-1.31-.63-2.96-1-4.58-1-1.38 0-2.74.27-3.83.88-2.29 1.29-.82 4.91-3.71 4.91-.35 0-.77-.05-1.27-.17-3.31-.79-2.9-3.91-4.89-4.56-.57-.19-1.2-.24-1.84-.24-.91 0-1.86.11-2.8.11-1.27 0-2.5-.2-3.48-1.14-.85-1.22-.9-11.72-.32-13.4.72-2.11 4.23-2.45 5.12-4.28 1.03-2.14.16-4.81 1.17-7.06 1.41-3.15 8.45-7.19 2.17-12.78h-.17c-2.19 0-5-.37-7.53-.37-1.34 0-2.61.1-3.66.42-2.91.89-2.57 5-6.08 5.67-.83.16-1.78.22-2.79.22-3.02 0-6.65-.52-9.67-.52-1.46 0-2.77.12-3.8.48-2.46.86-1.69 4.9-8.39 5.71-3.44.41-11.25.66-19.17.66-8.52 0-17.15-.29-20.58-.96-1.85-.36-7.74-6.48-8.43-7.97-2.5-5.44 2.15-22.96-2.96-25.31-.29-.13-.61-.19-.95-.19-1.06 0-2.33.49-3.74.49-.85 0-1.76-.18-2.69-.77-.75-.47-11.63-12.21-11.98-13.02-.95-2.2-.19-4.51-.8-6.25-.76-2.14-3.89-1.67-4.52-4.88-.39-2.01-.44-15.66-.01-17.41.16-.66 9.5-7.93 10.03-9.03 1.22-2.52-.31-6.41 2.21-8.37 2.19-1.78 5.59-.37 7.75-1.65 1.17-.7 1.57-3.38 3.86-4.47.55-.26 1.13-.34 1.73-.34.96 0 1.95.21 2.94.21.86 0 1.71-.16 2.51-.74 3.67-2.66.78-6.75 2.13-9.11.24-.42 6.64-6.23 7.07-6.43 2.55-1.17 7.42-.27 8.62-1.95 2.26-8.14-1.98-9.5-7.39-9.5-2.71 0-5.72.34-8.34.34-1.57 0-3-.12-4.14-.52-1.7-.59-2.21-3.32-3.88-4.45-.65-.44-1.31-.57-1.98-.57-.99 0-1.98.29-2.91.29-.48 0-.94-.08-1.38-.31-2.13-1.12-2.5-5.46-5.34-5.46-.32 0-.67.05-1.05.17-.93 2.68-5.91 5.41-6.64 6.61-1.58 2.59-.4 6.25-1.71 8.58-.52.94-5.99 4.74-7.01 6.83h-.12c-2.18 0-7.49-7.99-9.11-9.94-.83-1-3.03-1.32-3.72-2.72-2.27-4.6 2.53-13.58-4.66-15.3-1.09 2.75-6.25 6.39-7.06 8.24-1.01 2.29-.17 5-1.17 7.07-.79 1.64-3.53 1.9-3.9 2.54-1.32 2.3 1.7 8.6-3.42 10.13-1.11.33-2.1.49-2.98.49-6.28 0-6.73-7.88-5.6-13.78.66-3.45 4.29-3.15 5.31-5.26 1-2.07.17-4.76 1.17-7.05 1.44-3.28 9.72-6.38 3.49-12.94-.44-.11-.81-.16-1.12-.16-1.51 0-1.78 1.14-2.79 2.1-4.55 4.34-8.79 9.32-13.08 13.93l-14.13.57c-.88-7.25 6.43-4.8 4.71-13.51-.51-2.57-2.57-3.11-5.07-3.11-1.77 0-3.76.27-5.56.27-.97 0-1.88-.08-2.67-.32-2.72-.84-2.9-4.7-5.11-5.47-.92-.32-1.77-.47-2.57-.47-7.3 0-10.09 12.13-17.4 12.13-.3 0-.6-.02-.92-.06-6.68-.9-3.51-11.86-4.18-16.48-.53-.23-1.04-.33-1.54-.33-5.08 0-8.38 11.01-12.45 11.01-.22 0-.45-.03-.68-.1-3.49-1.07-.88-15.29-2.02-19.14-1.47-4.95-12.78-7.65.17-15.63l-.48-2.86c-3.89-.79-10.54-10.29-12.34-11.15-2.21-1.05-4.9-.1-7.12-1.15-1.12-.53-7.86-9.45-8.42-9.76-.5-.28-1.12-.37-1.81-.37-.9 0-1.93.14-3 .14-1.29 0-2.63-.2-3.86-1.11-1.6-1.18-5.63-7-7.58-8.87-6.78-6.52-13.54-13.13-20.53-19.42-1.07-2.98-1.48-7.28 1.17-9.4h41.71c1.75-5.38-4.04-5.3-4.71-8.8-.51-2.65-.56-25.7-.01-27.99.34-1.39 3.69-1.32 4.51-3.98 1.03-3.34-.6-7.96.43-11.32.84-2.74 4.79-2.95 5.47-5.1.71-2.26-.53-5.29.77-7.46.77-1.3 3.89-1.77 4.72-3.5 1.06-2.19.1-4.89 1.14-7.1.5-1.07 8.34-6.97 9.4-9.38 1.02-2.3.08-5.14 1.18-7.04 1.46-2.52 9.06-3.63 4.19-11.25-5.36-4.52-6.94-6.99-14.54-7.48-6.31-8.36-16.98-13.03-11.5-25.45 1.09-1.38 2.63-1.66 4.2-1.66 1.08 0 2.17.13 3.14.13.75 0 1.42-.08 1.94-.37.75-.41 1.77-4.8 4.58-5.44.26-.06.54-.09.83-.09 1.97 0 4.43 1.25 6.96 1.25 1.27 0 2.56-.32 3.82-1.26 1.35-1.02 1.6-3.88 3.62-4.59 1.41-.49 2.59-.7 3.58-.7m.11-21.91c-3.53 0-7.18.65-10.85 1.94-2.52.88-4.65 2.07-6.44 3.38h-.69c-1.95 0-3.88.22-5.75.64-4.23.97-7.97 2.91-11.19 5.8a26.17 26.17 0 0 0-15.01 9.34 22.2 22.2 0 0 0-2.87 4.76c-5.55 12.59-3.26 22.86-.35 29.26 3.04 6.7 7.71 11.39 11.13 14.81 1.34 1.35 2.61 2.62 3.29 3.52 1.17 1.55 2.52 2.91 4.01 4.08-2.6 2.37-4.86 4.77-6.59 8.44-.73 1.55-1.26 3.06-1.64 4.47-1.14 1.19-2.25 2.6-3.24 4.27a25.9 25.9 0 0 0-3.1 7.99 25.1 25.1 0 0 0-5.25 9.36c-.9 2.93-1.23 5.72-1.3 8.14a22.8 22.8 0 0 0-3.99 8.42c-.51 2.09-1.03 4.26-1.01 19.07v.9h-14.59c-5 0-9.86 1.71-13.76 4.84-9.57 7.68-12.76 21.02-8.12 33.98 1.23 3.43 3.29 6.5 5.99 8.93 5.61 5.05 11.04 10.29 16.79 15.83.96.92 1.92 1.85 2.87 2.77.43.5 1.26 1.56 1.83 2.28 2.7 3.42 5.02 6.37 8.3 8.78 3.21 2.36 6.77 3.95 10.66 4.76 3.38 4.03 6 6.58 10.03 8.49.43.2.85.39 1.27.56-.53 8.26 3.03 14.46 6.12 18.33-.09 2.83-.15 5.94.14 9.03 1.56 17.05 13.58 22.04 17.22 23.16 2.32.71 4.72 1.08 7.15 1.08.67 0 1.33-.03 1.97-.07 3.69 3.02 8.21 5 13.28 5.68 1.27.17 2.57.26 3.85.26 5.25 0 9.64-1.34 13.28-3.25 3.24 8.01 11.01 13.54 19.91 13.73 1.07 4.84 3.11 9.17 6.07 12.76 5.17 6.25 12.88 9.84 21.15 9.84 3.03 0 6.15-.47 9.27-1.41 3.93-1.17 7.4-3.13 10.26-5.72 2.34 2.08 5 3.88 8.09 5.09-4.85 4.14-8.36 7.62-9.96 14.15-.54 2.2-.95 4.62-.93 13.89.02 9.35.45 11.59.71 12.94.64 3.32 2.09 7.45 5.25 11.33.34 1.38.82 2.86 1.48 4.39 1.58 3.64 3.28 5.67 9.86 12.8 6.09 6.59 7.82 8.24 9.87 9.61-.12 5.45.24 11.25 2.78 16.79.68 1.47 2.26 4.93 8.34 10.91 5.66 5.57 10.4 8.4 15.84 9.47 4.63.91 12.98 1.37 24.81 1.37 3.52 0 15.49-.06 21.79-.82 3.11-.37 5.99-1.11 8.65-2.19v.08c.06 4.01.32 7.51 1.08 10.7-.09.06-.18.11-.27.17-4.7 2.94-7.94 7.1-12.42 12.86-3.93.7-7.61 2.32-10.81 4.78-.83.64-1.6 1.33-2.33 2.08l-42.09 43.23-3.31.83c-3.26.82-6.29 2.38-8.85 4.56-4.35 3.69-7.3 8.79-8.44 14.5-3.71 3.09-6.22 5.62-8.16 9.51-2.22 4.45-2.88 8.81-3 12.39-2.76 3.33-4.56 7.2-5.39 11.58-.27 1.43-.91 4.79-.66 21.03.26 17.11 1.03 20.45 2.86 24.48 1.13 2.49 2.56 4.52 3.97 6.14.4 1.86 1.03 3.93 2.07 6.09.89 1.85 1.94 3.44 3.05 4.8.23 4.59 1.42 10.36 5.55 15.9 1.47 1.96 3.25 3.67 5.27 5.04.78.81 2.17 2.42 3.13 3.54 6.31 7.34 15.84 18.43 30.34 18.43 5.96 0 11.65-1.94 16.46-5.61.14-.11.29-.22.43-.33 2.55.21 5.4.43 8.26.43 4.58 0 8.34-.56 11.85-1.76 3.14-1.07 5.67-2.64 7.69-4.33 1.18.07 2.43.13 3.72.13 4.08 0 7.66-.55 10.95-1.69 2.93-1.01 5.33-2.43 7.29-3.98 1.24.12 2.57.2 3.98.2 8.04 0 13.75-2.77 17.43-5.49h.1c2.65.22 5.65.46 8.66.46 4.58 0 8.35-.56 11.87-1.77 3.13-1.08 5.66-2.64 7.68-4.33 1.04-.03 2.05-.11 3.04-.23a25 25 0 0 0-2.57 4.5c-.6 1.38-1.05 2.71-1.39 3.98a24.4 24.4 0 0 0-5.57 9.07c-1.3 3.79-1.59 7.37-1.55 10.3a24.8 24.8 0 0 0-3.4 7.14c-.82 2.79-1.13 5.37-1.23 7.61a24.7 24.7 0 0 0-4.59 8.59c-1.51 4.95-1.54 9.77-1.3 13.78a25.1 25.1 0 0 0-4.56 8.54c-2.04 6.64-1.56 13.1-1.14 18.8 0 .11.02.22.02.33-3.04 2.68-6.24 6.04-8.28 10.84-.54 1.27-.95 2.5-1.26 3.67a23.9 23.9 0 0 0-5.57 9.04c-1.25.41-2.47.93-3.65 1.55-5.2 2.71-8.45 6.74-11.9 11-.78.96-1.97 2.44-2.76 3.32a22.03 22.03 0 0 0-9.36 13.42c-1.06 4.59-1.02 8.87-.81 12.54-2.79 3.34-4.61 7.23-5.45 11.65-1.09 5.77-.66 11.47-.26 16.52a26 26 0 0 0-3.26 6.28c-4.24.41-7.31 1.2-10.05 2.52-.96-.49-2-.93-3.13-1.31-2.84-.97-5.82-1.47-9.09-1.54-3.12-3.61-6.27-6.93-11.22-9.03-3.69-1.57-7.62-2.4-11.69-2.45-3.44-3.94-7.33-7.64-13.3-9.48-.35-.11-.69-.2-1.05-.29-3.29-.84-7.08-1.21-12.29-1.21-3.97 0-8.45.21-12.79.42-2.75.13-5.56.26-8.04.33-2-1.81-4.53-3.54-7.7-4.77-1.07-.42-2.17-.75-3.29-.99-1.67-.36-3.38-.55-5.07-.55-5.81 0-11.29 2.08-15.73 5.91-2.09-.14-4.37-.27-6.68-.27-5.21 0-12.93.59-19.77 5.74-.42.31-.81.63-1.19.95-2.85.61-5.52 1.66-7.99 3.14-2.52 1.52-4.04 2.99-7.53 6.49-3.47 3.47-4.93 4.98-6.43 7.46a26.1 26.1 0 0 0-3.25 8.37c-3.62 4.62-5.45 10.27-5.18 16.12l-.03 63.88c0 1.93.25 3.84.74 5.68-1.59 5.11-2.22 12.52 1.8 21.5 2.11 4.71 4.62 7.52 19.22 21.48.04.04.08.07.12.11.72 3.17 2.09 6.71 4.66 10.2 2.38 3.23 5.13 5.26 7.17 6.5 4.07 4.29 8.19 8.43 12.2 12.45 5.69 5.71 11.07 11.11 16.14 16.74a21.96 21.96 0 0 0 15.43 7.26l9.67.41 4.73 4.58a21.97 21.97 0 0 0 15.03 6.19l8.74.11c-.31 1.87-.53 3.91-.67 6.15-.34 5.59-.08 10.21.78 13.73.72 2.96 2.2 6.54 5.18 9.86.32 1.19.73 2.45 1.28 3.75 2.36 5.55 6.29 9.24 10 12.4.02.08.03.16.05.23 1.36 6.44 4.99 11.9 10.24 15.39 2.8 1.86 5.99 3.06 9.33 3.5l.24.03c.33.39.65.76.94 1.1 7.67 9 12.67 14.69 18.56 17.99a29.4 29.4 0 0 0 6.93 2.78c2.72 3.37 4.94 5.91 8.45 8 2.44 1.46 5.08 2.49 7.9 3.1a24.2 24.2 0 0 0 5.31 3.59c3.66 1.83 7.48 3.12 23.3 3.12 10.22 0 13.15-.64 15.69-1.42a25.1 25.1 0 0 0 8.58-4.59c4.39-.18 8.31-1.14 11.95-2.93 3.89-1.91 6.45-4.41 9.74-8.33 2.23-.44 4.34-1.14 6.37-2.1 7.15-3.38 12.3-9.77 14.14-17.54.11-.45.2-.89.28-1.32 6.2-5.05 10.3-8.81 13.05-13.68 1.26-2.24 2.1-4.42 2.66-6.4a22.76 22.76 0 0 0 5.36-10.01c.74-3.02.9-5.81.85-8.19 2.16-2.81 4.29-6.63 5.23-11.58 1.05-5.53.67-10.86.32-15.57 3-3.83 4.89-8.4 5.64-13.66 1.13-7.93.74-16.01.39-23.14-.13-2.6-.25-5.13-.29-7.48l9.24-8.75c1.87-1.77 3.41-3.85 4.55-6.15 2.2-4.42 2.87-8.76 2.99-12.32 2.22-2.92 3.39-5.93 4-8.45 1.15-4.76 1.01-9.27.72-13.11 7.97-9.6 6.63-20.39 4.92-26.39.52-.59 1.01-1.21 1.48-1.87 2.52-3.5 3.79-7 4.45-9.95 3.24-2.79 6.79-6.29 8.98-11.45.6-1.42 1.04-2.79 1.37-4.08 2.6-2.91 4.46-6.33 5.55-10.24.73-2.62 1.06-5.05 1.2-7.16 1.84-2.3 3.23-4.96 4.04-7.87 2.9-10.42-.76-17.97-3.21-21.54-.51-.74-1.04-1.43-1.58-2.07-.53-2.08-1.37-4.36-2.71-6.66-.89-1.52-1.87-2.84-2.89-3.96-.35-1.73-.89-3.61-1.73-5.55a22.06 22.06 0 0 0-8.44-9.85c.02-1.24.04-2.47.07-3.62a24.2 24.2 0 0 0 3.42-6.48c1.1-3.15 1.49-6.16 1.57-8.76.71-.87 1.4-1.84 2.04-2.92a26 26 0 0 0 2.41-5.37c2.96 4.93 7.35 8.68 11.95 12.61.33.28.69.59 1.07.91.49 2.45 1.39 5.32 3.11 8.23 1.38 2.35 2.48 3.7 9.33 10.63 6.72 6.81 8.65 8.58 12.14 10.31 2.07 1.03 4.26 1.75 6.53 2.14 1.2.92 2.57 1.8 4.13 2.56 4.74 2.32 8.9 2.64 19.59 2.95 5.65.17 12.97.27 19.56.27 14.75 0 17-.43 18.81-.78 4.3-.83 8.13-2.63 11.45-5.37a26.5 26.5 0 0 0 9.39-3.93c4.04-2.71 7.32-6.46 12.22-12.3 5.46-.82 9.48-3.16 12.06-5.19 4.09-3.21 6.9-7.76 7.95-12.85.19-.9.32-1.76.41-2.58 1.3-1.13 2.63-2.27 3.61-3.11 3.04-2.61 4.82-4.14 6.16-5.45 3.39-3.32 5.56-7.58 6.31-12.12 1.3-1.5 2.6-3.34 3.67-5.56 1.05-2.17 1.68-4.26 2.08-6.13 3.78-3.3 8.09-7.74 10.09-14.45.81-2.72 1.13-5.31 1.23-7.6l.3-.39c5.6-7.44 5.93-15.68 5.61-22.02 1.82-2.23 3.5-5.04 4.58-8.56.83-2.69 1.39-6.05 1.46-13.69.07-8.12-.5-10.99-.71-12.07-.73-3.68-2.36-8.19-5.92-12.32-.18-.9-.41-1.83-.72-2.8-1.31-4.16-3.48-7.3-5.74-9.62-.22-.83-.49-1.68-.82-2.56h.35c5.9 0 11.55-2.37 15.68-6.57l12.25-12.46c2.84-2.89 4.83-6.5 5.74-10.45 1.06-4.56 1.03-8.82.82-12.48 3.16-3.73 5.05-8.13 5.66-13.17.11-.9.16-1.81.16-2.72l-.2-55.06a21.98 21.98 0 0 0-6.51-15.54c-.15-.55-.32-1.13-.52-1.72-1-3.05-2.43-5.53-3.91-7.51a27 27 0 0 0-2.19-6.65 24.6 24.6 0 0 0-3.71-5.58c-.53-2.46-1.48-5.18-3.13-7.94-1.51-2.52-2.99-4.04-6.48-7.52-3.49-3.49-5.01-4.97-7.53-6.48-2.61-1.57-5.47-2.65-8.55-3.23-3.57-4.2-7.19-7.7-12.74-9.64-2.75-.96-5.63-1.48-8.79-1.58-.81-.67-1.7-1.31-2.69-1.91-5.13-3.13-9.98-3.53-17.34-3.83-1.6-.06-3.37-.12-5.21-.16 2.86-7.58 1.64-15.04.2-19.79-1-3.31-2.49-5.67-4.6-8.52 5.67-2.15 9.77-6 12.96-9.68 4.53-.14 8.55-1.1 12.26-2.92 3.7-1.81 6.82-4.63 9-8.12.77-.84 2.65-2.5 3.92-3.63 7.14-6.33 17.93-15.89 17.06-31.07-.19-3.3-1.13-8.48-4.62-13.86-.83-4.36-2.81-8.96-6.75-13.27-.16-.68-.35-1.38-.58-2.11-1.25-3.91-3.23-6.93-5.18-9.19-.5-2.37-1.4-5.1-3.03-7.86-1.42-2.41-2.32-3.62-11.75-13.05-9.78-9.78-10.74-10.36-12.83-11.63-2.5-1.51-5.22-2.58-8.11-3.2a25.2 25.2 0 0 0-9.36-5.27c-2.44-.75-4.99-1.18-7.74-1.29-.62-.51-1.29-1.01-2-1.48 2.23-7.33 1.85-16.23 1.35-27.98-.1-2.24-.22-5.1-.28-7.55 4.45-6.01 6.12-13.71 4.96-23-.37-2.93-1.46-7.31-4.56-11.53.22-4.64.06-10.66-2.56-16.88-1.18-2.8-2.72-5.05-4.33-6.86-.75-2.95-2.13-6.31-4.69-9.61a25.45 25.45 0 0 0-8.23-6.95 24.8 24.8 0 0 0-4.32-5.76l-26.66-26.61c3.26-3.53 5.36-8.11 5.76-13.16l.29-3.66c.49-6.15-1.61-12.04-5.53-16.43-.42-1.6-1.02-3.34-1.9-5.14-1.07-2.2-2.36-4.04-3.72-5.57-.52-2.43-1.45-5.11-3.06-7.82-.64-1.07-1.33-2.04-2.04-2.91-.08-2.6-.47-5.6-1.57-8.75-1.08-3.1-2.61-5.57-4.25-7.54-.58-2.6-1.6-5.55-3.43-8.5-2.93-4.75-7.14-8.17-12.02-12.13-.3-.24-.63-.51-.97-.78-.53-2.29-1.44-4.97-3.02-7.79-3.63-6.43-9.36-11.17-14.9-15.75-1.18-.97-2.71-2.24-3.96-3.33-.81-4.69-3.14-11.99-10.77-16.87a22.3 22.3 0 0 0-4.55-2.22c-1.37-.48-2.67-.82-3.88-1.08a23.7 23.7 0 0 0-5.76-3.85c-1.68-.8-3.31-1.36-4.83-1.75-.98-.87-2.09-1.72-3.36-2.49-3.01-1.84-6.01-2.86-8.63-3.43a26.1 26.1 0 0 0-10.23-5.5c-1.85-.51-3.77-.78-5.69-.8l-36.83-.3h-.18c-1.67 0-3.33.19-4.96.57-7.45 1.73-12.24 6.59-16.26 11.49-3.09.59-5.95 1.67-8.57 3.25-2.41 1.45-3.74 2.62-10.14 8.97-6.65 6.59-7.15 7.28-8.07 8.52a27.2 27.2 0 0 0-4.71 10.46 23.8 23.8 0 0 0-2.58 4.19c-.83 1.7-1.4 3.35-1.8 4.87-3.1 3.05-4.79 6.37-5.72 9.16a23.7 23.7 0 0 0-7.1-7.13c-3.21-2.06-6.39-3.05-9.07-3.54-1.13-1.33-2.35-2.81-3.26-3.91-5.23-6.35-9.75-11.83-15.37-15.18a25.8 25.8 0 0 0-7.99-3.11 24.94 24.94 0 0 0-9.67-5.36c-.75-.22-1.5-.4-2.27-.56-1.25-.95-2.6-1.77-4.04-2.47-1.7-.82-3.35-1.4-4.88-1.8a24.3 24.3 0 0 0-8.95-5.46c-3.29-1.13-6.86-1.68-10.93-1.68-1.55 0-3.02.08-4.4.17-4.16-3.1-9.2-4.99-15.07-5.63-7.97-.87-22.47-1.18-32.47-1.18-8.9 0-21.03.21-28.21 1.2-5.33.74-9.94 2.61-13.78 5.61-2.94.08-5.65.51-8.24 1.31-.45.14-.89.29-1.31.44-.4-.15-.81-.29-1.23-.43-1.06-.33-2.13-.6-3.23-.8-3.02-3.55-6.39-6.91-10.99-9.14-3.55-1.72-7.41-2.59-11.5-2.59h-.21c-4.81-3.75-10.39-5.64-16.7-5.64Z" class="st1"/><path d="M280.92 517.42c-4.88 0-7.72-2.83-9.29-4.91h-.52c-2.29 0-4.45-.52-6.43-1.56-2.41-1.26-3.67-2.64-10.39-10.65-.65-.77-1.19-1.42-1.52-1.81-.16-.14-.33-.26-.49-.38-2.49-1.92-10.08-7.77-5.61-20.44.9-2.56 1.88-3.9 9.48-11.16 7.63-7.29 9.02-8.21 11.65-8.99.94-.28 2.58-.48 4.9-.6-.17-3.73.11-7.84.86-10.39 1.1-3.74 3.48-6.19 5.3-7.74 1.13-11.42 9.11-14.08 13.86-14.64.56-.07 1.07-.12 6.01-.12 3.52 0 3.95.04 4.68.14 3.42.46 5.97 2.23 10.75 6.28 5.68 4.82 6.42 6.01 7.23 7.71 1.16 2.4 1.49 4.67 1.59 6.43 1.08 1.02 2.31 2.46 3.2 4.44.89 1.97 1.25 3.86 1.41 5.42 1.9 1.36 4.1 3.51 5.25 6.86 1.66 4.84 1.2 10.53.75 16.03-.11 1.35-.26 3.24-.33 4.81.98.71 2.02 1.63 2.94 2.86 4.03 5.35 4.61 13.26 1.76 24.17a11.01 11.01 0 0 1-10.64 8.23h-46.41Z" class="st0"/><path d="M298.74 435.04c1.59 0 3.01.01 3.18.03 1.19.16 9.27 7.27 9.56 7.86.95 1.96.21 4.35.82 6.23.7 2.16 3.17 2.89 3.85 4.38 1.01 2.24.14 4.92 1.17 7.06.89 1.84 4.39 2.17 5.12 4.28 1.83 5.33-1.45 17.81.38 23.13.69 2.02 3.59 2.27 4.6 3.62 2.45 3.25.93 10.84-.09 14.78h-46.41c-.49 0-2.44-4.14-4.44-5.07a4 4 0 0 0-1.68-.36c-1.3 0-2.54.52-3.69.52-.46 0-.9-.08-1.33-.31-.86-.45-7.43-8.46-8.83-10.07-2.46-2.82-6.33-2.96-3.91-9.81.32-.9 12.95-12.98 13.87-13.25.39-.12 6.56-.31 8.92-.31.48 0 .81 0 .89.03 2.41.55 2.96 4.32 4.29 5.15.78.49 1.45.7 2.03.7 2.75 0 3.29-4.88 2.72-7.79-.69-3.53-4.78-3.18-5.67-6.09-.61-2.01-.58-8.08.02-10.12.7-2.38 4.21-3.68 5.03-5.54 1.49-3.41-.97-8.34 4.87-9.03.27-.03 2.66-.05 4.75-.05m-.02-21.97c-5.61 0-6.25.08-7.31.2-8.79 1.03-16.16 5.8-20.21 13.09-1.43 2.56-2.24 5.06-2.72 7.24-2.09 2.37-4.24 5.6-5.5 9.86-.39 1.33-.7 2.86-.93 4.49-4.15 1.79-7.4 4.79-13.53 10.65-7.31 6.98-10.35 10.03-12.26 15.46-2.63 7.46-4.93 21.52 8.82 32.46.23.27.48.58.76.91 6.88 8.2 9.2 10.97 13.72 13.32a24.3 24.3 0 0 0 6.97 2.4c4.03 3.41 9.06 5.3 14.36 5.3h46.41c10.01 0 18.76-6.76 21.29-16.45 3.75-14.37 2.56-25.35-3.62-33.56-.14-.18-.27-.36-.41-.53.51-6.23 1.02-13.26-1.34-20.14-1.33-3.87-3.4-6.82-5.54-9.04-.35-1.32-.83-2.73-1.48-4.18-.81-1.81-1.78-3.36-2.76-4.66-.39-1.97-1.05-4.18-2.16-6.49-1.97-4.08-4.57-6.67-10.02-11.3-5.22-4.43-9.74-7.89-16.39-8.79-1.55-.21-2.61-.23-6.14-.23Z" class="st1"/><path d="M366.69 578.75c-9.85 0-12.38-1.26-13.74-1.94-2.55-1.27-4.13-3.16-6.53-6.02-.78-.93-2.18-2.6-2.85-3.26a10.99 10.99 0 0 1-4.7-8.73l-.33-12.51-6.23-4.78a11 11 0 0 1-3.96-11.48c1.3-5.02 4.09-8.06 5.9-9.84-.68-3.97.86-8.02 4.05-10.52 1.82-1.43 4.92-3.13 9.35-3.13 1.37-1.69 3.37-3.46 6.27-4.45.95-.33 2.93-1 8.99-1 9.65 0 12.23 1.57 13.62 2.42 1.43.87 2.53 1.93 3.38 2.98 3.99.03 7.65 1.58 10.31 4.36.37.39.7.78 1.01 1.19 9.73 1.08 12.69 8.54 13.4 10.94 1.06 3.6 1.44 24.06-.1 28.57a11.1 11.1 0 0 1-2.54 4.12l-18.59 19.01c-.86.88-1.86 1.61-2.96 2.15-1.36.68-3.89 1.94-13.73 1.94Z" class="st0"/><path d="M362.9 512.08c3.31 0 7 .26 7.89.81 1.33.81 1.85 3.91 3.54 4.78.41.21.86.28 1.36.28 1.25 0 2.71-.48 4.07-.48.92 0 1.8.22 2.52.97 1.05 1.1.96 3.83 1.59 4.28.33.23.87.3 1.53.3.95 0 2.16-.14 3.38-.14 2.23 0 4.49.48 5.28 3.17.6 2.06.67 20.09.05 21.91l-18.59 19.01c-1.05.52-4.93.78-8.82.78s-7.78-.26-8.83-.78c-1.13-.56-5.81-7.16-7.99-8.46l-.47-17.76-10.4-7.97c1.65-6.37 8.15-5.36 6.09-14.46.77-.61 1.67-.79 2.59-.79 1.4 0 2.87.42 4.1.42.51 0 .98-.07 1.39-.28 1.83-.95 2.21-4.46 4.31-5.18.79-.27 3.01-.41 5.42-.41m-.01-22c-6.95 0-10.24.81-12.55 1.6a24 24 0 0 0-7.67 4.31c-5.01.93-8.73 3.12-11.17 5.03-4.77 3.74-7.7 9.21-8.31 15.05a30.8 30.8 0 0 0-5.51 11.22c-2.21 8.55.91 17.6 7.92 22.97l2.07 1.58.19 7.26c.17 6.56 3.26 12.64 8.32 16.66.52.59 1.29 1.51 1.8 2.11 2.81 3.35 5.46 6.51 10.06 8.81 3.72 1.85 8.32 3.09 18.64 3.09s14.91-1.24 18.64-3.09c2.2-1.1 4.19-2.55 5.91-4.31l18.59-19.01c2.28-2.34 4.02-5.15 5.08-8.24 1.01-2.93 1.66-5.77 1.63-18.07-.04-12.61-.75-15.03-1.37-17.17-2.18-7.44-8.08-15.3-18.42-18-3.36-3.01-7.43-5.02-11.86-5.9-.8-.65-1.68-1.28-2.65-1.87-4.69-2.86-10.29-4.02-19.34-4.02Z" class="st1"/><path d="M279.7 579c-12.71 0-20.31-3.87-22.6-11.49-2.11-7.04.38-12.48 2.92-16.06-1.99-1.95-3.63-4.56-3.99-8.06-.24-2.32-.11-8.18 6.32-12.58 2.36-1.61 5.48-2.68 13.07-2.68 7.98 0 10.96 1.15 13 2.4 1.85 1.13 3.12 2.55 4.03 3.86 1.48.16 3.25.51 5.1 1.3 5.59 2.38 13.05 11.31 13.78 18.33.23 2.22.93 8.97-3.6 14-2.62 2.91-6.16 4.44-10.52 4.56-1.51 1.97-3.84 4.14-7.4 5.24-3.3 1.02-7.75 1.17-10.11 1.17Z" class="st0"/><path d="M275.41 539.14c3.18 0 6.42.26 7.27.79 1.33.82 1.79 3.89 3.51 4.72 2.06.99 4.73.19 7.05 1.18 2.2.94 6.88 6.67 7.16 9.35.59 5.74-1.27 6.44-3.74 6.44-.79 0-1.65-.07-2.51-.07-1.13 0-2.26.13-3.25.71-1.46.87-1.69 4.26-4.32 5.08-1.29.4-3.95.68-6.88.68-5.19 0-11.24-.89-12.06-3.64-2.44-8.14 10.12-10.4 5.46-17.8-.27-.42-9.84-3.04-4.54-6.67.74-.51 3.77-.76 6.86-.76m-.01-22.01c-8.92 0-14.51 1.33-19.28 4.6-7.85 5.37-11.98 13.9-11.05 22.8.2 1.96.75 4.67 2.11 7.6-1.93 4.93-2.84 11.17-.64 18.53 2.16 7.22 9.34 19.33 33.13 19.33 3.64 0 8.91-.29 13.35-1.66a24.9 24.9 0 0 0 9.41-5.31c6.48-1.32 10.79-4.7 13.44-7.64 5.18-5.75 7.33-13.32 6.38-22.5-.58-5.56-3.01-11-7.43-16.64-4.03-5.13-8.39-8.73-12.98-10.68a27 27 0 0 0-3.58-1.24c-1.15-1.11-2.51-2.2-4.12-3.18-4.67-2.85-10.1-4.02-18.74-4.02Z" class="st1"/><path d="M329.2 394.03c1.75-5.38-4.04-5.3-4.71-8.8-.51-2.65-.56-25.7-.01-27.99.34-1.39 3.69-1.32 4.51-3.98 1.03-3.34-.6-7.96.43-11.32.84-2.74 4.79-2.95 5.47-5.1.71-2.26-.53-5.29.77-7.46.77-1.3 3.89-1.77 4.72-3.5 1.06-2.19.1-4.89 1.14-7.11.5-1.07 8.34-6.97 9.4-9.38s.08-5.14 1.18-7.04c1.46-2.52 9.06-3.63 4.19-11.25-5.36-4.52-6.93-6.99-14.54-7.48-6.31-8.36-16.98-13.03-11.5-25.45 2.43-3.07 7.11-.69 9.28-1.9.74-.41 1.77-4.8 4.58-5.44 2.99-.69 7.49 3.01 11.6-.1 1.35-1.02 1.6-3.89 3.62-4.59 8.52-2.98 8.43 4.43 11.78 5.47 3.77 1.17 7.85-1.49 10.61-.15 2.69 1.3 8.03 9.34 9.72 10.35 2.17 1.3 5.2.05 7.46.77 2.33.74 2.24 5.18 6.11 5.73 6.96.98 6.51-4.76 9.56-5.7 3.36-1.04 8.22.67 11.35-.4 2.66-.91 1.51-4.96 7.18-5.74 10.78-1.49 44.11-1.16 55.29.06 7 .76 5.24 4.69 8.41 5.66 4.6 1.42 12.94-1.07 17.22.4 2.11.73 2.44 4.23 4.28 5.12 2.19 1.06 4.92.08 7.1 1.13 1.64.79 1.9 3.53 2.54 3.9 1.52.88 4.93-.21 7.2.45 2.68.78 2.94 4.8 5.09 5.48 2.26.71 5.29-.53 7.46.77 4.59 2.74 14.16 17.05 19.26 20.64 2.71 1.91 6.02.45 7.83 1.61 1.77 1.13.43 5.72 2.17 8.41s13.95 11.58 15.12 13.65c.98 1.72-.48 5.35.81 8.02 1.05 2.17 11.41 9.14 13.06 12.85l3.71-3.02c-.7-5.36-2.36-18.91.21-23.15.88-1.45 3.8-1.48 4.56-3.96 1.41-4.59-.91-12.66.19-17.17.29-1.2 3.7-1.93 4.82-3.67 1.7-2.66.53-5.48 1.64-7.77.8-1.64 3.53-1.9 3.9-2.54 1.1-1.91-.89-5.65 1.33-8.68.5-.67 11.11-11.24 11.83-11.67 2.33-1.4 5.91.24 8.24-1.16 1.97-1.18 7.94-10.46 10.22-10.99l36.83.3c3.05.84 3.39 4.42 5.44 5.17 2.18.8 5.35-.18 7.79 1.31 1.29.79 1.57 3.47 3.12 4.21 2.21 1.05 4.91.09 7.12 1.14 1.66.79 1.75 3.72 3.76 4.53 2.55 1.04 5.45.37 8.03 1.28 1.64 1.05.6 5.59 2.19 8.38 3.61 6.3 16.83 14 20.12 19.84 1.71 3.03.43 5.87 2.21 8.41 2.29 3.27 12.35 9.96 14.25 13.03 1.51 2.45.51 5.66 1.31 7.8.75 2.02 3.65 2.01 4.31 3.91 1.16 3.34-.96 8.75.75 12.18.87 1.74 3.95 2.21 4.72 3.5 1.39 2.35-.23 5.89 1.16 8.24.77 1.3 3.89 1.77 4.72 3.5 1.8 3.71-1.07 7.75 5.3 10.23l-.29 3.66c-2.85.51-4.45 4.04-6.13 5.01-4.49 2.59-12.6-.55-9.46 9.3l42.94 42.85c1.98 1.93.21 7.11 2.2 8.38s6.34-.56 8.43 2.15c1.72 2.22.51 5.45 1.62 7.8.78 1.64 3.67 1.73 4.53 3.77 2.19 5.2-.51 12.9.99 17.73.91 2.93 4.21 1.97 4.57 4.87 1.3 10.37-3.8 6.97-4.76 11.82-1.53 7.68 2.14 34.54-1.1 38.85-1.01 1.34-3.98 1.66-4.61 3.62-.72 2.24.5 5.57-.43 7.22-.44.79-6.22 2.64-5.62 5.51 2.07 3.54 8.46.69 10.42 1.94.69.44.39 3.51 2.12 4.65 2.77 1.83 5.81-.4 7.44.41 1.76.87 2.2 4.45 4.3 5.17 3.13 1.07 7.97-.63 11.34.41 2.74.84 2.95 4.8 5.1 5.47 2.27.72 5.25-.54 7.44.78 1.03.62 16.42 16.01 17.03 17.04 1.13 1.91.19 4.7 1.2 7.03.81 1.87 4.2 3.04 5.01 5.56.61 1.89-.11 4.27.83 6.22 1.31 2.72 7.68 3.04 5.48 10.97 14.08 9.86-7.95 19.42-13.07 28.39-3.64 1.78-9.4-.64-12.97 1.15-2.14 1.07-6.98 9.49-10.48 10.67-6.71 2.26-19.66-2.13-23.5 1.17-1.2 1.03-1.51 3.26-3.2 3.85-3.17 1.11-8.96-.37-12.55.13l-1.6 3.02 17.75 18.25c2.26 2.3 6.68.23 8.69 1.36.42.24 5.72 7.17 5.86 7.63 2.59 8.57-3.76 7.83-4.47 11.5-.91 4.72.89 11.3-.17 16.28l-11 10.16c-2.51 4.93 11.79 4.1 13.94 3.36 2.4-.83 2.05-4.87 6.09-5.67 2.79-.55 26.19-.29 27.59.57 1.49.91 1.7 4.26 4.33 5.07 3.37 1.04 8.25-.67 11.34.41 1.74.61 7.69 9.03 8.99 9.81 2.34 1.4 5.9-.24 8.24 1.16.4.24 6.22 6.07 6.46 6.46 1.32 2.2.04 5.17.77 7.46.66 2.1 4.22 2.4 5.12 4.28 1.03 2.14.16 4.82 1.17 7.06.67 1.49 3.14 2.22 3.85 4.38 1.62 4.97-.62 6.72 5.94 10.51l.2 55.06c-.41 3.37-4.77 3.16-5.66 6.09-1.41 4.6.76 12.2-.41 17.22l-12.25 12.46h-2.13c-1.61-.49-2.22-3.73-3.54-4.72-2.56-1.91-22.33-1.92-24.29.56-1.52 1.93-1.59 10.37-.84 12.82.83 2.73 4.71 2.91 5.47 5.11 1.07 3.12-.61 7.89.43 11.33.61 2.03 3.19 2.87 3.86 4.36 1.01 2.24.14 4.92 1.17 7.06.91 1.88 4.46 2.18 5.12 4.28.71 2.26-.53 5.29.77 7.46 1.05 1.77 4.49 1.34 5.27 5.3.44 2.21.41 13.07-.2 15.04-.84 2.73-4.71 2.91-5.47 5.11-1.6 4.67 1.66 14.81-1.27 18.71-1.01 1.35-3.91 1.61-4.6 3.62-1.07 3.11.6 7.86-.43 11.32-.92 3.09-8.56 7.51-9.73 10.25-.99 2.32-.18 4.99-1.18 7.05-1.37 2.84-7.7 3.07-5.55 11.5-2.61 2.55-14.62 12.23-15.63 14.31-1.25 2.57-.16 5.47-.7 8.1-2.44 1.92-6.07-.4-8.08.65-2.79 1.45-11.34 13.5-14.86 15.86-2.55 1.71-4.91-.16-7.15.9-2.6 1.23-2.54 4.49-5.6 5.08-3.72.72-42.12.38-44.1-.59-1.68-.82-1.79-3.75-3.8-4.56-2.74-1.1-5.27.65-6.74-.08-.78-.39-11.88-11.67-12.32-12.42-1.13-1.91-.19-4.7-1.2-7.02-1.59-3.65-13.7-11.7-15.24-15.31-.99-2.32-.18-4.98-1.18-7.05-1.15-2.39-14.31-12-15.63-14.32-.93-1.63.29-4.98-.43-7.23-.65-2.05-4.25-2.45-5.13-4.27-1.54-3.18 1.31-12.58-5.88-8.28-1.79 2.6.43 9.97-.74 13.36-.7 2.05-3.91 1.66-4.53 4.87-.89 4.61 1.14 11.88-.2 16.25-.84 2.74-4.79 2.95-5.47 5.1-.71 2.26.53 5.29-.77 7.46-.77 1.29-3.85 1.77-4.72 3.5-1.71 3.42.41 8.84-.75 12.18-.63 1.82-3.2 1.97-3.93 3.12-.82 1.28-1.15 27.61-.42 29.8l1.76 1.77 8.14 1.26c1.14 2.63-.18 5.74 1.07 8.33.83 1.71 3.96 2.19 4.72 3.5 1.17 2.01.1 4.91 1.15 7.09 1.09 2.27 5.55 1.27 4.17 6.21-7.42 3.23-3.54 8.94-5.24 15.02-.84 3.01-3.96 2.77-4.8 4.56-.99 2.1-.19 4.74-1.18 7.07-1.08 2.55-8.27 6.89-9.36 9.44-1.08 2.53.02 5.34-1.69 7.71-1.23 1.7-9.97 8-10.48 9.5-2.62 7.58 4.54 7.83 5.5 10.57 2.98 8.53-4.43 8.44-5.46 11.78-1.42 4.61.9 12.66-.19 17.17-.34 1.39-3.69 1.32-4.51 3.98-1.1 3.55.88 8.79-.79 12.14l-15.69 14.86c-1.45 11.77 1.34 25.9-.29 37.36-.79 5.55-4.64 4.35-5.56 7.33-1.61 5.22.86 15.1-.24 20.92-.68 3.61-4.81 4.62-5.61 7.32-1.04 3.5.55 8.17-.22 11.28-.33 1.35-3.33 1.42-4.16 3.14-1.09 2.26-.03 4.83-1.67 7.75-2.02 3.59-14.18 12.06-15.1 13.68-1.24 2.21 1.37 7.89-2.58 9.76-2.7 1.27-6.29-.14-8.01.82-.56.32-7.25 9.18-8.42 9.76-3.47 1.71-8.79-.39-12.18.77-2.2.75-2.38 4.63-5.11 5.47-2.33.72-20.84.58-22.71-.35-1.88-.94-2.2-4.46-4.28-5.12-2.26-.71-5.29.53-7.46-.77-1.12-.67-6.7-8.49-8.23-9.4-2-1.19-4.77-.07-7.7-1.7-4.36-2.44-14.98-16.47-19.31-20.64l-8.31-1.09c-1.69-1.13-.68-5.39-1.7-7.71-1.23-2.81-9.36-7.85-10.54-10.62-.99-2.33-.18-5.01-1.17-7.07-.83-1.71-3.83-1.79-4.16-3.14-.6-2.46-.3-12 1.14-13.97 1.15-1.58 8.78-6.85 9.27-8.31.69-2.03.66-12.89-.91-13.99l-39.45-.5-10.75-10.41-18.04-.76c-9.83-10.93-20.61-20.89-30.64-31.64-.89-.96-2.8-1.42-3.5-2.37-2.22-3.01-.22-6.7-1.34-8.67-.25-.44-2.38-1.05-3.28-1.94-2.73-2.67-16.18-15.28-17-17.12-4.03-9.02 4.19-8.89 4.16-12.34l-4.79-5.85.03-64.63c-.39-3 4.4-3.59 4.71-4.96.49-2.19-.83-5.12.55-7.42.24-.4 6.06-6.22 6.46-6.46 2.2-1.32 5.17-.04 7.46-.77 1.97-.62 2.27-3.6 3.62-4.61 4.17-3.14 18.04.55 23.4-1.27 2.22-.75 3.25-6.23 5.96-5.64 2.11.82 2.81 4.39 4.22 5.24 4.64 2.81 31.82-1.06 39.14.8 2.08.64 7.92 9.44 10.51 10.71 3.52 1.73 7.45-1.64 12.33.44 1.63.69 7.51 9 9.92 10.11 4.05 1.85 8.61-.07 11.9 1.05 1.9.65 2.39 4.41 5.41 5.21.46.12 9.06.12 9.52 0 2.93-.77 3.27-3.94 4.65-4.79 1.56-.97 15.82-1.05 17.98-.39 2.58.8 2.65 3.81 3.38 4.23 5 2.92 6.15-3.3 4.49-7.36-1.81-4.43-6.15-2.76-4.7-10.57.72-3.89 4.35-3.5 4.71-4.97 1.37-5.55-1.19-16.01-.03-22.1.67-3.52 4.77-3.17 5.66-6.09 1.4-4.6-.76-12.2.41-17.22 4-1.83 10.14-11.84 12.75-13.2 1.99-1.04 4.22.99 6.71-.14.44-.2 6.89-6.05 7.13-6.47.93-1.63-.29-4.98.43-7.23.67-2.09 4.22-2.4 5.12-4.28.99-2.06.19-4.73 1.18-7.05 1.09-2.56 8.15-6.79 9.36-9.44 2.4-5.28-.93-16.95.83-22.68.84-2.73 4.71-2.91 5.47-5.11 1.47-4.29-1.01-12.61.4-17.23.81-2.66 4.3-2.31 5.16-5.39 1.05-3.76-.21-7.82.74-11.04.66-2.26 3.84-2.93 4.44-6.13.59-3.15-.76-7.52.21-10.36.72-2.11 4.23-2.45 5.12-4.28 1-2.08.17-4.76 1.17-7.05.83-1.89 4.2-3.05 5.01-5.57.61-1.9-.11-4.3.83-6.24.79-1.64 3.53-1.9 3.9-2.54.92-1.6-.3-4.99.42-7.23.67-2.09 4.22-2.4 5.12-4.28 1-2.08.17-4.76 1.17-7.05 1.56-3.55 9.46-5.78 3.31-12.99l-11.57.03c-3.21.61-3 4.65-7.28 5.64-5.25 1.21-12.11-1.52-14.78-.78-2.61.73-2.93 4.79-5.13 5.54-3.38 1.16-8.75-.94-12.16.76-1.85.93-2.19 4.39-4.29 5.11-5.32 1.83-17.86-1.46-23.12.38-1.69.59-1.99 2.82-3.2 3.85-4.51 3.86-14.3-2.1-19.4 1.74-1.35 1.02-1.61 3.91-3.62 4.6-4.27 1.47-12.6-1.01-17.21.41-2.73.84-2.91 4.71-5.11 5.47-5.34 1.83-17.79-1.45-23.12.38-2.01.69-2.28 3.57-3.62 4.6-7.72 5.88-17.88-13.46-24.24-17.07-2.62-3.51-.04-9.12-1.3-12.8-.72-2.11-4.23-2.45-5.12-4.28-1-2.08-.17-4.77-1.17-7.05-.75-1.7-3.88-3.01-4.66-4.74-.94-2.07-1.23-29.05-.62-32.31.67-3.52 4.77-3.17 5.66-6.09 1.09-3.57-.88-8.81.79-12.14.61-1.22 9.26-7.58 9.76-8.44 1.17-2.05-1.03-6.56 1.4-8.62l9.34-2.36 46.43-47.69c2.23-1.72 4.92.99 8.02-.97 2.8-1.76 10.65-13.7 13.43-15.44 2.54-1.59 4.7.34 6.56-.1 2.58-.62 2.94-4.82 5.11-5.5 2.04-.64 4.67.28 6.68-.37 1.75-.57 2.26-3.76 4.55-4.84 2.69-1.27 6.25-.25 7.72-1.1.42-.24.98-2.29 1.96-3.27 2.12-2.11 5.5-1.94 4.04-6.95-2.42-1.17-6.04-1.45-8.41-.12-2.57 1.45-.4 5.83-4.97 4.74-3.31-.79-2.9-3.91-4.89-4.56-2.46-.8-5.91.85-8.12-1.28-.85-1.22-.9-11.72-.32-13.4.72-2.11 4.23-2.45 5.12-4.28 1.03-2.14.16-4.81 1.17-7.06 1.41-3.15 8.45-7.19 2.17-12.78-3.35.03-8.29-.88-11.37.05-2.91.89-2.57 5-6.08 5.67-4.49.85-12.39-1.18-16.27.18-2.46.86-1.68 4.9-8.39 5.71-7.14.86-33.14 1-39.74-.3-1.85-.36-7.74-6.48-8.43-7.97-2.5-5.44 2.15-22.96-2.96-25.31-1.76-.81-4.42 1.4-7.38-.46-.75-.47-11.63-12.21-11.98-13.02-.95-2.2-.19-4.51-.8-6.25-.76-2.14-3.89-1.67-4.52-4.88-.39-2.01-.44-15.66-.01-17.41.16-.66 9.5-7.93 10.03-9.03 1.22-2.52-.31-6.41 2.21-8.37 2.19-1.78 5.59-.37 7.75-1.65 1.17-.69 1.57-3.38 3.86-4.47s4.87.8 7.18-.87c3.67-2.66.78-6.75 2.13-9.11.24-.42 6.64-6.23 7.07-6.43 2.55-1.17 7.42-.27 8.62-1.95 4.08-14.68-13.01-7.31-19.86-9.67-1.7-.59-2.21-3.32-3.88-4.45-2.11-1.42-4.39.4-6.26-.59-2.37-1.24-2.56-6.47-6.39-5.28-.93 2.68-5.91 5.41-6.64 6.61-1.58 2.59-.4 6.25-1.71 8.58-.52.94-5.99 4.74-7.01 6.83-2.09.33-7.58-7.95-9.23-9.93-.83-1-3.03-1.32-3.72-2.72-2.27-4.6 2.53-13.58-4.66-15.3-1.09 2.75-6.25 6.39-7.06 8.24-1.01 2.29-.17 5-1.17 7.07-.79 1.64-3.53 1.9-3.9 2.54-1.32 2.3 1.7 8.6-3.42 10.13-9.1 2.72-9.87-6.57-8.58-13.3.66-3.45 4.29-3.15 5.31-5.26s.17-4.76 1.17-7.05c1.44-3.28 9.72-6.38 3.49-12.94-2.56-.64-2.69.78-3.91 1.94-4.55 4.34-8.79 9.32-13.08 13.93l-14.13.57c-.88-7.25 6.43-4.8 4.71-13.51-1.06-5.4-8.98-1.83-13.3-3.16-2.72-.84-2.9-4.7-5.11-5.47-9.66-3.39-12.04 12.78-20.89 11.59-6.68-.9-3.51-11.86-4.18-16.48-6.28-2.72-9.88 12.05-14.67 10.57-3.49-1.07-.87-15.29-2.02-19.14-1.47-4.95-12.78-7.65.17-15.63l-.48-2.86c-3.89-.79-10.54-10.29-12.34-11.15-2.21-1.05-4.9-.1-7.12-1.15-1.12-.53-7.86-9.44-8.42-9.76-1.97-1.11-5.65.88-8.67-1.33-1.6-1.18-5.63-7-7.58-8.87-6.78-6.52-13.54-13.13-20.53-19.42-1.07-2.98-1.48-7.28 1.17-9.4h41.71Zm192.67 52.3c-1.56-5.5 1.14-17.73 0-24.09-8.33-3.75-8.74 12.06-17.92 10.38-7.27-1.33-3.59-11.04-4.41-16.26l-3.93.18-26.02 26.93c-2.92 0-3.21-4.4-5.27-5.38-2.23-1.07-6.61.12-7.74-1.66-.96-1.5-.16-4.4-.76-6.29-.78-2.48-4.2-3.69-5.02-5.56-1.01-2.32-.09-5.14-1.19-7.04-1.02-1.76-4.48-1.34-5.27-5.31-.37-1.85-.39-8.74.17-10.37.75-2.2 4.63-2.38 5.47-5.11 1.09-3.56-.88-8.8.79-12.14 1.19-2.39 10.5-7.76 11.68-11.82 4.19-3.12 14.97-.09 20.06.19 8.39.46 5.94-4.14 12.89 3.39 5.62 6.09 2.22 3.62 4.74 9.41 2.01 4.64 11.05 4.78-.65 10.2.05 2.35-.75 7.51 1.82 8.61 4.64 1.99 2.49-8.41 8.94-3.99 1.01 1.32.07 5.65 3.96 3.99 2.9-1.24 1.22-6.33 1.93-8.65l1.77-1.76c2.04-.67 16.28-.47 18.08.41 1.65.81 1.75 3.71 3.81 4.56 2.48 1.01 5.14-.52 7.14.82 2.72 1.81 8.11 7.66 7.92 11.09-.4 7.26-5.88 4.37-9.87 5.26-1.33.3-1.43 3.34-3.13 4.16-2.87 1.39-7.88-.73-9.2 3.74-.82 2.81-.56 37.33.34 39.17.87 1.77 3.71 1.75 4.53 3.76 1.04 2.55.37 5.45 1.29 8.03 1.48 2.18 6.47.21 8.89 1.68 1.01.61 1.41 2.65 2.38 3.55 2.24 2.09 10.01 7.7 9.26 10.39-1.35.7-5.37 5.79-5.77 6-2.62 1.35-6 .15-8.59 1.74-1.28.79-1.57 3.43-3.12 4.2-7.59 3.74-10.05-3.52-15.12-7.25-1.91-5.57 2.75-27.7-.35-29.61-7.72-2.33-4.24 5.88-6.31 9.23-.72 1.16-3.29 1.3-3.93 3.12-1.17 3.35.93 8.43-.79 12.14-2.72 5.9-14.62 9.15-8.87 18.31 8.49-1.4 8.93 4.93 15.05 6.1 3.23.62 10.27.79 13.3-.22 3.11-1.05 3.28-3.98 4.63-4.77 1.88-1.11 4.25-.23 6.2-.85 2.17-.69 3.48-3.73 5.83-4.74 2.21-.95 4.94-.48 6.71-1.51.43-.25 6.73-6.75 6.87-7.23.65-2.12.61-10.2-.35-12.14-.73-1.46-8.39-6.52-9.4-8.23-1.14-1.92-.2-4.72-1.2-7.02s-5.2-3.39-5.33-4.17c-.73-4.34 4.71-3.97 5.71-7.23 1.42-4.62-.91-12.68.19-17.17.33-1.35 3.33-1.42 4.16-3.14.99-2.06.18-4.74 1.17-7.07.67-1.57 22.52-23.42 24.08-24.1 2.33-1.01 5.12-.08 7.02-1.2 1.33-.78 1.7-4.03 4.65-4.8 1.94-.5 4 1.18 5.92.19 1.81-.93 2.21-4.46 4.31-5.18 2.79-.96 16.85 1.85 13.93-3.74-2.32-4.44-10.74-.94-14.74-2.9-1.96-.96-10.49-12.14-13.22-14.35-2.42-1.96-14.64-2.23-17.66-1.31-3.05.93-3.33 6.86-7.25 5.65-3.17-.98-1.1-10.16-2.02-13.27-.71-2.38-4.21-3.68-5.03-5.55-.98-2.24-.25-4.76-1.21-7.02-.67-1.57-4.55-4.08-5.24-6.52l-2.86-.48c-3.21 4.35-5.07 7.67-11.3 5.24l-1.05-3.45c7.61-5.57 4.95-4.5.45-8.92-.99-.97-1.55-3.04-1.95-3.28-2.98-1.73-9.58 2.54-10.51-5.94h-4.37c-.33 4.03-3.11 4.47-4.94 6.54-1.65 1.87.05 6.59-6.46 2.75l-.47-13.38c-.59-2.46-8.44-2.47-10.05.38-1.4 2.48.6 7.11-2.92 8.85l-8.06-.78-1.27-14.3-17.98-17.67c-14.8-4.43-2.85 15.79-18.59 10.47-6.91-11.48 14.47-13.97 8.89-25.38-.22-.45-6.79-6.66-7.27-6.8-2.19-.67-16.43-.57-18 .38-1.32.8-1.85 3.89-3.53 4.78-2.47 1.32-5.99-2.13-7.68.44l-.59 4.01c6.43 2.35 3.53 6.47 5.33 10.18.84 1.74 3.96 2.19 4.72 3.5 1.08 1.87.22 4.26.84 6.21 1.09 3.47 6.48 3.99 5.66 9.59-.18 1.26-7.09 9.6-7.87 9.87-1.79.62-12.02.53-13.35-.37l-1.05-3.44 9.92-7.73v-3.59l-47.17-45.46c-6.14 1.2-12.48.99-18.71.89-3.43-.05-14.82-3.75-15.74 1.86-.81 4.95 8.47 3.35 10.49 4.57 2.87 1.73 9.97 12.39 12.95 14.07 2.35 1.33 6.61.21 9.22 1.94-3.42 9.52 9.07 12.76 11.33 17.45.95 1.96.21 4.35.82 6.23.7 2.16 3.17 2.89 3.85 4.38 1.01 2.24.13 4.89 1.17 7.06.69 1.45 6.69 4.65 7.64 7.64 4.71 2.34 17.17-.93 22.71.79 2.65.82 2.59 4.18 3.98 4.51 1.79.44 15.35.38 17.4-.01 3.17-.61 3.21-4.52 6.39-5.4 2.82-.78 6.74 2.08 10.65.11 2.04-1.02 8.64-11.54 11.01-11.12 5.12.9.96 9.36 2.13 13.22.16.52 6.36 8.18 6.82 8.47 3.46 2.11 17.74-.42 22.92.58 3.2.62 3.18 5.66 10.55 5.9 1.84.06 3.85-1.42 5.65-1 2.79.64 3.84 5.04 4.58 5.45 1.6.89 4.91-.21 7.19.46 2.68.78 2.94 4.8 5.09 5.48 2.29.72 5.26-.55 7.46.77 1.01.61 1.41 2.65 2.35 3.53 2.08 1.93 13.89 10.14 7.44 12.16-1.82.57-9.49.55-11.35-.02-1.95-.6-8.21-9.46-9.83-10.44-2.5-1.51-5.65-.51-7.8-1.31-2.48-.93-3.71-6.96-11.21-4.64-1-8.53-9.71-4.8-7.02 2.9.61 1.76 6.15 4.02 6.86 7.24 3.83 1.43 7.85-.13 11.81 1.11 5.82 1.83 14.81 14.32 5.16 15.93-6.32 1.05-5.93-2.83-8.76-4.1-2.25-1.01-4.92-.14-7.06-1.17-1.88-.91-2.18-4.46-4.28-5.12-2.29-.72-5.26.55-7.46-.77-2.01-1.21-7.13-9.53-10.49-10.66-5.03-1.69-12.7.76-16.93-.69-2.04-.7-1.66-3.91-4.87-4.54-3.01-.58-32.07-.27-33.5.6-.7 3.2-6.27 5.5-6.86 7.24-1.36 3.99 2.2 12.6-3.38 14.25-1.91.56-4.07-.04-6.18.86-.61.26-6.17 5.82-6.46 6.47-1.71 3.74.37 8.75-.8 12.13-.46 1.35-8.82 7.38-9.79 9.01-1.13 1.91-.19 4.71-1.2 7.03-1.39 3.2-7.49 4.08-5.09 10.99.86 2.47 5.6 2.59 5.64 5.96-.33 1.48-9.02 6.62-10.6 9.44-1.64 2.92-.58 5.49-1.67 7.75-1.26 2.61-6.49 1.1-3.89 9.72.61 2.04 3.18 2.86 3.86 4.36 1.09 2.42-.04 5.57 1.65 7.75 1.95 2.52 5.81 1 8.38 2.21 1.76.83 1.73 4.24 4.6 4.86 2.21.48 4.59-.87 5.94-.21 2.2 1.08 2.51 6.49 6.35 5.28 1.72-4.17 10.58-9.9 11.84-12.87.99-2.32.18-4.99 1.18-7.05.9-1.88 4.45-2.18 5.12-4.28 1.06-3.32-1.7-7.75 3.15-8.66 3.42-.65 6.86.34 7.58 4.18 1.15 6.14-1.5 30.63.55 33.54 6.68 1.74 9.1.27 13 6.95l5.87-5.93c2.93 0 3.17 4.33 5.27 5.38 3.77 1.87 10.56.27 7.69-4.15l-25.89-24.62c-.85-2.94-2.15-17.69 2.99-14.77l30.5 31.75c2.83 2.91 16.05 2.9 15.21-2.18-.7-4.25-8.16-2.27-10.49-3.68-.32-.19-5.08-4.98-5.28-5.3-.97-1.55-1.06-11.54-.43-13.32.53-1.51 2.72-1.91 3.83-3.28 1.01-1.25.42-4.3 3.83-4.38 3.23-.08 2.16 7.17 12.65 5.73 1.13.02.86-2.21.68-2.97-1.02-4.31-25.2-18.61-12.36-19.48 10.83-.74 17.51 23.38 28.84 15.8 1.39-5.05-4.1-4.58-4.75-6.89ZM468.6 279.04c-5.57 1.74 2.48 6.12 3.32 8.06 1.01 2.33.07 5.11 1.2 7.02.25.43 6.78 6.71 7.26 6.86 13.06 4.12 9.14-15.09 2.11-20.93-2.01-1.67-11.33-1.81-13.89-1.01m36.82-.19c-.99 4.93 4.69 7.82 8.26 11.13 1.42 1.31 2.46 4.1 3.5 4.73 1.98 1.21 14.45 1.38 15.26-1.18.45-6.2-5.91-2.89-10.04-5.21-5.96-3.35-5.95-12.78-16.97-9.46Zm230.66 70.12c-1.06-1.28-5.47-6.19-5.68-6.67-1.02-2.31-.08-5.14-1.18-7.04-1.48-2.53-12.54-11.08-15.28-14.1-1.7-2.77.22-8.56-.83-12.1-.71-2.39-4.23-3.69-5.03-5.54-1.01-2.32-.07-5.11-1.2-7.03-.4-.68-9.98-10.05-11.25-11.1-.9-.75-1.77-1.4-2.98-1.51l-16.05.76c-5.85 9.28-19.24 14-19.08 25.92l-15.27 14.11-.55 15.86c.69 3.48 9.01 8.18 10.63 10.82s.4 6.23 1.71 8.57c.82 1.47 7.5 5.87 8.67 7.78 1.53 2.48.85 5.43 2.4 8.17 2.6 4.6 13.25 11.17 14.73 14.65.99 2.32.18 4.99 1.18 7.05.56 1.16 9.27 7.59 9.76 8.44.93 1.63-.29 4.98.43 7.23.67 2.09 4.22 2.4 5.12 4.28 1.09 2.26.04 4.83 1.67 7.73 4.46 7.92 31.97 21.89 15.89 29.86v3.59c2.51.8 4.76 4.37 6.55 5.21 2.3 1.07 5.09.46 7.47 1.93 2.03 1.25 6.96 8.39 8.56 9.36 2.59 1.59 6.44.4 8.59 1.69.7.42 10.98 10.8 11.43 11.48 1.19 1.81.76 6.52 1.74 8.82 7.07 5.28 9.84-3.46 12.27-4.25 2.25-.73 5.27.54 7.46-.76 1.3-.77 1.79-3.91 3.5-4.73 2.19-1.05 5.08.01 7.06-1.16 1.17-.69 1.57-3.38 3.86-4.47 1.99-.94 3.92.33 5.59-.16 3.48-1.01 9.8-10.97 13.87-13.19.67-1.96.5-16.55-.4-18.03-.81-1.33-3.9-1.81-4.72-3.5-1.29-2.67.17-6.3-.81-8.02-.21-.37-4.55-4.12-6.04-5.7-2.12-2.25-13.69-12.02-14.29-13.3-1.02-2.15-.17-4.82-1.17-7.08-.76-1.71-9.24-7.62-10.55-10.6-1.02-2.31-.06-5.11-1.2-7.03-2.81-4.76-17.34-14.2-19.94-18.84-1.3-2.32-.13-6-1.71-8.58-.99-1.62-8.42-6.76-9.57-8.35-1.79-2.48-.51-5.37-1.66-7.77-.66-1.39-2.89-1.71-3.73-2.72Zm-232.12-47.5c-1.83-1.84-7.03-1.82-8.84 0-5.89 5.92 7.71 20.4 10.12 13.06.18-3.2.96-10.81-1.28-13.06m32.9 10.02c7.63-6.89-19.78-7.31-20.86-3.83-.75 2.45.84 2.76 1.94 3.91 1.57 1.65 10.57 10.59 11.55 10.78.9.18 1.99-.1 2.95-.02.48-2.23-.77-7.82.16-9.25.4-.62 3.11-.56 4.26-1.59m-149.51 49.63c-3.65-1.21-13.14.88-17.62 0l-1.76 1.76v19.39c-2 3.17-10.11-5.86-10.39-6.65-1.56-4.51 1.64-22.54-1.28-24.57-6.32-2.43-4.19 1.4-5.87 3.35-1.17 1.37-3.52 1.74-4.22 3.15-.89 1.82-1.14 30.77-.36 33.31.84 2.73 4.71 2.91 5.47 5.11 1.47 4.29-1.01 12.59.41 17.22.84 2.74 5 3.13 5.54 5.1.44 1.6-1.13 3.85-1.07 5.71.21 6.71 4.81 7.84 5.66 10.8.97 3.38-1.57 9.16 4.33 8.57 2.35-.74 2.33-12.25 1.8-14.44-.38-1.54-13.8-7.94 4.52-8.04 1.85-2.31.61-7.3 1.59-9.01.49-.86 4.88-1.53 4.53-4.37-.02-2.75-7.46-3.43-4.58-11.55.69-1.95 13.16-12.51 15.67-14.87 1-8.67 10.82-17.62 17.44-24.27 1.83-1.84 15.19-9.8 8.21-11.98l-12.55-.25c-1.55.38-1.3 6.64-5.51 5.42-.72-2.64-5.78-5.44-6.4-6.56-1.18-2.12-.36-5.39-1.38-7.94-.84-2.09-4.1-2.04-4.89-4.59-1.06-3.44.94-9.4-.81-12.12-.84-1.31-5.06-3.71-5.97-6.97-11.87.95-.29 5.39.5 7.74 1.79 5.27-1.62 17.97.76 22.74l15.9 14.91-.03 8.58c-4.9 2.03-6.25-4.25-7.63-4.71Zm157.44-49.35c-2.89.91-3.15 12.28 2.33 10.56 2.89-.91 3.15-12.28-2.33-10.56m14.54 26.88c1.73-1.06 0-5.9.35-7.26.85-3.36 7.04-3.98 5.71-10.81-.54-2.8-2.7-2.59-4.05-4.23-1.93-2.34-.51-5.82-6.57-4.59l.17 4.52 4.52 1.37c1.39 5.99-11.42 10.15-10.62 14.64.14.82 2.69 1.25 3.66 2.28 1.81 1.93 2.98 6.45 6.84 4.08Zm-194.06-16.08c-6.97 2.09-2.66 15.75 6.3 11 2.67-6.06 2.2-13.55-6.3-11m259.81 5.83-4.38-.04.46 31.57c1.77 2.01 7.71 5.94 8.88 7.57 1.76 2.44.47 5.4 2.18 8.39 2.61 4.57 13.26 11.17 14.74 14.64 1.08 2.53-.02 5.34 1.69 7.71 2.23 3.1 13.15 10.69 14.79 13.42 1.4 2.33-.24 5.89 1.16 8.24 7.17 6.13 13.64 12.98 20.56 19.39.94.87 1.33 2.91 2.35 3.53 2.39 1.44 6.25-.29 8.31 1.12.36.25 3.07 4.31 5.3 6.43 1.88 1.78 1.02 5.36 5.2 3.04 2.82-1.57 2.15-6.83.6-8.87-1.6-2.09-6.93-.52-9.26-2.21-.96-.7-.83-2.83-1.95-4.14-.94-1.11-3.37-1.47-4.11-2.99-.98-2.02-.15-4.45-.76-6.29-.62-1.89-3.21-1.96-3.92-3.13-1.12-1.84-.17-4.73-1.18-7.04-1.21-2.75-9.9-9.17-10.58-10.57-2.56-5.31.91-3.37-4.87-9.82-7.56-8.43-8.77-7.92-12.34-18.8-.62-1.9-3.21-1.96-3.92-3.13-1.11-1.83-.17-4.71-1.19-7.04-1.21-2.78-9.37-7.86-10.54-10.61-.99-2.33-.19-4.95-1.18-7.07-.5-1.06-8.34-6.98-9.4-9.38-.95-2.17-.18-4.49-.8-6.25-.7-1.98-6-3.55-5.84-7.66Zm-252.71 16.56c-3.01-2.78-11-.73-10.27 2.61.8 3.66 9.98 4.51 11.43.05-.3-.83-.56-2.11-1.17-2.66Zm205.41-.19c-1.73.54-2.49 4.43-4.21 5.26-1.4.67-7.38-2.07-8.17 2.4-.45 2.57 13.06 14 16.23 6.76-.11-3.06 2.26-16.34-3.84-14.43Zm-106.84 55.54c-3.43-3.27-9.23-10.9-10.22-2.23-.77 6.77 2.62 10.02-4.53 14.34-1.04 3.83 3.52 3.46 4.39 5.91.96 2.69-1 7.07 3.38 8.38 6.78 2.03 6.25-1.8 8.97-4.07 3.31-2.76 6.65-5.68 10.23-8.08.55-3.13-7.19-8.15-9.5-10.48-1.2-1.21-1.73-2.84-2.71-3.77Zm-138.81 4.3h-22.32c-1.03 0-2.05 2.36-1.61 3.94.14.48 6.45 7.07 6.89 7.3 2.02 1.05 4.27-1.01 6.73.14 2.33 1.08 2.83 4.26 4.62 4.88 1.75.61 12.69.58 13.45-.5.93-1.32 1.33-5.01.86-6.69-.17-.6-8.02-8.91-8.62-9.08Zm197.62.23c-5.75 1.77-2.65 6.75 3.09 6.45 9.3-.49 4.88-8.9-3.09-6.45m238.83 162.55c-1.31-4.03.96-14.48 0-19.39 0-.78 14.12-1.47 15.3.57l1.32 14.54c3.91 2.99 8.67-.07 11.93.38 2.63.37 13.52 12.8 16.13 15.67 5.57 6.11 2.5 6.59 5.34 11.06 1.09 1.73 7.92 7.87 9.9 5.96 2.07-7.22-2.4-8.44-4.44-12.6-1.11-2.26-.89-5.57-2.08-7.33-.86-1.28-3.28-1.47-3.87-3.17-.44-1.27-.55-7.61-.01-8.46 2.93-1.65 6.35-1.42 9.13.52.39.27 6.38 5.92 6.58 6.33 1.25 2.57.13 5.46.73 8.09 1.11 1.84 15.03 1.61 17.83 1.06 4.35-.85 5.3-8.31 13.62-5.7l.11-5.78h-19.38c-.53 0-2.35-4.13-4.42-5.03-1.64-.72-4.09.54-6.42-.42-2.51-1.03-3.82-7.15-10.93-5.7l-25.37-26.34c-3.73-2.46-11.81 1.33-17.26-.33-2.92-.89-2.71-5.26-6.08-5.67l-12.42.52c-2.56 1.78-.23 10.79-1.08 13.94-.35 1.29-4.28 2.05-5.3 4.37-2.11 4.82.42 12.7-10.02 7.65-5.54-8.18 3.86-9.91 4.7-14.15.91-4.62-1.04-12.01 0-16.2.32-1.31 2.82-1.38 3.63-2.46 1.42-1.89 1.7-11.64 1.12-13.99-.29-1.16-2.96-1.44-4.1-3.2-1.7-2.63-1.2-6.07-3.5-9.45-.66-.97-9.42-9.63-10.07-9.9-2.53-1.08-5.34.02-7.71-1.69-1.58-1.14-6.73-8.58-8.35-9.57-2.58-1.58-6.25-.4-8.57-1.71-1.49-.84-7.05-8.64-8.24-9.38-2.81-1.73-8.66.26-12.12-.8-2.56-.79-2.5-4.05-4.59-4.89-2.4-.96-5.27-.27-7.16-.98-2.02-.76-1.92-3.53-3.93-4.28-2.15-.8-5.21.18-7.8-1.31-2.1-1.21-8.27-11-12.55-12.43l5.87-7.02c-2.93-2.49-6.79-5.49-9.44-8.18-1.43-1.45-8.24-9.79-8.87-9.98-3.95-1.23-4 4.62-7.16 5.59-1.82.56-7.24.58-9.16.19-4.05-.82-3.74-4.91-6.07-5.67-2.22-.72-5.93.47-7.29-.36-.7-.43-.9-4.99-3.25-5.57-4.13-1.02-3.93 4.96-5.86 5.61-2.13.72-5.29-.63-7.51.72-1.01.61-6.65 7.87-8.15 9.49-2.59 2.81-5.6 1.74-3.34 9.09.14.46 5.46 7.38 5.87 7.62 2.32 1.36 9.74-.71 13.08.45 2.11.73 2.45 4.23 4.28 5.12 2.07 1 4.73.18 7.05 1.17 1.93.83 3.07 4.18 6.72 5.02 5.13 1.18 12.01-1.56 15.3-.17 2.06.87 2.18 3.78 3.8 4.55 2.21 1.05 4.91.09 7.12 1.14 1.66.79 1.76 3.72 3.76 4.53 2.52 1.02 6.02.21 7.95 1.36.88.53 6.82 7.91 8.17 9.48.79.92 2.73 1.21 3.25 2.01 2.18 3.3 1.35 12.26-3.22 9.74-2.28-1.26-9.49-12.63-13.41-14.84-2.91-1.64-5.44-.58-7.74-1.67-1.63-.78-1.73-3.67-3.76-4.53-5.19-2.19-12.87.5-17.72-.99-2.66-.82-2.3-4.29-5.39-5.16-5.35-1.5-14.8 1.03-18.43-1.62-1.32-.96-1.13-3.66-3.94-4.31-3.38-.79-6.28 1.48-10.74.22-4.12-1.17-9.03-15.26-13.66-9.71-.54.65-.4 2.23-1.02 3-2.56 3.15-5.38 2.19-4.02 8.97.92 4.58 4.81 2.05 8.21 3.55s7.69 9.86 10.48 10.64c5.82 1.64 19.58-1.07 22.1.15 2.34 1.13 2.9 4.32 4.62 4.88 2.25.73 5.29-.54 7.46.76 1.03.62 1.41 2.67 2.34 3.53 1.51 1.4 8.73 5.58 2.75 7.45-2.57.81-16.71.61-18.7-.89-1.35-1.02-1.61-3.91-3.62-4.6-4.28-1.47-12.97 1.1-17.24-.38-1.35-.47-7.37-8.81-9.01-9.79-3.81-2.27-3.63 1.37-9.55-4.55-5.67-5.66-6.99 2.83-5.11 7.47 7.16 6.14 13.62 12.99 20.55 19.4.94.87 1.33 2.92 2.35 3.53 2.2 1.32 5.17.04 7.46.77 1.97.62 2.27 3.6 3.62 4.61 2.35 1.77 27.12 1.8 29.55 0 1.72-1.28 7.3-9.22 8.72-10.08 2.3-1.4 5.57-.08 8.08-.74l1.43-4.44 5.25.99c2.62 6.97-1.07 6.97-4.07 10.17-1.22 1.3-7.66 9.01-8.3 9.31-2.21 1.05-4.91.08-7.1 1.14-2.78 1.34-3.3 7.46-11.72 5.9l-19.99 21.23c-7.46-2.69-8.89 4.56-12.31 5.22-5.86 1.13-14.9-1.44-20.65.5-3.16 1.06-3.56 4.59-5.39 5.18-2.25.73-5.27-.54-7.46.76-1.45.86-1.68 4.25-4.33 5.08-3.94 1.24-7.68-1.33-10.11-.77-2.87.66-3.85 5.35-5.18 5.71-3.14.84-12.17-1.47-13.93 1.08-.2 2.93-3.3 16.53 2.31 15.31 1.7-.37 2.36-3.43 3.39-4.3 3.42-2.89 12.23 1.09 17.65-.58 2.74-.84 2.95-4.79 5.1-5.47 2.26-.71 5.28.53 7.46-.77 1.45-.86 1.69-4.27 4.32-5.08 1.81-.56 9.63-.62 11.34-.03 2.84.97 1.79 6.16 8.41 5.8 5.36-.29 4.69-5 7.24-5.81 2.27-.72 5.26.54 7.45-.78 2.87-1.74 4.81-9.22 11.79-3.32 2.39 5.52-4.94 15.4-10.02 15.78-3.29.25-8.31-2.5-10.9.17-1.1 1.13-.71 4.11-2.22 4.48-1.39.34-11.27.21-12.56-.24-2.26-.78-2.11-5.75-7.13-4.59l-2.02 4.62c-8.19-2.65-9.25 4.84-12.4 5.81-5.73 1.76-25.17-1.56-28.59.78-1.55 1.06-1.58 2.67-.59 4.17 4.54 1.05 9.91 11.16 12.94 11.73 2.25.43 14.28.37 16.24-.23 2.64-.81 2.87-4.22 4.32-5.08 2.19-1.3 5.21-.03 7.46-.76 1.64-.53 2.01-2.84 3.19-3.86 3.66-3.14 6-.64 9.87-.61 5.68.05 19.76.93 24.21-.57 3.12-1.05 3.28-3.98 4.63-4.77 1.91-1.12 4.7-.19 7.03-1.2 4.63-2.02 7.63-13.66 13.48-8.74 13.42 11.3-.52 7.79-4.05 9.94-1.55.95-7.1 8.73-8.23 9.4-2.17 1.3-5.19.05-7.46.77s-2.37 4.63-5.1 5.47c-7.85 2.41-24.74-1.5-33.66.41-3.99 7.4-32.07 23.72-8.63 22.01l2.76 4.89 24.24-.04c1.05-.28 11.58-14.33 14.95-15.87 3.75-1.71 8.74.37 12.13-.8 1.89-.65 2.35-4.28 5.44-5.23l42.7.5c2.63-.7 2.89-4.71 5.11-5.47 3.57-1.22 9.72 1.25 12.85-1.25 2.55-2.07.98-5.81 2.22-8.36.2-.41 6.1-6.2 6.49-6.44 2.19-1.32 5.17-.07 7.44-.78 2.15-.68 2.37-4.63 5.1-5.47 4.59-1.41 16.43 2.01 18.59-2.56 1.07-2.27-.12-6.46 1.67-7.73 6.07-2.17 11.34-.3 9.29 6.87-.14.49-6.05 7.71-6.49 7.97-2.46 1.45-6.55.76-8.96 2.2-1.43.85-1.47 3.8-3.95 4.57-3.76 1.17-7.85-1.49-10.62-.15-2.2 1.06-14.59 14.29-17.94 17.41-.94.88-1.34 2.92-2.35 3.53-2.19 1.32-5.16.04-7.46.77-2.08.66-2.4 4.18-4.28 5.12-6.51 3.25-41.59-1.92-45.91 1.08-2.78 3.75.34 9.58-1.67 13.61-.87 1.74-3.95 2.21-4.72 3.5-1.29 2.18-.05 5.2-.77 7.46-.65 2.06-4.25 2.45-5.12 4.28-.98 2.05-.13 4.51-.76 6.29-.74 2.11-3.74 1.6-4.54 4.92-1.63 6.74 11.39 1.83 14.53 2.97l2.56-9.43c3.96-1.6 9.66-10.97 12.32-12.42 2.94-1.6 7.06 1.65 10.93.45 2.63-.82 2.89-4.24 4.34-5.1 2.18-1.29 5.19-.05 7.46-.77s2.37-4.63 5.1-5.47c4.62-1.42 12.92 1.06 17.21-.41 2.2-.75 2.52-4.81 5.13-5.54 3.33-.93 7.54 3.02 11.6-.06 1.35-1.02 1.61-3.9 3.62-4.6 3.62-1.25 9.47.93 13.39-.7 2.54-1.77.14-10.65 1.29-13.99.74-2.15 4.23-2.42 5.12-4.28 2.37-4.96-.52-3.29 4.57-9.53.91-1.12 1.06-4.15 2.47-4.58 3.42-1.05 3.7 2.62 5.3 4.14 2.23 2.12 4.45 2.05 4.82 6.27l4.4.02c2.78-6.18-1.04-9.03-4.57-13.35 1.34-4.23-3-18.47 1.91-19.35 1.51-.27 18.92 18.94 21.57 21.7 1.95.95 11.38 1.1 12.98.01 4.63-3.14-3.21-6.04-3.55-7.08Zm-186.81-68.74c-3.99-5.94-24.49 9.41-12.35 10.65 4.92.5 12.06-5.68 12.35-10.65m213.72 4.58c.5-3.22.39-6.14-3.5-5.29-1.66.36-7.47 9.6-9.32 10.75-1.74 1.08-3.86-.64-5.91-.16-6.96 1.66-1.82 8.54 5.11 6.34 2.42-.77 2.5-3.34 3.82-4.47 1.27-1.09 3.06-.94 3.72-1.51 1.63-1.4.73-5.83 6.08-5.66m-197.27 5.98-4.78.52-1.8 4.25c-4.08.21-9.27-.92-13.11.7-2.04.86-2.13 3.75-3.76 4.53-2.11 1-4.77.17-7.07 1.18-1.89.83-3.29 4.48-5.55 5.06-1.78.45-4.97-1.39-7.31.29l.43 4.7c1.65 2.37 12.2 1.11 14.68-.75 6.03-4.52 3.79-2.16 9.47-4.63 1.7-.74 3.17-4.06 4.74-4.72 1.88-.78 5.02 1.39 7.44-.45 1.13-.86.63-3.05 1.95-4.16 2.21-1.85 5.97-.3 4.68-6.52ZM516 537.43l.52 3.57c2.42 3.27 15.1.7 8.1-4.59l-8.61 1.02Zm4.29 60.33c-1.49-1.39-9.25-7.87-9.6-8.61-1.03-2.14-.16-4.82-1.17-7.06-.61-1.35-2.89-2.2-3.5-3.55-2.37-5.25.8-12.73-10.67-8.29-.58 2.83-5.04 4.73-5.77 5.97-1.96 3.31.74 8.4-6.4 11.26l.47 2.87c3.18.64 4.66 4.96 6.16 5.92 2.93 1.88 5.75-.38 7.4.44 2.33 1.17 8.56 11.02 12.32 12.43l.79 18.01 7.56 7.76 2.86-.48c3.51-9.35 9.2-2.21 14.97-5.01.93-.45 7.4-7.1 7.39-7.95.27-2.55-3.35-2.7-4.19-4.11-1.16-1.95-.05-4.78-1.69-7.72-.29-.52-6.68-6.77-7.14-6.96-6.03-2.56-3.61.85-9.78-4.91Zm357.54 7.23v-17.63c0-.99-2.61-2.17-4.07-1.72-1.69.53-1.56 3.59-2.4 4.65-2.49 3.12-23.55-.22-29.12 1.42-4.93 1.45-1.97 8.19-4.27 9.83-6.08-.21-13.77 3.44-18.88-.11-.72-.5-11.35-10.95-11.84-11.63-1.71-2.37-.61-5.19-1.69-7.71-2.88-6.75-12.88-8.69-19.45-6.56l-3.05 10.12-24.34.03c-.93-.25-3.17-11.9-7.78-1.86 8.68 3.79 4.25 4.81 6.06 10.42 2.06 6.39 26.34 1.23 31.87 3.06 1.64 4.46 10.6 9.78 11.98 13.02 2.56 6.01-.85 3.61 4.91 9.78 2.14 2.3 8.08 9.88 10.44 10.21 7.73 1.1 9.99-9.92 15.46-11.55 3.46-1.03 8.21.64 11.32-.43 2-.69 2.28-3.56 3.63-4.61 2.91-2.27 18.01 2.03 23.1-.41l8.11-8.31Zm-142.04 3.05c-4.96 7.31 15.24 7.81 16.32 2.79 1.1-5.09-15.57-3.91-16.32-2.79m70.23 49.42-4.4-.02c-5.28 3.18 9.23 25.05 10.52 12.21.8-7.95-5.06-5.7-6.12-12.19m-197.56 86.46c.34-.28 5.43-6.32 5.61-6.72 3.74-8.04-4.11-8.55-5.08-11.34-1.86-5.41.35-21.51.89-27.87-4.8-6.07-6.71 1.86-8.92 2.59-1.85.61-4.25-.21-6.28.76-1.69.81-6.96 9.06-9.71 10.37-2.23 1.06-4.59-.81-7.15.9-3.52 2.36-12.07 14.42-14.86 15.86-2.29 1.19-5.94-1.87-8.32 1.32-.67.89-.58 3.29-1.21 3.74-1.33.94-5.74-.98-8.75 1.24-.33.25-5.56 5.61-5.78 5.97-1.18 2.01-.07 4.77-1.7 7.7-4.83 8.65-22.57 15.78-22.3 28.23l-15.18 14.2.03 33.68c.66 2.15 8.53 7.02 9.76 9.04 1.56 2.57-.59 6.41 1.75 8.84 2.35 2.4 5.59.27 7.92 1.36s2.66 3.71 3.87 4.46c1.48.92 16.08 1.08 18.01.41 1.79-.62 2.27-3.76 4.63-4.87s5.56 1.03 7.92-1.36c2.2-2.21.53-5.64 1.33-8.09.48-1.47 8.35-5.2 4.01-11.41-4.22-6.04-11.36 4.73-13.01 4.49-3.9-1.56-4.18-9.18-.58-10.89 2.2-1.04 4.9-.11 7.09-1.15 1.72-.82 1.77-3.8 3.81-4.56 2.81-1.05 5.86 1.71 8-1.22 1.48-1.94 1.66-10.56.88-12.84s-6.34-3.36-5.68-6.05c2.37-4.13 6.71-.88 9.41-2.3 1.5-.79 1.73-3.06 2.66-3.85 2.49-2.12 6.29-.04 3.87-6.28-2.33-3.37-10.55 2.63-14.79-1.66-6.45-6.54 9.11-14.72 11.79-20 7.77 1.11 7.89-4.25 10.56-5.89 3.05-1.87 9.77.44 13.32-.78 2.11-.73 2.48-4.24 4.31-5.18 2.26-1.16 4.94 1.57 7.86-.85Zm82.58 42.07c-1.2 4.22 0 22.19 0 28.21 0 2.21 5.87 2.21 5.87 0v-17.63c0-1.24 5.03-2.99 5.68-4.89 1.47-4.28-1.01-12.63.4-17.22.82-2.66 4.2-2.61 4.52-3.97.98-4.23-1.1-7.97 1.82-13.2.82-1.47 2.88-2.41 3.42-3.63 1.01-2.25.14-4.92 1.17-7.06.88-1.84 4.39-2.17 5.12-4.28 1.07-3.11-.6-7.86.43-11.32 1.69-5.69 21.08-15.24 15.64-23.19l-4.17-.59c-2.09 2.79-5.11 6.49-7.54 8.89-1.64 1.62-8.81 7.1-9.46 8.19-1.16 1.94-.34 5.44-1.36 7.96-.81 2-3.75 2.1-4.53 3.76-1.04 2.19-.16 4.83-1.17 7.07-.67 1.5-3.28 2.34-3.87 4.36-.95 3.28.1 8.86-1.45 12.36-.78 1.76-3.66 1.54-4.45 4.08-1.5 4.83 1.19 12.5-.99 17.73-.82 1.97-4.65 2.83-5.1 4.39Zm93.98 32.91c1.55 5.54-1.14 17.7 0 24.09 3.8 1.2 12.36 2.45 15.3-.56 2.18-2.23.51-5.61 1.32-8.08.59-1.8 3.2-1.96 3.93-3.12.99-1.55 1.07-12.76.08-14.18-4.15-3.03-13.94 1.67-15.68-4.3-.57-1.96.06-4.16-.86-6.19-.68-1.5-3.16-2.24-3.85-4.37-.63-1.95.26-4.33-.83-6.22-.84-1.46-4.26-1.68-5.07-4.33-.94-3.06-.59-27.26.89-29.28.83-1.14 3.22-1.18 3.99-3.09 1.04-2.57.21-6.29 1.02-7.72.24-.42 9.09-5.03 2.5-7.1-10.9-3.42-14.85 3.82-20.94 10.35-.9.97-2.95 1.37-3.55 2.38-1.4 2.32.24 5.9-1.16 8.24-.69 1.15-8.37 6.61-9.39 8.24-1.76 2.81.25 8.63-.82 12.11-1 3.23-5.51 2.22-5.77 7.25-.4 7.69 5.11 6.27 5.97 10.62.56 2.81.49 23.19-.22 25.6-1.32 4.52-11.51 4.7-11.51.24v-32.91c0-.7-11.3-5.65.05-9.6.36-3.51-.8-8 .19-11.32.97-3.24 9.65-8.48 10.9-11.43 1.09-2.57-.03-5.26 1.71-7.74.93-1.32 8.22-6.4 8.89-7.52 1.4-2.32-.24-5.9 1.16-8.24.68-1.14 8.38-6.62 9.38-8.23 1.09-1.75 1.22-7.67-.49-8.88-1.16-.81-16.35-.94-18.1-.33-1.69.59-2.2 3.29-3.87 4.43-2.49 1.71-4.87-.15-7.15.9-.44.2-6.9 6.05-7.14 6.46-.93 1.63.29 4.98-.43 7.23-.68 2.14-4.64 2.37-5.47 5.1-1.03 3.36.59 7.96-.44 11.32-.84 2.73-4.71 2.91-5.47 5.11-1.47 4.29 1.02 12.63-.4 17.22-.82 2.65-4.17 2.59-4.51 3.98-1.63 6.71 1.4 19.39 0 26.77-.71 3.74-5.11 4.55-5.82 8.28-.62 3.29-.46 20.33 1.08 22.42.63.85 2.53 1.28 3.68 2.49.83.88.34 3.5 1.82 3.92 5.03 1.41 3.69-1.95 5.03-3.95 1.96-2.93 6.23-.25 8.71-1.86 1.79-1.16 1.2-4.47 2.71-4.89 6.28-1.74 2.66 6.55 10.34 5.9 3.97-.34 8.92-7.41 11.81-10.51.9-.97 2.95-1.37 3.55-2.38 1.32-2.18.04-5.17.76-7.46.66-2.1 4.22-2.4 5.12-4.28.94-1.96.21-4.36.82-6.23.7-2.16 3.18-2.9 3.85-4.38 1.14-2.52-.32-8.55 2.37-9.38 6.52-2.02 3.18 11.26 4.29 14.49.7 2.03 5.21 3.21 5.68 4.89Zm103.12-89.63c-.97-1-10.12-1.47-11.82-1.23-3.86.55-4.26 4.75-6.31 5.46-3.35 1.17-8.74-.95-12.16.76-1.85.93-2.19 4.39-4.29 5.11-3.32 1.14-10.84-.9-13.08.44-.45.27-.93 2.29-1.97 3.26-3.22 3.01-3.93 5.1-5.61 6.8-2.72 2.76-11.59 8.48-13.88 12.54-1.7 3.02-.44 5.97-2.19 8.39-1.16 1.61-9.32 7.4-10.08 8.72-1.11 1.91-.16 4.75-1.18 7.05-.66 1.47-3.26 2.32-3.87 4.36-1.04 3.45.19 8.7-.26 12.46l12.55 12.39c5.01 1.17 12.63-1 17.22.41 2.64.81 2.87 4.21 4.32 5.08 2.2 1.31 5.23.03 7.47.76 1.87.61 1.97 3.68 3.88 4.34 3.09 1.07 7.97-.64 11.35.4 2.73.84 2.9 4.71 5.11 5.47 3.41 1.17 9.14-.79 12.54.38 2.1.72 2.44 4.19 4.29 5.11 3.41 1.71 8.78-.39 12.16.76 2.2.75 2.52 4.81 5.13 5.54 2.08.58 6.14-1.13 9.12-1.1 5.21.05 10 2.1 14.57-.1-2.72-8.1 4.96-9.79 5.84-12.36 1.07-3.11-.6-7.86.43-11.32.74-2.49 4.66-3.87 5.39-6.36.67-2.27.68-18.41 0-20.67-.17-.56-6.93-8.79-7.49-8.97-4.42-1.43-3.32 4.73-5.93 5.64-1.82.64-16.65.43-18.06-.44-1.05-.65-1.42-2.66-2.35-3.53-3.32-3.12-6.82-3.77-4.51-10.39.91-2.61 8.55-4.24 5.84-12.36 5.22-3.83 13.84 3.96 16.28-4.25-7.32-2.59-4.51-8.48-6.95-11.87-.48-.67-11.07-11.32-11.82-11.68-2.62-1.28-6.96.09-8.1-.72-.64-.45-.54-3.19-1.59-4.27Zm-242.04 9.31c-1.13.2-4.18 1.84-4.4 2.78.35 5.65 10.87 5.12 11.73 1.11.61-2.84-4.95-4.31-7.33-3.89m145.04 40c.38-.66 8.43-6.64 9.25-7.78 1.75-2.42.49-5.37 2.19-8.39 3.65-6.48 21-13.64 13.57-22.84-4.03-.99-4.18 4.19-6.46 5.36-2.1 1.08-4.73-1.23-7.36.42-.4.25-5.93 6.72-6.12 7.15-1.01 2.27-.16 4.93-1.17 7.07-.74 1.55-3.41 1.83-4.21 3.12-1.51 2.46-.51 5.65-1.31 7.8-.8 2.17-3.89 1.7-4.51 4.89-.41 2.11-.62 13.02 1.79 13.52 5.09 1.07 3.56-8.98 4.34-10.34Zm-153.88 32.96c3.07-3.12 8.47.63 12.72-.77 3.28-1.08 3.26-4.8 6.39-5.4 4.48-.86 12.35 1.19 16.27-.17.47-.16 7.06-6.39 7.31-6.83 2.09-3.72-6.08-4.8-5.36-7.66 11.1-4.6 3.22-18.48 6.06-26.85.74-2.19 6.33-3.34 5.68-6.05-8.66-8.69-9.96 5.27-18.15 4.13-4.09-.57-3.97-6.01-7.1-5.99-2.76-.07-2.98 3.66-4.61 4.87-2.62 1.95-20.01 1.19-24.81 1.14-6.4-.06-9.99-4.05-13.06 4.7-9.78-.08-19.4-2.31-25.13 7.51-5.06 8.69 7.68 8.76 4.21 13.63-1.84 2.59-10.62.17-13.95 1.32-.51.18-7.46 7.13-7.64 7.64-4.33 12.3 16.39 4.48 11 18.06-3.08 4.53-9.29-9.07-15.72-3.38-.98 3.83.83 9.66-.36 13.15-.77 2.26-6.11 3.13-5.62 5.94.92 5.29 16.03.35 20.31 1.95l2.75-4.88c2.44-1.61 5.34.68 7.41-.39 1.83-.95 2.21-4.46 4.31-5.18 4.28-1.47 12.6 1.01 17.21-.41 2.73-.84 2.9-4.71 5.11-5.47 3.17-1.09 11.4.8 13.16-.35.64-.42.56-3.21 1.59-4.26Zm272-40.05c-1.13.2-4.18 1.84-4.4 2.78.35 5.65 10.87 5.12 11.73 1.11.61-2.84-4.95-4.31-7.33-3.89m-85.13 54.71c-.92-.77-1.37-3.14-2.64-3.84l-1.72-.5c-5.87 5.75-10.36 9.86-7.5 19.15.74 2.4 5.88 4.03 6.85 7.25l18.01.79c1.55.54 8.68 10.31 10.17 11.05 1.83.91 5.77-2.03 8.34 1.34.66.86.58 3.28 1.21 3.73 1.13.8 5.47-.54 8.12.72 1.58.75 7.23 9.16 9.64 10.33 5.69 2.75 10.91-1.37 8.9-7.74-1.02-3.23-4.94-1.87-5.73-7.24-1.24-8.43 7.47-5.46 4.81-11.82-6.46-1.58-9 2.07-11.42-5.37-2.44-1.61-5.34.68-7.4-.39-1.7-.88-2.24-4.02-3.53-4.79-2.2-1.3-5.21-.04-7.46-.77-1.74-.56-2.24-3.73-4.56-4.84-3.94-1.88-8.59.08-11.88-1.04-1.76-.6-2.26-3.75-4.63-4.87-2.34-1.11-5.03.96-7.56-1.16Zm-100.36 34.59c-8.31-5.27-9.44 3.32-12.36 4.33-8.46 2.94-12.3-7.83-18.6-11.57l-1.69-8.89c-8.3-2.55-4.87 4.26-6.14 8.13-.61 1.87-3.68 1.97-4.34 3.88-1.06 3.07.6 7.87-.42 11.33-.74 2.49-4.65 3.87-5.39 6.36-1.04 3.5.55 8.16-.22 11.28-.34 1.39-3.69 1.33-4.51 3.98-1.03 3.34.6 7.96-.43 11.32-.84 2.73-4.71 2.91-5.47 5.11-1.07 3.12.6 7.86-.43 11.32s-9.61 6.52-4.5 13.21c4.36 3.11 5.28-6.42 10.03-5.45 5.58 0 5.06 7.25 9.29 5.92l4.81-5.78c.79 0 8.72 10.87 10.79 11.51 3.36 1.04 8.27-.68 11.35.4 1.16.41 8.75 10.64 13.12 3.35 3.32-5.55-1.29-49.77.51-59.42-.57-3.52 3.77-4.73 4.52-7.23.48-1.59.59-12.27.07-13.11Zm28.36 117.95v-78.75c0-.76 3.87-1.88 4.51-3.71 1.48-4.25-.98-12.88 1.4-18.28.78-1.76 3.66-1.54 4.45-4.08 1.03-3.33-.6-7.99.43-11.33.68-2.2 9.55-6.05 5.1-12.59-2.44-3.58-9.67 5.11-10.58 7.1-1.57 3.44.19 7.47-.84 10.91-.71 2.39-9.44 14.7-10.11 16.92-1.03 3.43.65 8.22-.42 11.33-.69 2.01-3.59 2.28-4.6 3.62-3.37 4.49.56 36.36-1.07 44.77-.64 3.28-4.12 3.11-4.65 4.77-1.2 3.78 3.63 3.57 4.45 5.98 1.1 3.21-.24 9.95.18 13.94.65 6.03 4.6 6.17 7.76 11.03 1.39.66 3.65-.46 3.99-1.64Zm53.77-117.83c-2.44-2.5-6.27.03-7.96-.8-2.72-1.34-2.65-8.11-10.97-5.17-.9.32-13.2 12.63-13.48 13.54-1.61 5.24.87 15.1-.24 20.91-.63 3.31-4.02 3.79-4.65 7.1-1.25 6.56 1.81 23.51-1.52 28.45-.55.82-2.59 1.03-3.28 1.96-1.41 1.88-1.85 34.82-1.07 38.88.62 3.22 3.79 3.87 4.44 6.13 1.27 4.39.37 12.78 1.64 17.17.62 2.16 3.6 3.01 4.24 5.17.95 3.22-.31 7.28.74 11.04.84 3.01 3.96 2.77 4.8 4.56 1.09 2.31.04 4.84 1.67 7.75.39.69 10.47 10.78 11.16 11.17 2.9 1.63 5.47.58 7.73 1.67 1.84.89 2.17 4.39 4.28 5.12 1.71.59 18.67.62 20.93.17 4.04-.8 3.75-4.94 6.08-5.67 2.27-.72 5.26.55 7.44-.78 1.55-.94 7.08-8.7 8.24-9.39 2.34-1.39 6.26.12 9.06-2.12.34-.27 5.41-5.19 5.61-5.53 1.29-2.14.1-6 1.69-8.59.81-1.32 8.05-6.47 8.88-7.87 1.13-1.91.19-4.7 1.2-7.02 1.21-2.78 9.36-7.85 10.54-10.61.99-2.33.18-5.01 1.17-7.07.8-1.67 3.87-1.81 4.17-3.13.43-1.93-.53-4.5.15-6.64.67-2.09 4.22-2.4 5.12-4.28 1-2.08.17-4.76 1.17-7.05.82-1.87 4.32-3.16 5.03-5.55s.78-22.8.22-25.6c-.04-2.96-3.13-3.29-4.57-4.83-1.93-2.06-13.13-14.69-14.17-15.19-2.65-1.27-6.99.07-8.12-.72-.63-.45-.55-2.87-1.21-3.73-2.57-3.36-6.51-.43-8.34-1.34-1.4-.7-7.96-9.8-9.39-10.65-2.17-1.3-5.2-.05-7.46-.77-2.08-.66-2.4-4.16-4.28-5.12-4.02-2.04-7.86 1.32-10.94.46-2.62-.73-2.98-4.87-5.13-5.55-2.26-.71-5.28.53-7.46-.77-1.29-.77-1.79-3.89-3.5-4.73-2.62-1.28-6.96.09-8.1-.72-.64-.45-.54-3.2-1.59-4.27Zm-137.45 82.26c-2.17-2.13-10.72-1.85-13.55-.67-.81.34-11.67 11.9-12.1 12.67-1.64 2.93-.52 5.8-1.69 7.71-.62 1.02-2.86 1.31-3.53 2.35-.8 1.25-1.11 17.12-.61 19.15.29 1.2 2.67 1.49 3.61 2.51 2.58 2.8 12.03 14.17 14.03 15.37 2.18 1.3 5.21.04 7.46.76 1.86.6 2.35 4.36 5.41 5.21 2.54.7 6.17-1.61 9.82-.48 3.06.95 3.33 6.87 7.26 5.66 2.77-.86 1.17-7.02 2.34-9.43.81-1.67 3.88-1.81 4.17-3.13.43-1.93-.53-4.49.15-6.64.68-2.14 4.64-2.37 5.47-5.1 1.1-3.57-.87-8.78.79-12.15.77-1.55 3.42-1.84 4.2-3.12 1.51-2.46.51-5.66 1.31-7.8.76-2.03 3.7-2.04 4.32-3.91.67-2.03-.32-4.8.32-6.73.62-1.89 2.58-1.52 3.67-2.21 6.45-4.07-4.33-10.01-3.83-.49-3.91 3.43-5.43-4.08-7.8-4.9-4.06-1.39-12.57.59-17.25-.13-1.55-.38-1.2-5.89-4.91-5.66-2.37.36-3.25 7.27-7.6 5.6-.31-1.35-.49-3.47-1.46-4.42Zm-37.67 49.46c-6.22-5.57-5.12 7.67-5.76 8.81-.41.72-3.45.79-4.25 3.38-.69 2.24-.56 22.34.39 23.86l17.03 17.05c8.39-1.58 8.99 4.6 11.72 5.91 2.19 1.05 5.08-.01 7.06 1.16 2.62 1.55 2.84 7.19 9.8 4.25l3.3 5.55 4.39.05c1.83-2.3-.1-5.43.36-7.25.64-2.54 4.95-3.7 5.63-7.33.51-2.71.3-26.53-.49-27.67-3.5-2.56-8.86-.11-12.78-1.32-2.73-.84-2.9-4.71-5.11-5.47-3.54-1.22-10.3 1.09-13.32-.78-.69-.43-9.65-9.82-11.34-11.57-2.05-2.13-4.69-6.89-6.63-8.63m.34 70.14c.82-.82-.21-3.95-1.22-5.23-2.33-2.92-13.68-11.52-14.65-13.55-2.47-5.16 1.09-3.2-4.67-9.43-3-3.25-6.01-6.6-8.78-10.06l-3.44.8c-3.48 5.54 7.26 15.64 11.12 19.8 1.06 1.14 2.97.91 3.69 1.54 3.06 2.64 8.23 11.28 12.73 14.9 1.21.98 4.39 2.06 5.23 1.22Zm6.23 26.69-40.99-43.03c-6.45-2.06-3.04 11.1-4.18 14.41-.68 1.96-3.66 1.93-4.34 3.89-.53 1.54-.53 11.02 0 12.57.57 1.65 6.79 5.27 5.62 11.72l26.88 26.29c2.53 6.36-4.36 10.98-9.58 7.52-2.41-1.6-.35-6.73-6.5-4.65-4.13 6.61 3.47 10.08 4.34 12.4.8 2.13-.2 5.33 1.31 7.81.87 1.43 3.8 1.47 4.56 3.96 1.04 3.36-.67 8.22.4 11.35.72 2.1 4.24 2.47 5.12 4.28 1.29 2.67-.17 6.28.81 8.02.3.53 8.37 6.53 9.22 7.76 1.74 2.48.62 5.17 1.71 7.73.33.77 10.86 11.31 11.61 11.84 2.58 1.82 5.38.53 7.79 1.68 2.27 1.08 2.62 7.24 9.72 5.14.52-.15 7.67-6.91 7.96-7.37 1.71-2.66.53-5.47 1.64-7.78.81-1.67 3.83-1.78 4.16-3.14 1.48-6.04-1.61-16.24.96-23.03-4.68-7.81-5.85 1.5-8.81 2.51-3.34 1.14-9.53-.39-13.32.19-1.63-5.17 3.03-5.26 4.12-7.04 1.28-2.1-.18-5.17 1.67-7.73 4.98-6.9 9.95-5.89 14.85-8.65 6.11-3.44 14.64-17.55 21.72-21.75 6.29-17.05-14.63-6.16-19.96-10.72-1.19-1.02-1.52-3.27-3.2-3.85-3.1-1.08-7.97.63-11.34-.41-2.74-.84-2.95-4.8-5.1-5.47-2.27-.71-5.27.53-7.46-.77-1.3-.77-1.83-3.91-3.53-4.79-2.26-1.17-4.93 1.57-7.86-.85Zm14.57-20.45c-2.51-1.86-9.53-2.24-10.17 1.53-.15.88 7.22 8.31 7.77 8.5 3.08 1.07 7.85-.6 11.32.43 2.69.8 3.73 4.94 7.32 5.61 3.15.59 7.54-.77 10.36.21 1.66.58 2.01 2.83 3.21 3.86 3.21 2.78 6.07.51 9.9.54 3.08.02 9.32 2.98 10.97-1.84 1.26-3.68 1.2-12.58-3.3-14.01-7.32-2.33-7.46 4.68-11.18 5.4-2.22.43-13.07.43-15.3 0-3.12-.6-3.14-4.3-6.37-5.38-3.8-1.26-8.74.47-11.86-1.08-1.48-.73-1.7-3.07-2.66-3.77Zm-180.98 20.39c13.29-13.94 2.63-7.33-3.12-10.75-1.46-.87-1.69-4.26-4.32-5.08-3.75-1.16-28.48-.67-33.9-.27-2.18.16-4.29.39-6.25 1.39-.59 2.63.52 5.52-.73 8.09-.74 1.52-10.46 8.62-10.99 10.16-1.07 3.1.61 7.89-.42 11.33-.64 2.12-3.59 3.05-4.23 5.17s-.86 37.02-.26 39.49c.34 1.39 3.69 1.32 4.51 3.98 1.03 3.34-.6 7.96.43 11.32.84 2.74 4.79 2.95 5.47 5.1.72 2.29-.55 5.27.76 7.46 9.04 7.82 17.15 16.52 25.94 24.61.95.88 1.39 3.05 1.91 3.35 1.72.98 5.35-.48 8.02.81 1.6.78 7.75 9.84 9.35 10.62 2.67 1.29 6.33-.17 8.02.81.64.37.9 3.11 2.54 3.9 2.18 1.06 4.92.08 7.1 1.13 2.99 1.45 3.74 8.32 12.91 5.3 1.81-5.12-3.77-5.58-4.51-7.83-.61-1.85.21-4.24-.76-6.29-1.12-2.36-14.32-12.01-15.64-14.31-1.05-1.84.65-5.54-.83-8-1.77-2.93-13.33-10.84-15.26-14.11-1.13-1.91-.19-4.71-1.2-7.03-.81-1.85-4.32-3.16-5.03-5.54-1.34-4.53.86-11.44-.48-15.97-.81-2.74-5.18-3.93-5.67-7.36-.82-5.63 4.68-6.22 5.67-9.57 1.34-4.53-.86-11.44.48-15.97.71-2.38 4.2-3.67 5.03-5.55 1-2.29.17-4.94 1.18-7.07.58-1.23 12.19-11.1 14.29-13.3Zm40.58 12.4c2.21-1.26 7.8 1.42 9.75-2.59 4.33-8.87-6.19-10.43-12.7-9.13-4.25.84-3.49 4.51-6.31 5.38-3.36 1.04-8.22-.67-11.35.4-2.57.88-4.27 8.58-12.37 5.84-1.72 2.61-.61 6.87-1.94 9.23-.84 1.5-8.64 7.05-9.38 8.25-1.7 2.76.22 8.57-.83 12.1-.91 3.05-5.72 3.84-5.75 8.46-.03 5.09 4.84 4.69 5.9 7.16 1.54 3.6-2.02 2.81-3.86 4.14-5.39 3.89 2.79 4.86 3.76 7.71 1.14 3.33-1.01 9.26.78 12.15.66 1.07 2.69 1.41 3.52 2.36 2.25 2.57 11.64 13.6 13.54 14.66 2.32 1.3 5.96.13 8.57 1.71 3.95 2.39 13.73 15.92 17.91 19.99 3.84 3.74 6.08.84 5.8 10.65 3.27 4.07 19.69 16.88 21.17 19.95 1.29 2.67-.17 6.3.81 8.02.3.52 2.47.96 3.35 1.91 8.09 8.8 16.78 16.91 24.61 25.94 3.02 1.87 9.79-.44 13.32.78 2.4.83 2.05 4.87 6.09 5.66 2.95.58 24.25.39 26.39-.59 2.37-1.08 6.75-7.27 8.65-9.57.73-.88 2.6-1.2 3.19-2.05 2.49-3.53-.36-9.28 6.98-11.88l-5.86-7c2.43-5.11 6.79-.94 9.38-2.3.74-.39 11.16-10.91 11.83-11.76 2.67-3.41.81-5.13-2.97-5.15-3.95-.03-16.86.34-20.03.95-3.26.62-3.29 5.1-7.28 5.67-2.12.31-5.15-1.08-7.93-1.02-4.59.1-11.58 2.05-14.67-.6-6.25-5.36-4.46-2.2-9.49-4.61-1.87-.89-2.14-4.39-4.28-5.12-1.6-.55-10.94-.55-12.54 0-2.2.75-2.38 4.63-5.11 5.47-1.82.56-7.24.58-9.16.19-4.05-.82-3.75-4.93-6.08-5.66s-5.27.53-7.46-.77c-1.3-.77-1.83-3.91-3.53-4.79-1.8-.93-3.45.4-5.15.28-3.47-.25-6.8-7.42-9.28-9.83-1.22-1.18-4.09-1.21-4.97-2.67-1.25-2.07-.03-5.25-.74-7.49-.66-2.07-4.23-2.44-5.12-4.28-1.24-2.57-.05-5.22-.54-7.43-.3-1.37-3.69-1.31-4.51-3.97-1.04-3.36.67-8.23-.4-11.35-.53-1.55-10.19-8.57-10.99-10.16-1.71-3.42.39-8.79-.76-12.17-.73-2.14-4.54-2.04-4.59-4.87-.03-3.22 4.45-3.52 4.8-4.96 1.12-4.55-1.51-13.88.55-17.99.87-1.74 3.96-2.2 4.72-3.51 1.11-1.91.17-4.74 1.18-7.04.35-.79 10.63-12.27 11.38-12.7m26.79 17.98c-1.42 5 0 26.95 0 34.08 0 3.41 8.77 3.79 10.57 0v-34.08c0-.84 4.55-2.51 5.3-4.1 1.03-2.15.17-4.8 1.17-7.05 1.11-2.5 7.03-5.57 4.73-10.55-2.91-6.28-10.17 5.16-12.97 8.18-.88.94-2.91 1.34-3.52 2.35-1.48 2.45.22 6.15-.83 8-.34.59-4 1.58-4.45 3.17m47.82-17.85c-3.04-2.2-11.05-1.77-10.16 2.45.42 2.01 4.9 2.89 5.63 5.01 1.39 4.06-.91 11.54.43 16.02 1.5 5.03 15.14 10.91 9.82 18.53-1.21 1.74-8.37 1.73-9.55 0-1.13-2.32.03-5.25-.69-7.53-.67-2.1-4.21-2.4-5.12-4.28-1.03-2.14-.16-4.81-1.17-7.06-.67-1.49-3.25-2.33-3.86-4.36-.95-3.17 1.41-13.64-3.14-14.15-5.52-.62-1.57 11.05-3.54 14.99-.92 1.85-4.39 2.19-5.11 4.29s-.52 14.77.42 16.83c.79 1.73 3.93 3.05 4.66 4.74 1.01 2.32.08 5.14 1.19 7.04 3.24 5.57 30.25 29.39 36.98 35.87 1.95 1.87 5.97 7.69 7.58 8.87 3.02 2.22 6.72.22 8.67 1.33.52.3.96 2.47 1.91 3.35 3.21 2.94 18.22 18.57 20.1 18.77 5.47.57 8.13-4.61 5.81-9.42l-31.18-31.09c1.12-6.89-6.23-10.23-6.79-12.01-.64-2.04.29-4.7-.36-6.69-.59-1.81-3.25-1.97-3.94-3.11-1.11-1.84-.17-4.72-1.19-7.04-.81-1.85-4.32-3.16-5.03-5.54-1.34-4.53.86-11.44-.48-15.97-.8-2.69-4.92-3.71-5.61-7.32-.84-4.43.99-10.79-.27-15.01-.14-.46-5.6-7.23-5.99-7.51Zm-47.42 162.6c-2.62-2.37-1.72-5.41-7.98-4.32-.74.13-7.34 5.82-7.75 6.37-1.39 1.91-1.85 12.87-.86 14.56.3.52 8.39 6.58 9.22 7.76 1.74 2.48.62 5.17 1.71 7.73.33.77 10.86 11.31 11.61 11.84 2.58 1.82 5.37.53 7.79 1.68 1.12.53 7.86 9.45 8.42 9.76 1.74.98 5.35-.48 8.02.81 1.81.88 2.18 4.4 4.28 5.12 1.68.58 32.01.58 33.69 0 2.1-.72 2.46-4.24 4.28-5.12 2.67-1.29 6.3.17 8.02-.81.52-.3.96-2.47 1.91-3.35 3.95-3.63 26.17-21.41 10.72-23.49-1.92-.26-7.65-.32-9.27.24-2.39.82-2.15 5.02-6.11 5.7-7.83 1.35-5.92-5.35-11.66-5.99-7.8-.86-6.09 4.74-9.67 5.8-7.1 2.12-7.45-4.05-9.72-5.13-2.21-1.05-4.91-.09-7.12-1.14-1.68-.8-1.75-3.72-3.76-4.53-2.4-.97-5.27-.27-7.16-.98-2.02-.76-1.92-3.53-3.93-4.28-6.95-2.6-3.64 1.23-10.3-4.96-4.78-4.44-9.52-8.9-14.36-13.28Z"/><path d="M323.32 503.33h-46.41c-.49 0-2.44-4.14-4.44-5.06-2.47-1.14-4.71.9-6.71-.14-.86-.45-7.43-8.46-8.83-10.07-2.46-2.82-6.33-2.96-3.91-9.81.32-.9 12.95-12.98 13.87-13.25.47-.14 9.33-.39 9.81-.28 2.41.55 2.96 4.32 4.29 5.15 4.51 2.83 5.44-3.56 4.75-7.08-.69-3.53-4.78-3.18-5.67-6.09-.61-2.01-.58-8.08.02-10.12.7-2.38 4.21-3.68 5.03-5.54 1.49-3.41-.97-8.34 4.87-9.03.48-.06 7.53-.07 7.93-.02 1.19.16 9.27 7.27 9.56 7.86.95 1.96.21 4.35.82 6.23.7 2.16 3.17 2.89 3.85 4.38 1.01 2.24.14 4.92 1.17 7.06.89 1.84 4.39 2.17 5.12 4.28 1.83 5.33-1.45 17.81.38 23.13.69 2.02 3.59 2.27 4.6 3.62 2.45 3.25.93 10.84-.09 14.78Zm54.95 12.03c1.05 1.1.96 3.83 1.59 4.28 1.67 1.18 8.67-1.86 10.19 3.33.6 2.06.67 20.09.05 21.91l-18.59 19.01c-2.1 1.04-15.56 1.04-17.65 0-1.13-.56-5.81-7.16-7.99-8.46l-.47-17.76-10.4-7.97c1.65-6.37 8.15-5.36 6.09-14.46 2.44-1.92 6.06.39 8.08-.65 1.83-.95 2.21-4.46 4.31-5.18 1.88-.64 11.76-.55 13.32.4 1.33.81 1.85 3.91 3.54 4.78 2.13 1.1 5.75-1.51 7.94.78Zm-109.18 28.11c-.27-.42-9.84-3.04-4.54-6.67 1.51-1.03 12.45-1 14.12.03 1.34.82 1.79 3.89 3.51 4.72 2.06.99 4.73.19 7.05 1.18s6.88 6.67 7.16 9.35c1.04 10.03-5.45 4.67-9.49 7.08-1.46.87-1.69 4.26-4.32 5.08-3.57 1.1-17.65 1.34-18.94-2.96-2.44-8.14 10.12-10.4 5.46-17.8Zm454.59-38.72c.63 1.07.74 22.89.28 24.79-.33 1.35-3.33 1.42-4.16 3.14-1.05 2.19-.08 4.91-1.13 7.11-.24.49-7.18 7.46-7.66 7.71-2.01 1.03-4.06-.92-5.84-.14-2.14.94-3.15 4.73-3.78 5.09-1.76.98-5.34-.48-8.01.82-1.81.88-2.18 4.4-4.28 5.12-4.29 1.47-12.96-1.09-17.24.38-2.09.72-2.43 4.17-4.28 5.11-4.16 2.1-8.21-1.04-10.94-.41-3.31.76-6.98 12.57-14.39 4.53-1.34-1.79.2-2.44 1.25-3.53 2.4-2.49 6.1-5.32 8.79-7.66.95-.83 1.29-2.86 2.36-3.52 3.06-1.89 12.82.24 17.05-.57 3.15-.6 3.18-4.44 6.41-5.44 3.31-1.02 6.77 1.97 11.51-.06 2.04-.88 2.13-3.75 3.76-4.52 2.21-1.05 4.9-.1 7.12-1.14s8.56-11.03 12.32-12.34l.55-21.73c-3.6-8.27-15.23-9.05-9.45-20.08l7.83.55c2.54 2.03.98 5.8 2.21 8.36.42.87 8.09 7.31 9.75 8.45Zm109.19 387.29c2.04-2.41.07-5.92 6.03-4.21 2.56 13.43-4.83 30.26 6.01 41.45-3.97 2.92-7.8 6.72-4.74 11.93l4.67.4c-.43-4.36 4.53-5.05 5.41-6.9 1.93-4.06 4.45-13.03 5.84-17.68 6.11-3.87 7.19-11.53 15.71-6.86.44.7.44 10.58.14 12.14-.61 3.21-3.76 3.85-4.44 6.14-1.83 6.12 3.35 12.67-6.13 15.05l1.16 3.55 8.92 1.66-.18 9.6c-3.35 2.21-6.46-.21-9.35-.18-6.43.06-9.98 4.05-13.05-4.7-3.49-.53-10.52 1.19-13.32-.53-.46-.28-6.96-7.69-7.06-8.22-1.49-7.52 2.47-6.21 4.49-9.62 4-6.76 0-19.79-9.29-13.72-1.46 2.53-.38 6.32-1.68 8.63-1.08 1.93-7.69 7.2-10.46 7.05-9.23-.51-4.61-16.96-4.45-23.25.11-4.33-3.17-5.1-6.2-2.55-.67.56-9.71 10.42-10.08 11.07-1.64 2.93-.52 5.69-1.7 7.7-.67 1.13-5.59 3.94-6.43 6.49-10.58 3.76-11.59-7.43-7.56-14.61 3.32-5.92 16.31-14 19.36-19.42 1.64-2.91.58-5.43 1.68-7.75 1.05-2.22 10.92-8.68 12.32-12.31 14.42-4.41 8.72 14.54 8.51 22.7-.23 8.78 9.26.52 10.89-3.32 2.72-6.38-.37-3.39 4.98-9.7Z"/><path d="M818.16 952.07c.42.73 3.44.79 4.25 3.38.64 2.06.6 15.05-.03 17.17l-17.04 18.53c-2.97 2.06-6.06-.21-9.15-.18-3.29.03-6.69 1.79-9.67.54-.77-.32-11.12-11.43-11.46-12.19-.82-1.86-2.26-16.09-1.58-18.02l18.14-18.28c5.99-3.79 17.44 1.04 24.38.04l1.77 1.76c.68 2.19-.53 5.64.4 7.26Zm-22.91 7.65c-.74-.66-1.66-1.01-2.6-1.26-5.39 2.71-1.63 9.98-3.11 14.23-.57 1.63-7.08 3.93-4.44 7.74.8 1.16 11.57.36 13.22-.13 2.57-.77 2.65-3.84 3.37-4.25 1.81-1.03 9.57 1.09 10.28-3.32.84-5.22-7.57-2.58-9.65-3.88-1.66-1.04-5.26-7.51-7.07-9.12Zm55.81 41.7c.62 1.04 5.22 1.23 4.53 5.45l-7.72 6.62c-.58 0-8.42-7.35-8.62-7.9-1.43-4.05 3.22-13.51-2.09-14.45-3.86-.68-13.37 21.08-22.49 16.72-12.18-5.83 16.84-24.46 19.08-29.73 2.52-5.93-1.08-3.74 4.92-9.77 2.05-2.06 1.19-4.18 5.68-4.43 3.29-.18 5.77.79 6.42 4.26 1.17 6.22-1.49 30.24.28 33.23ZM717.72 334.41c2.87 3.44.59 9.23 1.73 12.98.79 2.62 7.09 3.34 4.33 7.69-1.57 2.47-9.72-.71-13.13.37-4.65 1.47-9.18 15.71-18.43 11.55-1.8 5.12 3.75 5.58 4.52 7.81 1 2.88.6 10.93-1.79 13.42-7.17 4.71-18.09-14.55-24.47-17.68-1.67-3.4.31-8.58-.79-12.15-.81-2.64-4.23-2.87-5.07-4.33-1.1-1.9-.18-4.72-1.19-7.04-.81-1.85-4.42-3.25-5.08-5.56-2.1-7.37 4.54-7.53 5.47-10.53 1.11-3.59-.77-8.48.72-12.21 1.21-1.68 6.16-.86 8.62-1.87 1.92-.79 1.96-3.16 3.09-3.99 2.12-1.55 20.37-1.76 23.37-.87 4.04 1.2 8.04 10.33 12.67 12.01.57 7.62 2.36 6.71 5.44 10.41Zm-32.78-12.31c-1.69.97-5.35-.49-8.02.81-.45.22-6.58 6.87-6.77 7.33-3.74 8.74-.56 18.88 6.32 24.94l3.39-1.13 22.73-23.11c3.08-3.27-5.81-12.47-7.61-13.1-7.96-2.82-8.36 3.31-10.02 4.27Zm1.4 39.01c7 4.03 21.75-11.33 15.32-15.91-3.91-2.18-4.9 2.73-7.06 4.78-3.57 3.38-9.25 6.13-8.26 11.13m43.47 25.28c1.81 6.33 6.94-2.56 7.55-3.03 2.93-2.25 8.21-.73 8.9 3.03.39 2.14.38 14.6-.19 16.27-.84 2.43-5.78 2.71-5.66 6.09-1.66 4.85 1.75 17.57.96 20.9-2.22 9.37-14.92-7.97-11.56-13.29-5.73-1.69-5.78 5.01-10.25 5.69-7.41 1.12-5.34-5.85-6.8-9.19-.81-1.86-4.32-3.16-5.03-5.55-1.03-3.46.64-8.26-.42-11.33-.68-1.96-3.66-1.93-4.34-3.89-.55-1.59-.5-8.48-.25-10.47.22-1.78 4.99-7.75 6.45-8.82 3.01-2.21 6.68-.22 8.66-1.34 2.45-1.38 3.82-10.69 11.98-2.69v17.63Zm-16.44-2.94c-2.44 12.14 7.27 15.81 5.7 1.93zm22.14 11.93c-5.52-3.46-4.77 1.48-6.88 2.76s-5.53-.18-7.77 1.63c-2.6 2.1-4.1 10.43 1.19 10.66 3.65-5.08 5.65-6.34 12.28-6l1.17-9.06Zm37.77 69.17c-3.77.96-10.6 2.35-14.11.6-1.88-.94-2.2-4.46-4.28-5.12-2.27-.72-5.26.53-7.45-.77-1.15-.68-7.17-8.84-7.17-10.58 0-2.54 5.65-8.91 7.69-10.06 2.79-1.58 7.35-.59 8.38-2.2 1.37-2.15-.79-7.12 2.85-8.9 4.27-.7 10.86-1.95 14.1 1.18v35.85ZM896.24 799.7c1.74-.6 14.03-.57 16.22-.16 6.95 1.3 3.51 13.95 3.93 19.14l-8.81 8.82c-4.34.07-17.38 1.83-18.97-2.92-.61-1.83-.54-14.04.05-16.02.18-.6 7.04-8.67 7.59-8.86Zm-32.91-27.03c7.34-2.56 8.25 3.21 13.41 6.19 1.46 1.96 1.75 16.24.9 18.7-.19.55-7.84 7.69-8.62 7.84-1.74.34-4.95.3-6.46-.61-.43-.26-6.25-7.18-6.45-7.64-1.01-2.32-.07-5.17-1.18-7.04-.99-1.66-6.13-1.89-3.55-5.89 3.36-1.01 10.14-10.91 11.96-11.54Zm-12.12-18.22c1.23 1.23 3.42 1.34 4.1 3.54.62 2.02.63 11.64-.39 13.29-.26.42-6.87 6.33-7.54 6.56-2.93.99-9.53.99-12.19-.59-.4-.24-5.88-6.71-6.08-7.14-3.75-8.06 4.21-8.63 5.08-11.33 1.67-5.16-3.16-7.8 5.45-8.63 8.38-.8 7.02-.24 11.57 4.3m-16.45 32.91c3.62 3.63 6.22 3.69 3.73 11.01-2.63.71-5.25 5.9-6.43 6.45-2.24 1.05-5.17 0-7.09 1.15-1.63.98-2.22 6.56-7.05 3.54-.57-.36-5.64-7.23-5.84-8.26-.53-2.77-.46-14.65 1.04-16.54 2.01-2.55 17.05-2.4 19.61-.54.82.6 1.19 2.33 2.05 3.2Z"/><path d="m675.78 344.66-1.02-8.62c5.29-7.01 7.86 5.68 4.59 8.1z"/></svg>