<svg xmlns="http://www.w3.org/2000/svg" viewBox="0 0 300 300"><path d="M122.01 238.5c.58-3.24-3.04-1.14-4.19-2.53-.73-.88.05-2.09-.5-2.87-2.01-.9-2.94-3.72-5.73-2.55-1 .42-1.35 3.55-3.4 1.14l.25-28.45c2.95-1.05 1.53-2.71 2.28-4.03.23-.41 1.17-.66 1.58-1.03 1.27-1.14 1.64-2.4 4.27-1.61.88.26 1.73 3.89 3.34.99v-33.58c-.26-1.18-2.14-1.56-2.36-2.15-.36-.93.41-1.83-.55-2.82-1.23-1.29-2.88.5-3.96-1.08.36-2.29-.8-11.48.26-12.87.3-.39 1.02-.58 1.38-.91.43-.39.79-1.09 1.22-1.34 1.38-.79 3.45.55 3.94-1.39l.07-21.83c.11-.81 1.31-.88 1.76-1.48 1.02-1.34-.24-6.48.39-8.36.3-.88 2.09-1.37 2.3-1.91l.12-4.39c.26-.73 1.83-1.02 2.19-1.71.39-.77-.04-1.63.35-2.39.32-.62 1.65-.87 1.85-1.4.31-.81-.3-1.78.38-2.67.34-.45 1.17-.66 1.58-1.03 3.11-2.73 6.22-5.4 9.38-8.08 1.82-1.54 3.43-4.54 6.4-3.45 1.63.6.72 2.24 1.1 3.24.2.53 1.53.78 1.85 1.4.39.77-.04 1.63.35 2.39.33.64 1.8.99 2.08 1.5.46.82-.12 1.88.34 2.71.31.55 1.9.86 2.19 1.71.39 1.16-.25 2.91.14 4.07.3.88 1.81.95 2.01 1.86l.17 6.15c1.6.5 2.53 3.72 4.12 2.68 1.13-.74.23-2.1.61-3.08.22-.56 1.67-.79 1.95-1.61.39-1.15-.2-2.85.14-4.07l2.29-1.92.14-4.08c.27-.8 1.71-1.04 2.1-1.78.47-.88.01-1.89.42-2.63.29-.53 1.59-.68 1.85-1.4.4-1.13-.26-2.93.14-4.08.25-.74 2.04-1.49 2.29-2.22.27-.8-.16-1.71.22-2.51.46-.57 2.28-.27 2.28.17v4.8c0 .19 1.64.83 1.91 1.35.39.77-.04 1.63.35 2.39.33.64 1.79.98 2.08 1.5.48.84-.22 2.74.49 3.17 1.98.86 1.7-1.59 2.98-1.69 2.41-.19 1.22 2.62 1.19 3.76-.64 27.48.53 55.02 0 82.51.3 1.96 2.69 1.08 2.47 3.9-.16 2.01-1.99 1.59-2.38 2.75-.54 1.58.43 4.76-.13 6.19-.22.57-1.67.79-1.95 1.61-.41 1.21.34 3.16-.25 4.28-.37.7-1.93.99-2.19 1.71-.55 1.56.41 4.57-.14 6.18-.28.82-1.74 1.05-1.96 1.61-.36.95.56 3.2-1.32 3.31-2.17.13-1.19-2.34-1.57-3.31-.21-.56-1.68-.79-1.96-1.61-.39-1.16.25-2.91-.14-4.07-.29-.84-1.84-1.04-2.21-1.99-.5-1.29.22-3.23-.21-4.32-.22-.57-1.67-.79-1.95-1.61-.66-3.54.65-8.58-.08-11.93a1.423 1.423 0 0 0-2.08-.92c-.37.2-.6 1.1-1.02 1.52s-1.34.62-1.57 1.04c-.46.82.14 2-.34 2.7-.29.42-1.56.61-1.84 1.41-.39 1.15.2 2.85-.14 4.07l-2.29 1.92c-.33 1.23.25 2.93-.14 4.08-.29.86-1.86 1.22-2.13 1.78-.65 1.34.17 3.37-.29 4.53-.22.57-1.67.79-1.95 1.61-.41 1.2.75 5.2-1.29 5.19-1.7 0-.93-2.42-1.6-3.43-.43-.64-1.45-.8-1.79-1.45-.47-.88-.01-1.89-.42-2.63-.29-.53-1.59-.68-1.85-1.4-.4-1.13.26-2.92-.14-4.08-.29-.85-1.88-1.15-2.19-1.71-.46-.82.12-1.88-.34-2.71-.29-.51-1.74-.85-2.08-1.5-.45-.86.12-2.02-.35-2.7-.88-1.28-3.59.56-4.27-1.41-1.63-4.76 4.05-1.73 4.45-4.42l-.02-23.71c-.68-2.01-3.38.2-4.33-1.66-.27-.52-.36-7.89-.12-8.49.58-1.49 4.54.11 4.47-2.13.27-16.3-.4-32.62-.03-48.92.03-1.47 1.69-8.36-1.47-7.59-2.28.55 1.32 6.2-2.33 5.82-1.51-.67.29-4.44-2.18-3.7-1.86.56-.48 5.34-1.01 6.93-.3.88-1.81.95-2.01 1.86l-.04 98.04c.19 2.66-2.46 3.66-4.27 5.31-.83.75-.45 1.73-2.46 1.8-2.8.1-2.58-3.23-4.54-1.85-.68.48-.67 3.86-.42 4.61.14.41 3.61 3.17 4.28 3.2.92.04 2.45-.32 3.64-.11l5.51-4.56c1.14-1.56-.74-7.25 1.65-7.59.36-.09 1.17.65 1.17.72v10.5l-2.36 1.86-.06 8.04c-.2.91-1.71.98-2.01 1.86-.55 1.62.42 4.44-.22 6.11-.36.93-1.76 1.12-2.1 1.78-.43.83.13 1.74-.5 2.57-.53.69-3.16 2.28-3.84 2.98-.51.52-.38 1.04-.35 1.65h-4.86Zm42.57-127.71c-1.87.47-.61 5.32-.57 6.69.25 10.13-.37 20.35.17 30.45 2.05 1.33 2.16 2.51 1.92 4.67-.25 2.28-1.29 1.57-2.12 2.66-.88 1.15 0 2.69.04 3.91.11 4.02.11 8.3 0 12.32-.03 1.28-1.42 5.13 1.19 4.96 1.48-.1.56-2.06 1.05-3.02.41-.78 2.37-1.39 2.27-2.54-.29-17.87.5-35.87-.4-53.67-.76-.66-1.7-.87-1.97-1.89-.35-1.34.85-5.14-1.57-4.54Zm-5.45 4.3v32.99c0 .59 2.14 1.06 2.44-1.19-.77-9.78 1-20.67 0-30.31-.09-.89-.23-2.07-1.57-1.96zm0 44.09v22.79c0 .55 2.1.87 2.42-.61l-.06-21.82c-.32-.95-2.1-1.11-2.36-.36M50.54 85.7c.13.38 1.79 1.22 2.01 1.86.4 1.15-.25 2.91.14 4.08.29.85 1.87 1.15 2.19 1.71.58 1.03-.16 3.1.24 4.29.32.95 2.64 1.29 2.36 2.76l-.03 92.66c-.03.51-2.87 3.23-3.1 3.32-1 .42-2.35-.19-3.32.43-.75.47-2.75 2.75-3.6 3.48-1.51 1.29-3.02 2.55-4.51 3.9-.38.35-1.16.55-1.43.87-.71.84 0 2.01-.49 2.87-.15.27-3.29 2.45-3.85 2.97-.64.6-.76 2.35-2.58 1.38-.41-.22-.5-.99-.88-1.34-.76-.69-3.14-2.24-3.65-2.84-.64-.76-.08-1.87-.57-2.8-.43-.81-4.05-2.94-4.42-3.67-.43-.84.13-1.74-.5-2.57-.47-.62-2.92-2.17-3.67-2.83-1.93-1.72-3.77-3.55-5.71-5.26-.8-.7-1.59-.46-1.77-1.77-.43-3.12 2.16-2.21 2.46-4.2l-.2-77.54c-1.01-1.96-4.32.63-4.61-1.91.26-.79 1.89-1.15 2.19-1.69.4-.72-.05-1.63.34-2.4.31-.61 1.62-.86 2-1.57.71-1.31-.15-3.36.31-4.53.21-.54 1.53-.78 1.85-1.4.39-.77-.04-1.61.36-2.39.36-.7 1.99-1.19 2.19-1.7.43-1.09-.3-3.21.12-4.39.25-.72 1.55-.87 1.85-1.4.63-1.13-.73-3.86 2.25-3.16 1.3.56.57 3.62.4 4.75l2.31 1.92.14 4.08c.3.89 1.96 1.01 2.28 2.22s-.26 3.1.13 4.09c.18.46 2.03 1.18 2.03 1.55v78.28c0 .87 2.43.87 2.43 0V81.24c0-.61 2.43-.61 2.43 0v24.89c0 .52 1.77.73 2.26-.15.46-.83-.09-1.84.35-2.7.33-.63 1.63-.86 1.85-1.4.43-1.1-.3-3.21.12-4.39.26-.73 1.83-1.02 2.19-1.71.39-.77-.04-1.63.35-2.39.32-.62 1.63-.86 1.85-1.4.43-1.09-.29-3.03.21-4.32.31-.8 2.28-1.59 2.28-1.93v-4.5c0-.61 2.43-.61 2.43 0 0 1.04-.24 3.76 0 4.5Zm-11.23 25.07c-.21.06-2.17 2.69-2.64 3.12.67 5.96-.91 13.44-.03 19.2.12.8 2.71 3.53 3.65 3.45s1.55-2.31 2.98-2.55l.31-.63c-.59-5.31.81-11.96.02-17.11-.24-1.6-2.12-1.74-2.39-2.43-.32-.8.23-1.97-.21-2.82-.3-.36-1.26-.39-1.71-.25Zm-2.09 27.89c-.51.15-.58.61-.57 1.01l.09 16.15 1.1.8c.98-.33 1.11-2.09 2.12-2.1 1.39 0 1.49 3.52 3.47 1.51l.1-16.58c-1.83-2.46-2.26 1.3-3.58 1.21-1.32-.47-1.02-2.49-2.73-2m-.11 22.25c-.43.46-.41 1-.46 1.55-.67 6.7.52 14.21.02 21 .86 1.26 2.78 2.4 3.96 3.47.81.74.68 2.29 2.82 1.2l.14-26.25c-.13-.91-1.26-1.12-1.88-1.68-.79-.71-.54-2.09-2.64-1.34-.18 1.25-1.45 1.51-1.96 2.05"/><path d="M80.38 141.18c.18-.49 1.31-.57 1.85-.41.71.2.69 1.11 1.09 1.46.47.42 5.99.78 6.36-.52l.06-15.83c-.18-1.1-1.88-1.22-2.27-2.24-.32-.82-.33-3.67.17-4.39.41-.58 1.79-.83 2.04-1.53.38-1.07.44-4.66-.96-5.06-2.72-.78-2.94.31-4.34 1.68-.37.37-1.2.6-1.4.89-.7 1 .2 6.56-.18 8.24-.25 1.11-2.02 1.19-2.35 2.17-.54 1.6.41 4.62-.14 6.18-.25.72-1.56.87-1.85 1.4-.68 1.23.68 3.47-2.45 3.58-3.42.12-2.05-2.34-2.74-3.58-.55-1-2.37-.35-1.93-3.16.24-1.55 1.78-1.45 2.04-2.13.28-.73-.2-1.67.23-2.5.36-.7 1.93-.98 2.19-1.71l.14-6.18c2.54-1.99 4.75-4.31 7.24-6.33.61-.49 2.23-.82 1.99-1.78-.36-1.47-2.66-.78-3.57-.78-2.32 0-4.64-.03-6.95-.01l-.53.15c-.41.22-.5.99-.88 1.34-.83.74-3.46 2.45-3.99 3.15-.63.83-.07 1.75-.5 2.57-.33.64-1.55.72-1.76 1.47l-.17 25.95c-.14 1.09-1.08 1.88-2.24 1.07l-.43-.82c.27-8.66-.63-17.73-.09-26.34.06-.9.19-2.81.36-3.59.19-.89 1.72-.97 2.01-1.86.69-2.03-.76-6.97.57-8.51.46-.53 1.7-.92 1.88-1.38.58-1.47-.52-4.96.23-6.4.33-.62 1.62-.87 2-1.57.45-.84.07-1.69.32-2.42s1.56-.87 1.85-1.4c.49-.89-.23-1.99.71-2.99.35-.37 4.58-4.03 4.88-4.18 1.1-.59 2.33-.09 3.26-.48.63-.26.87-1.53 2.07-1.83 1.7.27 3.77-.5 5.05.48.46.35.73 1.16 1.2 1.36.74.31 1.72.05 2.54.21.26.05 3.44 2.45 3.54 2.63.46.82-.12 1.88.34 2.71.29.51 1.74.85 2.08 1.5.45.86-.12 2.01.35 2.7 6.16 2.37 3.57-2.23 4.41-4.6.26-.72 1.82-1.01 2.19-1.71.45-.86-.12-2.02.35-2.7 2.64-1.47 5.27-.45 4.27 2.49-.33.97-2.86 1.38-2.37 3.05v88.5c-.07.86.91 1.61 1.89 1.32.51-.15 1.09-3.4 2.67-1.65s-1.78 1.76-2.06 2.46l-.1 6.51c-.22.58-1.2.6-1.67.96-1.52 1.18-.2 5.12-.78 6.82-.28.82-1.73 1.04-1.95 1.61-.46 1.17.4 3.21-.31 4.53-.4.74-1.83.98-2.1 1.78l-.14 6.18c-.23.64-1.22.79-1.68 1.25-.81.8-1 2.62-2.88.99-.63-1.26.58-2.87-.03-4.45-.36-.93-1.76-1.12-2.1-1.78-.39-.77.04-1.63-.35-2.4-.31-.61-1.63-.87-2-1.57-.47-.88-.01-1.89-.42-2.63-.29-.53-1.59-.68-1.85-1.4-.39-1.12.22-2.87-.14-4.08l-2.36-2.16v-6.3c0-.61-2.43-.61-2.43 0v6.6c0 .34-1.78.9-2.02 1.56-.55 1.54.33 4.46-.14 6.18l-2.29 1.92-.13 8.29-2.8 2.71c-3.03.51-1.45-2.03-1.69-2.9-.18-.64-1.85-1.03-2.2-1.71-.45-.86.13-2.01-.35-2.69-.2-.28-1.03-.52-1.41-.88-1.22-1.16-2.56-2.19-3.63-3.46-.48-.25-4.68-.26-5.31-.1-1.04.28-1.27 2.43-3.04 1.62-.46-.29-.46-2.48-.26-2.97.21-.54 2-1.03 2.3-1.91.39-1.16-.26-2.95.14-4.08.27-.77 1.68-.84 1.95-1.61.55-1.56-.42-4.63.13-6.19.26-.72 1.82-1.01 2.19-1.71.59-1.12-.16-3.07.25-4.28.25-.74 1.37-.95 1.82-1.43 2-2.14-1.91-7.89 2.28-7.34 1.45 2.91 2.98 1.7 5.7 1.65 5.67-.1 2.93.82 4.19 3.31.34.68 1.78 1.06 2.02 1.58.42.9-.06 2.12.54 2.81 1.29.95 3.26.89 4.13-.38l-.11-20.49c-.32-.5-.78-.55-1.37-.61-1.19-.13-8.88-.09-9.42.28-.7.48-.33 2.08-2.35 1.49-.78-.23-.75-2.46-.51-3.06s2.11-.98 2.36-2.16c.38-1.71-.31-4.14.06-5.94l2.03-1.25v-4.8Zm115.41 57.84c-.38-.34-2.48-2.28-2.65-2.36-1.05-.44-3.05.32-3.65-.75-.29-.52-.33-7.04-.19-7.96.22-1.44 1.14-1.15 1.75-1.79.73-.76.26-4.95.34-6.31.05-.86.25-3.89.43-4.42.24-.7 1.7-1.23 1.94-1.92.4-1.19-.34-3.26.24-4.29.29-.51 1.74-.85 2.08-1.5.43-.82-.05-1.77.23-2.5.21-.56 1.68-.79 1.95-1.61.19-.56.2-3.21.06-3.83-.25-1.13-1.77-1.23-2.02-1.86-.61-1.55.53-4.92-.29-6.63-.3-.63-1.68-.79-2.02-1.27-.44-.64.01-1.72-.24-2.49-.28-.84-1.88-1.15-2.19-1.71-.44-.77.06-1.77-.23-2.5-.35-.9-2.25-.41-2.05-3.06.15-1.96 1.74-1.65 2.05-2.44.7-1.76-1.28-6.82 1.63-7.29 1.57-.25 4.97.73 5.36-1.07l-.31-30.31c-3.95-1.12.61-6.92-3.79-6.38.17 1.36-2.29 1.91-2.42 2.1-.5.69.84 3.91-1.57 3.77-1.32-.08-1.4-1.56-1.29-2.47.2-1.73 2.14-1.46 2.41-2.13.53-1.3-.32-4.53.12-6.2.31-1.19 1.79-1.27 2.18-2.02.62-1.19-.68-2.84 1.47-3.23.87-.16 1.99.09 2.66-.1.74-.22.49-2.18 3.16-2.08 1.68.06 3.79 2.7 5.02 3.78.42.37 1.35.63 1.58 1.03.46.82-.12 1.88.34 2.71.25.45 1.35.73 1.77 1.17 1.37 1.47-.2 6.93.55 8.82.25.62 1.77.72 2.02 1.86v131.06c.37 3.51 5.46-.46 4.89 4.2-.27 2.26-2.52 1.33-4 1.33-3.48 0-6.96-.01-10.44 0-1.58 0-2.92.84-4.15-.58l-.17-34.34c-.04-.17-2.14-2.07-2.55-2.44Zm28.23-63.84c-.18-.49-1.31-.57-1.85-.41-.7.2-.69 1.19-1.28 1.59-.97.65-3.02.58-3.75-.32l.27-2.99c.74-.81 2.61-.09 3.65-.74.56-.35.5-.97.9-1.32.55-.48 1.53-.31 1.92-1.34.44-1.15.34-9.36.17-10.98-.26-2.38-1.99-1.93-2.37-3.05l-.23-4.6c-2.43-1.41-2.01 3.16-4.53.91-1.33-2.33 1.93-3.35 2.19-4.1s-.13-1.58.32-2.42c.39-.74 1.83-.98 2.1-1.78.41-1.21-.34-3.16.25-4.28 3.84-1.71 1.61-4.81 2.26-7.65.25-1.09 1.72-1.05 2.01-1.86.4-1.13-.26-2.92.14-4.08.09-.25 3.16-3.36 3.75-3.09 1.92.43.63 3.67 1.11 5.07.3.88 1.81.95 2.01 1.86l.07 5.94c.29.85 1.87 1.15 2.19 1.71.62 1.1-.23 3.46.23 4.6.27.67 2.88 1.31 2.39 2.73-1.14 27.86 1.45 56.55 0 84.31-.08 1.6-.51 3.31-.51 4.96-.89.72-1.63 1.63-2.45 2.37-1.4 1.26-5.17 3.7-6.1 4.93-.63.83-.07 1.74-.5 2.57-.3.58-3.8 2.79-4.16 3.3-.48.68.1 1.84-.35 2.69-.27.51-1.25.8-1.71 1.22-.38.35-.48 1.12-.88 1.34-1.92 1.03-2.45-1.86-4.11-2.45-.28-11.28.17-22.58-.04-33.85-.02-.9-.9-2.65.32-3.29 1.56-.82 1.77.86 2.43 1.51.31.31.86.44 1.2.76.8.75.98 2.56 2.92.99-.39-5.55.69-11.93.07-17.37-.2-1.78-.98-1.44-2.08-2.4-.41-.36-.37-.97-.91-1.31-.87-.54-2.12-.16-3.03-.38-1.53-.37-1.64-4.2 1.28-4.13 2.28.06 2.02 1.8 2.87 2.04.52.15 1.85.02 1.85-.41v-16.8Zm27.75-17.39 6.08 4.94c2.07-.27 8.14.58 9.52-.45.68-.51.46-1.46 1.57-1.64 1.36-.22 7.53-.17 9.04-.02s1.01.85 1.74 1.5c.46.41 1.45.72 1.71 1.22.39.77-.04 1.63.35 2.39.35.69 1.94.99 2.19 1.71.27.78-.2 1.73.23 2.5.34.61 2.21.95 2.25 1.95v13.79c.15 1.06 1.95.74 2.09 1.8.11 5.2-.14 10.41-.02 15.61.04 1.84.55 3.68.38 5.7-.14 1.71-.31 1.87-2.4 1.59-.94-1.54.1-3.78-.63-5.29-.09-.19-2.63-2.26-3.07-2.46h-15.95c-1.54.19-.75 1.83-2.44 1.82-1.5 0-1.13-1-1.73-1.54-.79-.7-9.5-.1-11.46-.29-3.06-.3-1.32-1.85-2.08-3.3-.36-.7-1.93-.98-2.19-1.71-.67-1.9 1.21-4.41-1.97-5.49l-.17-22.33c.01-.89 1.32-1.09 1.72-1.51 1.05-1.09-.12-10.44.42-12.53.16-.53 2.36-1.95 2.36-2.16v-6.3c0-.87 2.43-.87 2.43 0v10.5Zm34.27 67.1c.67.58.63 6.24.11 7-.41.58-1.79.83-2.04 1.53-.79 2.22.48 7.27-.07 9.83-.26 1.19-2.02 1.21-2.35 2.47-.48 1.84.52 7.28-.39 8.36-.37.43-1.45.54-1.69 1.23-.79 2.25 1.9 8.63-3.64 7.23-2.01-.51-.86-2.67-1.46-3.53l-6.44-5.23c-.65-.77-.08-1.74-.5-2.56-.36-.71-2.26-1.1-2.34-2.33l-3.91-.67-1-3.34c-.79-.54-2.23-.06-3.25-.49-.97-.4-.72-1.57-1.7-1.83-.72-.19-5.61-.18-6.54-.07-1.38.16-2.73 2.11-3.9 2.93.27 1.81-.67 9.52.1 10.59.25.35 1.28.51 1.75.88.62.49.64 1.38 1.29 1.62 1.11.41 2.86-.34 4.24.21 1.05-.11 3.39-3.06 4.33-3.78.47-.36 1.39-.45 1.6-.72.6-.75-.49-2.89.85-3.47 1.88-.81 2.29 1.15 2.1 2.42-.22 1.51-1.81 1.07-2.28 1.93-.45.82.13 1.88-.55 2.82-.45.63-3.16 2.5-3.97 3.17-.4.33-.64 1-1 1.23-.73.46-4.8.45-5.6 0-.52-.29-.77-1-1.19-1.37-.48-.42-1.17-.57-1.54-1.07-.75-.98-.27-2.36-.7-2.99-.31-.45-1.61-.44-1.86-1.09-.56-1.46.42-4.61-.13-6.19-.23-.67-1.66-1.29-2.03-1.84-.59-.88-.44-10.27-.34-12.03.05-.83.41-4.49.68-4.81.37-.43 1.45-.54 1.69-1.23.64-1.81-.64-7.45.39-8.66.36-.43 1.6-.71 1.93-1.33.45-.86-.13-2.01.35-2.69.2-.28 1.03-.53 1.41-.88 1.27-1.2 2.56-2.37 3.86-3.56 1.89-.4 9.22.52 10.19-.49.59-.61.29-1.88 2.18-1.33.66.19.69 1.05 1.12 1.44.36.32 2.41 2.2 2.58 2.27.89.37 1.98-.03 2.89.2.81.21 1.05 1.48 2.07 1.83.94.32 1.95-.42 2.81.24 2.13 2.33 4.95 4.18 7.3 6.28.38.34.47 1.12.88 1.34.84.45 2.76-.19 3.74.52Z"/><path d="M264.86 80.51c3.12-.58 2.84 1.73 3.79 1.99s1.97-.24 3.09.33c1.51.77.41 2.45 1.02 3.32.1.14 2.44 2.17 2.6 2.25 1.06.56 3.69-.56 4.15 1.51.59 2.62-1.18 2.18-2.1 3.27s.11 8.18-.33 10.21c-.26 1.19-2.02 1.21-2.35 2.47-.56 2.16.53 6.1-.14 7.98-.22.6-1.07.7-1.48 1.12-.57.59-.6 1.57-1.82 1.74-1.97-.37-.63-2.32-1.47-3.42-2.74-2.39-5.83-4.61-8.5-7.04-.38-.34-.43-.97-.9-1.32-1.53-1.16-8.17 1.1-8.66-1.21-.17-.79-.12-3.93.32-4.52.38-.5 1.5-.72 1.7-1.23.46-1.17-.4-3.22.31-4.53.38-.71 1.68-.96 2-1.57.39-.77-.04-1.63.35-2.4.31-.61 1.63-.87 2-1.57.47-.88.01-1.89.42-2.63.15-.27 3.27-2.54 3.82-3 .75-.62.86-1.5 2.16-1.74ZM62.55 202.85c.45-.13 1.1-.1 1.52.12.16.08 2.3 2.31 2.36 2.46.23.68.24 7.19.06 8.03-.34 1.58-4.03 1.42-4.43.25-.32-.93-.26-8.56-.09-9.85.06-.42-.01-.83.58-1Zm6.43-42.67.1-3.27c3.33-1.43 1.71 2.95 2.6 3.48 2.76-.1 5.53.43 4 3.42-.69 1.35-4.05 1.23-4.33-.14-.39-1.92.88-2.8-2.37-3.5Zm16.84-33.5c2.33-.57 1.69 3.62.93 3.83-2.33.66-2.53-3.44-.93-3.83m-2.45 5.97c2.38-.67 2.64 3.72.64 3.89s-1.39-3.68-.64-3.89m-15.94 18.03c2.33-.57 1.69 3.62.93 3.83-2.33.66-2.53-3.44-.93-3.83m120.39 23.97c1.95-.43 2.01 3.87.29 3.88s-1.72-3.56-.29-3.88"/></svg>