<svg width="566" height="141" viewBox="0 0 566 141" fill="none" xmlns="http://www.w3.org/2000/svg">
<path d="M52.64 26.34V1.72H47.82V88.66L43.18 86.53V20.13L25.8 0L0 24.08L2.92 27.52L6.97 23.8L9.8 27.18V93.75H2.58V97.53C8.66 99.37 16.66 102.69 26.58 107.51C36.5 112.33 44.04 116.51 49.2 120.07C56.08 115.71 63.88 111.87 72.6 108.54C81.31 105.21 89.63 102.81 97.54 101.31V22.54L77.76 0L52.64 26.34ZM58.3 26.86L64.16 33.55V47.65C62.37 49.48 60.42 50.41 58.31 50.41C56.2 50.41 54.37 49.54 52.63 47.82V32.66L58.29 26.86H58.3ZM52.64 52.76C54.19 54.05 56.08 54.71 58.32 54.71C60.56 54.71 62.59 54.01 64.17 52.62V68.84C62.59 67.45 60.65 66.75 58.32 66.75C55.99 66.75 54.19 67.41 52.64 68.7V52.77V52.76ZM52.64 90.87V73.63C54.38 71.91 56.27 71.04 58.32 71.04C60.37 71.04 62.38 71.96 64.17 73.8V96.16L52.64 90.87Z" fill="#000000"/>
<path d="M206.092 81.5405L201.122 88.4105L197.322 84.8105V26.8405C197.322 14.1105 200.592 6.14047 207.132 2.93047V2.59047C206.102 2.25047 205.012 2.07047 203.862 2.07047C197.902 2.07047 193.082 3.73047 189.412 7.06047C187.562 8.74047 185.992 10.6605 184.692 12.8405C175.982 5.44047 165.162 1.73047 152.252 1.73047C142.732 1.73047 134.532 3.77047 127.652 7.84047C120.772 11.9105 115.582 17.1605 112.082 23.5805C108.582 30.0005 106.832 36.6505 106.832 43.5305C106.832 51.2105 108.352 57.8105 111.392 63.3105C114.252 68.5005 118.932 72.8305 125.422 76.2805L106.662 101.15C104.712 103.67 103.392 105.85 102.702 107.69C102.012 109.53 101.672 111.36 101.672 113.19C101.672 115.49 102.272 117.29 103.482 118.61C104.682 119.93 106.262 120.59 108.212 120.59C109.812 120.59 111.162 120.01 112.252 118.87C113.342 117.72 113.882 116.35 113.882 114.74C113.882 112.91 113.362 111.47 112.332 110.44C111.302 109.41 109.922 108.89 108.202 108.89C107.482 108.89 106.822 109 106.222 109.2C106.602 108.52 107.112 107.87 107.772 107.26C109.322 105.83 111.352 105.11 113.882 105.11C117.552 105.11 121.562 106.17 125.922 108.29C130.282 110.41 135.492 114.34 141.572 120.07L159.292 90.2005V97.0205L183.722 119.73L209.522 84.4605L206.082 81.5405H206.092ZM116.462 62.1005C113.942 57.7405 112.682 53.1505 112.682 48.3405C112.682 40.8905 114.862 35.3505 119.222 31.7405C123.582 28.1305 129.602 26.3205 137.282 26.3205C141.352 26.3205 145.292 26.8405 149.102 27.8705C142.472 28.8505 137.182 30.7105 133.242 33.4605C129.052 36.3805 126.962 39.9705 126.962 44.2105C126.962 44.5705 126.982 44.9005 127.002 45.2105C125.392 43.9505 124.632 41.9505 124.732 39.2205H122.492C122.262 40.1405 122.152 41.2305 122.152 42.4905C122.152 45.2405 122.952 47.4205 124.562 49.0305C126.162 50.6405 128.462 51.4405 131.442 51.4405C134.422 51.4405 137.032 50.4705 139.612 48.5205C142.192 46.5705 144.342 43.3005 146.062 38.7105C147.092 35.8405 148.382 33.6405 149.932 32.0905C151.332 30.6905 152.812 29.8805 154.362 29.6505C155.922 30.2905 157.452 31.0105 158.972 31.8305L128.052 72.8205C122.692 69.7505 118.832 66.1805 116.482 62.1105L116.462 62.1005ZM159.302 38.7605V55.9105H146.392L159.302 38.7605ZM155.342 88.7505C152.532 86.0605 149.802 83.9605 147.172 82.4805C143.792 80.5905 140.202 79.6405 136.422 79.6405C133.032 79.6405 129.942 80.2605 127.142 81.4805L135.912 69.8305H159.302V82.2605L155.352 88.7405L155.342 88.7505Z" fill="#000000"/>
<path d="M360.051 82.57L353.671 91.16L352.481 89.97V30.28C352.481 24.66 352.881 19.96 353.681 16.17C354.481 12.39 356.091 9.06 358.501 6.19V5.85C353.851 7.06 349.921 10.1 346.691 14.99L331.321 0L300.891 30.12C300.821 28.94 300.731 27.93 300.611 27.1C300.321 25.09 299.631 23.32 298.551 21.77C297.461 20.22 295.651 18.42 293.131 16.35L275.581 2.07L252.181 9.98C240.601 14 232.201 19.39 226.981 26.15C221.761 32.92 219.151 41 219.151 50.41V56.69C217.761 55.6 216.041 55.06 213.991 55.06C211.471 55.06 209.371 55.86 207.711 57.47C206.051 59.08 205.221 61.77 205.221 65.56C205.221 67.05 205.391 68.66 205.741 70.38L207.981 70.21C213.311 70.21 217.041 72.51 219.161 77.1V106.5C216.751 104.44 213.711 103.4 210.041 103.4C205.221 103.4 201.411 105.29 198.601 109.08C195.791 112.86 194.391 117.51 194.391 123.01C194.391 126.22 194.791 129.29 195.591 132.21C196.391 135.13 197.431 137.51 198.691 139.35H199.031C199.831 135.45 201.781 133.5 204.881 133.5C206.711 133.5 209.011 134.3 211.761 135.91C214.741 137.4 217.521 138.58 220.101 139.44C222.681 140.3 225.981 140.73 229.991 140.73C235.721 140.73 241.031 138.95 245.901 135.4C250.771 131.84 254.701 126.68 257.681 119.92C260.651 113.18 262.141 105.31 262.151 96.3C266.281 98.39 270.721 101.45 275.481 105.47C281.041 110.17 285.371 114.7 288.471 119.06L317.031 88.29V98.76L337.671 119.4L363.471 85.68L360.031 82.58L360.051 82.57ZM306.381 30.68V60.21H301.051V36.13C301.051 36.13 301.051 36.1 301.051 36.09L306.381 30.68ZM268.531 21.85V60.21H264.231L262.171 63.69V24.26C262.171 20.59 262.541 17.46 263.291 14.88C263.741 13.33 264.321 11.77 265.041 10.2C266.351 10.69 267.261 11.87 267.761 13.76C268.281 15.71 268.531 18.4 268.531 21.85ZM257.351 23.91V95.82C257.351 102.7 255.631 108.06 252.191 111.9C248.751 115.74 244.451 117.66 239.291 117.66C236.081 117.66 233.071 116.92 230.261 115.42C227.451 113.93 225.361 112.04 223.981 109.74C227.991 111.92 232.471 113.01 237.401 113.01C241.991 113.01 245.541 111.72 248.071 109.14C250.591 106.56 251.851 103.09 251.851 98.73V31.14C251.851 25.41 252.511 20.9 253.831 17.64C254.871 15.06 256.791 13.14 259.591 11.88C259.251 12.71 258.941 13.56 258.651 14.45C257.791 17.09 257.361 20.24 257.361 23.91H257.351ZM262.171 94V71.22H268.541V89.97L262.171 94ZM301.041 71.22H306.371V93.01L301.041 87.91V71.22ZM311.191 87.97V70.94C312.181 70.66 312.981 70.19 313.601 69.5C314.631 68.35 315.151 66.52 315.151 64V60.22H311.191V27.98L317.041 33.72V81.73L311.191 87.96V87.97Z" fill="#000000"/>
<path d="M420.769 27.04V1.72H415.949V134.87H410.269V29.24C410.269 20.29 408.289 13.47 404.339 8.77C400.379 4.07 393.989 1.72 385.159 1.72C376.329 1.72 369.449 4.64 365.549 10.49C361.649 16.34 359.699 23.62 359.699 32.34H364.169C364.279 26.61 365.029 21.99 366.409 18.49C367.789 14.99 369.739 13.24 372.259 13.24C376.269 13.24 378.279 16.97 378.279 24.42V46.49C376.509 44.97 374.559 44.2 372.429 44.2C369.679 44.2 367.469 45.43 365.809 47.9C364.149 50.37 363.079 53.26 362.629 56.59C365.269 57.17 368.189 58.83 371.399 61.58C374.489 64.23 376.779 67.7 378.279 71.95V75.15C373.169 77.35 369.269 81.02 366.579 86.18C363.829 91.46 362.159 97.48 361.589 104.24C367.769 104.02 373.329 104.83 378.279 106.66V138.99H420.769V115.92C423.289 116.77 425.819 118.1 428.339 119.9C432.929 115.54 438.429 111.84 444.849 108.8C451.269 105.76 457.749 103.5 464.289 102V26.15L443.649 0L420.769 27.04ZM425.589 27.7L430.919 34.92V44.65C428.729 46.41 426.429 47.3 424.039 47.3C422.929 47.3 421.839 47.1 420.769 46.72V33.35L425.589 27.69V27.7ZM430.919 49.28V65.29C428.829 63.74 426.539 62.96 424.039 62.96C422.909 62.96 421.819 63.13 420.769 63.45V51.13C421.819 51.45 422.909 51.62 424.039 51.62C426.539 51.62 428.829 50.84 430.919 49.29V49.28ZM420.769 81.49V67.84C421.839 67.46 422.929 67.26 424.039 67.26C426.439 67.26 428.729 68.15 430.919 69.91V85.66L420.769 81.48V81.49Z" fill="#000000"/>
<path d="M558.048 44.3002C553.348 39.3102 547.098 36.8202 539.298 36.8202C537.538 36.8202 535.668 36.8402 533.668 36.8802L549.958 3.96023L545.998 2.07023L542.128 9.72023C541.538 9.33023 540.878 8.90023 540.148 8.44023C537.398 6.72023 534.098 5.17023 530.258 3.80023C526.418 2.42023 522.608 1.74023 518.818 1.74023C511.818 1.74023 504.888 4.69024 497.998 10.6002C491.118 16.5102 485.498 23.7302 481.138 32.2802C476.778 40.8202 474.598 48.7102 474.598 55.9302C474.598 68.7802 482.398 75.2002 497.998 75.2002C502.248 75.2002 506.988 75.1202 512.208 74.9502L508.498 81.8902C504.698 81.5702 500.958 81.4002 497.308 81.4002C488.708 81.4002 481.308 83.3502 475.118 87.2502C468.928 91.1502 465.828 97.8002 465.828 107.21C465.828 113.86 467.888 118.99 472.018 122.61C476.148 126.23 481.708 127.91 488.708 127.68C492.718 127.56 496.878 126.36 501.178 124.07C505.378 121.83 508.938 118.5 511.878 114.07C511.898 114.07 511.908 114.08 511.928 114.09C519.958 117.19 530.278 122.35 542.888 129.57C549.878 120.74 555.328 111.19 559.228 100.93C563.128 90.6702 565.078 79.9202 565.078 68.6802C565.078 57.4402 562.728 49.3302 558.028 44.3402L558.048 44.3002ZM493.878 36.0402C490.668 34.7202 489.058 32.6902 489.058 29.9302C489.058 27.6402 489.798 25.8602 491.298 24.6002C492.788 23.3402 495.028 22.7102 498.008 22.7102C502.828 22.7102 508.848 24.1502 516.068 27.0102C521.798 29.2902 526.488 31.5602 530.128 33.8402L528.608 37.0202C525.278 37.1302 521.678 37.3002 517.788 37.5002C512.968 37.8402 508.788 38.0202 505.228 38.0202C500.868 38.0202 497.088 37.3602 493.878 36.0402ZM498.348 120.42C495.138 122.14 491.528 123.06 487.508 123.17C484.528 123.28 481.978 122.71 479.858 121.45C477.738 120.19 476.678 118.53 476.678 116.46C476.678 114.51 477.508 112.91 479.168 111.64C480.828 110.38 483.608 109.69 487.508 109.58C494.248 109.49 500.918 110.47 507.508 112.51C504.508 116.11 501.448 118.75 498.348 120.42ZM557.018 93.0702C544.288 88.7102 533.278 85.6702 523.988 83.9502C520.398 83.2902 516.868 82.7502 513.398 82.3402L517.408 74.7302C519.208 74.6602 521.048 74.5802 522.948 74.4902C532.578 74.0302 541.128 73.8002 548.578 73.8002C551.908 73.8002 554.508 74.4002 556.408 75.6102C558.298 76.8102 559.248 78.7902 559.248 81.5402C559.248 84.2902 558.498 88.1402 557.008 93.0702H557.018Z" fill="#000000"/>
</svg>
