<svg width="416" height="120" viewBox="0 0 416 120" fill="none" xmlns="http://www.w3.org/2000/svg">
<path d="M0 2.2436L39.46 2.3236L62.98 62.0936L69.47 2.2436H143.74L155.32 37.2436V2.2436H192.88L220.56 62.6436L228.77 2.2736L310.91 2.2536C321.04 3.7436 330.18 6.8936 338.13 13.4536C340.88 11.5736 343.07 9.1236 345.92 7.3136C363.22 -3.6864 388 -1.7764 404.58 9.6836C405.99 10.6636 412.86 16.1636 413.46 17.1836C413.94 17.9936 414.21 18.3436 413.92 19.3536L395.55 42.2836C395.1 42.6036 394.8 42.7836 394.23 42.6136C392.58 42.1136 387.44 37.7836 385.02 36.5936C380.07 34.1736 371.05 31.9136 366.58 35.8436C378.17 43.8236 393.76 44.8736 404.68 54.2036C418.02 65.6136 419.26 88.0836 408.83 101.804C390.8 125.524 351.66 122.674 329.9 105.804C329.16 105.224 324.44 101.174 324.17 100.814C323.62 100.084 323.46 99.5336 323.72 98.6336L344.38 74.0336C345.05 73.7536 345.58 74.0236 346.2 74.2436C348.54 75.0836 353.76 79.9636 356.95 81.5836C361.65 83.9736 367.76 85.8536 373.06 85.2436C377.02 84.7836 378.95 83.2036 374.86 80.6236C368.22 76.4336 356.93 73.7136 349.41 69.9336C347.03 68.7436 344.69 67.0236 342.46 65.5536C339.77 67.5936 337.65 70.8236 334.95 73.1136C329.68 77.5636 316.58 83.5536 309.81 83.5536H295.41V116.014L294.56 116.864H233L232.15 116.014V81.8536C230.78 83.3136 229.79 86.1636 229.05 88.0736C227.59 91.8436 219.18 115.904 217.79 116.904C217.38 117.194 217.1 117.314 216.6 117.414C213.91 117.934 200.94 117.824 197.94 117.454C197.32 117.374 196.69 117.484 196.27 116.864L189.78 85.2436V116.014L188.93 116.864H138.95L134.04 95.5336L133.04 94.8136L112.38 95.1136L106.4 116.804L33.31 116.624L0 5.0636V2.2436ZM304.14 33.8536C301.32 33.6136 298.24 34.0236 295.39 33.8536V51.9236C302.26 51.9636 310.92 52.4436 311.8 43.7636C312.38 37.9736 310.13 34.3636 304.15 33.8536H304.14ZM119.74 63.2036C121.07 63.0036 126.17 63.8336 126.42 62.3836L123.12 49.1036L120.46 58.5736L119.74 63.2136V63.2036Z" fill="#000000"/>
</svg>
