<svg width="1119" height="797" viewBox="0 0 1119 797" fill="none" xmlns="http://www.w3.org/2000/svg">
<path d="M554.546 0.424805H0.425781V392.225H554.546V0.424805Z" stroke="#808080" stroke-width="0.85" stroke-miterlimit="10"/>
<path d="M554.546 403.895H0.425781V795.695H554.546V403.895Z" stroke="#808080" stroke-width="0.85" stroke-miterlimit="10"/>
<path d="M1118.1 403.505H563.984V795.305H1118.1V403.505Z" fill="#EA3529" stroke="#2B2B2B" stroke-miterlimit="10"/>
<path d="M1118.1 0.424805H563.984V392.225H1118.1V0.424805Z" fill="black"/>
<path d="M815.873 133.615C817.393 133.265 818.533 133.845 819.873 133.875C828.233 134.045 836.683 133.845 844.993 133.875C852.093 133.895 859.193 133.775 866.293 133.925C869.033 134.535 869.833 138.975 872.153 139.685C872.843 139.895 874.923 140.095 875.773 140.155C878.233 140.315 883.363 139.645 885.353 140.315C887.343 140.985 888.503 144.085 890.073 145.335C891.163 146.205 892.153 146.375 893.223 147.515C896.043 150.505 894.813 150.335 898.843 152.885C902.083 154.945 900.773 158.375 900.743 161.325C900.713 164.225 901.953 167.065 899.983 169.675C899.003 170.975 897.603 171.045 896.353 172.015C894.523 173.435 893.573 177.115 891.163 177.495C889.443 177.765 887.273 177.295 885.523 177.505C882.073 177.915 881.763 183.395 878.313 183.795C876.643 183.995 874.633 183.585 872.963 183.785C869.513 184.195 869.203 189.675 865.753 190.075C861.783 190.545 857.073 188.555 856.463 194.605C856.113 198.115 856.483 202.245 860.703 202.645C864.923 203.045 874.363 203.105 878.303 202.645C881.453 202.275 881.983 197.705 884.713 196.495C888.513 195.715 894.123 197.085 897.693 196.285C900.503 195.655 900.893 187.725 905.753 190.555C908.983 192.435 906.963 196.075 906.713 198.705C906.433 201.615 907.613 205.585 905.463 207.825C904.023 209.335 902.123 208.995 901.033 211.245C899.003 215.475 904.253 227.635 896.803 227.775C885.833 227.975 874.533 226.765 863.503 227.415C862.543 227.475 860.663 227.615 859.813 227.805C857.553 228.335 856.123 233.015 853.703 233.625C851.503 234.185 846.933 233.525 844.343 233.685C843.493 233.745 841.163 233.975 840.513 234.245C838.563 235.055 837.323 239.045 835.083 239.805C833.393 240.375 830.163 239.815 828.173 240.425C826.183 241.035 824.793 245.315 822.523 246.085C820.663 246.715 817.153 245.925 815.193 246.925C812.983 248.045 812.163 252.405 809.483 252.835C808.253 253.035 803.623 253.005 802.633 252.495C800.783 251.545 800.093 248.725 798.363 247.345C797.093 246.335 795.883 246.125 794.733 244.695C792.123 241.415 793.323 242.165 789.583 239.795C785.703 237.335 788.753 232.965 787.283 229.845C786.233 227.595 783.143 227.955 781.883 225.825C780.243 223.055 782.273 219.985 781.003 217.285C779.933 215.005 776.603 215.475 775.573 212.355C774.643 209.515 774.803 203.065 778.713 202.605C780.633 202.375 789.243 202.305 790.903 202.675C793.523 203.265 794.353 208.305 797.263 208.875C804.973 208.245 814.213 209.785 821.743 208.895C824.323 208.595 825.253 205.185 827.253 203.735C829.233 202.295 831.933 202.405 831.603 199.035C831.193 194.735 825.683 196.295 823.003 196.345C821.293 196.375 816.653 196.615 815.373 196.095C813.533 195.345 812.583 192.165 810.903 190.835C807.903 188.455 808.403 189.145 806.013 185.995C803.323 182.445 801.223 184.225 797.543 183.785C794.093 183.375 793.783 177.895 790.333 177.495C786.573 177.045 782.483 178.955 781.133 173.815C781.243 170.575 781.073 166.745 781.413 163.565C781.943 158.595 784.863 159.465 787.163 156.445C787.653 155.805 787.843 154.995 788.433 154.255C789.853 152.475 791.953 152.125 793.443 150.165C795.833 147.025 795.333 147.705 798.333 145.325C800.103 143.915 800.563 141.475 802.423 140.305C804.053 139.275 807.183 140.065 809.163 139.825C812.453 139.435 813.073 134.235 815.813 133.605L815.873 133.615Z" fill="#EA3529" stroke="#2B2B2B" stroke-miterlimit="10"/>
<path d="M934.566 102.214C936.386 101.804 937.616 102.624 938.436 104.184C940.176 107.494 937.026 110.984 940.296 113.944C941.216 114.774 942.366 114.874 943.306 115.964C945.336 118.294 945.186 124.384 942.836 126.504C942.156 127.114 941.306 127.264 940.646 127.764C937.036 130.504 938.186 133.744 938.126 137.804C938.086 140.384 937.916 143.014 938.096 145.654C938.216 147.354 938.536 149.104 938.566 150.834C939.096 152.564 941.156 151.974 942.566 152.484C946.246 153.794 946.356 161.314 944.066 163.844C942.016 166.114 939.156 163.794 938.726 168.864C938.436 172.244 938.666 176.704 938.726 180.194C938.766 182.684 939.696 185.364 938.546 187.844C937.246 190.654 935.496 189.544 933.696 190.844C932.126 191.994 932.216 193.824 931.196 195.254C930.176 196.684 928.716 196.714 927.416 197.754C926.046 198.854 925.426 200.694 923.976 201.854C922.526 203.014 920.446 203.494 919.956 205.684C919.556 207.484 919.676 215.444 919.876 217.564C920.206 221.184 923.366 220.404 924.916 222.574C925.946 224.014 925.906 226.064 927.586 227.134C928.616 227.794 929.546 227.584 930.486 228.004C933.876 229.494 933.896 238.784 930.266 240.174C929.146 240.604 927.306 240.294 926.666 241.594C925.276 244.444 927.836 248.234 925.496 251.414C924.206 253.164 923.676 252.464 922.176 253.114C919.266 254.384 920.546 260.224 915.676 259.454C912.436 258.944 912.076 253.934 914.876 252.724C915.486 252.464 916.166 252.644 916.766 252.414C918.076 251.934 919.046 250.944 919.236 249.544C919.506 247.564 919.156 242.904 919.816 241.334C920.846 238.874 925.276 242.034 925.836 238.564C926.086 237.054 925.736 232.444 925.466 230.804C925.136 228.814 924.346 228.414 922.526 228.094C919.566 227.584 914.096 228.014 913.136 224.304C912.436 221.624 913.176 216.724 912.666 213.764C913.756 209.674 912.466 203.184 913.706 199.414C914.566 196.814 916.216 196.854 917.866 195.414C919.386 194.094 920.236 191.304 921.976 190.424C925.696 188.534 931.336 192.114 931.836 186.154C932.326 180.364 931.356 174.124 931.586 168.314C931.736 167.474 932.566 166.084 933.236 165.564C934.576 164.534 936.636 165.194 937.616 163.344C938.226 162.184 938.636 154.964 938.436 153.464C938.216 151.814 937.226 151.974 935.836 152.144C931.916 152.634 932.276 156.004 930.076 158.004C929.266 158.744 928.226 158.814 927.426 159.754C926.356 161.014 925.506 164.534 923.496 164.934C919.866 165.654 919.516 161.344 917.866 159.584C917.146 158.814 916.046 158.564 915.176 157.884C913.416 156.484 913.076 154.324 911.256 153.014C909.996 152.104 908.636 152.084 907.646 150.654C906.196 148.564 906.206 143.184 907.956 141.224C908.776 140.314 910.406 139.844 911.426 139.034C913.056 137.734 913.516 135.774 915.016 134.464C917.806 132.034 917.626 132.684 920.066 129.464C922.196 126.664 925.526 127.304 925.866 123.334C926.076 120.954 925.046 119.034 926.246 116.804C927.456 114.544 930.126 115.054 931.326 112.454C932.526 109.854 930.756 103.054 934.566 102.194V102.214Z" fill="#EA3529" stroke="#2B2B2B" stroke-miterlimit="10"/>
<path d="M866.123 234.415L890.863 234.335C894.863 235.195 895.223 238.825 894.783 242.355C894.323 246.145 890.673 246.175 888.673 248.805C886.283 251.955 886.773 251.255 883.783 253.645C881.793 255.225 881.033 258.835 878.303 259.155C876.633 259.355 874.623 258.945 872.953 259.145C870.013 259.495 869.273 263.715 866.703 264.825C864.923 265.595 861.373 264.825 859.383 265.665C857.223 266.565 856.153 271.005 853.193 271.405C851.373 271.655 842.963 271.685 841.263 271.375C838.753 270.915 837.433 266.585 835.143 265.565C831.193 264.895 826.263 265.995 822.433 265.405C818.313 264.765 817.693 257.365 819.743 254.905C822.203 251.935 826.113 253.875 829.093 252.635C831.023 251.835 832.103 248.155 834.333 247.195C836.113 246.425 839.663 247.195 841.653 246.355C843.643 245.515 844.983 241.295 847.303 240.705C850.733 239.835 856.443 241.355 860.273 240.175C862.313 239.545 863.723 235.145 866.143 234.425L866.123 234.415Z" fill="#EA3529" stroke="#2B2B2B" stroke-miterlimit="10"/>
<path d="M752.124 121.055C755.844 119.935 756.384 124.615 758.014 126.345C759.114 127.515 760.754 127.735 762.094 129.485C764.484 132.625 763.984 131.945 766.984 134.325C768.974 135.905 769.654 139.505 772.464 139.835C775.274 140.165 778.664 138.875 780.654 141.385C782.174 143.305 782.194 148.455 780.924 150.475C779.704 152.435 777.294 152.355 775.774 154.435C773.474 157.575 776.494 161.635 773.104 164.325C772.314 164.955 771.304 165.105 770.574 165.885C768.814 167.745 768.364 172.675 764.234 171.005C760.534 169.505 762.834 164.895 762.584 162.295C762.294 159.235 760.214 159.405 758.344 158.055C756.514 156.735 756.184 154.545 754.424 153.185C753.054 152.125 751.524 152.095 750.524 150.495C748.094 146.615 751.914 139.365 749.534 135.785C747.914 133.355 743.134 134.145 743.754 129.985C744.114 127.545 747.134 127.145 748.464 125.895C749.574 124.845 750.424 121.585 752.124 121.075V121.055Z" fill="#EA3529" stroke="#2B2B2B" stroke-miterlimit="10"/>
<path d="M730.804 83.0845C733.304 82.8945 737.154 82.5045 737.474 85.9745C737.874 90.3545 733.224 89.3045 731.844 91.9845C730.774 94.0745 731.844 100.625 731.824 103.265C731.794 108.345 730.994 113.355 731.164 118.655C731.244 121.005 731.814 123.845 731.824 126.165C731.854 133.035 730.584 142.435 731.524 149.065C731.984 152.345 734.604 151.385 736.444 152.615C739.014 154.335 737.814 158.715 734.794 158.995C730.154 159.425 731.574 153.935 728.584 152.625C727.564 152.175 726.894 152.535 725.824 151.615C723.224 149.365 724.554 145.395 724.594 142.515C724.864 125.895 724.204 109.105 724.594 92.5845C724.654 90.2245 724.114 87.2645 725.394 85.2245C726.674 83.1845 728.644 83.2545 730.794 83.0945L730.804 83.0845Z" fill="#EA3529" stroke="#2B2B2B" stroke-miterlimit="10"/>
<path d="M745.542 89.3543C750.782 88.0043 749.532 93.9843 752.612 95.3143C753.212 95.5743 753.872 95.4943 754.422 95.7043C756.482 96.4943 756.332 98.8143 757.382 100.274C758.742 102.164 760.332 101.434 761.652 102.604C762.832 103.654 762.802 105.344 763.662 106.554C765.022 108.444 766.612 107.714 767.932 108.884C769.432 110.224 769.072 112.904 771.252 114.044C772.302 114.594 773.152 114.234 774.212 115.164C775.682 116.464 775.272 118.754 777.182 120.044C778.432 120.894 779.552 120.454 780.652 121.604C782.672 123.714 781.102 126.574 785.332 126.964C787.462 127.164 796.582 127.224 798.212 126.634C800.662 125.734 800.262 121.834 802.462 120.844C803.122 120.544 809.892 120.544 810.612 120.844C812.092 121.464 812.822 123.814 812.252 125.304C810.602 129.634 805.112 126.374 801.852 128.084C799.902 129.104 800.212 133.194 797.522 133.804C795.652 134.224 787.222 134.084 785.012 133.884C781.582 133.574 782.122 130.094 780.002 128.524C778.652 127.524 777.052 127.844 775.902 126.654C774.592 125.294 774.972 123.374 773.252 122.084C772.062 121.194 771.572 121.524 770.502 121.064C768.272 120.104 768.852 116.264 766.032 115.174C765.492 114.964 764.822 115.044 764.222 114.784C761.992 113.824 762.572 109.984 759.752 108.894C759.212 108.684 758.542 108.764 757.942 108.504C755.712 107.544 756.292 103.704 753.472 102.614C752.412 102.204 751.822 102.614 750.782 101.534C749.472 100.174 749.852 98.2443 748.132 96.9643C746.862 96.0143 746.492 96.4443 745.322 96.0143C742.572 95.0043 742.772 90.0743 745.542 89.3643V89.3543Z" fill="#EA3529" stroke="#2B2B2B" stroke-miterlimit="10"/>
<path d="M812.135 271.484C814.635 271.274 816.915 270.824 818.425 273.164C820.095 275.754 818.425 277.274 822.725 277.664C834.825 277.014 847.745 279.074 859.735 277.634C863.815 277.144 862.375 273.634 864.975 272.204C866.255 271.494 871.105 271.204 872.645 271.384C875.135 271.674 876.495 274.544 875.135 276.714C873.155 279.874 867.625 277.234 864.655 278.794C862.725 279.804 862.985 283.804 860.385 284.574H821.775C818.105 282.924 821.125 277.394 815.875 278.374C812.755 278.954 812.465 283.964 809.525 283.964C805.575 283.964 805.535 276.014 807.045 273.614C808.235 271.704 810.085 271.654 812.135 271.484Z" fill="#EA3529" stroke="#2B2B2B" stroke-miterlimit="10"/>
<path d="M753.075 183.854C754.205 183.604 758.925 183.654 760.025 183.994C761.465 184.444 762.295 185.934 762.745 187.234C762.885 191.744 762.325 196.314 763.295 200.814C764.205 202.884 766.495 202.174 767.775 203.554C769.945 205.884 768.785 210.194 768.845 213.154C768.915 216.564 768.875 220.424 769.165 223.824C769.585 228.824 772.305 226.624 774.365 228.674C777.505 231.794 776.135 241.844 770.725 240.164C766.505 238.854 769.405 231.924 768.045 229.344C766.855 227.074 763.015 228.644 762.085 224.634C761.715 218.694 762.775 212.474 762.275 206.544C761.895 202.074 760.115 203.714 757.845 202.174C756.075 200.974 755.885 198.804 754.725 197.444C753.785 196.334 752.595 196.344 751.565 195.574C748.545 193.324 748.815 184.804 753.055 183.854H753.075Z" fill="#EA3529" stroke="#2B2B2B" stroke-miterlimit="10"/>
<path d="M836.626 114.484C839.276 114.414 842.206 113.574 843.736 116.304C845.286 119.064 843.506 120.334 848.146 120.684C854.306 121.154 860.966 120.194 867.176 120.814C870.486 122.334 869.926 126.694 866.356 127.244C860.836 128.094 853.296 126.664 847.556 127.244C846.626 127.094 845.716 126.264 845.236 125.484C843.976 123.434 845.106 121.134 841.876 121.284C837.266 121.504 837.436 126.324 834.906 126.884L821.926 126.814C818.346 125.704 816.896 115.374 822.726 114.704C826.686 114.254 832.416 114.584 836.636 114.484H836.626Z" fill="#EA3529" stroke="#2B2B2B" stroke-miterlimit="10"/>
<path d="M940.222 76.7946C945.612 75.4046 944.272 81.7446 947.292 83.0746C948.552 83.6246 949.122 83.0746 950.342 84.4146C953.142 87.4846 950.252 91.3746 951.782 94.2746C952.972 96.5446 956.812 94.9746 957.742 98.9846C957.812 105.115 957.452 111.245 957.552 117.395C957.592 119.965 959.032 126.325 955.142 127.205C949.412 128.495 951.032 119.755 950.982 116.735C950.942 114.655 950.342 111.925 950.332 109.855C950.312 106.645 951.392 100.775 950.332 97.9146C949.272 95.0546 945.842 96.9146 944.452 93.4246C943.322 90.5846 945.222 87.0746 943.752 85.0246C942.762 83.6546 941.062 83.9446 939.802 83.3246C937.192 82.0546 937.572 77.4746 940.212 76.7846L940.222 76.7946Z" fill="#EA3529" stroke="#2B2B2B" stroke-miterlimit="10"/>
<path d="M809.303 290.935C811.193 290.775 812.763 291.925 813.313 293.675V306.275C812.433 310.065 809.263 308.825 807.933 310.315C806.673 311.715 806.943 315.625 804.203 316.005C799.343 316.675 800.823 311.595 797.863 310.065C796.643 309.435 795.713 309.955 794.603 308.615C793.433 307.215 793.773 305.465 792.103 304.215C790.653 303.135 789.413 303.755 788.203 302.455C785.133 299.155 790.413 293.435 793.613 298.305C794.533 299.715 794.753 301.765 796.573 302.565C797.783 303.105 798.453 302.555 799.463 304.075C800.763 306.035 800.003 308.835 803.283 309.075C806.933 309.335 806.643 306.615 806.543 303.905C806.413 300.405 803.863 291.385 809.303 290.935Z" fill="#EA3529" stroke="#2B2B2B" stroke-miterlimit="10"/>
<path d="M909.132 120.745C913.512 119.745 915.332 125.435 911.852 127.235C911.092 127.635 910.332 127.515 909.622 127.825C907.352 128.815 907.252 132.485 905.312 133.565C904.622 133.945 903.972 133.815 903.332 134.105C900.192 135.505 901.662 140.915 896.832 140.125C893.692 139.615 894.702 135.165 892.132 134.155C890.242 133.915 888.032 133.625 886.152 133.535C883.552 133.405 878.702 134.195 876.712 132.615C874.542 130.885 875.702 127.865 878.042 127.025L891.782 126.965C894.982 128.385 892.832 132.755 896.902 133.165C900.972 133.575 900.042 130.245 901.672 128.055C902.712 126.655 903.422 127.215 904.622 126.605C907.022 125.375 906.562 121.335 909.122 120.745H909.132Z" fill="#EA3529" stroke="#2B2B2B" stroke-miterlimit="10"/>
<path d="M896.883 252.934C899.663 252.304 901.433 254.874 901.393 257.424C901.373 258.974 900.113 263.234 901.023 264.364C902.193 265.814 909.253 264.464 911.223 265.474C914.353 267.084 913.823 271.624 910.323 272.034C909.293 272.154 903.613 272.164 902.943 271.864C900.293 270.664 901.223 265.804 898.403 265.414C897.213 265.254 890.943 265.734 890.093 266.244C888.293 267.314 888.673 271.164 886.313 271.884C881.613 273.334 879.823 267.404 883.353 265.474C884.153 265.034 885.153 265.034 885.983 264.654C888.333 263.574 888.153 261.124 889.743 259.624C890.473 258.934 891.433 258.724 892.263 258.064C893.903 256.764 895.023 253.364 896.873 252.944L896.883 252.934Z" fill="#EA3529" stroke="#2B2B2B" stroke-miterlimit="10"/>
<path d="M777.243 246.345C782.183 245.205 780.963 250.995 784.013 252.315C784.613 252.575 785.273 252.495 785.823 252.705C788.003 253.545 787.803 256.165 788.953 257.735C790.423 259.745 792.503 258.495 793.873 260.985C795.413 263.785 795.363 269.645 792.213 271.355C791.583 271.695 790.873 271.665 790.303 271.955C787.333 273.435 788.603 278.505 783.813 277.965C780.833 277.635 780.073 273.775 782.253 272.065C783.683 270.945 786.053 271.525 787.003 269.585C787.583 268.405 787.573 263.305 787.253 261.945C786.603 259.195 783.683 260.075 782.193 258.525C780.853 257.135 781.243 255.055 779.383 253.805C778.253 253.045 777.753 253.375 776.733 253.005C773.823 251.935 774.343 247.005 777.253 246.335L777.243 246.345Z" fill="#EA3529" stroke="#2B2B2B" stroke-miterlimit="10"/>
<path d="M918.882 240.245C917.612 240.575 916.172 240.515 915.022 241.245C912.892 242.605 912.692 247.005 909.402 246.575C905.092 246.015 905.682 236.325 908.932 234.515C910.152 233.835 914.482 233.835 915.982 234.015C918.702 234.335 920.082 237.905 918.892 240.235L918.882 240.245Z" fill="#EA3529" stroke="#2B2B2B" stroke-miterlimit="10"/>
<path d="M739.565 164.705C744.595 163.545 743.285 169.685 746.545 170.775C747.865 171.215 748.715 170.695 749.785 172.245C751.855 175.245 748.545 179.215 745.185 177.465C743.185 176.425 743.575 172.565 740.925 171.675C740.335 171.475 739.685 171.595 739.045 171.365C736.135 170.295 736.655 165.365 739.565 164.695V164.705Z" fill="#EA3529" stroke="#2B2B2B" stroke-miterlimit="10"/>
<path d="M921.693 101.905C926.253 100.865 927.223 106.725 924.153 108.445C923.463 108.825 922.813 108.695 922.173 108.985C919.383 110.225 920.263 114.735 916.913 115.045C912.723 115.435 911.543 109.835 914.683 108.415C915.473 108.055 916.093 108.215 916.763 107.985C919.563 107.045 919.023 102.525 921.683 101.915L921.693 101.905Z" fill="#EA3529" stroke="#2B2B2B" stroke-miterlimit="10"/>
<path d="M947.125 133.615C953.575 132.145 953.405 147.995 946.885 145.965C943.425 144.885 943.395 134.465 947.125 133.615Z" fill="#EA3529" stroke="#2B2B2B" stroke-miterlimit="10"/>
<path d="M796.403 278.055C802.363 276.715 802.473 293.275 796.183 290.395C792.903 288.895 791.723 279.105 796.403 278.055Z" fill="#EA3529" stroke="#2B2B2B" stroke-miterlimit="10"/>
<path d="M739.886 108.495C745.966 107.125 746.125 120.785 740.755 121.015C735.945 121.215 736.046 109.365 739.886 108.495Z" fill="#EA3529" stroke="#2B2B2B" stroke-miterlimit="10"/>
<path d="M783.535 284.344C785.865 283.944 787.785 285.034 787.715 287.554C787.625 290.534 784.035 292.164 781.925 289.884C780.255 288.074 780.925 284.784 783.535 284.334V284.344Z" fill="#EA3529" stroke="#2B2B2B" stroke-miterlimit="10"/>
<path d="M246.346 133.615C247.866 133.265 249.006 133.845 250.346 133.875C258.706 134.045 267.156 133.845 275.466 133.875C282.566 133.895 289.666 133.775 296.766 133.925C299.506 134.535 300.306 138.975 302.626 139.685C303.316 139.895 305.396 140.095 306.246 140.155C308.706 140.315 313.836 139.645 315.826 140.315C317.816 140.985 318.976 144.085 320.546 145.335C321.636 146.205 322.626 146.375 323.696 147.515C326.516 150.505 325.286 150.335 329.316 152.885C332.556 154.945 331.246 158.375 331.216 161.325C331.186 164.225 332.426 167.065 330.456 169.675C329.476 170.975 328.076 171.045 326.826 172.015C324.996 173.435 324.046 177.115 321.636 177.495C319.916 177.765 317.746 177.295 315.996 177.505C312.546 177.915 312.236 183.395 308.786 183.795C307.116 183.995 305.106 183.585 303.436 183.785C299.986 184.195 299.676 189.675 296.226 190.075C292.256 190.545 287.546 188.555 286.936 194.605C286.586 198.115 286.956 202.245 291.176 202.645C295.396 203.045 304.836 203.105 308.776 202.645C311.926 202.275 312.456 197.705 315.186 196.495C318.986 195.715 324.596 197.085 328.166 196.285C330.976 195.655 331.366 187.725 336.226 190.555C339.456 192.435 337.436 196.075 337.186 198.705C336.906 201.615 338.086 205.585 335.936 207.825C334.496 209.335 332.596 208.995 331.506 211.245C329.476 215.475 334.726 227.635 327.276 227.775C316.306 227.975 305.006 226.765 293.976 227.415C293.016 227.475 291.136 227.615 290.286 227.805C288.026 228.335 286.596 233.015 284.176 233.625C281.976 234.185 277.406 233.525 274.816 233.685C273.966 233.745 271.636 233.975 270.986 234.245C269.036 235.055 267.796 239.045 265.556 239.805C263.866 240.375 260.636 239.815 258.646 240.425C256.656 241.035 255.266 245.315 252.996 246.085C251.136 246.715 247.626 245.925 245.666 246.925C243.456 248.045 242.636 252.405 239.956 252.835C238.726 253.035 234.096 253.005 233.106 252.495C231.256 251.545 230.566 248.725 228.836 247.345C227.566 246.335 226.356 246.125 225.206 244.695C222.596 241.415 223.796 242.165 220.056 239.795C216.316 237.425 219.226 232.965 217.756 229.845C216.706 227.595 213.616 227.955 212.356 225.825C210.716 223.055 212.746 219.985 211.476 217.285C210.406 215.005 207.076 215.475 206.046 212.355C205.116 209.515 205.276 203.065 209.186 202.605C211.106 202.375 219.716 202.305 221.376 202.675C223.996 203.265 224.826 208.305 227.736 208.875C235.446 208.245 244.686 209.785 252.216 208.895C254.796 208.595 255.726 205.185 257.726 203.735C259.706 202.295 262.406 202.405 262.076 199.035C261.666 194.735 256.156 196.295 253.476 196.345C251.766 196.375 247.126 196.615 245.846 196.095C244.006 195.345 243.056 192.165 241.376 190.835C238.376 188.455 238.876 189.145 236.486 185.995C233.796 182.445 231.696 184.225 228.016 183.785C224.566 183.375 224.256 177.895 220.806 177.495C217.046 177.045 212.956 178.955 211.606 173.815C211.716 170.575 211.546 166.745 211.886 163.565C212.416 158.595 215.336 159.465 217.636 156.445C218.126 155.805 218.316 154.995 218.906 154.255C220.326 152.475 222.426 152.125 223.916 150.165C226.306 147.025 225.806 147.705 228.806 145.325C230.576 143.915 231.036 141.475 232.896 140.305C234.526 139.275 237.656 140.065 239.636 139.825C242.926 139.435 243.546 134.235 246.286 133.605L246.346 133.615Z" fill="black"/>
<path d="M365.046 102.214C366.866 101.804 368.096 102.624 368.916 104.184C370.656 107.494 367.506 110.984 370.776 113.944C371.696 114.774 372.846 114.874 373.786 115.964C375.816 118.294 375.666 124.384 373.316 126.504C372.636 127.114 371.786 127.264 371.126 127.764C367.516 130.504 368.666 133.744 368.606 137.804C368.566 140.384 368.396 143.014 368.576 145.654C368.696 147.354 369.016 149.104 369.046 150.834C369.576 152.564 371.636 151.974 373.046 152.484C376.726 153.794 376.836 161.314 374.546 163.844C372.496 166.114 369.636 163.794 369.206 168.864C368.916 172.244 369.146 176.704 369.206 180.194C369.246 182.684 370.176 185.364 369.026 187.844C367.726 190.654 365.976 189.544 364.176 190.844C362.606 191.994 362.696 193.824 361.676 195.254C360.656 196.684 359.196 196.714 357.896 197.754C356.526 198.854 355.906 200.694 354.456 201.854C353.006 203.014 350.926 203.494 350.436 205.684C350.036 207.484 350.156 215.444 350.356 217.564C350.686 221.184 353.846 220.404 355.396 222.574C356.426 224.014 356.386 226.064 358.066 227.134C359.096 227.794 360.026 227.584 360.966 228.004C364.356 229.494 364.376 238.784 360.746 240.174C359.626 240.604 357.786 240.294 357.146 241.594C355.756 244.444 358.316 248.234 355.976 251.414C354.686 253.164 354.156 252.464 352.656 253.114C349.746 254.384 351.026 260.224 346.156 259.454C342.916 258.944 342.556 253.934 345.356 252.724C345.966 252.464 346.646 252.644 347.246 252.414C348.556 251.934 349.526 250.944 349.716 249.544C349.986 247.564 349.636 242.904 350.296 241.334C351.326 238.874 355.756 242.034 356.316 238.564C356.566 237.054 356.216 232.444 355.946 230.804C355.616 228.814 354.826 228.414 353.006 228.094C350.046 227.584 344.576 228.014 343.616 224.304C342.916 221.624 343.656 216.724 343.146 213.764C344.236 209.674 342.946 203.184 344.186 199.414C345.046 196.814 346.696 196.854 348.346 195.414C349.866 194.094 350.716 191.304 352.456 190.424C356.176 188.534 361.816 192.114 362.316 186.154C362.806 180.364 361.836 174.124 362.066 168.314C362.216 167.474 363.046 166.084 363.716 165.564C365.056 164.534 367.116 165.194 368.096 163.344C368.706 162.184 369.116 154.964 368.916 153.464C368.696 151.814 367.706 151.974 366.316 152.144C362.396 152.634 362.756 156.004 360.556 158.004C359.746 158.744 358.706 158.814 357.906 159.754C356.836 161.014 355.986 164.534 353.976 164.934C350.346 165.654 349.996 161.344 348.346 159.584C347.626 158.814 346.526 158.564 345.656 157.884C343.896 156.484 343.556 154.324 341.736 153.014C340.476 152.104 339.116 152.084 338.126 150.654C336.676 148.564 336.686 143.184 338.436 141.224C339.256 140.314 340.886 139.844 341.906 139.034C343.536 137.734 343.996 135.774 345.496 134.464C348.286 132.034 348.106 132.684 350.546 129.464C352.676 126.664 356.006 127.304 356.346 123.334C356.556 120.954 355.526 119.034 356.726 116.804C357.926 114.574 360.606 115.054 361.806 112.454C362.966 109.934 361.236 103.054 365.046 102.194V102.214Z" fill="black"/>
<path d="M296.603 234.415L321.343 234.335C325.343 235.195 325.703 238.825 325.263 242.355C324.803 246.145 321.153 246.175 319.153 248.805C316.763 251.955 317.253 251.255 314.263 253.645C312.273 255.225 311.513 258.835 308.783 259.155C307.113 259.355 305.103 258.945 303.433 259.145C300.493 259.495 299.753 263.715 297.183 264.825C295.403 265.595 291.853 264.825 289.863 265.665C287.703 266.565 286.633 271.005 283.673 271.405C281.853 271.655 273.443 271.685 271.743 271.375C269.233 270.915 267.913 266.585 265.623 265.565C261.673 264.895 256.743 265.995 252.913 265.405C248.793 264.765 248.173 257.365 250.223 254.905C252.683 251.935 256.593 253.875 259.573 252.635C261.503 251.835 262.583 248.155 264.813 247.195C266.593 246.425 270.143 247.195 272.133 246.355C274.123 245.515 275.463 241.295 277.783 240.705C281.213 239.835 286.923 241.355 290.753 240.175C292.793 239.545 294.203 235.145 296.623 234.425L296.603 234.415Z" fill="black"/>
<path d="M182.605 121.055C186.325 119.935 186.865 124.615 188.495 126.345C189.595 127.515 191.235 127.735 192.575 129.485C194.965 132.625 194.465 131.945 197.465 134.325C199.455 135.905 200.135 139.505 202.945 139.835C205.755 140.165 209.145 138.875 211.135 141.385C212.655 143.305 212.675 148.455 211.405 150.475C210.135 152.495 207.775 152.355 206.255 154.435C203.955 157.575 206.975 161.635 203.585 164.325C202.795 164.955 201.785 165.105 201.055 165.885C199.295 167.745 198.845 172.675 194.715 171.005C191.015 169.505 193.315 164.895 193.065 162.295C192.775 159.235 190.695 159.405 188.825 158.055C186.955 156.705 186.665 154.545 184.905 153.185C183.535 152.125 182.005 152.095 181.005 150.495C178.575 146.615 182.395 139.365 180.015 135.785C178.395 133.355 173.615 134.145 174.235 129.985C174.595 127.545 177.615 127.145 178.945 125.895C180.055 124.845 180.905 121.585 182.605 121.075V121.055Z" fill="black"/>
<path d="M161.285 83.0845C163.785 82.8945 167.635 82.5045 167.955 85.9745C168.355 90.3545 163.705 89.3045 162.325 91.9845C161.255 94.0745 162.325 100.625 162.305 103.265C162.275 108.345 161.475 113.355 161.645 118.655C161.725 121.005 162.295 123.845 162.305 126.165C162.335 133.035 161.065 142.435 162.005 149.065C162.465 152.345 165.085 151.385 166.925 152.615C169.495 154.335 168.295 158.715 165.275 158.995C160.635 159.425 162.055 153.935 159.065 152.625C158.045 152.175 157.375 152.535 156.305 151.615C153.705 149.365 155.035 145.395 155.075 142.515C155.345 125.895 154.685 109.105 155.075 92.5845C155.135 90.2245 154.595 87.2645 155.875 85.2245C157.125 83.2245 159.125 83.2545 161.275 83.0945L161.285 83.0845Z" fill="black"/>
<path d="M176.023 89.3543C181.263 88.0043 180.013 93.9843 183.093 95.3143C183.693 95.5743 184.353 95.4943 184.903 95.7043C186.963 96.4943 186.813 98.8143 187.863 100.274C189.223 102.164 190.813 101.434 192.133 102.604C193.313 103.654 193.283 105.344 194.143 106.554C195.503 108.444 197.093 107.714 198.413 108.884C199.913 110.224 199.553 112.904 201.733 114.044C202.783 114.594 203.633 114.234 204.693 115.164C206.163 116.464 205.753 118.754 207.663 120.044C208.913 120.894 210.033 120.454 211.133 121.604C213.153 123.714 211.583 126.574 215.813 126.964C217.943 127.164 227.063 127.224 228.693 126.634C231.143 125.734 230.743 121.834 232.943 120.844C233.603 120.544 240.373 120.544 241.093 120.844C242.573 121.464 243.303 123.814 242.733 125.304C241.083 129.634 235.593 126.374 232.333 128.084C230.383 129.104 230.693 133.194 228.003 133.804C226.133 134.224 217.703 134.084 215.493 133.884C212.063 133.574 212.603 130.094 210.483 128.524C209.133 127.524 207.533 127.844 206.383 126.654C205.073 125.294 205.453 123.374 203.733 122.084C202.543 121.194 202.053 121.524 200.983 121.064C198.753 120.104 199.333 116.264 196.513 115.174C195.973 114.964 195.303 115.044 194.703 114.784C192.473 113.824 193.053 109.984 190.233 108.894C189.693 108.684 189.023 108.764 188.423 108.504C186.193 107.544 186.773 103.704 183.953 102.614C182.893 102.204 182.303 102.614 181.263 101.534C179.953 100.174 180.333 98.2443 178.613 96.9643C177.343 96.0143 176.973 96.4443 175.803 96.0143C173.053 95.0043 173.253 90.0743 176.023 89.3643V89.3543Z" fill="black"/>
<path d="M242.604 271.484C245.104 271.274 247.384 270.824 248.894 273.164C250.564 275.754 248.894 277.274 253.194 277.664C265.294 277.014 278.214 279.074 290.204 277.634C294.284 277.144 292.844 273.634 295.444 272.204C296.724 271.494 301.574 271.204 303.114 271.384C305.604 271.674 306.964 274.544 305.604 276.714C303.624 279.874 298.094 277.234 295.124 278.794C293.194 279.804 293.454 283.804 290.854 284.574H252.244C248.574 282.924 251.594 277.394 246.344 278.374C243.224 278.954 242.934 283.964 239.994 283.964C236.044 283.964 236.004 276.014 237.514 273.614C238.704 271.704 240.554 271.654 242.604 271.484Z" fill="black"/>
<path d="M183.543 183.854C184.673 183.604 189.393 183.654 190.493 183.994C191.933 184.444 192.763 185.934 193.213 187.234C193.353 191.744 192.793 196.314 193.763 200.814C194.673 202.884 196.963 202.174 198.243 203.554C200.413 205.884 199.253 210.194 199.313 213.154C199.383 216.564 199.343 220.424 199.633 223.824C200.053 228.824 202.773 226.624 204.833 228.674C207.973 231.794 206.603 241.844 201.193 240.164C196.973 238.854 199.873 231.924 198.513 229.344C197.323 227.074 193.483 228.644 192.553 224.634C192.183 218.694 193.243 212.474 192.743 206.544C192.363 202.074 190.583 203.714 188.313 202.174C186.543 200.974 186.353 198.804 185.193 197.444C184.253 196.334 183.063 196.344 182.033 195.574C179.013 193.324 179.283 184.804 183.523 183.854H183.543Z" fill="black"/>
<path d="M267.106 114.484C269.756 114.414 272.686 113.574 274.216 116.304C275.766 119.064 273.986 120.334 278.626 120.684C284.786 121.154 291.446 120.194 297.656 120.814C300.966 122.334 300.406 126.694 296.836 127.244C291.316 128.094 283.776 126.664 278.036 127.244C277.106 127.094 276.196 126.264 275.716 125.484C274.456 123.434 275.586 121.134 272.356 121.284C267.746 121.504 267.916 126.324 265.386 126.884L252.406 126.814C248.826 125.704 247.376 115.374 253.206 114.704C257.166 114.254 262.896 114.584 267.116 114.484H267.106Z" fill="black"/>
<path d="M370.703 76.7946C376.093 75.4046 374.753 81.7446 377.773 83.0746C379.033 83.6246 379.603 83.0746 380.823 84.4146C383.623 87.4846 380.733 91.3746 382.263 94.2746C383.453 96.5446 387.293 94.9746 388.223 98.9846C388.293 105.115 387.933 111.245 388.033 117.395C388.073 119.965 389.513 126.325 385.623 127.205C379.893 128.495 381.513 119.755 381.463 116.735C381.423 114.655 380.823 111.925 380.813 109.855C380.793 106.645 381.873 100.775 380.813 97.9146C379.753 95.0546 376.323 96.9146 374.933 93.4246C373.803 90.5846 375.703 87.0746 374.233 85.0246C373.243 83.6546 371.543 83.9446 370.283 83.3246C367.673 82.0546 368.053 77.4746 370.693 76.7846L370.703 76.7946Z" fill="black"/>
<path d="M239.784 290.935C241.674 290.775 243.244 291.925 243.794 293.675V306.275C242.914 310.065 239.744 308.825 238.414 310.315C237.154 311.715 237.424 315.625 234.684 316.005C229.824 316.675 231.304 311.595 228.344 310.065C227.124 309.435 226.194 309.955 225.084 308.615C223.914 307.215 224.254 305.465 222.584 304.215C221.134 303.135 219.894 303.755 218.684 302.455C215.614 299.155 220.894 293.435 224.094 298.305C225.014 299.715 225.234 301.765 227.054 302.565C228.264 303.105 228.934 302.555 229.944 304.075C231.244 306.035 230.484 308.835 233.764 309.075C237.414 309.335 237.124 306.615 237.024 303.905C236.894 300.405 234.344 291.385 239.784 290.935Z" fill="black"/>
<path d="M339.605 120.745C343.985 119.745 345.805 125.435 342.325 127.235C341.565 127.635 340.805 127.515 340.095 127.825C337.825 128.815 337.725 132.485 335.785 133.565C335.095 133.945 334.445 133.815 333.805 134.105C330.665 135.505 332.135 140.915 327.305 140.125C324.165 139.615 325.175 135.165 322.605 134.155C320.715 133.915 318.505 133.625 316.625 133.535C314.025 133.405 309.175 134.195 307.185 132.615C305.015 130.885 306.175 127.865 308.515 127.025L322.255 126.965C325.455 128.385 323.305 132.755 327.375 133.165C331.445 133.575 330.515 130.245 332.145 128.055C333.185 126.655 333.895 127.215 335.095 126.605C337.495 125.375 337.035 121.335 339.595 120.745H339.605Z" fill="black"/>
<path d="M327.363 252.934C330.143 252.304 331.913 254.874 331.873 257.424C331.853 258.974 330.593 263.234 331.503 264.364C332.673 265.814 339.733 264.464 341.703 265.474C344.833 267.084 344.303 271.624 340.803 272.034C339.773 272.154 334.093 272.164 333.423 271.864C330.773 270.664 331.703 265.804 328.883 265.414C327.693 265.254 321.423 265.734 320.573 266.244C318.773 267.314 319.153 271.164 316.793 271.884C312.093 273.334 310.303 267.404 313.833 265.474C314.633 265.034 315.633 265.034 316.463 264.654C318.813 263.574 318.633 261.124 320.223 259.624C320.953 258.934 321.913 258.724 322.743 258.064C324.383 256.764 325.503 253.364 327.353 252.944L327.363 252.934Z" fill="black"/>
<path d="M207.723 246.345C212.663 245.205 211.443 250.995 214.493 252.315C215.093 252.575 215.753 252.495 216.303 252.705C218.483 253.545 218.283 256.165 219.433 257.735C220.903 259.745 222.983 258.495 224.353 260.985C225.893 263.785 225.843 269.645 222.693 271.355C222.063 271.695 221.353 271.665 220.783 271.955C217.813 273.435 219.083 278.505 214.293 277.965C211.313 277.635 210.553 273.775 212.733 272.065C214.163 270.945 216.533 271.525 217.483 269.585C218.063 268.405 218.053 263.305 217.733 261.945C217.083 259.195 214.163 260.075 212.673 258.525C211.333 257.135 211.723 255.055 209.863 253.805C208.733 253.045 208.233 253.375 207.213 253.005C204.303 251.935 204.823 247.005 207.733 246.335L207.723 246.345Z" fill="black"/>
<path d="M349.363 240.245C348.093 240.575 346.653 240.515 345.503 241.245C343.373 242.605 343.173 247.005 339.883 246.575C335.573 246.015 336.163 236.325 339.413 234.515C340.633 233.835 344.963 233.835 346.463 234.015C349.183 234.335 350.563 237.905 349.373 240.235L349.363 240.245Z" fill="black"/>
<path d="M170.046 164.705C175.076 163.545 173.766 169.685 177.026 170.775C178.346 171.215 179.196 170.695 180.266 172.245C182.336 175.245 179.026 179.215 175.666 177.465C173.666 176.425 174.056 172.565 171.406 171.675C170.816 171.475 170.166 171.595 169.526 171.365C166.616 170.295 167.136 165.365 170.046 164.695V164.705Z" fill="black"/>
<path d="M352.165 101.905C356.725 100.865 357.695 106.725 354.625 108.445C353.935 108.825 353.285 108.695 352.645 108.985C349.855 110.225 350.735 114.735 347.385 115.045C343.195 115.435 342.015 109.835 345.155 108.415C345.945 108.055 346.565 108.215 347.235 107.985C350.035 107.045 349.495 102.525 352.155 101.915L352.165 101.905Z" fill="black"/>
<path d="M377.606 133.615C384.056 132.145 383.886 147.995 377.366 145.965C373.906 144.885 373.876 134.465 377.606 133.615Z" fill="black"/>
<path d="M226.883 278.055C232.843 276.715 232.953 293.275 226.663 290.395C223.383 288.895 222.203 279.105 226.883 278.055Z" fill="black"/>
<path d="M170.366 108.495C176.446 107.125 176.606 120.785 171.236 121.015C166.426 121.215 166.526 109.365 170.366 108.495Z" fill="black"/>
<path d="M214.015 284.344C216.345 283.944 218.265 285.034 218.195 287.554C218.105 290.534 214.515 292.164 212.405 289.884C210.735 288.074 211.405 284.784 214.015 284.334V284.344Z" fill="black"/>
<path d="M252.407 523.455C249.777 524.245 248.477 529.425 246.857 531.145C245.817 532.245 244.337 532.515 243.187 533.405C240.527 535.455 240.037 538.475 237.487 540.495C235.567 542.015 232.907 542.385 231.647 544.705C229.897 547.935 231.397 550.755 231.097 554.205C230.527 560.755 224.967 558.775 222.667 562.665C220.277 566.695 223.227 571.155 221.387 575.085C219.617 578.865 213.567 577.615 212.467 583.515C212.377 591.075 213.127 598.715 213.297 606.215C213.517 615.825 204.917 612.735 203.777 617.745C202.037 625.385 214.267 622.435 212.727 629.415C211.757 633.815 203.207 631.965 203.657 638.185C203.987 642.665 209.347 642.115 211.697 644.785C216.727 650.515 207.257 665.515 216.897 669.265L281.057 669.435C285.527 668.155 285.917 662.495 289.967 660.535C297.007 660.085 304.137 660.585 311.097 659.295C313.287 658.315 313.147 654.625 314.857 652.555C316.737 650.285 320.407 650.455 322.037 647.405C323.887 643.945 321.067 639.415 323.127 635.705C325.087 632.185 330.807 633.385 331.887 627.565C331.827 615.805 330.987 603.805 331.517 592.035C331.707 587.895 334.337 581.725 329.687 578.835C323.717 575.115 322.387 583.275 319.917 585.915C317.647 588.345 313.857 587.615 312.927 592.625C313.187 598.985 313.177 605.345 313.257 611.715C313.307 615.425 314.887 620.225 310.767 622.885C308.667 624.235 299.917 624.265 297.787 623.075C289.377 618.395 302.077 597.585 289.317 596.385C286.637 596.135 273.687 595.995 271.697 596.605C268.447 597.605 266.987 603.915 263.847 605.185C259.517 606.945 253.057 603.055 249.927 608.615C247.937 612.145 249.317 614.665 249.377 618.065C249.487 625.075 249.247 632.095 249.337 639.105C249.387 642.795 250.967 648.025 246.577 650.465C244.637 651.545 236.187 651.575 234.157 650.625C229.397 648.385 231.057 642.455 231.107 638.655C231.197 631.655 231.197 624.605 231.107 617.615C231.077 615.645 230.377 614.045 230.677 611.735C231.657 604.105 238.997 607.025 240.577 600.175L239.887 574.825C240.937 568.175 246.587 570.065 248.807 565.935C250.547 562.685 249.057 559.905 249.357 556.435C249.917 549.945 255.317 551.905 257.777 547.965C260.037 544.355 258.447 541.375 258.467 537.725C258.497 533.695 260.807 529.515 258.247 525.655C256.987 523.755 254.677 522.765 252.427 523.445L252.407 523.455ZM363.367 569.575C356.437 572.225 359.537 576.865 358.937 582.035C358.247 587.925 352.687 586.275 350.377 590.375C348.747 593.275 348.787 600.255 350.717 603.045C353.497 607.065 358.767 605.065 362.827 605.545C366.887 606.025 366.597 610.055 368.797 612.365C370.787 614.455 373.937 614.805 376.557 613.825C378.057 612.685 377.467 606.755 380.517 605.455C382.847 604.455 387.807 605.465 390.637 605.075C395.587 604.375 394.057 599.565 396.817 597.105C398.527 595.575 401.727 595.925 403.477 594.175C404.487 593.175 404.687 590.945 405.717 589.575C408.157 586.315 415.007 587.305 413.627 581.245C412.917 578.115 409.507 578.075 407.547 576.815C404.717 574.985 403.747 570.645 400.147 569.595H363.357L363.367 569.575ZM135.067 633.035C131.357 634.455 130.777 638.655 127.907 640.935C123.547 644.405 124.267 643.395 120.787 647.975C117.707 652.025 112.627 651.365 111.897 657.355C111.607 659.695 112.387 661.725 112.377 663.735C112.357 669.245 109.847 676.655 117.197 678.555L153.937 678.395C157.387 676.715 157.947 672.825 160.747 670.595C162.587 669.125 164.357 668.825 166.017 666.735C169.817 661.965 168.077 663.055 173.497 659.605C178.177 656.635 178.187 644.585 172.887 642.485C170.217 641.435 166.157 642.415 163.257 642.075C158.667 641.535 157.937 634.935 153.927 633.135L135.047 633.025L135.067 633.035Z" fill="black"/>
<path d="M450.257 514.225V532.485C442.467 530.685 442.327 537.535 437.897 540.905C436.957 541.615 435.787 541.895 434.717 542.745C431.817 545.045 430.847 550.275 426.747 550.755C421.937 551.325 412.697 549.705 408.677 550.945C405.297 551.985 404.137 558.425 400.157 559.325L336.357 559.855C332.297 559.215 330.967 552.035 327.447 550.955C323.427 549.715 314.187 551.335 309.377 550.765C305.237 550.275 304.327 545.015 301.407 542.755C299.587 541.345 297.557 541.245 296.127 539.355C293.407 535.755 294.967 532.815 295.027 529.085C295.087 525.435 295.087 521.735 295.027 518.085C294.967 514.225 293.377 510.995 296.127 507.355C297.547 505.475 299.407 505.445 301.167 504.175C303.817 502.255 304.307 499.075 306.867 497.095C308.717 495.655 311.327 495.375 312.547 493.185C315.037 488.705 310.287 482.075 316.047 478.425C321.477 474.985 319.737 476.065 323.527 471.295C325.187 469.205 326.957 468.905 328.797 467.435C331.697 465.135 332.667 459.905 336.767 459.425C341.577 458.855 350.817 460.475 354.837 459.235C358.347 458.155 359.687 450.975 363.747 450.335C377.987 451.275 394.007 448.995 408.037 450.285C412.797 450.725 413.147 455.485 416.227 458.075C418.107 459.665 420.047 460.045 421.727 462.165C425.197 466.525 424.197 465.805 428.767 469.285C431.627 471.455 432.137 474.565 434.717 476.575C436.707 478.115 438.927 478.155 440.387 480.485C442.577 483.985 441.147 486.785 441.097 490.245C441.017 495.305 440.797 500.315 440.637 505.315C440.427 511.985 443.447 515.105 450.247 514.235L450.257 514.225ZM376.187 477.375C371.827 477.475 367.387 477.795 363.017 477.905C359.507 479.305 358.347 485.195 355.167 486.485C352.367 487.625 347.677 486.135 344.757 487.035C341.507 488.035 340.047 494.345 336.907 495.615C332.947 497.225 326.687 493.915 323.537 498.225C320.957 501.755 322.387 504.485 322.437 508.045C322.507 513.505 321.617 520.425 321.947 525.435C322.207 529.385 324.067 532.135 328.117 532.515C336.507 533.305 346.007 531.815 354.517 532.595C358.447 534.215 360.897 546.355 366.957 540.275C372.157 535.045 364.717 523.565 368.807 517.015C370.717 513.965 374.487 514.495 376.307 511.725C380.357 505.565 373.567 493.975 378.817 489.125C381.337 486.795 385.917 487.145 386.327 482.905C386.937 476.515 380.367 477.285 376.207 477.385L376.187 477.375ZM416.347 523.015C412.307 524.055 412.077 531.345 416.027 532.695C425.447 535.915 426.127 520.505 416.347 523.015Z" fill="black"/>
<path d="M450.256 614.675V660.335C447.146 660.195 443.576 660.005 441.846 663.115C439.456 667.415 443.896 674.285 438.616 677.695C436.586 679.005 428.016 679.115 426.076 677.905C423.276 676.145 422.636 672.385 419.886 670.395C418.016 669.045 415.766 668.945 414.446 666.705C412.016 662.605 415.146 657.865 413.006 653.995C410.256 649.035 403.186 652.475 399.236 650.875C396.096 649.595 394.636 643.295 391.386 642.295C390.026 641.875 382.656 641.875 381.286 642.295C377.576 643.435 376.676 650.675 371.956 651.235C366.606 651.865 363.556 649.295 359.646 654.445C356.176 659.025 356.886 658.015 352.526 661.485C349.636 663.785 348.656 669.015 344.556 669.495C342.016 669.795 338.846 669.115 336.356 669.515C333.026 670.045 331.426 675.405 328.806 677.485C324.446 680.955 325.166 679.955 321.686 684.525C319.516 687.375 316.456 687.885 314.396 690.475C310.606 695.245 312.336 694.155 306.916 697.605C299.196 702.505 308.866 717.905 301.876 723.155C299.996 724.565 297.726 724.375 296.136 726.545C291.556 732.785 299.206 745.735 292.746 750.555C291.376 751.575 289.606 751.705 288.366 753.025C285.946 755.615 285.606 761.405 280.606 760.835C276.596 760.375 275.796 753.155 272.976 752.015C270.466 751.005 266.116 752.085 263.306 751.645C259.896 751.105 258.456 745.985 255.986 743.895C254.106 742.305 252.166 741.925 250.486 739.805C246.686 735.035 248.426 736.125 243.006 732.675C238.986 730.115 238.646 721.235 241.136 717.645C242.576 715.565 244.736 715.465 246.626 714.005C249.286 711.945 250.666 706.585 254.176 706.035C259.576 705.175 262.846 708.135 266.906 702.785C270.376 698.205 269.666 699.215 274.026 695.745C276.916 693.445 277.896 688.215 281.996 687.735C284.876 687.395 289.426 688.535 291.806 687.035C294.516 685.335 295.176 681.785 297.756 679.735C298.946 678.785 300.236 678.425 301.426 677.475C303.616 675.735 304.376 673.075 306.676 671.315C308.446 669.955 310.606 669.645 311.916 667.885C314.276 664.705 312.476 661.475 317.676 660.855C320.556 660.515 325.916 661.135 328.336 659.635C330.406 658.355 331.246 655.675 332.686 653.935C334.846 651.335 337.816 650.825 339.976 647.985C343.456 643.415 342.726 644.415 347.096 640.945C349.986 638.645 350.966 633.415 355.066 632.935C357.606 632.635 360.776 633.315 363.266 632.915C366.566 632.395 368.316 627.015 371.046 625.175C372.866 623.955 374.316 624.375 375.846 622.215C376.986 620.615 377.556 616.605 378.306 616.005C380.246 614.455 387.926 615.475 390.686 615.145C395.386 614.585 394.566 609.825 396.586 607.805C398.436 605.965 401.736 606.465 403.476 604.645C405.986 602.035 404.626 597.565 409.436 596.905C412.096 596.535 416.616 597.095 419.096 596.065C422.686 594.565 423.456 587.815 428.106 587.265C431.526 586.855 437.816 586.635 440.006 589.535C445.436 596.745 433.326 616.475 450.266 614.665L450.256 614.675Z" fill="black"/>
<path d="M84.9653 560.345V550.295C92.1053 551.995 92.8453 545.915 96.8253 542.755C98.0853 541.755 99.6853 541.385 100.735 540.275C102.455 538.445 103.655 533.095 106.655 532.505C112.705 531.305 112.865 540.335 116.435 541.425C118.315 541.995 132.015 541.935 134.505 541.635C139.255 541.075 139.695 534.245 144.175 533.045C152.685 531.955 163.705 534.185 171.905 532.915C177.585 532.035 177.715 524.105 172.285 523.005C164.585 521.435 152.475 524.195 144.565 522.875C140.125 522.135 139.165 515.505 135.665 514.425C131.645 513.185 122.405 514.805 117.595 514.235C113.455 513.745 112.545 508.485 109.625 506.225C107.805 504.815 105.775 504.715 104.345 502.825C101.615 499.205 101.745 488.745 106.945 487.125L153.575 486.915C157.935 488.475 158.525 495.405 163.245 495.965C167.965 496.525 177.295 494.915 181.315 496.155C184.825 497.235 186.165 504.415 190.225 505.055L226.635 504.985C230.765 504.065 230.625 494.005 237.485 496.155C243.175 497.935 240.265 506.105 240.175 509.865C240.085 513.535 241.715 516.645 239.625 520.265C238.205 522.735 235.825 522.875 233.795 524.485C231.225 526.525 230.565 530.075 227.845 531.785C225.475 533.275 220.915 532.135 218.035 532.485C213.315 533.045 212.415 540.275 208.705 541.425C205.785 542.325 201.095 540.835 198.295 541.975C195.155 543.255 193.695 549.555 190.445 550.555C187.525 551.455 182.835 549.965 180.035 551.105C176.845 552.395 175.695 558.285 172.185 559.685L152.955 560.095C149.455 561.465 148.085 567.805 144.785 568.825C143.335 569.275 135.775 569.255 134.375 568.685C130.975 567.305 129.935 560.735 125.785 559.925L84.9453 560.355L84.9653 560.345Z" fill="black"/>
<path d="M252.406 523.455C254.656 522.775 256.966 523.765 258.226 525.665C260.776 529.525 258.466 533.705 258.446 537.735C258.426 541.385 260.016 544.365 257.756 547.975C255.286 551.915 249.896 549.955 249.336 556.445C249.036 559.915 250.536 562.695 248.786 565.945C246.566 570.085 240.926 568.195 239.866 574.835L240.556 600.185C238.976 607.035 231.636 604.115 230.656 611.745C230.356 614.055 231.066 615.655 231.086 617.625C231.176 624.625 231.176 631.675 231.086 638.665C231.036 642.465 229.376 648.405 234.136 650.635C236.166 651.585 244.616 651.555 246.556 650.475C250.936 648.035 249.366 642.805 249.316 639.115C249.226 632.105 249.466 625.085 249.356 618.075C249.306 614.665 247.926 612.145 249.906 608.625C253.036 603.065 259.496 606.955 263.826 605.195C266.966 603.915 268.426 597.615 271.676 596.615C273.666 595.995 286.616 596.145 289.296 596.395C302.056 597.595 289.356 618.415 297.766 623.085C299.896 624.275 308.646 624.245 310.746 622.895C314.866 620.235 313.286 615.435 313.236 611.725C313.156 605.355 313.166 598.995 312.906 592.635C313.836 587.625 317.626 588.355 319.896 585.925C322.366 583.285 323.696 575.125 329.666 578.845C334.316 581.735 331.686 587.905 331.496 592.045C330.956 603.805 331.806 615.805 331.866 627.575C330.786 633.395 325.066 632.195 323.106 635.715C321.046 639.415 323.866 643.955 322.016 647.415C320.386 650.465 316.716 650.295 314.836 652.565C313.126 654.635 313.266 658.315 311.076 659.305C304.106 660.605 296.976 660.095 289.946 660.545C285.906 662.505 285.516 668.165 281.036 669.445L216.876 669.275C207.236 665.525 216.716 650.525 211.676 644.795C209.326 642.125 203.966 642.675 203.636 638.195C203.186 631.975 211.736 633.825 212.706 629.425C214.246 622.445 202.016 625.395 203.756 617.755C204.896 612.745 213.496 615.835 213.276 606.225C213.106 598.715 212.356 591.075 212.446 583.525C213.546 577.625 219.596 578.875 221.366 575.095C223.206 571.165 220.256 566.705 222.646 562.675C224.946 558.785 230.506 560.765 231.076 554.215C231.376 550.765 229.876 547.945 231.626 544.715C232.886 542.395 235.546 542.025 237.466 540.505C240.016 538.485 240.506 535.465 243.166 533.415C244.326 532.525 245.806 532.255 246.836 531.155C248.456 529.435 249.756 524.255 252.386 523.465L252.406 523.455Z" fill="black"/>
<path d="M135.067 633.035L153.947 633.145C157.947 634.945 158.687 641.545 163.277 642.085C166.177 642.425 170.237 641.445 172.907 642.495C178.217 644.585 178.197 656.635 173.517 659.615C168.097 663.065 169.827 661.965 166.037 666.745C164.377 668.835 162.607 669.135 160.767 670.605C157.967 672.835 157.407 676.725 153.957 678.405L117.217 678.565C109.867 676.665 112.377 669.255 112.397 663.745C112.397 661.735 111.627 659.705 111.917 657.365C112.647 651.385 117.727 652.035 120.807 647.985C124.287 643.415 123.557 644.415 127.927 640.945C130.797 638.655 131.387 634.465 135.087 633.045L135.067 633.035Z" fill="black"/>
<path d="M363.364 569.575H400.154C403.744 570.615 404.714 574.965 407.554 576.795C409.504 578.055 412.914 578.095 413.634 581.225C415.014 587.285 408.164 586.295 405.724 589.555C404.694 590.925 404.484 593.155 403.484 594.155C401.724 595.905 398.534 595.555 396.824 597.085C394.064 599.545 395.594 604.355 390.644 605.055C387.814 605.455 382.864 604.445 380.524 605.435C377.474 606.745 378.064 612.665 376.564 613.805C373.944 614.785 370.794 614.445 368.804 612.345C366.604 610.035 366.794 605.995 362.834 605.525C358.874 605.055 353.504 607.045 350.724 603.025C348.794 600.235 348.754 593.255 350.384 590.355C352.684 586.255 358.254 587.915 358.944 582.015C359.544 576.845 356.444 572.205 363.374 569.555L363.364 569.575Z" fill="black"/>
<path d="M825.696 528.415C823.066 529.205 821.766 534.385 820.146 536.105C819.106 537.205 817.626 537.475 816.476 538.365C813.816 540.415 813.326 543.435 810.776 545.455C808.856 546.975 806.196 547.345 804.936 549.665C803.186 552.895 804.686 555.715 804.386 559.165C803.816 565.715 798.256 563.735 795.956 567.625C793.566 571.655 796.516 576.115 794.676 580.045C792.836 583.975 786.856 582.575 785.756 588.475C785.666 596.035 786.416 603.675 786.586 611.175C786.806 620.785 778.206 617.695 777.066 622.705C775.326 630.345 787.556 627.395 786.016 634.375C785.046 638.775 776.496 636.925 776.946 643.145C777.276 647.625 782.636 647.075 784.986 649.745C790.016 655.475 780.546 670.475 790.186 674.225L854.346 674.395C858.816 673.115 859.206 667.455 863.256 665.495C870.296 665.045 877.426 665.545 884.386 664.255C886.576 663.275 886.436 659.585 888.146 657.515C890.026 655.245 893.696 655.415 895.326 652.365C897.176 648.905 894.356 644.375 896.416 640.665C898.376 637.145 904.096 638.345 905.176 632.525C905.116 620.765 904.276 608.765 904.806 596.995C904.996 592.855 907.626 586.685 902.976 583.795C897.006 580.075 895.676 588.235 893.206 590.875C890.936 593.305 887.146 592.575 886.216 597.585C886.476 603.945 886.466 610.305 886.546 616.675C886.596 620.385 888.176 625.185 884.056 627.845C881.956 629.195 873.206 629.225 871.076 628.035C862.666 623.355 875.366 602.545 862.606 601.345C859.926 601.095 846.976 600.955 844.986 601.565C841.736 602.565 840.276 608.875 837.136 610.145C832.806 611.905 826.346 608.015 823.216 613.575C821.226 617.105 822.606 619.625 822.666 623.025C822.776 630.035 822.536 637.055 822.626 644.065C822.676 647.755 824.256 652.985 819.866 655.425C817.926 656.505 809.476 656.535 807.446 655.585C802.686 653.345 804.346 647.415 804.396 643.615C804.486 636.615 804.486 629.565 804.396 622.575C804.366 620.605 803.666 619.005 803.966 616.695C804.946 609.065 812.286 611.985 813.866 605.135L813.176 579.785C814.226 573.135 819.876 575.025 822.096 570.895C823.836 567.645 822.346 564.865 822.646 561.395C823.206 554.905 828.606 556.865 831.066 552.925C833.326 549.315 831.736 546.335 831.756 542.685C831.786 538.655 834.096 534.475 831.536 530.615C830.276 528.715 827.966 527.725 825.716 528.405L825.696 528.415ZM936.656 574.535C929.726 577.185 932.826 581.825 932.226 586.995C931.536 592.885 925.976 591.235 923.666 595.335C922.036 598.235 922.076 605.215 924.006 608.005C926.786 612.025 932.056 610.025 936.116 610.505C940.176 610.985 939.886 615.015 942.086 617.325C944.076 619.415 947.226 619.765 949.846 618.785C951.346 617.645 950.756 611.715 953.806 610.415C956.136 609.415 961.096 610.425 963.926 610.035C968.876 609.335 967.346 604.525 970.106 602.065C971.816 600.535 975.016 600.885 976.766 599.135C977.776 598.135 977.976 595.905 979.006 594.535C981.446 591.275 988.296 592.265 986.916 586.205C986.206 583.075 982.796 583.035 980.836 581.775C978.006 579.945 977.036 575.605 973.436 574.555H936.646L936.656 574.535ZM708.356 638.005C704.646 639.425 704.066 643.625 701.196 645.905C696.836 649.375 697.556 648.365 694.076 652.945C690.996 656.995 685.916 656.335 685.186 662.325C684.896 664.665 685.676 666.695 685.666 668.705C685.646 674.215 683.136 681.625 690.486 683.525L727.226 683.365C730.676 681.685 731.236 677.795 734.036 675.565C735.876 674.095 737.646 673.795 739.306 671.705C743.106 666.935 741.366 668.025 746.786 664.575C751.466 661.605 751.476 649.555 746.176 647.455C743.506 646.405 739.446 647.385 736.546 647.045C731.956 646.505 731.226 639.905 727.216 638.105L708.336 637.995L708.356 638.005Z" fill="black"/>
<path d="M1023.55 519.195V537.455C1015.76 535.655 1015.62 542.505 1011.19 545.875C1010.25 546.585 1009.08 546.865 1008.01 547.715C1005.11 550.015 1004.14 555.245 1000.04 555.725C995.226 556.295 985.986 554.675 981.966 555.915C978.586 556.955 977.426 563.395 973.446 564.295L909.646 564.825C905.586 564.185 904.256 557.005 900.736 555.925C896.716 554.685 887.476 556.305 882.666 555.735C878.526 555.245 877.616 549.985 874.696 547.725C872.876 546.315 870.846 546.215 869.416 544.325C866.696 540.725 868.256 537.785 868.316 534.055C868.376 530.405 868.376 526.705 868.316 523.055C868.256 519.195 866.666 515.965 869.416 512.325C870.836 510.445 872.696 510.415 874.456 509.145C877.106 507.225 877.596 504.045 880.156 502.065C882.006 500.625 884.616 500.345 885.836 498.155C888.326 493.675 883.576 487.045 889.336 483.395C894.766 479.955 893.026 481.035 896.816 476.265C898.476 474.175 900.246 473.875 902.086 472.405C904.986 470.105 905.956 464.875 910.056 464.395C914.866 463.825 924.106 465.445 928.126 464.205C931.636 463.125 932.976 455.945 937.036 455.305C951.276 456.245 967.296 453.965 981.326 455.255C986.086 455.695 986.436 460.455 989.516 463.045C991.396 464.635 993.336 465.015 995.016 467.135C998.486 471.495 997.486 470.775 1002.06 474.255C1004.92 476.425 1005.43 479.535 1008.01 481.545C1010 483.085 1012.22 483.125 1013.68 485.455C1015.87 488.955 1014.44 491.755 1014.39 495.215C1014.31 500.275 1014.09 505.285 1013.93 510.285C1013.72 516.955 1016.74 520.075 1023.54 519.205L1023.55 519.195ZM949.476 482.345C945.116 482.445 940.676 482.765 936.306 482.875C932.796 484.275 931.636 490.165 928.456 491.455C925.656 492.595 920.966 491.105 918.046 492.005C914.796 493.005 913.336 499.315 910.196 500.585C906.236 502.195 899.976 498.885 896.826 503.195C894.246 506.725 895.676 509.455 895.726 513.015C895.796 518.475 894.906 525.395 895.236 530.405C895.496 534.355 897.356 537.105 901.406 537.485C909.796 538.275 919.296 536.785 927.806 537.565C931.736 539.185 934.186 551.325 940.246 545.245C945.446 540.015 938.006 528.535 942.096 521.985C944.006 518.935 947.776 519.465 949.596 516.695C953.646 510.535 946.856 498.945 952.106 494.095C954.626 491.765 959.206 492.115 959.616 487.875C960.226 481.485 953.656 482.255 949.496 482.355L949.476 482.345ZM989.636 527.985C985.596 529.025 985.366 536.315 989.316 537.665C998.736 540.885 999.416 525.475 989.636 527.985Z" fill="black"/>
<path d="M1023.54 619.644V665.304C1020.43 665.164 1016.86 664.974 1015.13 668.084C1012.74 672.384 1017.18 679.254 1011.9 682.664C1009.87 683.974 1001.3 684.084 999.365 682.874C996.565 681.114 995.925 677.354 993.175 675.364C991.305 674.014 989.055 673.914 987.735 671.674C985.305 667.574 988.435 662.834 986.295 658.964C983.545 654.004 976.475 657.444 972.525 655.844C969.385 654.564 967.925 648.264 964.675 647.264C963.315 646.844 955.945 646.844 954.575 647.264C950.865 648.404 949.965 655.644 945.245 656.204C939.895 656.834 936.845 654.264 932.935 659.414C929.465 663.994 930.175 662.984 925.815 666.454C922.925 668.754 921.945 673.984 917.845 674.464C915.305 674.764 912.135 674.084 909.645 674.484C906.315 675.014 904.715 680.374 902.095 682.454C897.735 685.924 898.455 684.924 894.975 689.494C892.805 692.344 889.745 692.854 887.685 695.444C883.895 700.214 885.625 699.124 880.205 702.574C872.485 707.474 882.155 722.874 875.165 728.124C873.285 729.534 871.015 729.344 869.425 731.514C864.845 737.754 872.495 750.704 866.035 755.524C864.665 756.544 862.895 756.674 861.655 757.994C859.235 760.584 858.895 766.374 853.895 765.804C849.885 765.344 849.085 758.124 846.265 756.984C843.755 755.974 839.405 757.054 836.595 756.614C833.185 756.074 831.745 750.954 829.275 748.864C827.395 747.274 825.455 746.894 823.775 744.774C819.975 740.004 821.715 741.094 816.295 737.644C812.275 735.084 811.935 726.204 814.425 722.614C815.865 720.534 818.025 720.434 819.915 718.974C822.575 716.914 823.955 711.554 827.465 711.004C832.865 710.144 836.135 713.104 840.195 707.754C843.665 703.174 842.955 704.184 847.315 700.714C850.205 698.414 851.185 693.184 855.285 692.704C858.165 692.364 862.715 693.504 865.095 692.004C867.805 690.304 868.465 686.754 871.045 684.704C872.235 683.754 873.525 683.394 874.715 682.444C876.905 680.704 877.665 678.044 879.965 676.284C881.735 674.924 883.895 674.614 885.205 672.854C887.565 669.674 885.765 666.444 890.965 665.824C893.845 665.484 899.205 666.104 901.625 664.604C903.695 663.324 904.535 660.644 905.975 658.904C908.135 656.304 911.105 655.794 913.265 652.954C916.745 648.384 916.015 649.384 920.385 645.914C923.275 643.614 924.255 638.384 928.355 637.904C930.895 637.604 934.065 638.284 936.555 637.884C939.855 637.364 941.605 631.984 944.335 630.144C946.155 628.924 947.605 629.344 949.135 627.184C950.275 625.584 950.845 621.574 951.595 620.974C953.535 619.424 961.215 620.444 963.975 620.114C968.675 619.554 967.855 614.794 969.875 612.774C971.725 610.934 975.025 611.434 976.765 609.614C979.275 607.004 977.915 602.534 982.725 601.874C985.385 601.504 989.905 602.064 992.385 601.034C995.975 599.534 996.745 592.784 1001.39 592.234C1004.81 591.824 1011.1 591.604 1013.29 594.504C1018.72 601.714 1006.61 621.444 1023.55 619.634L1023.54 619.644Z" fill="black"/>
<path d="M658.254 565.305V555.255C665.394 556.955 666.134 550.875 670.114 547.715C671.374 546.715 672.974 546.345 674.024 545.235C675.744 543.405 676.944 538.055 679.944 537.465C685.994 536.265 686.154 545.295 689.724 546.385C691.604 546.955 705.304 546.895 707.794 546.595C712.544 546.035 712.984 539.205 717.464 538.005C725.974 536.915 736.994 539.145 745.194 537.875C750.874 536.995 751.004 529.065 745.574 527.965C737.874 526.395 725.764 529.155 717.854 527.835C713.414 527.095 712.454 520.465 708.954 519.385C704.934 518.145 695.694 519.765 690.884 519.195C686.744 518.705 685.834 513.445 682.914 511.185C681.094 509.775 679.064 509.675 677.634 507.785C674.904 504.165 675.034 493.705 680.234 492.085L726.864 491.875C731.224 493.435 731.814 500.365 736.534 500.925C741.344 501.495 750.584 499.875 754.604 501.115C758.114 502.195 759.454 509.375 763.514 510.015L799.924 509.945C804.054 509.025 803.914 498.965 810.774 501.115C816.464 502.895 813.554 511.065 813.464 514.825C813.374 518.585 815.004 521.605 812.914 525.225C811.494 527.695 809.114 527.835 807.084 529.445C804.514 531.485 803.854 535.035 801.134 536.745C798.764 538.235 794.204 537.095 791.324 537.445C786.604 538.005 785.704 545.235 781.994 546.385C779.074 547.285 774.384 545.795 771.584 546.935C768.444 548.215 766.984 554.515 763.734 555.515C760.814 556.415 756.124 554.925 753.324 556.065C750.134 557.355 748.984 563.245 745.474 564.645L726.244 565.055C722.744 566.425 721.374 572.765 718.074 573.785C716.624 574.235 709.064 574.215 707.664 573.645C704.264 572.265 703.224 565.695 699.074 564.885L658.234 565.315L658.254 565.305Z" fill="black"/>
<path d="M825.695 528.415C827.945 527.735 830.255 528.725 831.515 530.625C834.065 534.485 831.755 538.665 831.735 542.695C831.715 546.345 833.305 549.325 831.045 552.935C828.575 556.875 823.185 554.915 822.625 561.405C822.325 564.875 823.825 567.655 822.075 570.905C819.855 575.045 814.215 573.155 813.155 579.795L813.845 605.145C812.265 611.995 804.925 609.075 803.945 616.705C803.645 619.015 804.355 620.615 804.375 622.585C804.465 629.585 804.465 636.635 804.375 643.625C804.325 647.425 802.665 653.365 807.425 655.595C809.455 656.545 817.905 656.515 819.845 655.435C824.225 652.995 822.655 647.765 822.605 644.075C822.515 637.065 822.755 630.045 822.645 623.035C822.595 619.625 821.215 617.105 823.195 613.585C826.325 608.025 832.785 611.915 837.115 610.155C840.255 608.875 841.715 602.575 844.965 601.575C846.955 600.955 859.905 601.105 862.585 601.355C875.345 602.555 862.645 623.375 871.055 628.045C873.185 629.235 881.935 629.205 884.035 627.855C888.155 625.195 886.575 620.395 886.525 616.685C886.445 610.315 886.455 603.955 886.195 597.595C887.125 592.585 890.915 593.315 893.185 590.885C895.655 588.245 896.985 580.085 902.955 583.805C907.605 586.695 904.975 592.865 904.785 597.005C904.245 608.765 905.095 620.765 905.155 632.535C904.075 638.355 898.355 637.155 896.395 640.675C894.335 644.375 897.155 648.915 895.305 652.375C893.675 655.425 890.005 655.255 888.125 657.525C886.415 659.595 886.555 663.275 884.365 664.265C877.395 665.565 870.265 665.055 863.235 665.505C859.195 667.465 858.805 673.125 854.325 674.405L790.165 674.235C780.525 670.485 790.005 655.485 784.965 649.755C782.615 647.085 777.255 647.635 776.925 643.155C776.475 636.935 785.025 638.785 785.995 634.385C787.535 627.405 775.305 630.355 777.045 622.715C778.185 617.705 786.785 620.795 786.565 611.185C786.395 603.675 785.645 596.035 785.735 588.485C786.835 582.585 792.885 583.835 794.655 580.055C796.425 576.275 793.545 571.665 795.935 567.635C798.235 563.745 803.795 565.725 804.365 559.175C804.665 555.725 803.165 552.905 804.915 549.675C806.175 547.355 808.835 546.985 810.755 545.465C813.305 543.445 813.795 540.425 816.455 538.375C817.615 537.485 819.095 537.215 820.125 536.115C821.745 534.395 823.045 529.215 825.675 528.425L825.695 528.415Z" fill="black"/>
<path d="M708.356 638.005L727.236 638.115C731.236 639.915 731.976 646.515 736.566 647.055C739.466 647.395 743.526 646.415 746.196 647.465C751.506 649.555 751.486 661.605 746.806 664.585C741.386 668.035 743.116 666.935 739.326 671.715C737.666 673.805 735.896 674.105 734.056 675.575C731.256 677.805 730.696 681.695 727.246 683.375L690.506 683.535C683.156 681.635 685.666 674.225 685.686 668.715C685.686 666.705 684.916 664.675 685.206 662.335C685.936 656.355 691.016 657.005 694.096 652.955C697.576 648.385 696.846 649.385 701.216 645.915C704.086 643.625 704.676 639.435 708.376 638.015L708.356 638.005Z" fill="black"/>
<path d="M936.653 574.535H973.443C977.033 575.575 978.003 579.925 980.843 581.755C982.793 583.015 986.203 583.055 986.923 586.185C988.303 592.245 981.453 591.255 979.013 594.515C977.983 595.885 977.773 598.115 976.773 599.115C975.013 600.865 971.823 600.515 970.113 602.045C967.353 604.505 968.883 609.315 963.933 610.015C961.103 610.415 956.153 609.405 953.813 610.395C950.763 611.705 951.353 617.625 949.853 618.765C947.233 619.745 944.083 619.405 942.093 617.305C939.893 614.995 940.083 610.955 936.123 610.485C932.163 610.015 926.793 612.005 924.013 607.985C922.083 605.195 922.043 598.215 923.673 595.315C925.973 591.215 931.543 592.875 932.233 586.975C932.833 581.805 929.733 577.165 936.663 574.515L936.653 574.535Z" fill="black"/>
</svg>
