<svg width="417" height="323" viewBox="0 0 417 323" fill="none" xmlns="http://www.w3.org/2000/svg">
<path d="M416.26 305.6C416.26 306.37 415.65 307.03 414.88 307.05C407.12 307.23 400.59 314.04 401.14 321.97L400.7 322.41H337.22L336.78 321.96C336.97 317.15 333.07 309.79 328.47 308.1C328.24 308.02 326.36 307.48 326.24 307.48C326.05 307.48 325.72 307.9 325.34 307.94C323.99 308.1 319.01 309.06 318.38 309.01C315.36 308.73 313.28 307.35 311.45 305.01C309.51 302.53 309 300.59 309.22 297.45C309.29 296.42 310 294.63 310.14 293.64C310.6 290.38 309.81 287.32 307.61 284.9C304.35 281.32 299.86 281.2 296.53 284.76C292.26 289.33 293.57 297.02 294.16 302.48C294.84 308.72 295.5 314.55 295.93 320.81C295.93 320.81 295.93 320.82 295.93 320.83C296 321.69 295.38 322.44 294.52 322.44H136.5C135.71 322.44 135.06 321.8 135.07 321C135.07 320.56 135.12 320.09 135.07 319.67C134.54 315.61 131.81 310.77 128.22 308.79C120.36 304.45 110.79 307.46 107.38 315.85C106.76 317.39 106.28 319.34 106.16 321.12C106.11 321.87 105.49 322.44 104.74 322.44H27.89C27.08 322.44 26.43 321.77 26.47 320.96C26.55 318.97 26.22 316.96 26.33 314.9C26.45 312.48 27.23 310.25 27.53 308.11C28.45 301.38 23.3 298.81 19.23 295.09C18.1 294.05 16.5 292.55 15.53 291.4C14.91 290.66 12.97 287.9 12.86 287.12C12.75 286.26 12.79 281.62 12.87 280.61C13.19 276.49 14.42 271.6 14.8 267.33C15.48 259.83 8.3 255.08 1.91 253.88C1.75 253.85 1.57 253.84 1.4 253.84C0.62 253.84 0 253.19 0 252.42V188.66C0 187.82 0.71 187.17 1.55 187.24C4.03 187.45 6.54 187.4 9.01 187.68C13.34 188.16 17.12 189.08 21.75 188.86C25.49 188.69 30.27 187.27 33.71 189C37.9 191.11 45.14 198.59 48.2 202.29C50.96 205.63 55.15 213.2 59.48 214.36C64.99 215.84 68.69 209.51 68.29 204.66C68.07 202.04 66.56 199.49 66.5 196.68C66.45 194.52 67.43 192.59 68.88 191.05C70.26 189.58 74.48 186.82 76.43 186.63C78.15 186.46 80.99 186.84 82.66 187.03C110.98 190.3 141.67 184.82 170.01 189.13C170.09 189.14 170.17 189.15 170.24 189.14C173.46 189.04 176.69 189.25 179.9 189.14C185.75 188.95 193.55 186.65 198.13 191.2C200.14 193.2 200.92 195.64 200.74 198.46C200.65 199.81 200 201.86 199.82 203.16C199.3 206.91 200.95 211.23 204.17 213.33C208.11 215.9 212.41 214.14 214.74 210.39C215.63 208.94 215.58 208.18 215.87 206.82C215.94 206.47 216.36 206.18 216.43 205.55C216.52 204.7 215.57 201.4 215.5 200.24C215.23 195.57 215.79 191.73 219.65 188.69C222.41 186.52 226.69 186.91 230.15 187.07C255.75 188.3 281.78 187.88 307.39 187.04C307.52 187.04 307.65 187.01 307.77 186.97C309.16 186.54 311.43 186.63 312.89 186.8C318.38 187.44 320.61 194.95 324.15 198.59C326.36 200.86 328.81 202.03 331.74 200.26C335.04 198.28 337.13 193.23 339.43 190.21C343.73 184.57 349.05 187.3 354.89 187.66C363.72 188.21 374.05 187.72 382.99 187.67C386.53 187.65 389.42 186.4 393.33 186.76C396.29 187.03 397.64 188.79 399.55 190.89C403.92 195.7 407.84 202.29 414.94 202.71C415.68 202.75 416.25 203.39 416.25 204.13V224.69C416.25 225.45 415.66 226.07 414.9 226.11C409.51 226.46 402.24 228.81 402.34 235.08C402.43 241 409.73 243.27 414.93 243.72C415.67 243.78 416.25 244.39 416.25 245.14V305.56L416.26 305.6Z" fill="black"/>
<path d="M266.87 130.83C265.42 132.5 261.63 135.04 259.4 135.33C255.22 135.86 252.37 134.2 248.79 134.16C245.8 134.13 242.44 135.65 239.3 135.63C231.47 135.57 231.09 127.52 225.2 124.07C222.96 122.76 216.51 121.12 215.41 119.08C214.95 118.24 215.13 117.66 214.92 116.96C214.85 116.71 214.41 116.75 214.36 116.53C213.88 114.51 214.75 111.07 216.27 109.63C219.88 106.22 228.38 106.87 229.41 100.9C229.93 97.8999 226.84 93.4099 223.82 92.9799C222.28 92.7599 219.58 93.0099 218.21 93.8299C213.44 96.7199 214.36 104.15 209.7 106.01C206.79 107.17 196.47 107.53 193.75 106.15C189.42 103.95 182.07 94.8699 178.01 91.1499C177.58 90.7499 176.96 90.6799 176.51 90.2899C170.45 85.0799 172.02 73.6999 177.86 68.8599C180.55 66.6299 182.6 66.1599 186.15 66.4699C187.64 66.5999 189.56 67.6599 191.17 67.6699C196.73 67.7199 201.83 58.3799 205.93 54.9399C208.37 52.8899 209.39 52.5499 212.71 52.9099C213.86 53.0299 215.33 53.7799 216.29 53.9099C216.83 53.9899 217.64 53.5799 218.32 53.7599C218.6 53.8399 218.49 54.3299 218.52 54.3499C218.66 54.4599 219.01 53.8899 219.33 53.8099C220.81 53.4499 221.38 53.6699 222.96 52.4399C227.25 49.1199 231.54 39.7999 237.26 39.2599C239.21 39.0699 241.68 40.2899 243.79 40.4599C248.52 40.8299 250.32 38.7799 253.25 35.4399C255.1 33.3299 256.38 30.9199 258.56 28.9299C263.88 24.0499 271.94 23.1799 277.51 28.0399C278.17 28.6099 277.96 29.0899 278.34 29.5299C281.43 33.0199 285.71 37.0999 289.15 40.3299C290.7 41.7799 292.85 42.9799 294.35 44.8899C298.29 49.8899 295.88 53.4099 295.65 58.9299C295.48 62.9999 296.95 67.1199 296.55 71.0599C295.8 78.4399 281.31 83.3499 281.5 90.5199C281.62 95.0499 284.69 97.2499 281.3 102.21C278.43 106.39 271.09 109.55 268.71 114.15C266.56 118.31 270.81 123.87 268.34 128.56C268.18 128.87 267.06 130.62 266.9 130.81L266.87 130.83Z" fill="black"/>
<path d="M121.218 5.72V74.96C121.208 75.33 121.248 75.71 121.318 76.08C123.618 87.8 118.568 96.36 105.708 94.85C104.448 94.7 102.508 94.07 101.288 93.96C99.9783 93.84 97.3583 94.66 95.9283 94.84C93.5983 95.13 90.5383 95.56 88.3183 94.81C83.4683 93.17 81.5883 85.78 77.6183 82.45C69.8983 75.98 66.0883 89.01 62.1083 92.96C59.0483 96 55.0083 95.3 51.0183 94.84C47.9083 94.48 47.4683 94.06 44.1883 94.55C37.3183 95.59 32.9383 95.78 28.2383 90.14C26.6483 88.23 24.9883 84.19 25.4483 81.73C26.6583 75.25 26.3283 73.74 25.4183 67.25C24.5283 60.89 27.9783 57.89 32.2183 53.92C32.6483 53.52 33.2983 53.47 33.7183 53.06C40.0483 47.05 46.0883 40.67 52.3483 34.58C52.8483 34.09 53.2883 33.53 53.5483 32.88C55.1583 28.94 51.3283 24.39 52.9983 20.32C53.5983 18.85 56.2283 16.73 57.4983 15.66C57.8183 15.39 58.3583 15.34 58.6783 15.07C62.3383 11.95 66.3683 8.6 67.7783 4.03C68.5283 1.6 70.8483 0 73.3983 0H115.478C118.648 0 121.208 2.57001 121.208 5.73001L121.218 5.72Z" fill="black"/>
<path d="M56.8613 119.84C57.9613 119.89 59.0013 120.23 60.0513 120.56C60.3113 120.64 60.6413 120.6 60.9113 120.72C66.4813 123.3 68.8613 128.97 68.0313 134.93C66.7713 143.99 66.7913 151.67 68.0313 160.61C68.8713 166.63 66.3413 171.11 61.3113 174.32C57.2513 176.91 54.3513 175.74 50.1213 175.12C47.1813 174.69 44.0313 174.43 40.9413 174.1C38.3713 173.82 33.6313 172.83 31.2213 173.21C30.7313 173.29 30.3813 173.76 29.7313 173.82C29.0013 173.88 28.3813 173.47 27.9713 173.49C27.7813 173.49 27.9513 174.04 27.3813 174.11C18.5713 175.3 12.1813 170.3 12.8713 161.23C13.3913 154.36 14.2713 148.34 13.9213 141.12C13.6913 136.46 11.9813 131.32 13.8513 126.89C14.9213 124.34 18.1213 121.13 20.7413 120.19C22.5113 119.55 25.1613 119.56 27.0513 119.71C29.6313 119.92 32.2113 120.77 35.0213 120.9C42.4213 121.24 49.5713 119.49 56.8413 119.85L56.8613 119.84Z" fill="black"/>
<path d="M214.442 138.24C215.792 141.17 216.172 148.52 215.822 152.06C215.492 155.35 213.522 156.12 211.532 158.11C207.852 161.8 204.012 166.08 200.162 169.5C195.082 174.02 193.092 174.91 186.132 174.05C184.252 173.82 181.822 172.95 179.892 173.17C177.272 173.47 174.592 174.36 171.882 174.35C168.342 174.34 162.712 171.66 161.022 168.43C160.382 167.22 159.462 163.4 159.682 162.12C160.902 155.03 160.932 145.81 160.562 138.45C160.482 136.88 159.572 133.16 159.632 132.26C159.642 132.03 160.232 129.16 160.322 128.78C161.102 125.62 163.822 122.47 166.652 120.93C169.952 119.13 175.882 119.49 179.592 120.01C183.912 120.61 188.562 121.47 192.902 122.08C198.092 122.81 205.852 121.11 210.802 122.21C213.652 122.84 213.832 127.39 214.052 129.9C214.192 131.5 213.962 137.18 214.442 138.24Z" fill="black"/>
</svg>
