<svg width="419" height="319" viewBox="0 0 419 319" fill="none" xmlns="http://www.w3.org/2000/svg">
<path d="M418.254 273.665V284.385C415.764 298.805 405.454 310.375 391.694 315.135C387.084 316.735 382.294 317.135 377.584 318.255C374.264 318.065 370.694 318.515 367.414 318.255C356.174 317.355 341.364 311.865 332.444 304.945C331.704 304.365 326.984 300.315 326.714 299.955C326.164 299.225 326.004 298.675 326.264 297.775L346.924 273.185C348.924 272.645 353.934 277.395 355.944 278.645C361.594 282.155 368.794 285.185 375.604 284.395C379.044 283.995 381.624 282.465 377.774 279.965C371.264 275.725 359.464 272.865 351.944 269.085C350.734 268.475 345.034 264.605 344.604 264.685C338.614 272.355 330.984 277.935 321.544 280.615C320.304 280.965 313.064 282.705 312.334 282.705H297.934V315.155L297.084 316.005H235.524L234.674 315.155V281.005C233.304 282.465 232.314 285.315 231.574 287.225C230.114 290.995 221.704 315.045 220.314 316.045C219.904 316.335 219.624 316.455 219.124 316.555C216.434 317.075 203.464 316.965 200.464 316.595C199.844 316.515 199.214 316.625 198.794 316.005L192.304 284.385V315.145L191.454 315.995H141.474L136.564 294.665L135.564 293.945L114.904 294.245L108.924 315.925L35.8342 315.745L2.57422 201.415H42.1142L65.5542 261.245L72.0442 201.415H146.314L157.894 236.405V201.415H195.454L223.404 261.805L231.344 201.445L313.484 201.425C323.614 202.915 332.754 206.065 340.704 212.625C343.844 210.285 346.474 207.635 349.914 205.645C367.364 195.555 391.194 197.675 407.484 209.095C409.074 210.215 416.464 216.175 416.604 217.535C416.654 218.025 416.564 218.485 416.294 218.905L397.404 241.825C392.134 238.985 387.444 234.775 381.424 233.455C379.484 233.035 369.134 232.355 369.144 235.005C383.694 244.705 404.344 244.685 413.844 261.435C416.174 265.535 416.964 269.225 418.264 273.665H418.254ZM306.714 233.025C303.894 232.785 300.814 233.195 297.964 233.025V251.085C304.834 251.125 313.494 251.605 314.374 242.935C314.954 237.145 312.704 233.535 306.724 233.025H306.714ZM122.314 262.375C123.644 262.175 128.744 263.005 128.994 261.555L125.694 248.275L123.034 257.745L122.314 262.385V262.375Z" fill="black"/>
<path d="M230.296 116.085C229.356 114.485 231.646 111.265 232.536 109.805C239.496 98.3853 248.416 87.7953 255.826 76.6453C256.286 75.9553 256.886 75.3653 256.716 74.4353L211.236 100.445L209.296 100.095L186.696 83.1753C185.676 82.1553 185.876 80.4053 186.936 79.4853L271.816 37.2653C273.026 37.0753 273.836 38.0553 274.726 38.6553C283.146 44.3153 290.766 51.3753 299.076 57.2153L299.986 58.9053L256.456 133.755L255.406 134.175L230.276 116.095L230.296 116.085Z" fill="black"/>
<path d="M121.683 7.32504L117.083 95.205L114.343 95.555L85.093 90.185L91.243 42.265L62.323 85.595C59.643 87.145 35.023 81.235 30.293 80.595L30.563 78.405L86.973 2.15504L89.743 1.66504L121.683 7.31504V7.32504Z" fill="black"/>
<path d="M57.7234 165.095C55.1634 167.785 50.0434 170.005 46.3434 170.365C16.0834 173.355 16.0834 126.745 46.3434 129.735C63.3534 131.415 68.2734 154.005 57.7234 165.085V165.095Z" fill="black"/>
<path d="M187.122 129.885C218.342 125.655 218.222 174.475 187.122 170.225C165.832 167.315 165.742 132.775 187.122 129.885Z" fill="black"/>
<path d="M2.57391 201.415H42.1039L65.5539 261.245L72.0439 201.415H195.444L223.404 261.815L231.344 201.445H256.464L255.424 134.165L300.004 58.8953L271.834 37.2553L186.944 79.4753L161.614 95.5453L117.084 95.1953L121.684 7.32527L86.9739 2.15527L30.5539 78.4053L2.00391 120.755L2.57391 201.415Z" stroke="#FF0600" stroke-width="4" stroke-miterlimit="10"/>
</svg>
