<svg width="913" height="798" viewBox="0 0 913 798" fill="none" xmlns="http://www.w3.org/2000/svg">
<path d="M117.5 119.33L189.57 192.64" stroke="black" stroke-width="4" stroke-miterlimit="10"/>
<path d="M189.57 119.33L117.5 192.64" stroke="black" stroke-width="4" stroke-miterlimit="10"/>
<path d="M735.059 118.68L807.119 191.99" stroke="black" stroke-width="4" stroke-miterlimit="10"/>
<path d="M807.119 118.68L735.059 191.99" stroke="black" stroke-width="4" stroke-miterlimit="10"/>
<path d="M117.5 613.069L189.57 686.379" stroke="black" stroke-width="4" stroke-miterlimit="10"/>
<path d="M189.57 613.069L117.5 686.379" stroke="black" stroke-width="4" stroke-miterlimit="10"/>
<path d="M733.121 613.069L805.191 686.379" stroke="black" stroke-width="4" stroke-miterlimit="10"/>
<path d="M805.191 613.069L733.121 686.379" stroke="black" stroke-width="4" stroke-miterlimit="10"/>
<path d="M733.059 589.821C733.059 590.831 732.269 591.681 731.259 591.711C721.149 591.951 712.659 600.801 713.379 611.141L712.799 611.721H630.169L629.599 611.141C629.849 604.871 624.769 595.301 618.779 593.101C618.479 592.991 616.029 592.291 615.879 592.291C615.629 592.291 615.209 592.831 614.709 592.891C612.949 593.091 606.469 594.351 605.659 594.281C601.729 593.911 599.019 592.121 596.639 589.071C594.109 585.841 593.449 583.321 593.739 579.231C593.829 577.891 594.749 575.561 594.929 574.271C595.529 570.031 594.509 566.041 591.639 562.901C587.389 558.241 581.549 558.091 577.209 562.721C571.649 568.671 573.349 578.681 574.129 585.791C575.009 593.911 575.869 601.511 576.439 609.651C576.439 609.651 576.439 609.661 576.439 609.671C576.529 610.791 575.719 611.771 574.599 611.771H368.899C367.869 611.771 367.029 610.931 367.039 609.901C367.039 609.331 367.109 608.721 367.039 608.161C366.349 602.871 362.789 596.571 358.119 593.991C347.889 588.351 335.429 592.251 330.989 603.191C330.179 605.191 329.559 607.741 329.399 610.051C329.329 611.021 328.529 611.771 327.549 611.771H227.509C226.459 611.771 225.619 610.901 225.659 609.851C225.759 607.261 225.339 604.641 225.469 601.971C225.629 598.821 226.649 595.911 227.029 593.141C228.229 584.391 221.529 581.031 216.229 576.201C214.749 574.851 212.679 572.891 211.419 571.391C210.609 570.421 208.079 566.831 207.949 565.821C207.799 564.701 207.859 558.661 207.959 557.341C208.379 551.981 209.979 545.611 210.479 540.051C211.359 530.281 202.019 524.111 193.699 522.541C193.489 522.501 193.259 522.481 193.039 522.481C192.029 522.481 191.219 521.641 191.219 520.631V437.631C191.219 436.541 192.149 435.691 193.229 435.781C196.459 436.051 199.719 435.991 202.939 436.351C208.579 436.981 213.499 438.171 219.519 437.891C224.389 437.661 230.609 435.811 235.089 438.071C240.549 440.811 249.969 450.561 253.959 455.371C257.559 459.721 263.009 469.571 268.639 471.091C275.809 473.021 280.629 464.771 280.109 458.471C279.829 455.051 277.859 451.741 277.779 448.081C277.719 445.271 278.999 442.761 280.869 440.751C282.659 438.841 288.159 435.241 290.689 434.991C292.929 434.771 296.619 435.261 298.799 435.521C335.659 439.781 375.619 432.641 412.509 438.261C412.609 438.281 412.709 438.281 412.809 438.281C416.999 438.141 421.209 438.421 425.389 438.281C433.009 438.031 443.159 435.041 449.119 440.961C451.739 443.561 452.749 446.741 452.519 450.411C452.409 452.171 451.559 454.841 451.329 456.521C450.649 461.401 452.799 467.031 456.989 469.761C462.119 473.101 467.719 470.811 470.739 465.931C471.909 464.051 471.839 463.051 472.209 461.281C472.309 460.821 472.849 460.451 472.929 459.631C473.039 458.531 471.799 454.231 471.719 452.721C471.369 446.641 472.099 441.641 477.119 437.691C480.719 434.861 486.289 435.371 490.779 435.581C524.099 437.181 557.979 436.631 591.329 435.541C591.499 435.541 591.669 435.501 591.829 435.451C593.639 434.891 596.589 435.011 598.499 435.231C605.649 436.061 608.549 445.841 613.159 450.581C616.039 453.541 619.219 455.051 623.039 452.751C627.329 450.171 630.049 443.601 633.039 439.671C638.629 432.331 645.559 435.881 653.169 436.351C664.659 437.061 678.109 436.431 689.739 436.371C694.339 436.341 698.119 434.721 703.199 435.191C707.049 435.551 708.809 437.831 711.289 440.561C716.969 446.821 722.079 455.401 731.329 455.951C732.289 456.011 733.029 456.831 733.029 457.801V484.561C733.029 485.551 732.259 486.351 731.269 486.411C724.249 486.861 714.789 489.921 714.919 498.091C715.039 505.801 724.539 508.751 731.319 509.331C732.289 509.411 733.039 510.211 733.039 511.181V589.831L733.059 589.821Z" fill="black"/>
<path d="M538.581 362.31C536.691 364.49 531.75 367.8 528.85 368.17C523.41 368.86 519.69 366.7 515.04 366.65C511.15 366.61 506.78 368.6 502.68 368.56C492.49 368.48 491.99 358 484.33 353.52C481.41 351.82 473.02 349.68 471.58 347.03C470.99 345.94 471.221 345.18 470.951 344.27C470.851 343.95 470.28 343.99 470.22 343.72C469.59 341.09 470.731 336.62 472.701 334.74C477.391 330.3 488.47 331.15 489.81 323.38C490.48 319.47 486.46 313.63 482.53 313.07C480.53 312.79 477.011 313.1 475.231 314.18C469.011 317.94 470.22 327.61 464.15 330.03C460.36 331.54 446.931 332.01 443.391 330.21C437.761 327.34 428.18 315.52 422.9 310.68C422.34 310.17 421.54 310.07 420.94 309.56C413.06 302.77 415.091 287.96 422.701 281.66C426.201 278.76 428.87 278.14 433.49 278.55C435.43 278.72 437.94 280.1 440.03 280.12C447.27 280.18 453.91 268.03 459.24 263.55C462.42 260.88 463.75 260.44 468.06 260.91C469.56 261.07 471.48 262.04 472.72 262.21C473.42 262.31 474.48 261.78 475.36 262.01C475.72 262.11 475.58 262.76 475.61 262.78C475.8 262.92 476.25 262.18 476.66 262.08C478.58 261.62 479.331 261.89 481.391 260.3C486.981 255.98 492.551 243.85 500.011 243.14C502.551 242.9 505.761 244.48 508.511 244.7C514.671 245.18 517.011 242.52 520.821 238.17C523.231 235.42 524.9 232.29 527.73 229.69C534.66 223.34 545.141 222.2 552.401 228.53C553.251 229.27 552.98 229.9 553.48 230.47C557.5 235.02 563.07 240.32 567.55 244.53C569.56 246.42 572.37 247.98 574.32 250.46C579.45 256.97 576.321 261.55 576.021 268.74C575.801 274.03 577.71 279.41 577.19 284.53C576.21 294.14 557.35 300.52 557.6 309.87C557.75 315.77 561.761 318.64 557.331 325.08C553.601 330.52 544.03 334.63 540.94 340.62C538.14 346.04 543.681 353.28 540.461 359.38C540.251 359.78 538.791 362.07 538.581 362.31Z" fill="black"/>
<path d="M348.988 199.45V289.58C348.978 290.07 349.028 290.56 349.118 291.03C352.108 306.28 345.538 317.43 328.788 315.47C327.158 315.28 324.618 314.45 323.028 314.31C321.318 314.16 317.908 315.22 316.048 315.45C313.018 315.83 309.038 316.39 306.148 315.41C299.838 313.28 297.388 303.65 292.218 299.32C282.168 290.9 277.208 307.86 272.028 313.01C268.048 316.96 262.788 316.05 257.598 315.46C253.558 315 252.978 314.44 248.708 315.08C239.768 316.43 234.068 316.68 227.948 309.34C225.878 306.85 223.718 301.6 224.318 298.39C225.898 289.96 225.458 287.99 224.278 279.54C223.118 271.26 227.608 267.36 233.128 262.19C233.688 261.66 234.528 261.6 235.088 261.07C243.328 253.25 251.188 244.94 259.338 237.02C259.988 236.38 260.558 235.65 260.908 234.8C262.998 229.67 258.018 223.75 260.188 218.45C260.978 216.53 264.398 213.78 266.048 212.38C266.468 212.03 267.178 211.96 267.588 211.61C272.358 207.54 277.598 203.18 279.438 197.23C280.418 194.07 283.438 191.98 286.748 191.98H341.518C345.638 191.98 348.978 195.32 348.978 199.44L348.988 199.45Z" fill="black"/>
<path d="M265.198 348.011C266.628 348.081 267.988 348.521 269.348 348.951C269.688 349.061 270.118 349.001 270.468 349.161C277.718 352.511 280.818 359.901 279.738 367.651C278.098 379.441 278.118 389.441 279.738 401.081C280.828 408.921 277.528 414.751 270.988 418.921C265.698 422.291 261.928 420.761 256.428 419.961C252.598 419.401 248.508 419.071 244.478 418.631C241.138 418.271 234.968 416.981 231.818 417.471C231.178 417.571 230.718 418.191 229.878 418.261C228.928 418.341 228.118 417.811 227.598 417.831C227.348 417.831 227.568 418.541 226.828 418.641C215.358 420.191 207.038 413.691 207.938 401.871C208.618 392.921 209.768 385.091 209.298 375.691C208.998 369.621 206.778 362.941 209.208 357.161C210.608 353.841 214.768 349.671 218.178 348.431C220.478 347.601 223.928 347.611 226.398 347.811C229.758 348.081 233.108 349.191 236.778 349.361C246.408 349.801 255.718 347.531 265.188 347.991L265.198 348.011Z" fill="black"/>
<path d="M470.34 371.95C472.09 375.76 472.6 385.34 472.13 389.94C471.7 394.22 469.13 395.23 466.54 397.82C461.74 402.62 456.75 408.19 451.74 412.65C445.12 418.53 442.54 419.69 433.47 418.58C431.03 418.28 427.86 417.15 425.34 417.43C421.92 417.82 418.45 418.98 414.92 418.97C410.32 418.95 402.99 415.47 400.78 411.26C399.95 409.68 398.74 404.72 399.03 403.04C400.61 393.81 400.65 381.8 400.18 372.22C400.08 370.18 398.89 365.33 398.96 364.16C398.98 363.86 399.74 360.12 399.86 359.63C400.88 355.52 404.41 351.42 408.11 349.41C412.41 347.07 420.12 347.54 424.96 348.22C430.58 349.01 436.64 350.12 442.28 350.91C449.03 351.86 459.13 349.65 465.58 351.08C469.29 351.91 469.53 357.82 469.81 361.09C469.99 363.17 469.69 370.56 470.32 371.95H470.34Z" fill="black"/>
<path d="M117.5 613.069H807.12" stroke="#EA3529" stroke-width="3" stroke-miterlimit="10"/>
<path d="M117.5 192.64H807.12" stroke="#EA3529" stroke-width="3" stroke-miterlimit="10"/>
<path d="M117.5 435.569H807.12" stroke="#EA3529" stroke-width="3" stroke-miterlimit="10"/>
<path d="M117.5 332.39H807.12" stroke="#EA3529" stroke-width="3" stroke-miterlimit="10"/>
<path d="M189.57 686.38V119.33" stroke="#EA3529" stroke-width="3" stroke-miterlimit="10"/>
<path d="M733.121 686.38V119.33" stroke="#EA3529" stroke-width="3" stroke-miterlimit="10"/>
<path d="M349.891 685.8V118.76" stroke="#EA3529" stroke-width="3" stroke-miterlimit="10"/>
<path d="M577.352 686.38V119.33" stroke="#EA3529" stroke-width="3" stroke-miterlimit="10"/>
<path d="M460.5 89.6V0" stroke="#CCCCCC" stroke-width="1.34" stroke-miterlimit="10"/>
<path d="M460.5 797.38V707.77" stroke="#CCCCCC" stroke-width="1.34" stroke-miterlimit="10"/>
<path d="M89.6 402.86H0" stroke="#CCCCCC" stroke-width="1.34" stroke-miterlimit="10"/>
<path d="M912.94 401.88H823.34" stroke="#CCCCCC" stroke-width="1.34" stroke-miterlimit="10"/>
</svg>
