<svg width="93" height="72" viewBox="0 0 93 72" fill="none" xmlns="http://www.w3.org/2000/svg">
<path d="M92.9987 68.2767C92.9987 68.4478 92.8625 68.5928 92.6893 68.5967C90.9549 68.6372 89.4968 70.1396 89.6197 71.8916L89.5206 71.9895H75.3386L75.2394 71.8916C75.2817 70.8281 74.4106 69.2042 73.3821 68.8319C73.3305 68.8136 72.9101 68.6947 72.885 68.6947C72.8427 68.6947 72.77 68.7875 72.6841 68.7966C72.3827 68.8306 71.2709 69.0448 71.1295 69.0318C70.4553 68.9691 69.9899 68.6647 69.5814 68.1486C69.1478 67.6012 69.0342 67.174 69.0831 66.4803C69.0989 66.2543 69.2562 65.8571 69.288 65.639C69.3911 64.9191 69.2153 64.2424 68.7235 63.7094C67.9938 62.919 66.9917 62.8928 66.2475 63.6793C65.293 64.6879 65.5852 66.3876 65.7187 67.5934C65.8694 68.9704 66.0174 70.2585 66.1139 71.6394C66.1139 71.6394 66.1139 71.642 66.1139 71.6433C66.1285 71.8328 65.9897 71.9987 65.798 71.9987H30.495C30.3179 71.9987 30.1738 71.8563 30.1764 71.6812C30.1764 71.5832 30.1883 71.4813 30.1764 71.3873C30.0588 70.4898 29.448 69.4211 28.6456 68.9847C26.8887 68.0271 24.7511 68.6908 23.9896 70.5446C23.8495 70.8843 23.7451 71.3167 23.7173 71.7074C23.7054 71.872 23.5666 72 23.4 72H6.22776C6.04665 72 5.90256 71.8524 5.91049 71.6734C5.929 71.2331 5.85497 70.7902 5.87876 70.3356C5.9052 69.8026 6.08102 69.3074 6.1458 68.8371C6.3507 67.3517 5.2006 66.7821 4.29241 65.963C4.03859 65.7343 3.68298 65.4012 3.46618 65.1477C3.32606 64.9844 2.89245 64.3743 2.86998 64.2019C2.84486 64.0125 2.85544 62.9882 2.87262 62.7635C2.94401 61.8542 3.21898 60.7751 3.3049 59.8306C3.45561 58.174 1.85339 57.1262 0.425672 56.8597C0.388657 56.8532 0.35032 56.8506 0.311983 56.8493C0.138806 56.848 0 56.7069 0 56.5344V42.4563C0 42.2721 0.159957 42.1284 0.345032 42.1428C0.898934 42.1885 1.45945 42.1793 2.0107 42.2394C2.97838 42.3452 3.82311 42.5477 4.85689 42.5007C5.69369 42.4615 6.76051 42.148 7.52989 42.5308C8.46716 42.9959 10.0839 44.6485 10.7674 45.4663C11.3847 46.2031 12.3207 47.8754 13.287 48.1328C14.5178 48.4607 15.3453 47.0615 15.2554 45.9915C15.2065 45.4114 14.8694 44.8497 14.8562 44.2291C14.8456 43.7536 15.0651 43.3264 15.3876 42.9867C15.7102 42.647 16.6382 42.0526 17.0731 42.0095C17.4565 41.9716 18.091 42.0565 18.4652 42.0983C24.7921 42.8208 31.6491 41.6097 37.9826 42.5621C37.9998 42.5647 38.017 42.566 38.0342 42.5647C38.752 42.5412 39.4751 42.5896 40.1929 42.5647C41.5003 42.5216 43.2427 42.0147 44.2672 43.0181C44.7167 43.4596 44.8912 43.9992 44.8502 44.6211C44.8304 44.9189 44.6863 45.3723 44.6453 45.6584C44.529 46.4866 44.8978 47.4403 45.6169 47.9041C46.4987 48.4711 47.4584 48.0831 47.978 47.2535C48.1776 46.9348 48.167 46.7649 48.2304 46.4644C48.2476 46.386 48.3402 46.3233 48.3547 46.1836C48.3745 45.9967 48.1617 45.2664 48.1472 45.0117C48.0877 43.9796 48.2119 43.133 49.0739 42.4615C49.6912 41.9821 50.647 42.067 51.419 42.1036C57.1378 42.3753 62.9531 42.2812 68.6772 42.097C68.7063 42.097 68.7354 42.0905 68.7632 42.0813C69.0738 41.9873 69.5801 42.0069 69.9066 42.0435C71.1334 42.1846 71.6305 43.8437 72.4237 44.6472C72.9181 45.1489 73.4641 45.4062 74.1197 45.0156C74.8561 44.5779 75.3227 43.4636 75.837 42.796C76.7967 41.5509 77.9852 42.1532 79.2913 42.2329C81.2636 42.3544 83.5718 42.2473 85.5693 42.2355C86.3598 42.2316 87.0062 41.9546 87.88 42.0356C88.541 42.0957 88.8437 42.4837 89.2694 42.9475C90.245 44.0096 91.1202 45.465 92.7078 45.5578C92.8731 45.5669 93 45.708 93 45.8713V50.4099C93 50.5771 92.8665 50.713 92.6973 50.7247C91.4916 50.8005 89.8683 51.3204 89.8907 52.7066C89.9119 54.0143 91.5419 54.5147 92.7052 54.614C92.8718 54.6283 93 54.7629 93 54.9275V68.2675L92.9987 68.2767Z" fill="black"/>
<path d="M59.5244 28.9617C59.2073 29.3244 58.3826 29.8743 57.8967 29.9358C56.9869 30.0512 56.3644 29.691 55.5873 29.682C54.9352 29.6743 54.2045 30.0063 53.5189 29.9999C51.8127 29.9858 51.7302 28.2426 50.4479 27.4967C49.9595 27.2134 48.5561 26.8584 48.3151 26.4162C48.2158 26.2342 48.2545 26.1085 48.2094 25.9573C48.1939 25.9035 48.0973 25.9112 48.087 25.865C47.9826 25.4267 48.172 24.6832 48.5019 24.3718C49.2868 23.6322 51.1399 23.7745 51.3642 22.4812C51.4763 21.8314 50.8036 20.8585 50.1451 20.7662C49.81 20.7188 49.221 20.7714 48.9233 20.9508C47.8834 21.5763 48.0844 23.1862 47.0689 23.5886C46.4348 23.8399 44.1873 23.918 43.5958 23.6181C42.6537 23.1413 41.0518 21.1738 40.1665 20.3689C40.0724 20.283 39.9384 20.2676 39.8392 20.183C38.5208 19.0538 38.8597 16.589 40.1343 15.5406C40.7206 15.0574 41.1678 14.9548 41.9385 15.024C42.2619 15.0522 42.6821 15.2817 43.0326 15.2855C44.2427 15.2958 45.3549 13.2745 46.248 12.5285C46.7802 12.085 47.0019 12.0119 47.7235 12.0888C47.9736 12.1158 48.2945 12.276 48.5032 12.3055C48.6205 12.3221 48.7983 12.2337 48.9453 12.2734C49.0058 12.2901 48.9826 12.3977 48.9878 12.4016C49.0187 12.4247 49.0947 12.3016 49.1643 12.2849C49.4852 12.208 49.6102 12.2542 49.9556 11.9889C50.8912 11.2698 51.823 9.25107 53.0704 9.13315C53.4957 9.09341 54.0318 9.35617 54.4932 9.39206C55.5242 9.47281 55.9159 9.02933 56.5539 8.30514C56.9559 7.84884 57.2356 7.32589 57.7098 6.89394C58.8697 5.83779 60.6236 5.64809 61.8376 6.7004C61.9807 6.82473 61.9343 6.92855 62.0193 7.0234C62.6933 7.78091 63.6238 8.66275 64.3725 9.36386C64.7089 9.67917 65.1793 9.93808 65.5053 10.3508C66.3636 11.4339 65.8391 12.1952 65.7901 13.3924C65.7528 14.2729 66.0724 15.1676 65.9847 16.0199C65.8211 17.6196 62.6663 18.6808 62.7062 20.2369C62.732 21.2187 63.4021 21.6955 62.6611 22.7683C62.0361 23.6745 60.4368 24.3577 59.9187 25.3549C59.4509 26.2572 60.3762 27.4608 59.8388 28.4772C59.804 28.5439 59.5592 28.9245 59.5244 28.9643V28.9617Z" fill="black"/>
<path d="M26.861 1.26268L26.8585 16.5257C26.8585 16.6079 26.8675 16.6914 26.8829 16.7723C27.3834 19.355 26.2847 21.2438 23.4879 20.9112C23.2151 20.8786 22.7919 20.739 22.5269 20.7155C22.2413 20.6894 21.6726 20.8694 21.3613 20.9086C20.8557 20.9725 20.1906 21.0677 19.7069 20.9021C18.652 20.5407 18.2442 18.9102 17.3809 18.1771C15.7033 16.7514 14.8748 19.6224 14.0078 20.4951C13.3426 21.1642 12.464 21.0103 11.5969 20.9099C10.9215 20.8316 10.8263 20.7377 10.1123 20.846C8.61866 21.0742 7.66666 21.116 6.6439 19.8729C6.29784 19.4515 5.93633 18.5619 6.03797 18.018C6.3017 16.5896 6.22836 16.257 6.03153 14.8261C5.8347 13.3951 6.58729 12.7638 7.51099 11.8872C7.60491 11.7985 7.74513 11.7868 7.83776 11.6981C9.2143 10.3741 10.5278 8.96659 11.8889 7.62434C11.9983 7.51608 12.0935 7.39216 12.1501 7.24867C12.5 6.37993 11.6676 5.37683 12.0304 4.48069C12.1616 4.15589 12.7328 3.69021 13.0094 3.4528C13.0789 3.3928 13.1973 3.38236 13.2667 3.32236C14.0631 2.63363 14.9392 1.89532 15.2454 0.888311C15.4087 0.352194 15.9143 0 16.4662 0H25.6144C26.3027 0 26.861 0.566119 26.861 1.26398V1.26268Z" fill="black"/>
<path d="M12.5454 27.0499C12.7826 27.0612 13.0096 27.1331 13.2366 27.2036C13.293 27.2213 13.3648 27.2112 13.4225 27.2389C14.6292 27.7873 15.1447 28.9961 14.9652 30.2654C14.6921 32.1953 14.6959 33.8302 14.9652 35.7374C15.146 37.0206 14.5985 37.9748 13.5085 38.658C12.6275 39.2101 11.9991 38.9592 11.0835 38.8269C10.4462 38.7349 9.76399 38.6807 9.0946 38.6088C8.53806 38.5496 7.5109 38.3391 6.9877 38.4197C6.88126 38.4361 6.8056 38.537 6.66454 38.5483C6.50681 38.5609 6.37217 38.4752 6.28368 38.4777C6.24137 38.479 6.27855 38.5937 6.15545 38.6101C4.24603 38.8634 2.86108 37.7996 3.01112 35.8647C3.12397 34.3999 3.31504 33.118 3.2381 31.5802C3.18808 30.5869 2.81877 29.494 3.22271 28.5486C3.45481 28.0053 4.14985 27.3221 4.71665 27.1204C5.10007 26.9843 5.67457 26.9856 6.08492 27.0183C6.64403 27.0625 7.20313 27.244 7.81353 27.2717C9.41647 27.3448 10.9668 26.9717 12.5428 27.0486L12.5454 27.0499Z" fill="black"/>
<path d="M47.6797 31.087C47.9671 31.7287 48.049 33.3401 47.9734 34.1153C47.9028 34.8361 47.4831 35.0059 47.0596 35.4415C46.2743 36.2491 45.4588 37.1877 44.637 37.937C43.5543 38.9261 43.1308 39.1218 41.6473 38.9339C41.2477 38.8833 40.7297 38.6927 40.3175 38.7407C39.7579 38.8055 39.1894 39.0026 38.6121 39C37.8584 38.9961 36.6597 38.4101 36.2979 37.7023C36.1631 37.4366 35.9652 36.6017 36.0118 36.3191C36.2715 34.7661 36.2778 32.7451 36.1996 31.1324C36.1832 30.7889 35.9891 29.9734 36.0005 29.7764C36.003 29.7258 36.1278 29.0971 36.148 29.0141C36.3143 28.3219 36.8929 27.6322 37.4979 27.2939C38.2025 26.8998 39.4642 26.9789 40.2545 27.0929C41.1746 27.2252 42.1666 27.4118 43.0892 27.5454C44.1946 27.7048 45.847 27.3328 46.9033 27.5739C47.5108 27.7126 47.5499 28.7082 47.5953 29.2592C47.6243 29.6092 47.5751 30.8537 47.6797 31.0857V31.087Z" fill="black"/>
</svg>
