<?xml version="1.0" encoding="UTF-8"?>
<svg id="Layer_1" xmlns="http://www.w3.org/2000/svg" version="1.1" viewBox="0 0 595.28 841.89">
  <!-- Generator: Adobe Illustrator 29.8.3, SVG Export Plug-In . SVG Version: 2.1.1 Build 3)  -->
  <path d="M142.89,208.37c.94-2.91-2.18-2.86-2.55-4.76-.28-1.43-.31-13.89,0-15.12.18-.75,2-.72,2.44-2.15.56-1.8-.32-4.3.23-6.12.45-1.48,2.59-1.6,2.96-2.76.39-1.22-.28-2.86.41-4.03.42-.7,2.1-.96,2.55-1.89.57-1.18.05-2.64.62-3.84.27-.58,4.51-3.77,5.08-5.07s.04-2.78.64-3.81c.79-1.36,4.89-1.96,2.27-6.08-2.9-2.44-3.75-3.78-7.86-4.04-3.41-4.52-9.18-7.04-6.21-13.76,1.31-1.66,3.84-.38,5.01-1.03.4-.22.96-2.59,2.48-2.94,1.62-.37,4.04,1.62,6.27-.05.73-.55.86-2.1,1.95-2.48,4.6-1.61,4.56,2.4,6.37,2.96,2.04.63,4.24-.8,5.73-.08s4.34,5.05,5.25,5.6c1.17.7,2.81.03,4.03.41s1.21,2.8,3.3,3.09c3.76.53,3.52-2.57,5.16-3.08,1.81-.56,4.44.36,6.13-.22,1.44-.49.82-2.68,3.88-3.1,5.83-.8,23.84-.63,29.88.03,3.78.41,2.83,2.53,4.55,3.06,2.48.77,6.99-.58,9.31.22,1.14.39,1.32,2.28,2.31,2.77,1.18.57,2.66.04,3.84.61.88.43,1.03,1.91,1.37,2.11.82.47,2.67-.12,3.89.24,1.45.42,1.59,2.6,2.75,2.96,1.22.39,2.86-.29,4.03.41,2.48,1.48,7.65,9.21,10.41,11.15,1.47,1.03,3.25.24,4.23.87.95.61.23,3.09,1.17,4.55s7.54,6.26,8.17,7.37c.53.93-.26,2.89.44,4.33.57,1.17,6.17,4.94,7.06,6.94l2-1.63c-.38-2.9-1.27-10.22.11-12.51.47-.78,2.05-.8,2.46-2.14.76-2.48-.49-6.84.1-9.28.16-.65,2-1.05,2.6-1.98.92-1.44.29-2.96.89-4.2.43-.89,1.91-1.03,2.11-1.37.6-1.03-.48-3.06.72-4.69.27-.36,6-6.07,6.39-6.31,1.26-.76,3.19.13,4.45-.63,1.06-.64,4.29-5.65,5.52-5.94l19.9.16c1.65.46,1.83,2.39,2.94,2.79,1.18.43,2.89-.1,4.21.71.7.43.85,1.87,1.69,2.27,1.19.57,2.65.05,3.85.62.9.43.95,2.01,2.03,2.45,1.38.56,2.95.2,4.34.69.89.57.32,3.02,1.19,4.53,1.95,3.41,9.1,7.56,10.87,10.72.92,1.64.23,3.17,1.19,4.55,1.24,1.77,6.67,5.38,7.7,7.04.82,1.32.27,3.06.71,4.22.41,1.09,1.97,1.08,2.33,2.11.63,1.8-.52,4.73.41,6.58.47.94,2.14,1.19,2.55,1.89.75,1.27-.13,3.18.63,4.45.42.7,2.1.96,2.55,1.89.97,2.01-.58,4.19,2.87,5.53l-.16,1.98c-1.54.27-2.4,2.19-3.31,2.71-2.42,1.4-6.81-.3-5.11,5.03l23.2,23.15c1.07,1.04.11,3.84,1.19,4.53s3.42-.3,4.55,1.16c.93,1.2.27,2.94.88,4.21.42.89,1.98.93,2.45,2.04,1.18,2.81-.27,6.97.54,9.58.49,1.58,2.27,1.07,2.47,2.63.7,5.6-2.05,3.77-2.57,6.39-.83,4.15,1.16,18.66-.6,20.99-.55.73-2.15.9-2.49,1.95-.39,1.21.27,3.01-.23,3.9-.24.43-3.36,1.43-3.04,2.98,1.12,1.91,4.57.37,5.63,1.05.37.24.21,1.89,1.15,2.51,1.5.99,3.14-.21,4.02.22.95.47,1.19,2.4,2.32,2.79,1.69.58,4.3-.34,6.13.22,1.48.45,1.6,2.59,2.76,2.96,1.23.39,2.84-.29,4.02.42.56.34,8.87,8.65,9.2,9.21.61,1.03.1,2.54.65,3.8.44,1.01,2.27,1.64,2.71,3.01.33,1.02-.06,2.31.45,3.36.71,1.47,4.15,1.64,2.96,5.93,7.61,5.33-4.3,10.49-7.06,15.34-1.97.96-5.08-.34-7.01.62-1.16.58-3.77,5.13-5.66,5.77-3.63,1.22-10.62-1.15-12.7.63-.65.56-.81,1.76-1.73,2.08-1.72.6-4.84-.2-6.78.07l-.86,1.63,9.59,9.86c1.22,1.24,3.61.12,4.69.74.23.13,3.09,3.87,3.17,4.12,1.4,4.63-2.03,4.23-2.42,6.22-.49,2.55.48,6.1-.09,8.8l-5.95,5.49c-1.36,2.66,6.37,2.21,7.53,1.81,1.3-.45,1.11-2.63,3.29-3.06,1.51-.3,14.15-.15,14.91.31.81.49.92,2.3,2.34,2.74,1.82.56,4.46-.36,6.13.22.94.33,4.16,4.88,4.86,5.3,1.27.76,3.19-.13,4.45.63.22.13,3.36,3.28,3.49,3.49.71,1.19.02,2.79.41,4.03.36,1.13,2.28,1.3,2.77,2.31.56,1.16.09,2.6.63,3.81.36.81,1.7,1.2,2.08,2.37.88,2.69-.33,3.63,3.21,5.68l.11,29.75c-.22,1.82-2.58,1.71-3.06,3.29-.76,2.49.41,6.59-.22,9.31l-6.62,6.73h-1.15c-.87-.26-1.2-2.02-1.91-2.55-1.39-1.03-12.07-1.04-13.12.3-.82,1.04-.86,5.61-.46,6.93.45,1.47,2.55,1.57,2.95,2.76.58,1.69-.33,4.26.23,6.12.33,1.1,1.73,1.55,2.09,2.36.55,1.21.07,2.66.63,3.81.49,1.02,2.41,1.18,2.77,2.31.39,1.22-.28,2.86.41,4.03.57.96,2.43.73,2.85,2.87.24,1.19.22,7.06-.11,8.13-.45,1.47-2.55,1.57-2.95,2.76-.86,2.53.89,8-.69,10.11-.55.73-2.11.87-2.49,1.96-.58,1.68.32,4.25-.23,6.12-.5,1.67-4.63,4.06-5.26,5.54-.53,1.25-.1,2.7-.64,3.81-.74,1.54-4.16,1.66-3,6.22-1.41,1.38-7.9,6.61-8.45,7.73-.67,1.39-.09,2.96-.38,4.38-1.32,1.04-3.28-.21-4.36.35-1.51.78-6.13,7.3-8.03,8.57-1.38.92-2.65-.08-3.86.49-1.4.66-1.37,2.42-3.03,2.74-2.01.39-22.76.21-23.83-.32-.91-.44-.97-2.03-2.06-2.46-1.48-.59-2.85.35-3.64-.05-.42-.21-6.42-6.31-6.66-6.71-.61-1.03-.1-2.54-.65-3.8-.86-1.97-7.4-6.32-8.23-8.28-.53-1.26-.1-2.69-.64-3.81-.62-1.29-7.73-6.48-8.45-7.74-.5-.88.16-2.69-.23-3.91-.35-1.11-2.3-1.33-2.77-2.31-.83-1.72.71-6.8-3.18-4.47-.97,1.4.23,5.39-.4,7.22-.38,1.11-2.11.9-2.45,2.63-.48,2.49.61,6.42-.11,8.78-.45,1.48-2.59,1.6-2.96,2.76-.39,1.22.28,2.86-.41,4.03-.41.7-2.08.95-2.55,1.89-.93,1.85.22,4.78-.41,6.58-.34.98-1.73,1.07-2.12,1.69-.44.69-.62,14.92-.23,16.11l.95.95,4.4.68c.62,1.42-.1,3.1.58,4.5.45.92,2.14,1.18,2.55,1.89.63,1.09.05,2.65.62,3.83s3,.68,2.25,3.36c-4.01,1.75-1.92,4.83-2.83,8.11-.45,1.63-2.14,1.5-2.59,2.46-.54,1.14-.1,2.56-.64,3.82-.59,1.38-4.47,3.72-5.06,5.1-.58,1.37,0,2.89-.91,4.17-.66.92-5.39,4.32-5.67,5.13-1.41,4.09,2.45,4.23,2.97,5.71,1.61,4.61-2.4,4.56-2.95,6.37-.77,2.49.49,6.84-.1,9.28-.18.75-2,.72-2.44,2.15-.59,1.92.48,4.75-.42,6.56l-8.48,8.03c-.79,6.36.73,14-.16,20.19-.43,3-2.51,2.35-3,3.96-.87,2.82.47,8.16-.13,11.3-.37,1.95-2.6,2.5-3.03,3.96-.56,1.89.3,4.42-.12,6.09-.18.73-1.8.77-2.25,1.7-.59,1.22-.02,2.61-.9,4.19-1.09,1.94-7.66,6.51-8.16,7.39-.67,1.19.74,4.27-1.4,5.28-1.46.69-3.4-.08-4.33.44-.3.17-3.92,4.96-4.55,5.27-1.88.92-4.75-.21-6.58.41-1.19.41-1.29,2.5-2.76,2.95-1.26.39-11.26.31-12.27-.19-1.02-.51-1.19-2.41-2.31-2.77-1.22-.39-2.86.29-4.03-.41-.61-.36-3.62-4.59-4.45-5.08-1.08-.64-2.58-.04-4.16-.92-2.35-1.32-8.09-8.9-10.44-11.15l-4.49-.59c-.91-.61-.37-2.91-.92-4.16-.67-1.52-5.06-4.24-5.69-5.74-.54-1.26-.1-2.71-.63-3.82-.45-.93-2.07-.97-2.25-1.7-.32-1.33-.16-6.48.62-7.55.62-.85,4.74-3.7,5.01-4.49.37-1.1.36-6.97-.49-7.56l-21.32-.27-5.81-5.62-9.75-.41c-5.31-5.9-11.14-11.29-16.56-17.1-.48-.52-1.51-.77-1.89-1.28-1.2-1.63-.12-3.62-.72-4.68-.13-.24-1.28-.57-1.77-1.05-1.48-1.45-8.74-8.26-9.19-9.25-2.18-4.88,2.26-4.81,2.25-6.67l-2.59-3.16.02-34.92c-.21-1.62,2.38-1.94,2.54-2.68.27-1.18-.45-2.77.3-4.01.13-.21,3.27-3.36,3.49-3.49,1.19-.71,2.79-.02,4.03-.41,1.06-.34,1.23-1.94,1.96-2.49,2.25-1.7,9.75.29,12.64-.69,1.2-.41,1.75-3.37,3.22-3.05,1.14.44,1.52,2.37,2.28,2.83,2.51,1.52,17.19-.57,21.15.43,1.13.35,4.28,5.1,5.68,5.79,1.9.93,4.03-.89,6.67.24.88.37,4.06,4.87,5.36,5.46,2.19,1,4.65-.04,6.43.57,1.03.35,1.29,2.39,2.92,2.81.25.07,4.9.07,5.15,0,1.59-.42,1.77-2.13,2.51-2.59.84-.52,8.55-.57,9.72-.21,1.39.43,1.43,2.06,1.83,2.29,2.7,1.58,3.32-1.79,2.43-3.98-.98-2.4-3.32-1.49-2.54-5.71.39-2.1,2.35-1.89,2.55-2.69.74-3-.64-8.65-.02-11.94.36-1.9,2.58-1.71,3.06-3.29.76-2.49-.41-6.59.22-9.31,2.16-.99,5.48-6.4,6.89-7.13,1.08-.56,2.28.54,3.63-.08.24-.11,3.73-3.27,3.85-3.5.5-.88-.16-2.69.23-3.91.36-1.13,2.28-1.3,2.77-2.31.54-1.11.1-2.56.64-3.81.59-1.38,4.41-3.67,5.06-5.1,1.29-2.85-.5-9.16.45-12.26.45-1.47,2.55-1.57,2.95-2.76.79-2.32-.55-6.82.22-9.31.44-1.44,2.32-1.25,2.79-2.91.56-2.03-.11-4.23.4-5.97.36-1.22,2.08-1.58,2.4-3.31s-.41-4.06.12-5.6c.39-1.14,2.29-1.32,2.76-2.32.54-1.12.09-2.57.63-3.81.45-1.02,2.27-1.65,2.71-3.01.33-1.03-.06-2.33.45-3.37.43-.88,1.91-1.03,2.11-1.37.5-.86-.16-2.7.23-3.91.36-1.13,2.28-1.3,2.77-2.31.54-1.12.09-2.57.63-3.81.84-1.92,5.11-3.12,1.79-7.02l-6.25.02c-1.74.33-1.62,2.51-3.93,3.05-2.83.65-6.55-.82-7.99-.42s-1.58,2.59-2.77,2.99c-1.83.62-4.73-.51-6.57.41-1,.5-1.18,2.37-2.32,2.76-2.87.99-9.65-.79-12.49.2-.91.32-1.08,1.52-1.73,2.08-2.44,2.09-7.73-1.13-10.49.94-.73.55-.87,2.11-1.96,2.49-2.31.79-6.81-.55-9.3.22-1.47.45-1.57,2.55-2.76,2.95-2.89.99-9.62-.79-12.49.21-1.09.37-1.23,1.93-1.96,2.49-4.17,3.18-9.66-7.27-13.1-9.22-1.41-1.9-.02-4.93-.7-6.92-.39-1.14-2.29-1.32-2.76-2.32-.54-1.12-.09-2.58-.63-3.81-.41-.92-2.09-1.63-2.52-2.56-.51-1.12-.67-15.7-.33-17.46.36-1.9,2.58-1.71,3.06-3.29.59-1.93-.47-4.76.43-6.56.33-.66,5.01-4.1,5.27-4.56.63-1.11-.56-3.55.76-4.66l5.05-1.27,25.09-25.77c1.2-.93,2.66.53,4.34-.52,1.51-.95,5.76-7.4,7.26-8.34,1.37-.86,2.54.19,3.55-.06,1.39-.33,1.59-2.61,2.76-2.97,1.1-.35,2.52.15,3.61-.2.95-.31,1.22-2.03,2.46-2.62,1.45-.68,3.38-.14,4.17-.6.23-.13.53-1.24,1.06-1.77,1.15-1.14,2.97-1.05,2.18-3.76-1.31-.63-3.26-.78-4.54-.06-1.39.78-.22,3.15-2.69,2.56-1.79-.43-1.57-2.11-2.64-2.46-1.33-.43-3.19.46-4.39-.69-.46-.66-.49-6.33-.17-7.24.39-1.14,2.29-1.32,2.76-2.32.56-1.16.09-2.6.63-3.81.76-1.7,4.57-3.88,1.17-6.9-1.81.02-4.48-.48-6.14.03-1.57.48-1.39,2.7-3.29,3.06-2.42.46-6.7-.64-8.79.1-1.33.47-.91,2.65-4.53,3.09-3.86.46-17.91.54-21.48-.16-1-.2-4.18-3.5-4.55-4.31-1.35-2.94,1.16-12.41-1.6-13.68-.95-.44-2.39.76-3.99-.25-.4-.25-6.28-6.6-6.47-7.03-.52-1.19-.1-2.44-.43-3.38-.41-1.15-2.1-.9-2.44-2.64-.21-1.09-.24-8.46,0-9.41.09-.35,5.13-4.29,5.42-4.88.66-1.36-.17-3.46,1.19-4.52,1.19-.96,3.02-.2,4.19-.89.63-.38.85-1.82,2.09-2.41s2.63.43,3.88-.47c1.98-1.44.42-3.65,1.15-4.92.13-.22,3.59-3.37,3.82-3.47,1.38-.63,4.01-.15,4.66-1.05,2.21-7.93-7.03-3.95-10.73-5.23-.92-.32-1.19-1.8-2.09-2.41-1.14-.77-2.37.21-3.38-.32-1.28-.67-1.38-3.49-3.45-2.86-.5,1.45-3.19,2.92-3.59,3.57-.85,1.4-.22,3.38-.92,4.64-.28.51-3.24,2.56-3.79,3.69-1.13.18-4.1-4.29-4.99-5.37-.45-.54-1.64-.71-2.01-1.47-1.23-2.49,1.37-7.34-2.52-8.27-.59,1.49-3.37,3.45-3.82,4.45-.55,1.24-.09,2.7-.63,3.82-.43.89-1.91,1.03-2.11,1.37-.71,1.24.92,4.65-1.85,5.47-4.92,1.47-5.33-3.55-4.63-7.19.36-1.86,2.32-1.7,2.87-2.84s.09-2.57.63-3.81c.78-1.77,5.25-3.45,1.89-6.99-1.38-.35-1.45.42-2.11,1.05-2.46,2.35-4.75,5.03-7.07,7.53l-7.64.31c-.48-3.92,3.47-2.59,2.55-7.3-.57-2.92-4.85-.99-7.19-1.71-1.47-.45-1.57-2.54-2.76-2.96-5.22-1.83-6.51,6.91-11.29,6.27-3.61-.48-1.9-6.41-2.26-8.91-3.4-1.47-5.34,6.51-7.93,5.71-1.89-.58-.47-8.26-1.09-10.35-.79-2.68-6.91-4.13.09-8.45l-.26-1.55c-2.1-.43-5.69-5.56-6.67-6.03-1.2-.57-2.65-.05-3.85-.62-.6-.29-4.25-5.1-4.55-5.28-1.06-.6-3.05.48-4.68-.72-.87-.64-3.04-3.78-4.09-4.79-3.66-3.52-7.32-7.09-11.09-10.49-.58-1.61-.8-3.93.63-5.08h22.54ZM247.01,236.63c-.84-2.97.62-9.58,0-13.02-4.5-2.02-4.72,6.52-9.68,5.61-3.93-.72-1.94-5.97-2.38-8.79l-2.12.1-14.06,14.55c-1.58,0-1.74-2.38-2.85-2.91-1.21-.58-3.57.06-4.18-.9-.52-.81-.09-2.38-.41-3.4-.42-1.34-2.27-1.99-2.71-3-.55-1.25-.05-2.78-.64-3.8-.55-.95-2.42-.72-2.85-2.87-.2-1-.21-4.73.09-5.6.41-1.19,2.5-1.29,2.95-2.76.59-1.93-.47-4.75.43-6.56.64-1.29,5.67-4.19,6.31-6.39,2.27-1.69,8.09-.05,10.84.1,4.54.25,3.21-2.24,6.97,1.83,3.04,3.29,1.2,1.95,2.56,5.09,1.09,2.51,5.97,2.58-.35,5.51.02,1.27-.4,4.06.98,4.65,2.51,1.07,1.34-4.54,4.83-2.16.55.71.04,3.05,2.14,2.16,1.57-.67.66-3.42,1.04-4.67l.95-.95c1.1-.36,8.8-.26,9.77.22.89.44.95,2.01,2.06,2.46,1.34.55,2.78-.28,3.86.44,1.47.98,4.38,4.14,4.28,5.99-.21,3.92-3.18,2.36-5.33,2.84-.72.16-.77,1.81-1.69,2.25-1.55.75-4.26-.39-4.97,2.02-.45,1.52-.31,20.17.18,21.17s2,.94,2.45,2.03c.56,1.38.2,2.95.69,4.34.8,1.18,3.5.11,4.8.91.54.33.76,1.43,1.28,1.92,1.21,1.13,5.41,4.16,5,5.61-.73.38-2.9,3.13-3.12,3.24-1.41.73-3.24.08-4.64.94-.69.43-.85,1.85-1.69,2.27-4.1,2.02-5.43-1.9-8.17-3.92-1.03-3.01,1.48-14.97-.19-16-4.17-1.26-2.29,3.18-3.41,4.99-.39.63-1.78.7-2.12,1.69-.63,1.81.5,4.55-.42,6.56-1.47,3.19-7.9,4.95-4.79,9.9,4.59-.76,4.83,2.67,8.13,3.3,1.75.33,5.55.43,7.19-.12s1.77-2.15,2.5-2.58c1.02-.6,2.3-.12,3.35-.46,1.17-.37,1.88-2.01,3.15-2.56,1.19-.51,2.67-.26,3.63-.82.23-.14,3.64-3.65,3.71-3.91.35-1.14.33-5.51-.19-6.56-.39-.79-4.53-3.52-5.08-4.45-.61-1.04-.11-2.55-.65-3.79s-2.81-1.83-2.88-2.25c-.39-2.35,2.55-2.15,3.09-3.91.77-2.5-.49-6.85.1-9.28.18-.73,1.8-.77,2.25-1.7.54-1.11.1-2.56.63-3.82.36-.85,12.17-12.66,13.01-13.02,1.26-.55,2.77-.04,3.8-.65.72-.42.92-2.18,2.51-2.59,1.05-.27,2.16.64,3.2.1.98-.5,1.2-2.41,2.33-2.8,1.51-.52,9.11,1,7.53-2.02-1.25-2.4-5.8-.51-7.97-1.57-1.06-.52-5.67-6.56-7.15-7.76-1.31-1.06-7.91-1.21-9.54-.71s-1.8,3.71-3.92,3.05c-1.72-.53-.59-5.49-1.09-7.17-.38-1.29-2.27-1.99-2.72-3-.53-1.21-.13-2.57-.65-3.79-.36-.85-2.46-2.21-2.83-3.52l-1.55-.26c-1.74,2.35-2.74,4.14-6.11,2.83l-.57-1.86c4.11-3.01,2.68-2.43.24-4.82-.54-.53-.84-1.64-1.05-1.77-1.61-.93-5.17,1.37-5.68-3.21h-2.36c-.18,2.18-1.68,2.42-2.67,3.53-.89,1.01.03,3.56-3.49,1.48l-.25-7.23c-.32-1.33-4.56-1.33-5.43.2-.76,1.34.32,3.84-1.58,4.78l-4.36-.42-.69-7.73-9.72-9.55c-8-2.39-1.54,8.54-10.04,5.66-3.73-6.2,7.82-7.55,4.81-13.71-.12-.24-3.67-3.6-3.93-3.68-1.18-.36-8.88-.31-9.73.2-.71.43-1,2.1-1.91,2.58-1.33.71-3.24-1.15-4.15.24l-.32,2.17c3.47,1.27,1.91,3.5,2.88,5.5.45.94,2.14,1.18,2.55,1.89.59,1.01.12,2.3.45,3.36.59,1.87,3.5,2.16,3.06,5.18-.1.68-3.83,5.19-4.25,5.33-.97.33-6.49.29-7.21-.2l-.57-1.86,5.36-4.18v-1.94s-25.49-24.56-25.49-24.56c-3.32.65-6.74.54-10.11.48-1.85-.03-8.01-2.03-8.51,1-.44,2.67,4.58,1.81,5.67,2.47,1.55.94,5.39,6.7,7,7.6,1.27.72,3.57.12,4.99,1.05-1.85,5.14,4.9,6.89,6.12,9.43.51,1.06.11,2.35.44,3.37.38,1.16,1.72,1.56,2.08,2.37.54,1.21.07,2.64.63,3.81.38.78,3.62,2.51,4.13,4.13,2.55,1.26,9.28-.5,12.27.42,1.43.44,1.4,2.26,2.15,2.44.97.24,8.3.21,9.4,0,1.71-.33,1.73-2.44,3.45-2.92,1.52-.42,3.64,1.12,5.76.06,1.1-.55,4.67-6.23,5.95-6.01,2.77.49.52,5.06,1.15,7.14.09.28,3.43,4.42,3.69,4.57,1.87,1.14,9.59-.23,12.39.31,1.73.33,1.72,3.06,5.7,3.19,1,.03,2.08-.76,3.05-.54,1.51.34,2.07,2.72,2.48,2.94.86.48,2.66-.11,3.89.25,1.45.42,1.59,2.6,2.75,2.96,1.24.39,2.84-.3,4.03.41.55.33.76,1.43,1.27,1.91,1.12,1.04,7.5,5.48,4.02,6.57-.99.31-5.13.3-6.13-.01-1.05-.32-4.44-5.11-5.31-5.64-1.35-.82-3.05-.28-4.21-.71-1.34-.5-2-3.76-6.06-2.51-.54-4.61-5.25-2.59-3.79,1.57.33.95,3.32,2.17,3.71,3.91,2.07.77,4.24-.07,6.38.6,3.14.99,8,7.74,2.79,8.61-3.41.57-3.2-1.53-4.73-2.22-1.21-.54-2.66-.07-3.81-.63-1.02-.49-1.18-2.41-2.31-2.77-1.24-.39-2.84.3-4.03-.41-1.09-.65-3.85-5.15-5.67-5.76-2.72-.91-6.87.41-9.15-.37-1.1-.38-.9-2.11-2.63-2.45-1.63-.32-17.33-.15-18.1.33-.38,1.73-3.39,2.97-3.71,3.91-.74,2.15,1.19,6.81-1.83,7.7-1.03.3-2.2-.02-3.34.47-.33.14-3.33,3.15-3.49,3.49-.92,2.02.2,4.73-.43,6.56-.25.73-4.76,3.99-5.29,4.87-.61,1.03-.1,2.54-.65,3.8-.75,1.73-4.05,2.21-2.75,5.94.46,1.33,3.03,1.4,3.05,3.22-.18.8-4.87,3.58-5.73,5.1s-.31,2.97-.9,4.19c-.68,1.41-3.51.59-2.1,5.25.33,1.1,1.72,1.55,2.08,2.35.59,1.31-.02,3.01.89,4.19,1.05,1.36,3.14.54,4.53,1.2.95.45.94,2.29,2.49,2.62,1.19.26,2.48-.47,3.21-.11,1.19.58,1.36,3.51,3.43,2.85.93-2.25,5.72-5.35,6.4-6.96.53-1.25.1-2.7.64-3.81.49-1.02,2.4-1.18,2.77-2.31.57-1.79-.92-4.19,1.7-4.68,1.85-.35,3.71.19,4.09,2.26.62,3.32-.81,16.55.29,18.12,3.61.94,4.92.15,7.02,3.76l3.17-3.21c1.59,0,1.71,2.34,2.85,2.9,2.04,1.01,5.71.15,4.15-2.24l-13.99-13.3c-.46-1.59-1.16-9.56,1.62-7.98l16.48,17.16c1.53,1.57,8.67,1.57,8.22-1.18-.38-2.3-4.41-1.23-5.67-1.99-.17-.1-2.75-2.69-2.85-2.86-.52-.84-.57-6.23-.23-7.2.29-.81,1.47-1.03,2.07-1.77.54-.67.22-2.32,2.07-2.37,1.74-.04,1.17,3.88,6.84,3.1.61,0,.46-1.19.37-1.6-.55-2.33-13.62-10.06-6.68-10.53,5.85-.4,9.46,12.63,15.59,8.54.75-2.73-2.22-2.47-2.57-3.72ZM218.22,146.23c-3.01.94,1.34,3.3,1.79,4.35.55,1.26.04,2.76.65,3.8.14.23,3.67,3.62,3.92,3.7,7.06,2.23,4.94-8.15,1.14-11.31-1.09-.9-6.12-.98-7.51-.54ZM238.12,146.13c-.54,2.67,2.54,4.23,4.46,6.01.77.71,1.33,2.21,1.89,2.56,1.07.65,7.81.75,8.24-.64.24-3.35-3.19-1.56-5.43-2.82-3.22-1.81-3.22-6.9-9.17-5.11ZM362.77,184.02c-.57-.69-2.95-3.35-3.07-3.6-.55-1.25-.04-2.78-.64-3.81-.8-1.37-6.78-5.99-8.25-7.62-.92-1.5.12-4.63-.45-6.54-.38-1.29-2.28-2-2.72-3-.55-1.25-.04-2.76-.65-3.8-.22-.37-5.39-5.43-6.08-6-.48-.4-.96-.76-1.61-.81l-8.67.41c-3.16,5.01-10.4,7.56-10.31,14.01l-8.25,7.62-.3,8.57c.37,1.88,4.87,4.42,5.74,5.84s.22,3.37.92,4.63c.44.79,4.05,3.17,4.69,4.2.83,1.34.46,2.94,1.3,4.42,1.41,2.49,7.16,6.04,7.96,7.92.53,1.25.1,2.69.64,3.81.3.63,5.01,4.1,5.27,4.56.5.88-.16,2.69.23,3.91.36,1.13,2.28,1.3,2.77,2.31.59,1.22.02,2.61.9,4.18,2.41,4.28,17.27,11.83,8.59,16.14v1.94c1.36.43,2.57,2.36,3.54,2.81,1.24.58,2.75.25,4.04,1.04,1.1.68,3.76,4.53,4.62,5.06,1.4.86,3.48.22,4.64.91.38.23,5.93,5.84,6.18,6.2.64.98.41,3.53.94,4.77,3.82,2.85,5.32-1.87,6.63-2.3,1.21-.39,2.85.29,4.03-.41.7-.42.96-2.11,1.89-2.56,1.18-.57,2.75,0,3.82-.63.63-.37.85-1.83,2.09-2.41,1.07-.51,2.12.18,3.02-.08,1.88-.55,5.3-5.93,7.49-7.13.36-1.06.27-8.94-.22-9.74-.44-.72-2.11-.98-2.55-1.89-.7-1.44.09-3.41-.44-4.33-.11-.2-2.46-2.23-3.26-3.08-1.15-1.22-7.4-6.49-7.72-7.19-.55-1.16-.09-2.61-.63-3.82-.41-.93-4.99-4.12-5.7-5.73-.55-1.25-.03-2.76-.65-3.8-1.52-2.57-9.37-7.68-10.78-10.18-.7-1.26-.07-3.24-.92-4.64-.54-.88-4.55-3.65-5.17-4.51-.97-1.34-.28-2.9-.89-4.2-.36-.75-1.56-.92-2.01-1.47ZM237.33,158.35c-.99-.99-3.8-.98-4.77,0-3.18,3.2,4.16,11.03,5.47,7.06.1-1.73.52-5.84-.69-7.06ZM255.11,163.77c4.12-3.73-10.69-3.95-11.27-2.07-.41,1.32.45,1.49,1.05,2.12.85.89,5.71,5.72,6.24,5.83.48.1,1.08-.05,1.59,0,.26-1.21-.42-4.22.09-5,.22-.33,1.68-.3,2.3-.86ZM174.32,190.59c-1.97-.65-7.1.48-9.52,0l-.95.95v10.48c-1.08,1.71-5.46-3.17-5.61-3.59-.85-2.44.88-12.18-.69-13.28-3.41-1.31-2.27.76-3.17,1.81-.63.74-1.9.94-2.28,1.7-.48.98-.61,16.63-.19,18,.45,1.47,2.55,1.57,2.95,2.76.79,2.32-.54,6.81.22,9.31.45,1.48,2.7,1.69,2.99,2.75.24.87-.61,2.08-.58,3.09.11,3.63,2.6,4.24,3.06,5.83.52,1.82-.85,4.95,2.34,4.63,1.27-.4,1.26-6.62.97-7.8-.2-.83-7.45-4.29,2.44-4.34,1-1.25.33-3.94.86-4.87.27-.47,2.64-.83,2.45-2.36-.01-1.49-4.03-1.85-2.48-6.24.37-1.05,7.11-6.76,8.47-8.04.54-4.68,5.85-9.52,9.43-13.12.99-1,8.21-5.3,4.44-6.47l-6.78-.13c-.84.21-.7,3.59-2.98,2.93-.39-1.42-3.12-2.94-3.46-3.54-.64-1.14-.19-2.91-.75-4.29-.45-1.13-2.22-1.1-2.64-2.48-.57-1.86.51-5.08-.44-6.55-.46-.71-2.73-2-3.22-3.77-6.42.51-.16,2.91.27,4.18.97,2.85-.87,9.71.41,12.29l8.59,8.06v4.64c-2.66,1.1-3.39-2.3-4.14-2.54ZM259.39,163.92c-1.56.49-1.7,6.64,1.26,5.7,1.56-.49,1.7-6.64-1.26-5.7ZM267.25,178.45c.94-.58,0-3.19.19-3.92.46-1.81,3.8-2.15,3.09-5.84-.29-1.51-1.46-1.4-2.19-2.29-1.04-1.27-.28-3.14-3.55-2.48l.09,2.44,2.44.74c.75,3.23-6.17,5.48-5.74,7.91.08.44,1.45.67,1.98,1.23.98,1.04,1.61,3.49,3.69,2.2ZM162.38,169.75c-3.77,1.13-1.44,8.51,3.41,5.95,1.44-3.27,1.19-7.32-3.41-5.95ZM302.78,172.9l-2.37-.02.25,17.06c.95,1.09,4.17,3.21,4.8,4.09.95,1.32.25,2.92,1.18,4.54,1.41,2.47,7.17,6.03,7.97,7.91.58,1.37,0,2.89.91,4.17,1.2,1.68,7.11,5.78,7.99,7.25.76,1.26-.13,3.18.63,4.45,3.88,3.31,7.37,7.02,11.11,10.48.51.47.72,1.57,1.27,1.91,1.29.78,3.38-.16,4.49.61.19.13,1.66,2.33,2.87,3.48,1.01.96.55,2.9,2.81,1.64,1.52-.85,1.16-3.69.32-4.79-.86-1.13-3.74-.28-5-1.2-.52-.38-.45-1.53-1.05-2.24-.51-.6-1.82-.8-2.22-1.62-.53-1.09-.08-2.4-.41-3.4s-1.73-1.06-2.12-1.69c-.6-.99-.09-2.55-.64-3.81-.65-1.49-5.35-4.96-5.72-5.71-1.38-2.87.49-1.82-2.63-5.3-4.09-4.56-4.74-4.28-6.67-10.16-.34-1.02-1.73-1.06-2.12-1.69-.6-.99-.09-2.55-.64-3.8-.65-1.5-5.06-4.25-5.69-5.74-.53-1.26-.1-2.68-.64-3.82-.27-.57-4.51-3.77-5.08-5.07-.52-1.17-.1-2.43-.43-3.38-.38-1.07-3.24-1.92-3.16-4.14ZM166.22,181.85c-1.63-1.5-5.94-.4-5.55,1.41.43,1.98,5.39,2.44,6.18.03-.16-.45-.3-1.14-.63-1.44ZM277.22,181.75c-.93.29-1.34,2.39-2.28,2.84-.75.36-3.99-1.12-4.42,1.3-.24,1.39,7.06,7.57,8.77,3.65-.06-1.65,1.22-8.83-2.08-7.8ZM219.49,211.76c-1.85-1.76-4.99-5.89-5.53-1.2-.42,3.66,1.42,5.42-2.45,7.75-.56,2.07,1.9,1.87,2.37,3.19.52,1.45-.54,3.82,1.83,4.53,3.66,1.1,3.38-.97,4.85-2.2,1.79-1.49,3.59-3.07,5.53-4.37.29-1.69-3.89-4.41-5.13-5.66-.65-.66-.94-1.53-1.47-2.04ZM144.48,214.09h-12.06c-.56,0-1.11,1.27-.87,2.13.07.26,3.48,3.82,3.73,3.95,1.09.57,2.31-.54,3.64.08,1.26.59,1.53,2.3,2.5,2.64s6.86.32,7.27-.27c.5-.71.72-2.71.46-3.62-.09-.33-4.33-4.81-4.66-4.91ZM251.27,214.21c-3.11.95-1.43,3.65,1.67,3.49,5.03-.26,2.64-4.81-1.67-3.49ZM380.33,302.05c-.71-2.18.52-7.82,0-10.48,0-.42,7.63-.8,8.27.31l.71,7.86c2.11,1.61,4.69-.04,6.44.21,1.42.2,7.3,6.92,8.72,8.47,3.01,3.3,1.35,3.56,2.89,5.98.59.93,4.28,4.25,5.35,3.22,1.12-3.9-1.3-4.56-2.4-6.81-.6-1.22-.48-3.01-1.12-3.96-.47-.69-1.77-.79-2.09-1.72-.24-.68-.3-4.11,0-4.57,1.58-.89,3.43-.77,4.93.28.21.15,3.45,3.2,3.56,3.42.67,1.39.07,2.95.39,4.37.6,1,8.12.87,9.64.57,2.35-.46,2.86-4.49,7.36-3.08l.06-3.12h-10.48c-.29,0-1.27-2.23-2.39-2.72-.88-.39-2.21.29-3.47-.23-1.36-.55-2.06-3.87-5.91-3.08l-13.71-14.24c-2.01-1.33-6.38.72-9.33-.18-1.58-.48-1.47-2.84-3.29-3.06l-6.71.28c-1.38.96-.12,5.83-.58,7.53-.19.7-2.31,1.11-2.86,2.36-1.14,2.61.23,6.87-5.41,4.13-2.99-4.42,2.09-5.36,2.54-7.64.49-2.49-.56-6.49,0-8.75.17-.71,1.52-.75,1.96-1.33.77-1.02.92-6.29.61-7.56-.15-.63-1.6-.78-2.21-1.73-.92-1.42-.65-3.28-1.89-5.11-.36-.52-5.09-5.2-5.44-5.35-1.37-.58-2.89,0-4.17-.91-.86-.62-3.64-4.64-4.51-5.17-1.39-.85-3.38-.22-4.63-.92-.81-.45-3.81-4.67-4.45-5.07-1.52-.94-4.68.14-6.55-.43-1.38-.43-1.35-2.19-2.48-2.64-1.3-.52-2.85-.15-3.87-.53-1.09-.41-1.04-1.91-2.13-2.32-1.16-.43-2.81.1-4.21-.71-1.14-.65-4.47-5.94-6.78-6.72l3.17-3.79c-1.58-1.35-3.67-2.97-5.1-4.42-.77-.78-4.45-5.29-4.8-5.4-2.13-.66-2.16,2.49-3.87,3.02-.99.3-3.91.31-4.95.11-2.19-.44-2.02-2.65-3.28-3.06s-3.2.25-3.94-.19c-.38-.23-.48-2.7-1.76-3.01-2.23-.55-2.12,2.68-3.17,3.03-1.15.39-2.86-.34-4.06.39-.55.33-3.6,4.25-4.41,5.13-1.4,1.52-3.02.94-1.81,4.91.08.25,2.95,3.99,3.17,4.12,1.25.73,5.26-.38,7.07.24,1.14.39,1.32,2.29,2.31,2.77,1.12.54,2.56.1,3.81.63,1.04.45,1.66,2.26,3.63,2.71,2.77.64,6.49-.84,8.27-.09,1.11.47,1.18,2.05,2.06,2.46,1.19.57,2.65.05,3.85.62.9.43.95,2.01,2.03,2.45,1.36.55,3.25.11,4.3.74.48.28,3.68,4.27,4.41,5.12.43.5,1.47.65,1.76,1.09,1.18,1.78.73,6.63-1.74,5.27-1.23-.68-5.13-6.83-7.25-8.02-1.57-.88-2.94-.31-4.18-.9-.88-.42-.93-1.98-2.03-2.45-2.81-1.18-6.96.27-9.58-.54-1.44-.44-1.24-2.32-2.91-2.79-2.89-.81-8,.55-9.96-.87-.71-.52-.61-1.98-2.13-2.33-1.83-.43-3.39.8-5.8.12-2.23-.63-4.88-8.24-7.38-5.25-.29.35-.22,1.21-.55,1.62-1.38,1.7-2.91,1.18-2.17,4.85.5,2.48,2.6,1.11,4.44,1.92s4.16,5.33,5.66,5.75c3.14.88,10.58-.58,11.94.08,1.27.61,1.57,2.33,2.5,2.64,1.22.39,2.86-.29,4.03.41.55.33.76,1.44,1.27,1.91.81.75,4.72,3.01,1.48,4.03-1.39.44-9.03.33-10.1-.48-.73-.55-.87-2.11-1.96-2.49-2.31-.8-7.01.59-9.32-.2-.73-.25-3.98-4.76-4.87-5.29-2.06-1.22-1.96.74-5.16-2.46-3.06-3.06-3.78,1.53-2.76,4.04,3.87,3.32,7.36,7.02,11.1,10.48.51.47.72,1.58,1.27,1.91,1.19.71,2.79.02,4.03.41,1.06.34,1.23,1.94,1.96,2.49,1.27.96,14.66.97,15.97,0,.93-.69,3.95-4.98,4.71-5.45,1.24-.75,3.01-.04,4.36-.4l.77-2.4,2.84.54c1.42,3.76-.58,3.77-2.2,5.49-.66.7-4.14,4.87-4.48,5.03-1.19.57-2.65.05-3.84.62-1.5.72-1.79,4.03-6.33,3.19l-10.8,11.47c-4.03-1.45-4.81,2.46-6.65,2.82-3.17.61-8.05-.78-11.16.27-1.71.57-1.92,2.48-2.91,2.8-1.22.39-2.85-.29-4.03.41-.78.47-.91,2.3-2.34,2.75-2.13.67-4.15-.72-5.47-.42-1.55.36-2.08,2.89-2.8,3.09-1.7.46-6.58-.79-7.53.58-.11,1.58-1.78,8.93,1.25,8.27.92-.2,1.28-1.85,1.83-2.32,1.85-1.56,6.61.59,9.54-.31,1.48-.45,1.59-2.59,2.76-2.96,1.22-.39,2.85.28,4.03-.41.79-.47.91-2.31,2.34-2.74.98-.3,5.2-.33,6.13-.02,1.53.53.97,3.33,4.55,3.13,2.9-.16,2.53-2.7,3.91-3.14,1.23-.39,2.84.29,4.02-.42,1.55-.94,2.6-4.98,6.37-1.8,1.29,2.98-2.67,8.32-5.41,8.53-1.78.13-4.49-1.35-5.89.09-.59.61-.39,2.22-1.2,2.42-.75.18-6.09.11-6.79-.13-1.22-.42-1.14-3.11-3.85-2.48l-1.09,2.5c-4.43-1.43-5,2.62-6.7,3.14-3.09.95-13.6-.84-15.45.42-.84.57-.86,1.45-.32,2.25,2.45.57,5.35,6.03,6.99,6.34,1.21.23,7.72.2,8.78-.12,1.43-.44,1.55-2.28,2.34-2.74,1.19-.7,2.82-.02,4.03-.41.89-.29,1.08-1.54,1.72-2.08,1.98-1.7,3.24-.35,5.33-.33,3.07.02,10.68.5,13.08-.31,1.68-.57,1.77-2.15,2.5-2.58,1.03-.61,2.54-.1,3.8-.65,2.5-1.09,4.13-7.38,7.28-4.72,7.25,6.11-.28,4.21-2.19,5.37-.84.51-3.84,4.72-4.45,5.08-1.17.7-2.81.03-4.03.41s-1.28,2.5-2.76,2.96c-4.24,1.3-13.37-.81-18.19.22-2.16,4-17.33,12.82-4.66,11.89l1.49,2.64,13.1-.02c.57-.15,6.26-7.74,8.08-8.57,2.03-.92,4.73.2,6.55-.43,1.02-.35,1.27-2.31,2.94-2.83l23.07.27c1.42-.38,1.56-2.55,2.76-2.95,1.93-.66,5.25.68,6.94-.68,1.38-1.12.53-3.14,1.2-4.52.11-.22,3.29-3.35,3.51-3.48,1.18-.72,2.79-.04,4.02-.42,1.16-.37,1.28-2.5,2.76-2.96,2.48-.76,8.88,1.09,10.04-1.38.58-1.23-.06-3.49.9-4.18,3.28-1.17,6.13-.16,5.02,3.71-.08.27-3.27,4.17-3.51,4.31-1.33.78-3.54.41-4.84,1.19-.77.46-.79,2.05-2.14,2.47-2.03.63-4.24-.81-5.74-.08-1.19.57-7.88,7.72-9.7,9.41-.51.47-.72,1.58-1.27,1.9-1.19.71-2.79.02-4.03.41-1.13.36-1.3,2.26-2.31,2.77-3.52,1.75-22.47-1.04-24.81.59-1.5,2.03.18,5.18-.9,7.35-.47.94-2.14,1.19-2.55,1.89-.7,1.18-.03,2.81-.41,4.03-.35,1.12-2.3,1.32-2.77,2.31-.53,1.11-.07,2.43-.41,3.4-.4,1.14-2.02.87-2.45,2.66-.88,3.64,6.15.99,7.85,1.6l1.38-5.1c2.14-.86,5.22-5.93,6.66-6.71,1.59-.86,3.82.89,5.91.24,1.42-.44,1.56-2.29,2.34-2.76,1.18-.7,2.81-.03,4.03-.41s1.28-2.5,2.76-2.96c2.5-.77,6.98.57,9.3-.22,1.19-.41,1.36-2.6,2.77-2.99,1.8-.5,4.07,1.63,6.27-.03.73-.55.87-2.11,1.96-2.48,1.96-.68,5.12.5,7.24-.38,1.37-.96.08-5.75.7-7.56.4-1.16,2.28-1.31,2.77-2.31,1.28-2.68-.28-1.78,2.47-5.15.49-.61.57-2.24,1.34-2.48,1.85-.57,2,1.42,2.86,2.24,1.21,1.14,2.4,1.11,2.61,3.39h2.38c1.5-3.33-.56-4.87-2.47-7.2.73-2.28-1.62-9.98,1.03-10.46.81-.15,10.23,10.23,11.66,11.73,1.06.52,6.15.6,7.01,0,2.5-1.7-1.74-3.27-1.92-3.83ZM279.38,264.91c-2.16-3.21-13.24,5.09-6.67,5.75,2.66.27,6.52-3.07,6.67-5.75ZM394.87,267.38c.27-1.74.21-3.32-1.89-2.86-.89.2-4.04,5.19-5.04,5.81-.94.58-2.09-.35-3.19-.09-3.76.9-.98,4.62,2.76,3.43,1.31-.42,1.35-1.8,2.06-2.41s1.65-.51,2.01-.82c.88-.76.4-3.15,3.29-3.06ZM288.27,270.62l-2.58.28-.97,2.3c-2.21.12-5.01-.5-7.08.38-1.1.46-1.15,2.03-2.03,2.45-1.14.54-2.58.09-3.82.64-1.02.45-1.78,2.42-3,2.73-.96.24-2.68-.75-3.95.16l.23,2.54c.89,1.28,6.59.6,7.93-.41,3.26-2.44,2.05-1.17,5.12-2.5.92-.4,1.71-2.2,2.56-2.55,1.01-.42,2.71.75,4.02-.24.61-.46.34-1.65,1.06-2.25,1.19-1,3.22-.16,2.53-3.52ZM243.84,285.87l.28,1.93c1.31,1.76,8.16.38,4.37-2.48l-4.65.55ZM246.16,318.46c-.81-.75-5-4.26-5.19-4.65-.56-1.16-.08-2.6-.63-3.81-.33-.73-1.56-1.19-1.89-1.92-1.28-2.83.43-6.88-5.77-4.48-.32,1.53-2.72,2.55-3.12,3.22-1.06,1.79.4,4.54-3.46,6.09l.26,1.55c1.72.34,2.52,2.68,3.33,3.2,1.58,1.02,3.11-.21,4,.24,1.26.63,4.62,5.96,6.66,6.72l.43,9.73,4.08,4.19,1.55-.26c1.9-5.05,4.97-1.19,8.09-2.71.5-.24,4-3.84,4-4.3.15-1.38-1.81-1.46-2.26-2.22-.63-1.05-.02-2.59-.91-4.17-.16-.28-3.61-3.66-3.86-3.76-3.26-1.38-1.95.46-5.28-2.65ZM439.37,322.38v-9.53c0-.54-1.41-1.17-2.2-.93-.92.28-.84,1.94-1.3,2.51-1.35,1.69-12.73-.12-15.74.77-2.66.78-1.06,4.43-2.31,5.31-3.29-.11-7.44,1.86-10.2-.06-.39-.27-6.13-5.92-6.4-6.28-.92-1.28-.33-2.8-.91-4.17-1.56-3.65-6.96-4.7-10.51-3.55l-1.65,5.47h-13.15c-.5-.12-1.71-6.42-4.2-.99,4.69,2.05,2.3,2.6,3.28,5.63,1.11,3.45,14.24.67,17.22,1.65.88,2.41,5.73,5.28,6.47,7.03,1.38,3.25-.46,1.95,2.65,5.29,1.16,1.24,4.37,5.34,5.64,5.52,4.18.59,5.4-5.36,8.35-6.24,1.87-.56,4.44.34,6.12-.23,1.08-.37,1.23-1.92,1.96-2.49,1.57-1.22,9.73,1.09,12.48-.22l4.39-4.49ZM362.61,324.02c-2.68,3.95,8.23,4.22,8.82,1.51.6-2.75-8.41-2.11-8.82-1.51ZM400.56,350.73h-2.38c-2.85,1.71,4.99,13.53,5.68,6.59.43-4.3-2.74-3.08-3.31-6.59ZM293.8,397.45c.18-.15,2.93-3.42,3.03-3.63,2.02-4.34-2.22-4.62-2.74-6.13-1.01-2.92.19-11.63.48-15.06-2.59-3.28-3.63,1.01-4.82,1.4-1,.33-2.29-.11-3.4.41-.91.44-3.76,4.9-5.25,5.61-1.21.57-2.48-.44-3.86.49-1.9,1.27-6.52,7.79-8.03,8.57-1.24.64-3.21-1.01-4.5.71-.36.48-.31,1.78-.65,2.02-.72.51-3.1-.53-4.73.67-.18.13-3.01,3.03-3.12,3.23-.64,1.09-.04,2.58-.92,4.16-2.61,4.68-12.19,8.53-12.05,15.25l-8.2,7.67.02,18.2c.36,1.16,4.61,3.79,5.27,4.89.84,1.39-.32,3.46.95,4.78,1.27,1.3,3.02.14,4.28.74s1.44,2.01,2.09,2.41c.8.5,8.69.59,9.73.22.97-.34,1.23-2.03,2.5-2.63s3.01.56,4.28-.74c1.19-1.19.29-3.05.72-4.37.26-.8,4.51-2.81,2.17-6.17s-6.14,2.56-7.03,2.43c-2.11-.85-2.26-4.96-.31-5.88,1.19-.56,2.65-.06,3.83-.62.93-.44.96-2.05,2.06-2.47,1.52-.57,3.17.92,4.32-.66.8-1.05.9-5.71.48-6.94s-3.43-1.81-3.07-3.27c1.28-2.23,3.62-.47,5.08-1.24.81-.43.94-1.66,1.44-2.08,1.35-1.15,3.4-.02,2.09-3.39-1.26-1.82-5.7,1.42-7.99-.9-3.49-3.53,4.92-7.96,6.37-10.81,4.2.6,4.26-2.3,5.71-3.18,1.65-1.01,5.28.24,7.2-.42,1.14-.39,1.34-2.29,2.33-2.8,1.22-.63,2.67.85,4.25-.46ZM338.43,420.19c-.65,2.28,0,11.99,0,15.24,0,1.2,3.17,1.2,3.17,0v-9.53c0-.67,2.72-1.61,3.07-2.64.79-2.31-.55-6.82.22-9.31.44-1.43,2.27-1.41,2.44-2.15.53-2.29-.59-4.31.98-7.13.44-.79,1.55-1.3,1.85-1.96.55-1.22.08-2.66.63-3.81.48-.99,2.37-1.17,2.76-2.32.58-1.68-.32-4.25.23-6.12.91-3.07,11.39-8.24,8.45-12.53l-2.25-.32c-1.13,1.51-2.76,3.51-4.07,4.8-.88.87-4.76,3.84-5.11,4.42-.62,1.05-.19,2.94-.74,4.3-.44,1.08-2.02,1.14-2.45,2.03-.56,1.18-.09,2.61-.63,3.82-.36.81-1.77,1.26-2.09,2.36-.52,1.77.05,4.79-.78,6.68-.42.95-1.98.83-2.4,2.2-.81,2.61.65,6.76-.54,9.58-.44,1.06-2.51,1.53-2.75,2.37ZM389.22,437.97c.84,3-.62,9.56,0,13.02,2.05.65,6.68,1.33,8.27-.3,1.18-1.2.27-3.03.71-4.37.32-.97,1.73-1.06,2.13-1.68.54-.84.58-6.89.04-7.66-2.24-1.64-7.53.9-8.47-2.32-.31-1.06.03-2.25-.46-3.35-.36-.81-1.71-1.21-2.08-2.36-.34-1.05.14-2.34-.45-3.36-.45-.79-2.3-.91-2.74-2.34-.51-1.65-.32-14.73.48-15.82.45-.61,1.74-.64,2.16-1.67.56-1.39.11-3.4.55-4.17.13-.23,4.91-2.72,1.35-3.84-5.89-1.85-8.02,2.06-11.31,5.6-.49.52-1.59.74-1.92,1.28-.76,1.25.13,3.19-.63,4.45-.37.62-4.52,3.57-5.07,4.45-.95,1.52.13,4.66-.44,6.54-.54,1.75-2.98,1.2-3.12,3.92-.22,4.16,2.76,3.39,3.23,5.74.3,1.52.26,12.53-.12,13.83-.72,2.44-6.22,2.54-6.22.13v-17.78c0-.38-6.1-3.05.03-5.19.19-1.9-.43-4.33.1-6.12s5.21-4.58,5.89-6.17c.59-1.39-.01-2.84.93-4.18.5-.71,4.44-3.46,4.8-4.06.76-1.26-.13-3.19.63-4.45.37-.62,4.53-3.58,5.07-4.45.59-.95.66-4.15-.27-4.8-.63-.44-8.83-.51-9.78-.18s-1.19,1.78-2.09,2.39c-1.35.93-2.63-.08-3.86.49-.24.11-3.73,3.27-3.86,3.49-.5.88.16,2.69-.23,3.91s-2.51,1.28-2.96,2.76c-.56,1.81.32,4.3-.24,6.12-.45,1.47-2.55,1.57-2.95,2.76-.79,2.32.55,6.82-.22,9.31-.44,1.43-2.26,1.4-2.44,2.15-.88,3.63.75,10.48,0,14.47-.38,2.02-2.76,2.46-3.15,4.47-.34,1.78-.25,10.98.58,12.11.34.46,1.37.69,1.99,1.35.45.47.18,1.89.98,2.12,2.72.76,1.99-1.05,2.72-2.13,1.06-1.59,3.37-.14,4.71-1,.96-.63.65-2.41,1.47-2.64,3.39-.94,1.44,3.54,5.59,3.19,2.15-.18,4.82-4,6.38-5.68.49-.52,1.59-.74,1.92-1.28.71-1.18.02-2.79.41-4.03.36-1.13,2.28-1.3,2.77-2.31.51-1.06.11-2.35.45-3.37.38-1.17,1.72-1.57,2.08-2.36.62-1.36-.17-4.62,1.28-5.07,3.52-1.09,1.72,6.09,2.32,7.83.38,1.1,2.82,1.73,3.07,2.64ZM444.94,389.54c-.52-.54-5.47-.79-6.39-.66-2.08.29-2.3,2.56-3.41,2.95-1.81.63-4.72-.51-6.57.41-1,.5-1.18,2.37-2.32,2.76-1.79.62-5.86-.49-7.07.24-.24.14-.51,1.24-1.06,1.76-1.74,1.63-2.13,2.75-3.03,3.67-1.47,1.49-6.27,4.58-7.5,6.78-.92,1.63-.24,3.22-1.18,4.53-.63.87-5.03,4-5.45,4.71-.6,1.03-.08,2.57-.64,3.81-.36.8-1.76,1.25-2.09,2.36-.56,1.86.1,4.7-.14,6.73l6.78,6.7c2.71.63,6.83-.54,9.3.22,1.43.44,1.55,2.28,2.34,2.74,1.19.71,2.83.02,4.04.41,1.01.33,1.07,1.99,2.1,2.35,1.67.58,4.31-.34,6.13.22,1.47.45,1.57,2.54,2.76,2.95,1.84.63,4.94-.43,6.78.21,1.13.39,1.32,2.26,2.32,2.76,1.84.92,4.74-.21,6.57.41,1.19.41,1.36,2.6,2.77,2.99,1.13.31,3.32-.61,4.93-.6,2.82.03,5.41,1.13,7.87-.05-1.47-4.37,2.68-5.29,3.16-6.68.58-1.68-.32-4.25.23-6.12.4-1.34,2.52-2.09,2.91-3.44.36-1.23.37-9.95,0-11.17-.09-.3-3.75-4.75-4.05-4.85-2.39-.77-1.8,2.55-3.21,3.05-.98.34-9,.23-9.76-.24-.57-.35-.77-1.44-1.27-1.91-1.79-1.68-3.69-2.04-2.44-5.61.49-1.41,4.62-2.29,3.15-6.68,2.82-2.07,7.48,2.14,8.8-2.3-3.95-1.4-2.44-4.58-3.76-6.42-.26-.36-5.98-6.12-6.39-6.31-1.42-.69-3.76.05-4.38-.39-.34-.24-.29-1.73-.86-2.31ZM314.14,394.57c-.61.11-2.26.99-2.38,1.5.19,3.05,5.87,2.77,6.34.6.33-1.53-2.68-2.33-3.96-2.1ZM392.52,416.18c.2-.36,4.55-3.59,5-4.2.94-1.31.26-2.9,1.18-4.53,1.97-3.5,11.35-7.37,7.33-12.34-2.18-.53-2.26,2.26-3.49,2.9-1.14.58-2.55-.66-3.98.23-.22.13-3.2,3.63-3.31,3.87-.54,1.22-.08,2.66-.63,3.82-.4.84-1.84.99-2.27,1.69-.81,1.33-.28,3.05-.71,4.22s-2.1.92-2.43,2.64c-.22,1.14-.33,7.03.97,7.31,2.75.58,1.93-4.85,2.34-5.59ZM309.37,433.99c1.66-1.68,4.58.34,6.87-.42,1.77-.58,1.76-2.6,3.45-2.92,2.42-.47,6.68.64,8.79-.09.26-.09,3.82-3.45,3.95-3.69,1.13-2.01-3.28-2.6-2.89-4.14,6-2.48,1.74-9.99,3.28-14.51.4-1.18,3.42-1.81,3.07-3.27-4.68-4.7-5.38,2.85-9.81,2.23-2.21-.31-2.15-3.25-3.84-3.24-1.49-.04-1.61,1.98-2.49,2.63-1.41,1.05-10.82.64-13.41.62-3.46-.03-5.4-2.19-7.06,2.54-5.28-.04-10.49-1.25-13.58,4.06-2.74,4.69,4.15,4.73,2.28,7.36-.99,1.4-5.74.09-7.54.71-.28.1-4.03,3.85-4.13,4.13-2.34,6.65,8.86,2.42,5.94,9.76-1.66,2.45-5.02-4.9-8.49-1.83-.53,2.07.45,5.22-.19,7.1-.41,1.22-3.3,1.69-3.04,3.21.5,2.86,8.66.19,10.98,1.05l1.49-2.64c1.32-.87,2.88.37,4-.21.99-.51,1.19-2.41,2.33-2.8,2.32-.79,6.81.55,9.3-.22,1.47-.45,1.57-2.55,2.76-2.95,1.71-.59,6.16.43,7.11-.19.35-.22.3-1.73.86-2.3ZM456.35,412.35c-.61.11-2.26.99-2.38,1.5.19,3.05,5.87,2.77,6.34.6.33-1.53-2.68-2.33-3.96-2.1ZM410.35,441.92c-.49-.41-.74-1.7-1.43-2.07l-.93-.27c-3.17,3.11-5.6,5.33-4.06,10.35.4,1.3,3.18,2.18,3.7,3.92l9.73.43c.84.29,4.69,5.57,5.5,5.97.99.49,3.12-1.1,4.51.72.36.47.31,1.77.65,2.02.61.43,2.95-.29,4.39.39.85.41,3.91,4.95,5.21,5.58,3.07,1.49,5.89-.74,4.81-4.18-.55-1.75-2.67-1.01-3.1-3.91-.67-4.56,4.04-2.95,2.6-6.39-3.49-.85-4.86,1.12-6.17-2.9-1.32-.87-2.89.37-4-.21-.92-.47-1.21-2.17-1.91-2.59-1.19-.7-2.81-.02-4.03-.41-.94-.31-1.21-2.01-2.47-2.61-2.13-1.02-4.64.04-6.42-.56-.95-.33-1.22-2.03-2.5-2.63s-2.72.52-4.08-.62ZM356.11,460.61c-4.49-2.85-5.1,1.79-6.68,2.34-4.57,1.59-6.64-4.23-10.05-6.25l-.91-4.8c-4.48-1.38-2.63,2.3-3.32,4.4-.33,1.01-1.99,1.07-2.35,2.1-.58,1.66.33,4.25-.23,6.12-.4,1.34-2.51,2.09-2.91,3.44-.56,1.89.29,4.41-.12,6.09-.18.75-2,.72-2.44,2.15-.56,1.8.32,4.3-.23,6.12-.45,1.47-2.55,1.57-2.95,2.76-.58,1.68.32,4.25-.23,6.12s-5.19,3.52-2.43,7.14c2.36,1.68,2.85-3.47,5.42-2.94,3.01,0,2.73,3.92,5.02,3.2l2.6-3.12c.43,0,4.71,5.87,5.83,6.22,1.82.56,4.47-.37,6.13.22.62.22,4.73,5.75,7.09,1.81,1.8-3-.7-26.9.28-32.11-.31-1.9,2.04-2.56,2.45-3.91.26-.86.32-6.63.04-7.08ZM371.44,524.35v-42.55c0-.41,2.09-1.02,2.44-2.01.8-2.3-.53-6.96.76-9.88.42-.95,1.98-.83,2.4-2.2.56-1.8-.33-4.32.23-6.12.37-1.19,5.16-3.27,2.76-6.8-1.32-1.94-5.23,2.76-5.72,3.84-.85,1.86.1,4.04-.45,5.9-.39,1.29-5.1,7.94-5.46,9.14-.56,1.86.35,4.44-.23,6.12-.37,1.09-1.94,1.23-2.49,1.96-1.82,2.42.3,19.65-.58,24.19-.34,1.77-2.23,1.68-2.51,2.58-.65,2.04,1.96,1.93,2.41,3.23.59,1.74-.13,5.38.1,7.53.35,3.26,2.49,3.33,4.2,5.96.75.36,1.97-.25,2.15-.89ZM400.5,460.67c-1.32-1.35-3.39.02-4.3-.43-1.47-.72-1.43-4.38-5.93-2.79-.49.17-7.13,6.82-7.28,7.32-.87,2.83.47,8.16-.13,11.3-.34,1.79-2.17,2.05-2.51,3.84-.68,3.55.98,12.7-.82,15.38-.3.45-1.4.56-1.77,1.06-.76,1.02-1,18.82-.58,21.01.33,1.74,2.05,2.09,2.4,3.31.68,2.37.2,6.91.89,9.28.34,1.17,1.95,1.62,2.29,2.79.51,1.74-.17,3.93.4,5.97.45,1.63,2.14,1.5,2.59,2.46.59,1.25.02,2.61.9,4.19.21.37,5.66,5.82,6.03,6.03,1.57.88,2.95.31,4.18.9.99.48,1.17,2.37,2.31,2.77.93.32,10.09.33,11.31.09,2.18-.43,2.03-2.67,3.29-3.06s2.84.3,4.02-.42c.84-.51,3.82-4.7,4.45-5.07,1.27-.75,3.38.07,4.9-1.14.18-.15,2.92-2.8,3.03-2.99.7-1.16.06-3.24.91-4.64.44-.71,4.35-3.49,4.8-4.25.61-1.03.1-2.54.65-3.8.65-1.5,5.06-4.24,5.69-5.74.54-1.26.1-2.71.63-3.82.43-.9,2.09-.98,2.25-1.69.23-1.04-.29-2.43.08-3.59s2.28-1.3,2.77-2.31c.54-1.12.09-2.57.63-3.81.45-1.01,2.34-1.71,2.72-3s.42-12.32.12-13.83c-.02-1.6-1.69-1.78-2.47-2.61-1.04-1.11-7.1-7.94-7.66-8.21-1.43-.68-3.78.04-4.39-.39-.34-.24-.3-1.55-.65-2.02-1.39-1.82-3.52-.23-4.51-.72-.76-.38-4.3-5.3-5.07-5.76-1.17-.7-2.81-.03-4.03-.41-1.12-.35-1.3-2.25-2.31-2.77-2.17-1.1-4.25.71-5.91.25-1.42-.4-1.61-2.63-2.77-3-1.22-.39-2.86.28-4.03-.41-.7-.42-.97-2.1-1.89-2.55-1.41-.69-3.76.05-4.38-.39-.35-.24-.29-1.73-.86-2.31ZM326.22,505.12c-1.17-1.15-5.79-1-7.32-.36-.44.18-6.31,6.43-6.54,6.84-.89,1.59-.28,3.13-.91,4.17-.34.55-1.55.71-1.91,1.27-.43.68-.6,9.25-.33,10.35.16.65,1.44.8,1.95,1.35,1.4,1.51,6.5,7.66,7.58,8.31,1.18.7,2.81.02,4.03.41,1.01.32,1.27,2.36,2.92,2.81,1.37.38,3.33-.87,5.31-.26,1.65.51,1.8,3.71,3.92,3.06,1.5-.46.63-3.79,1.26-5.1.44-.91,2.09-.98,2.25-1.69.23-1.04-.29-2.43.08-3.59s2.51-1.28,2.96-2.76c.59-1.93-.47-4.74.43-6.57.41-.84,1.85-.99,2.27-1.69.81-1.33.27-3.06.71-4.22.41-1.1,2-1.1,2.33-2.11.36-1.1-.17-2.59.17-3.64s1.39-.82,1.98-1.19c3.49-2.2-2.34-5.41-2.07-.26-2.11,1.85-2.93-2.21-4.22-2.65-2.19-.75-6.79.32-9.32-.07-.84-.21-.65-3.18-2.65-3.06-1.28.2-1.76,3.93-4.11,3.03-.17-.73-.27-1.88-.79-2.39ZM305.86,531.85c-3.36-3.01-2.76,4.15-3.11,4.76-.22.39-1.86.43-2.3,1.83-.38,1.21-.3,12.07.21,12.89l9.2,9.21c4.54-.85,4.86,2.49,6.33,3.19,1.19.57,2.74,0,3.82.63,1.42.84,1.53,3.89,5.3,2.29l1.78,3,2.37.03c.99-1.24-.06-2.94.19-3.92.35-1.37,2.67-2,3.04-3.96.28-1.46.16-14.34-.26-14.95-1.89-1.39-4.79-.06-6.91-.71-1.47-.45-1.57-2.54-2.76-2.95-1.91-.66-5.57.59-7.2-.42-.37-.23-5.21-5.31-6.13-6.25-1.11-1.15-2.54-3.72-3.58-4.66ZM306.05,569.76c.44-.44-.11-2.14-.66-2.82-1.26-1.58-7.39-6.22-7.92-7.32-1.33-2.79.59-1.73-2.52-5.1-1.62-1.75-3.25-3.57-4.75-5.43l-1.86.43c-1.88,3,3.93,8.45,6.01,10.7.57.62,1.6.49,1.99.83,1.65,1.43,4.45,6.09,6.88,8.05.66.53,2.37,1.11,2.83.66ZM309.41,584.18l-22.15-23.26c-3.49-1.11-1.64,6-2.26,7.79-.37,1.06-1.98,1.04-2.34,2.1-.29.83-.29,5.96,0,6.79.31.89,3.67,2.85,3.04,6.33l14.53,14.21c1.37,3.43-2.36,5.93-5.18,4.06-1.3-.86-.19-3.64-3.52-2.51-2.23,3.57,1.88,5.45,2.35,6.7.43,1.15-.11,2.88.71,4.22.47.77,2.05.8,2.47,2.14.56,1.82-.36,4.44.22,6.13.39,1.14,2.29,1.33,2.76,2.31.7,1.44-.09,3.4.44,4.33.16.28,4.52,3.53,4.98,4.19.94,1.34.33,2.79.93,4.18.18.41,5.87,6.11,6.28,6.4,1.39.98,2.91.29,4.21.91,1.23.59,1.42,3.91,5.25,2.78.28-.08,4.14-3.74,4.3-3.98.92-1.44.29-2.96.89-4.2.44-.9,2.07-.96,2.25-1.7.8-3.27-.87-8.78.52-12.45-2.53-4.22-3.16.81-4.76,1.36-1.81.62-5.15-.21-7.2.1-.88-2.79,1.64-2.84,2.23-3.81.69-1.14-.1-2.79.9-4.18,2.69-3.73,5.38-3.18,8.02-4.68,3.3-1.86,7.91-9.48,11.74-11.75,3.4-9.21-7.91-3.33-10.79-5.79-.65-.55-.82-1.77-1.73-2.08-1.67-.58-4.31.34-6.13-.22-1.48-.45-1.6-2.59-2.76-2.96-1.22-.39-2.85.28-4.03-.41-.7-.41-.99-2.12-1.91-2.59-1.22-.63-2.66.85-4.25-.46ZM317.29,573.13c-1.36-1.01-5.15-1.21-5.5.83-.08.47,3.9,4.49,4.2,4.59,1.66.58,4.24-.32,6.12.23,1.45.43,2.02,2.67,3.95,3.03,1.7.32,4.07-.41,5.6.12.9.31,1.09,1.53,1.73,2.09,1.73,1.5,3.28.27,5.35.29,1.67.01,5.04,1.61,5.93-1,.68-1.99.65-6.8-1.78-7.57-3.95-1.26-4.03,2.53-6.04,2.92-1.2.23-7.07.23-8.27,0-1.68-.32-1.69-2.33-3.44-2.91-2.05-.68-4.73.25-6.41-.58-.8-.4-.92-1.66-1.44-2.04ZM219.49,584.15c7.18-7.53,1.42-3.96-1.69-5.81-.79-.47-.91-2.3-2.34-2.74-2.03-.62-15.39-.36-18.32-.15-1.18.09-2.32.21-3.38.75-.32,1.42.28,2.98-.39,4.37-.4.82-5.65,4.66-5.94,5.49-.58,1.68.33,4.26-.23,6.12-.34,1.15-1.94,1.65-2.29,2.8s-.46,20-.14,21.34c.18.75,2,.72,2.44,2.15.56,1.8-.32,4.3.23,6.12.45,1.48,2.59,1.6,2.96,2.76.39,1.24-.3,2.85.41,4.03,4.88,4.22,9.27,8.93,14.02,13.3.51.47.75,1.65,1.03,1.81.93.53,2.89-.26,4.33.44.87.42,4.19,5.32,5.05,5.74,1.44.7,3.42-.09,4.34.44.34.2.49,1.68,1.37,2.11,1.18.57,2.66.04,3.84.61,1.62.78,2.02,4.5,6.98,2.87.98-2.76-2.03-3.02-2.44-4.23-.33-1,.11-2.29-.41-3.4-.61-1.27-7.74-6.49-8.45-7.74-.57-.99.35-2.99-.45-4.32-.95-1.59-7.2-5.86-8.25-7.62-.61-1.03-.1-2.54-.65-3.8-.44-1-2.34-1.71-2.72-3-.72-2.45.46-6.18-.26-8.63-.44-1.48-2.8-2.12-3.07-3.98-.44-3.04,2.53-3.36,3.07-5.17.73-2.45-.46-6.18.26-8.63.38-1.29,2.27-1.99,2.72-3,.54-1.23.09-2.67.64-3.82.31-.66,6.59-6,7.72-7.19ZM241.42,590.85c1.19-.68,4.21.77,5.27-1.4,2.34-4.79-3.34-5.63-6.86-4.93-2.29.46-1.89,2.44-3.41,2.91-1.81.56-4.44-.36-6.13.22-1.39.48-2.31,4.64-6.68,3.16-.93,1.41-.33,3.72-1.05,4.99-.46.81-4.67,3.81-5.07,4.46-.92,1.49.12,4.63-.45,6.54-.49,1.65-3.09,2.08-3.11,4.57-.02,2.75,2.62,2.54,3.19,3.87.83,1.94-1.09,1.52-2.08,2.23-2.92,2.1,1.51,2.63,2.03,4.17.62,1.8-.55,5,.42,6.57.36.58,1.45.76,1.9,1.27,1.21,1.39,6.29,7.35,7.32,7.92,1.25.7,3.22.07,4.63.92,2.13,1.29,7.42,8.6,9.68,10.8,2.08,2.02,3.28.46,3.14,5.75,1.76,2.2,10.64,9.12,11.44,10.78.7,1.44-.09,3.41.44,4.33.16.28,1.34.52,1.81,1.03,4.37,4.75,9.07,9.14,13.3,14.02,1.63,1.01,5.29-.24,7.2.42,1.3.45,1.11,2.63,3.29,3.06,1.59.32,13.1.21,14.26-.32,1.28-.58,3.65-3.93,4.67-5.17.39-.48,1.4-.65,1.72-1.11,1.34-1.91-.19-5.01,3.77-6.42l-3.17-3.78c1.31-2.76,3.67-.51,5.07-1.25.4-.21,6.03-5.89,6.39-6.36,1.44-1.84.44-2.77-1.6-2.78s-9.11.18-10.83.51-1.78,2.75-3.93,3.07c-1.14.17-2.78-.58-4.28-.55-2.48.05-6.26,1.11-7.93-.32-3.38-2.9-2.41-1.19-5.13-2.49-1.01-.48-1.16-2.37-2.31-2.77-.86-.3-5.91-.3-6.78,0-1.19.41-1.29,2.5-2.76,2.95-.98.3-3.91.31-4.95.1-2.19-.44-2.03-2.66-3.28-3.06s-2.85.28-4.03-.41c-.7-.41-.99-2.12-1.91-2.59-.97-.5-1.86.22-2.78.15-1.88-.14-3.67-4.01-5.01-5.31-.66-.64-2.21-.65-2.69-1.44-.67-1.12-.02-2.84-.4-4.05-.35-1.12-2.29-1.32-2.77-2.31-.67-1.39-.03-2.82-.29-4.02-.16-.74-1.99-.71-2.44-2.15-.56-1.81.36-4.45-.22-6.13-.29-.84-5.51-4.63-5.94-5.49-.92-1.85.21-4.75-.41-6.58-.39-1.16-2.45-1.1-2.48-2.63-.01-1.74,2.4-1.9,2.59-2.68.6-2.46-.81-7.5.3-9.72.47-.94,2.14-1.19,2.55-1.89.6-1.03.09-2.56.64-3.81.19-.42,5.75-6.63,6.15-6.86ZM255.9,600.56c-.76,2.7,0,14.57,0,18.42,0,1.84,4.74,2.05,5.71,0v-18.42c0-.45,2.46-1.36,2.87-2.21.56-1.16.09-2.59.63-3.81.6-1.35,3.8-3.01,2.55-5.7-1.57-3.39-5.5,2.79-7.01,4.42-.47.51-1.57.72-1.9,1.27-.8,1.32.12,3.32-.45,4.32-.18.32-2.16.85-2.41,1.71ZM281.73,590.92c-1.64-1.19-5.97-.96-5.49,1.32.23,1.09,2.65,1.56,3.04,2.71.75,2.2-.49,6.23.23,8.66.81,2.72,8.18,5.9,5.31,10.01-.65.94-4.52.94-5.16,0-.61-1.25.02-2.84-.37-4.07-.36-1.14-2.28-1.3-2.77-2.31-.56-1.16-.09-2.6-.63-3.81-.36-.8-1.76-1.26-2.09-2.36-.51-1.71.76-7.37-1.7-7.65-2.98-.34-.85,5.97-1.91,8.1-.5,1-2.37,1.18-2.76,2.32s-.28,7.98.23,9.1c.42.93,2.12,1.65,2.52,2.56.55,1.25.05,2.78.64,3.8,1.75,3.01,16.35,15.88,19.99,19.38,1.05,1.01,3.23,4.16,4.09,4.79,1.63,1.2,3.63.12,4.68.72.28.16.52,1.34,1.03,1.81,1.73,1.59,9.85,10.04,10.86,10.14,2.96.31,4.39-2.49,3.14-5.09l-16.85-16.8c.61-3.72-3.37-5.53-3.67-6.49-.35-1.1.16-2.54-.19-3.62-.32-.98-1.76-1.06-2.13-1.68-.6-.99-.09-2.55-.64-3.8-.44-1-2.34-1.71-2.72-3-.72-2.45.46-6.18-.26-8.63-.43-1.45-2.66-2.01-3.03-3.96-.46-2.39.54-5.83-.14-8.11-.07-.25-3.03-3.91-3.24-4.06ZM256.11,678.79c-1.41-1.28-.93-2.92-4.31-2.33-.4.07-3.97,3.14-4.19,3.44-.75,1.03-1,6.96-.47,7.87.16.28,4.53,3.56,4.98,4.2.94,1.34.33,2.79.93,4.18.18.41,5.87,6.11,6.28,6.4,1.39.98,2.9.29,4.21.91.61.29,4.25,5.1,4.55,5.28.94.53,2.89-.26,4.33.44.98.47,1.18,2.38,2.31,2.77.91.31,17.3.31,18.21,0,1.14-.39,1.33-2.29,2.31-2.77,1.44-.7,3.41.09,4.33-.44.28-.16.52-1.34,1.03-1.81,2.14-1.96,14.14-11.57,5.79-12.69-1.04-.14-4.13-.17-5.01.13-1.29.44-1.16,2.71-3.3,3.08-4.23.73-3.2-2.89-6.3-3.24-4.22-.47-3.29,2.56-5.23,3.14-3.84,1.14-4.02-2.19-5.25-2.77s-2.65-.05-3.85-.62c-.91-.43-.95-2.01-2.03-2.45-1.29-.52-2.85-.15-3.87-.53-1.09-.41-1.03-1.91-2.13-2.32-3.76-1.41-1.96.67-5.57-2.68-2.58-2.4-5.15-4.81-7.76-7.18Z"/>
  <path d="M139.72,267.44h-25.08c-.26,0-1.32-2.24-2.4-2.74-1.34-.62-2.55.49-3.63-.08-.47-.24-4.01-4.57-4.77-5.44-1.33-1.53-3.42-1.6-2.11-5.3.17-.49,7-7.01,7.5-7.16.25-.07,5.04-.21,5.3-.15,1.3.3,1.6,2.33,2.32,2.78,2.44,1.53,2.94-1.93,2.56-3.83-.37-1.91-2.58-1.72-3.06-3.29-.33-1.09-.31-4.36.01-5.47.38-1.29,2.28-1.99,2.72-3,.81-1.84-.53-4.51,2.63-4.88.26-.03,4.07-.04,4.28,0,.64.09,5.01,3.93,5.17,4.25.51,1.06.11,2.35.44,3.37.38,1.16,1.71,1.56,2.08,2.37.55,1.21.07,2.66.63,3.81.48.99,2.37,1.17,2.76,2.32.99,2.88-.78,9.62.21,12.5.38,1.09,1.94,1.23,2.49,1.96,1.32,1.76.5,5.86-.05,7.99Z"/>
  <path d="M169.41,273.94c.57.59.52,2.07.86,2.31.9.64,4.69-1.01,5.51,1.8.33,1.12.36,10.86.03,11.84l-10.05,10.27c-1.13.56-8.41.56-9.54,0-.61-.3-3.14-3.87-4.32-4.57l-.25-9.6-5.62-4.31c.89-3.44,4.41-2.9,3.29-7.81,1.32-1.04,3.27.21,4.36-.35.99-.51,1.19-2.41,2.33-2.8,1.01-.35,6.36-.3,7.2.22.72.44,1,2.11,1.91,2.58,1.15.59,3.11-.82,4.29.42Z"/>
  <path d="M110.41,289.13c-.14-.23-5.32-1.64-2.45-3.6.81-.56,6.73-.54,7.63.01.72.44.97,2.1,1.89,2.55,1.11.54,2.56.1,3.81.64s3.72,3.61,3.87,5.05c.56,5.42-2.94,2.52-5.13,3.82-.79.47-.91,2.3-2.34,2.74-1.93.59-9.54.72-10.23-1.6-1.32-4.4,5.47-5.62,2.95-9.62Z"/>
  <path d="M356.07,268.2c.34.58.4,12.37.15,13.4-.18.73-1.8.77-2.25,1.7-.57,1.18-.04,2.65-.61,3.84-.13.26-3.88,4.03-4.14,4.17-1.09.56-2.19-.5-3.16-.07-1.15.51-1.7,2.56-2.04,2.75-.95.53-2.89-.26-4.33.44-.98.47-1.18,2.38-2.31,2.77-2.32.8-7-.59-9.32.21-1.13.39-1.31,2.25-2.31,2.76-2.25,1.14-4.44-.56-5.91-.22-1.79.41-3.77,6.79-7.78,2.45-.73-.97.11-1.32.68-1.91,1.3-1.35,3.3-2.88,4.75-4.14.51-.45.7-1.55,1.27-1.9,1.65-1.02,6.93.13,9.21-.31,1.7-.33,1.72-2.4,3.47-2.94s3.66,1.06,6.22-.03c1.1-.47,1.15-2.02,2.03-2.44,1.19-.57,2.65-.05,3.85-.62s4.63-5.96,6.66-6.67l.29-11.74c-1.95-4.47-8.23-4.89-5.11-10.85l4.23.3c1.37,1.1.53,3.14,1.2,4.52.23.47,4.37,3.95,5.27,4.57Z"/>
  <path d="M415.07,477.49c1.1-1.3.04-3.2,3.26-2.28,1.38,7.26-2.61,16.35,3.25,22.4-2.15,1.58-4.21,3.63-2.56,6.45l2.52.22c-.23-2.36,2.45-2.73,2.92-3.73,1.04-2.19,2.41-7.04,3.16-9.56,3.3-2.09,3.89-6.23,8.49-3.71.24.38.24,5.72.08,6.56-.33,1.73-2.03,2.08-2.4,3.32-.99,3.31,1.81,6.85-3.31,8.13l.63,1.92,4.82.9-.09,5.19c-1.81,1.2-3.49-.11-5.05-.1-3.47.03-5.39,2.19-7.05-2.54-1.88-.29-5.69.64-7.2-.29-.25-.15-3.76-4.16-3.82-4.44-.8-4.06,1.33-3.35,2.43-5.2,2.16-3.65,0-10.69-5.02-7.42-.79,1.37-.21,3.41-.91,4.66-.58,1.05-4.16,3.89-5.65,3.81-4.99-.28-2.49-9.16-2.4-12.57.06-2.34-1.71-2.76-3.35-1.38-.36.3-5.25,5.63-5.44,5.98-.88,1.58-.28,3.08-.92,4.16-.36.61-3.02,2.13-3.48,3.51-5.72,2.03-6.26-4.01-4.09-7.89,1.79-3.2,8.82-7.56,10.46-10.49.88-1.57.31-2.93.91-4.19s5.9-4.69,6.66-6.65c7.79-2.38,4.71,7.86,4.6,12.27-.12,4.75,5,.28,5.89-1.79,1.47-3.45-.2-1.83,2.69-5.24Z"/>
  <path d="M407.12,509.93c.23.39,1.86.43,2.29,1.83.34,1.11.33,8.13-.01,9.28l-9.21,10.01c-1.6,1.11-3.28-.11-4.95-.1-1.78.02-3.61.97-5.22.29-.42-.18-6.01-6.17-6.19-6.59-.44-1-1.22-8.7-.86-9.74l9.8-9.88c3.24-2.05,9.42.56,13.18.02l.95.95c.37,1.18-.29,3.05.21,3.92ZM394.74,514.07c-.4-.35-.9-.54-1.41-.68-2.91,1.47-.88,5.39-1.68,7.69-.31.88-3.82,2.12-2.4,4.18.43.63,6.25.2,7.14-.07,1.39-.42,1.43-2.08,1.82-2.3.98-.55,5.17.59,5.55-1.79.45-2.82-4.09-1.4-5.22-2.1-.9-.56-2.84-4.06-3.82-4.93Z"/>
  <path d="M424.9,536.6c.33.56,2.82.67,2.45,2.95l-4.17,3.57c-.32,0-4.55-3.97-4.66-4.27-.77-2.19,1.74-7.3-1.13-7.81-2.08-.37-7.22,11.39-12.15,9.03-6.58-3.15,9.1-13.22,10.31-16.06,1.36-3.2-.58-2.02,2.66-5.28,1.11-1.11.64-2.26,3.07-2.39,1.78-.1,3.12.43,3.47,2.3.63,3.36-.8,16.34.15,17.96Z"/>
  <path d="M352.84,176.16c1.55,1.86.32,4.99.93,7.01.43,1.41,3.83,1.81,2.34,4.16-.85,1.33-5.25-.38-7.1.2-2.51.79-4.96,8.49-9.96,6.24-.97,2.77,2.02,3.02,2.44,4.22.54,1.55.33,5.91-.97,7.25-3.88,2.55-9.78-7.86-13.22-9.56-.9-1.84.16-4.63-.43-6.57-.44-1.43-2.29-1.55-2.74-2.34-.59-1.03-.1-2.55-.64-3.8-.44-1-2.39-1.76-2.74-3.01-1.13-3.98,2.45-4.07,2.95-5.69.6-1.94-.42-4.58.39-6.6.65-.91,3.33-.47,4.66-1.01,1.04-.42,1.06-1.71,1.67-2.16,1.14-.84,11.01-.95,12.63-.47,2.18.65,4.35,5.58,6.85,6.49.31,4.12,1.28,3.63,2.94,5.62ZM335.13,169.5c-.91.53-2.89-.26-4.34.44-.24.12-3.55,3.71-3.66,3.96-2.02,4.72-.3,10.21,3.41,13.48l1.83-.61,12.28-12.49c1.66-1.77-3.14-6.74-4.11-7.08-4.3-1.52-4.52,1.79-5.42,2.31ZM335.89,190.58c3.78,2.18,11.75-6.12,8.28-8.6-2.11-1.18-2.65,1.47-3.82,2.58-1.93,1.83-5,3.31-4.46,6.01Z"/>
  <path d="M359.38,204.24c.98,3.42,3.75-1.38,4.08-1.64,1.58-1.22,4.44-.39,4.81,1.64.21,1.16.21,7.89-.1,8.79-.45,1.31-3.12,1.46-3.06,3.29-.9,2.62.95,9.49.52,11.29-1.2,5.06-8.06-4.31-6.25-7.18-3.09-.91-3.12,2.71-5.54,3.07-4,.6-2.88-3.16-3.67-4.97-.44-1-2.34-1.71-2.72-3-.55-1.87.35-4.47-.23-6.12-.37-1.06-1.98-1.04-2.34-2.1-.3-.86-.27-4.58-.14-5.66.12-.96,2.7-4.19,3.48-4.77,1.63-1.2,3.61-.12,4.68-.72,1.32-.74,2.07-5.78,6.48-1.45v9.53ZM350.49,202.65c-1.32,6.56,3.93,8.54,3.08,1.04l-3.08-1.04ZM362.46,209.1c-2.98-1.87-2.58.8-3.72,1.49s-2.99-.1-4.2.88c-1.4,1.14-2.21,5.64.64,5.76,1.97-2.75,3.05-3.43,6.64-3.24l.63-4.89Z"/>
  <path d="M382.87,246.48c-2.04.52-5.73,1.27-7.63.33-1.02-.51-1.19-2.41-2.31-2.77-1.22-.39-2.84.29-4.03-.42-.62-.37-3.87-4.78-3.87-5.72,0-1.37,3.05-4.81,4.15-5.44,1.51-.85,3.97-.32,4.53-1.19.74-1.16-.43-3.85,1.54-4.81,2.31-.38,5.87-1.05,7.62.64v19.37Z"/>
  <path d="M449.31,427.59c.94-.32,7.58-.31,8.77-.09,3.75.7,1.9,7.54,2.12,10.34l-4.76,4.76c-2.35.04-9.39.99-10.25-1.58-.33-.99-.29-7.58.02-8.66.1-.32,3.8-4.69,4.1-4.79Z"/>
  <path d="M431.53,412.99c3.97-1.39,4.46,1.73,7.25,3.34.79,1.06.95,8.78.49,10.11-.1.3-4.24,4.16-4.66,4.24-.94.19-2.67.16-3.49-.33-.23-.14-3.38-3.88-3.49-4.13-.55-1.25-.04-2.8-.64-3.81-.53-.9-3.31-1.02-1.92-3.18,1.82-.54,5.48-5.89,6.46-6.24Z"/>
  <path d="M424.98,403.14c.66.66,1.85.72,2.21,1.91.34,1.09.34,6.29-.21,7.18-.14.23-3.71,3.42-4.07,3.54-1.59.54-5.15.53-6.59-.32-.22-.13-3.18-3.63-3.29-3.86-2.02-4.36,2.27-4.66,2.75-6.12.9-2.79-1.71-4.22,2.95-4.66s3.79-.13,6.25,2.33Z"/>
  <path d="M416.09,420.93c1.96,1.96,3.36,1.99,2.01,5.95-1.42.38-2.84,3.19-3.47,3.48-1.21.57-2.79,0-3.83.62-.88.53-1.2,3.55-3.81,1.91-.31-.19-3.05-3.9-3.16-4.46-.29-1.5-.25-7.91.56-8.94,1.09-1.38,9.21-1.3,10.59-.29.45.32.64,1.26,1.11,1.73Z"/>
  <path d="M330.18,181.69l-.55-4.66c2.86-3.79,4.25,3.07,2.48,4.38l-1.93.28Z"/>
</svg>