<?xml version="1.0" encoding="UTF-8"?>
<svg id="Layer_1" xmlns="http://www.w3.org/2000/svg" version="1.1" viewBox="0 0 48 48">
  <!-- Generator: Adobe Illustrator 29.8.3, SVG Export Plug-In . SVG Version: 2.1.1 Build 3)  -->
  <defs>
    <style>
      .st0 {
        fill: #231f20;
      }
    </style>
  </defs>
  <path class="st0" d="M29.28,29.88l-2.98,2.99c-1.4,1.4-3.54,1.53-4.78.28s-1.11-3.38.28-4.78l2.98-2.99,4.49,4.49ZM20.9,27.87c-1.63,1.63-1.63,4.28,0,5.91s4.28,1.63,5.91,0l6.96-6.98c1.63-1.63,1.63-4.28,0-5.91s-4.28-1.63-5.91,0l-6.96,6.98Z"/>
  <path class="st0" d="M18.72,18.12l2.98-2.99c1.4-1.4,3.54-1.53,4.78-.28s1.11,3.38-.28,4.78l-2.98,2.99-4.49-4.49ZM27.1,20.13c1.63-1.63,1.63-4.28,0-5.91s-4.28-1.63-5.91,0l-6.96,6.98c-1.63,1.63-1.63,4.28,0,5.91s4.28,1.63,5.91,0l6.96-6.98Z"/>
</svg>